<svg xmlns="http://www.w3.org/2000/svg" width="100%" height="100%" viewBox="0 0 595.3 841.9">
    <path fill-rule="evenodd" clip-rule="evenodd" fill="#E2CAB4" stroke-width="1" stroke="#E2CAB4" d="M334.7 325.3l18.8 6.5 1.9-21.5z"/>
    <path fill-rule="evenodd" clip-rule="evenodd" fill="#C5B1A7" stroke-width="1" stroke="#C5B1A7" d="M271 326.1V370l31.5-48.4z"/>
    <path fill-rule="evenodd" clip-rule="evenodd" fill="#E0CCC0" stroke-width="1" stroke="#E0CCC0" d="M302.5 321.6L271 370l63.7-44.7z"/>
    <path fill-rule="evenodd" clip-rule="evenodd" fill="#D4C0B4" stroke-width="1" stroke="#D4C0B4" d="M334.7 325.3l15.7 31.6 3.1-25.1z"/>
    <path fill-rule="evenodd" clip-rule="evenodd" fill="#CAB3A3" stroke-width="1" stroke="#CAB3A3" d="M353.5 331.8l-3.1 25.1 22 2.3z"/>
    <path fill-rule="evenodd" clip-rule="evenodd" fill="#BFA798" stroke-width="1" stroke="#BFA798" d="M372.4 359.2l-22-2.3 23.2 29.5z"/>
    <path fill-rule="evenodd" clip-rule="evenodd" fill="#BFA798" stroke-width="1" stroke="#BFA798" d="M373.5 386.7c-.1.3 0 .2 0 0zm-1.1-27.5l1.2 27.3c1.4-3.4 6.3-11.8 6.3-11.8l-7.5-15.5zm1.2 27.2v0z"/>
    <path fill-rule="evenodd" clip-rule="evenodd" fill="#C4A68D" stroke-width="1" stroke="#C4A68D" d="M373.6 386.4l11.2 25.8 8.5-35.4z"/>
    <path fill-rule="evenodd" clip-rule="evenodd" fill="#BD9A7E" stroke-width="1" stroke="#BD9A7E" d="M379.9 374.7l-6.3 11.7 19.7-9.6z"/>
    <path fill-rule="evenodd" clip-rule="evenodd" fill="#D4B69B" stroke-width="1" stroke="#D4B69B" d="M393.3 376.8l-8.5 35.4 22.5 5.2z"/>
    <path fill-rule="evenodd" clip-rule="evenodd" fill="#C1917A" stroke-width="1" stroke="#C1917A" d="M384.8 412.2l18.8 41.4 3.7-36.2z"/>
    <path fill-rule="evenodd" clip-rule="evenodd" fill="#C5A48B" stroke-width="1" stroke="#C5A48B" d="M384.8 412.2l-1.5 31.7 20.3 9.7z"/>
    <path fill-rule="evenodd" clip-rule="evenodd" fill="#EFECE4" stroke-width="1" stroke="#EFECE4" d="M360.6 370.4l-19 19.7 32-3.7z"/>
    <path fill-rule="evenodd" clip-rule="evenodd" fill="#E1D4C9" stroke-width="1" stroke="#E1D4C9" d="M341.6 390.1l5.5 32.7 26.5-36.4z"/>
    <path fill-rule="evenodd" clip-rule="evenodd" fill="#502A30" stroke-width="1" stroke="#502A30" d="M347.1 422.8l9.2 16.2 6.1-39z"/>
    <path fill-rule="evenodd" clip-rule="evenodd" fill="#6A4B55" stroke-width="1" stroke="#6A4B55" d="M373.6 386.4L362.4 400l22.4 12.2z"/>
    <path fill-rule="evenodd" clip-rule="evenodd" fill="#3E2029" stroke-width="1" stroke="#3E2029" d="M356.3 439l27 4.9 1.5-31.7z"/>
    <path fill-rule="evenodd" clip-rule="evenodd" fill="#553D49" stroke-width="1" stroke="#553D49" d="M362.4 400l-6.1 39 28.5-26.8z"/>
    <path fill-rule="evenodd" clip-rule="evenodd" fill="#CBB1A1" stroke-width="1" stroke="#CBB1A1" d="M325.7 363.7l15.9 26.4 19-19.7z"/>
    <path fill-rule="evenodd" clip-rule="evenodd" fill="#B89F94" stroke-width="1" stroke="#B89F94" d="M350.4 356.9l-24.7 6.8 34.9 6.7z"/>
    <path fill-rule="evenodd" clip-rule="evenodd" fill="#CAB5A9" stroke-width="1" stroke="#CAB5A9" d="M334.7 325.3l-9 38.4 24.7-6.8z"/>
    <path fill-rule="evenodd" clip-rule="evenodd" fill="#D6C3B7" stroke-width="1" stroke="#D6C3B7" d="M271 370l54.7-6.3 9-38.4z"/>
    <path fill-rule="evenodd" clip-rule="evenodd" fill="#CDB4A6" stroke-width="1" stroke="#CDB4A6" d="M271 370l.6 62.8 54.1-69.1z"/>
    <path fill-rule="evenodd" clip-rule="evenodd" fill="#BC9880" stroke-width="1" stroke="#BC9880" d="M325.7 363.7l-54.1 69.1 70-42.7z"/>
    <path fill-rule="evenodd" clip-rule="evenodd" fill="#AC7A54" stroke-width="1" stroke="#AC7A54" d="M341.6 390.1l-70 42.7 75.5-10z"/>
    <path fill-rule="evenodd" clip-rule="evenodd" fill="#814D3A" stroke-width="1" stroke="#814D3A" d="M347.1 422.8l-30.6 29.5 39.8-13.3z"/>
    <path fill-rule="evenodd" clip-rule="evenodd" fill="#B07C51" stroke-width="1" stroke="#B07C51" d="M271.6 432.8l26 3.2 49.5-13.2z"/>
    <path fill-rule="evenodd" clip-rule="evenodd" fill="#935C3C" stroke-width="1" stroke="#935C3C" d="M297.6 436l18.9 16.3 30.6-29.5z"/>
    <path fill-rule="evenodd" clip-rule="evenodd" fill="#A0827D" stroke-width="1" stroke="#A0827D" d="M356.3 439l22.3 25.7 4.7-20.8z"/>
    <path fill-rule="evenodd" clip-rule="evenodd" fill="#C3A388" stroke-width="1" stroke="#C3A388" d="M383.3 443.9l-4.7 20.8 25-11.1z"/>
    <path fill-rule="evenodd" clip-rule="evenodd" fill="#A37D68" stroke-width="1" stroke="#A37D68" d="M403.6 453.6l-25 11.1 49.4 33.4z"/>
    <path fill-rule="evenodd" clip-rule="evenodd" fill="#9E7861" stroke-width="1" stroke="#9E7861" d="M356.3 439l-20.7 44.9 43-19.2z"/>
    <path fill-rule="evenodd" clip-rule="evenodd" fill="#814F3B" stroke-width="1" stroke="#814F3B" d="M316.5 452.3l19.1 31.6 20.7-44.9z"/>
    <path fill-rule="evenodd" clip-rule="evenodd" fill="#9E7B66" stroke-width="1" stroke="#9E7B66" d="M378.6 464.7l6 48 43.4-14.6z"/>
    <path fill-rule="evenodd" clip-rule="evenodd" fill="#9D7860" stroke-width="1" stroke="#9D7860" d="M378.6 464.7l-43 19.2 49 28.8z"/>
    <path fill-rule="evenodd" clip-rule="evenodd" fill="#A77F65" stroke-width="1" stroke="#A77F65" d="M384.6 512.7l6.6 40.1 36.8-54.7z"/>
    <path fill-rule="evenodd" clip-rule="evenodd" fill="#9E8176" stroke-width="1" stroke="#9E8176" d="M335.6 483.9l-1.3 26 50.3 2.8z"/>
    <path fill-rule="evenodd" clip-rule="evenodd" fill="#CDB495" stroke-width="1" stroke="#CDB495" d="M384.6 512.7l-50.3-2.8 56.9 42.9z"/>
    <path fill-rule="evenodd" clip-rule="evenodd" fill="#D0B698" stroke-width="1" stroke="#D0B698" d="M356.8 545.6L346.1 572l45.1-19.2z"/>
    <path fill-rule="evenodd" clip-rule="evenodd" fill="#D0B798" stroke-width="1" stroke="#D0B798" d="M334.3 509.9l22.5 35.7 34.4 7.2z"/>
    <path fill-rule="evenodd" clip-rule="evenodd" fill="#B69980" stroke-width="1" stroke="#B69980" d="M301.5 562.3l6.3 37.6 38.3-27.9z"/>
    <path fill-rule="evenodd" clip-rule="evenodd" fill="#B7987C" stroke-width="1" stroke="#B7987C" d="M301.5 562.3L271 601.1l36.8-1.2z"/>
    <path fill-rule="evenodd" clip-rule="evenodd" fill="#A47F6A" stroke-width="1" stroke="#A47F6A" d="M270.7 566l.3 35.1 30.5-38.8z"/>
    <path fill-rule="evenodd" clip-rule="evenodd" fill="#9C7E6E" stroke-width="1" stroke="#9C7E6E" d="M271.6 432.8l.1 29.3 25.7 10.1z"/>
    <path fill-rule="evenodd" clip-rule="evenodd" fill="#DDC29E" stroke-width="1" stroke="#DDC29E" d="M271.6 432.8l25.8 39.4.2-36.2z"/>
    <path fill-rule="evenodd" clip-rule="evenodd" fill="#DCB78D" stroke-width="1" stroke="#DCB78D" d="M297.6 436l-.2 36.2 19.1-19.9z"/>
    <path fill-rule="evenodd" clip-rule="evenodd" fill="#D4B088" stroke-width="1" stroke="#D4B088" d="M316.5 452.3l-19.1 19.9 38.2 11.7z"/>
    <path fill-rule="evenodd" clip-rule="evenodd" fill="#87584D" stroke-width="1" stroke="#87584D" d="M271.7 462.1l-.7 13.1 26.4-3z"/>
    <path fill-rule="evenodd" clip-rule="evenodd" fill="#55282C" stroke-width="1" stroke="#55282C" d="M271 475.2v15.7l26.4-18.7z"/>
    <path fill-rule="evenodd" clip-rule="evenodd" fill="#46282F" stroke-width="1" stroke="#46282F" d="M271 490.9l.7 16.3 19.9-14.9z"/>
    <path fill-rule="evenodd" clip-rule="evenodd" fill="#4B262D" stroke-width="1" stroke="#4B262D" d="M271 490.9l20.6 1.4 5.8-20.1z"/>
    <path fill-rule="evenodd" clip-rule="evenodd" fill="#CEAF92" stroke-width="1" stroke="#CEAF92" d="M297.4 472.2l-5.8 20.1 44-8.4z"/>
    <path fill-rule="evenodd" clip-rule="evenodd" fill="#D6BEA3" stroke-width="1" stroke="#D6BEA3" d="M291.6 492.3l42.7 17.6 1.3-26z"/>
    <path fill-rule="evenodd" clip-rule="evenodd" fill="#784B48" stroke-width="1" stroke="#784B48" d="M271.5 548.5l30 13.8 44.6 9.7z"/>
    <path fill-rule="evenodd" clip-rule="evenodd" fill="#5F272B" stroke-width="1" stroke="#5F272B" d="M271.5 548.5l-.8 17.5 30.8-3.7z"/>
    <path fill-rule="evenodd" clip-rule="evenodd" fill="#906C64" stroke-width="1" stroke="#906C64" d="M297.6 520l-26.1 28.5 74.6 23.5z"/>
    <path fill-rule="evenodd" clip-rule="evenodd" fill="#CDBEB2" stroke-width="1" stroke="#CDBEB2" d="M297.6 520l48.5 52 10.7-26.4z"/>
    <path fill-rule="evenodd" clip-rule="evenodd" fill="#E2DACE" stroke-width="1" stroke="#E2DACE" d="M334.3 509.9L297.6 520l59.2 25.6z"/>
    <path fill-rule="evenodd" clip-rule="evenodd" fill="#D3B99D" stroke-width="1" stroke="#D3B99D" d="M291.6 492.3l6 27.7 36.7-10.1z"/>
    <path fill-rule="evenodd" clip-rule="evenodd" fill="#A78372" stroke-width="1" stroke="#A78372" d="M291.6 492.3l-19.9 14.9 25.9 12.8z"/>
    <path fill-rule="evenodd" clip-rule="evenodd" fill="#753C31" stroke-width="1" stroke="#753C31" d="M271.7 507.2l-.2 41.3 26.1-28.5z"/>
    <path fill-rule="evenodd" clip-rule="evenodd" fill="#D1AB8F" stroke-width="1" stroke="#D1AB8F" d="M358 291.7l25 12 2.2-52z"/>
    <path fill-rule="evenodd" clip-rule="evenodd" fill="#CE9E7D" stroke-width="1" stroke="#CE9E7D" d="M358 291.7l-4.5 40.1 29.5-28.1z"/>
    <path fill-rule="evenodd" clip-rule="evenodd" fill="#9B644F" stroke-width="1" stroke="#9B644F" d="M385.2 252.5l-2.2 51.2 15.5-20.8zM398.5 282.9L383 303.7l24.7 15.3z"/>
    <path fill-rule="evenodd" clip-rule="evenodd" fill="#AE7C62" stroke-width="1" stroke="#AE7C62" d="M407.7 319L383 303.7l28.5 29.3z"/>
    <path fill-rule="evenodd" clip-rule="evenodd" fill="#AF7B56" stroke-width="1" stroke="#AF7B56" d="M353.5 331.8l19.6 26.6 9.9-54.7z"/>
    <path fill-rule="evenodd" clip-rule="evenodd" fill="#B48B73" stroke-width="1" stroke="#B48B73" d="M372.4 358.4l7.5 16.3 13.4 2.1z"/>
    <path fill-rule="evenodd" clip-rule="evenodd" fill="#BD8665" stroke-width="1" stroke="#BD8665" d="M383 303.7l10.3 73.1 18.2-43.8z"/>
    <path fill-rule="evenodd" clip-rule="evenodd" fill="#B17E5D" stroke-width="1" stroke="#B17E5D" d="M383 303.7l-9.9 55.5 20.2 17.6z"/>
    <path fill-rule="evenodd" clip-rule="evenodd" fill="#EFECE4" stroke-width="1" stroke="#EFECE4" d="M271.9 548.5l3.4 23.5h16v-19.2l-19.4-4.3"/>
    <path fill-rule="evenodd" clip-rule="evenodd" fill="#C5B1A7" stroke-width="1" stroke="#C5B1A7" d="M240.9 321.6l31.6 48.4v-43.9z"/>
    <path fill-rule="evenodd" clip-rule="evenodd" fill="#E0CCC0" stroke-width="1" stroke="#E0CCC0" d="M240.9 321.6l-32.1 3.7 63.7 44.7z"/>
    <path fill-rule="evenodd" clip-rule="evenodd" fill="#D4C0B4" stroke-width="1" stroke="#D4C0B4" d="M189.9 331.8l3.1 25.1 15.8-31.6z"/>
    <path fill-rule="evenodd" clip-rule="evenodd" fill="#CAB3A3" stroke-width="1" stroke="#CAB3A3" d="M189.9 331.8l-19.1 27.1 22.2-2z"/>
    <path fill-rule="evenodd" clip-rule="evenodd" fill="#BFA798" stroke-width="1" stroke="#BFA798" d="M170.8 358.9l2.8 35.4 19.4-37.4zM173.6 394.4v-.1.1zm.1.1c0 .2.1.3 0 0zm-10.2-19.8s8.6 16.2 10 19.6l-2.8-35.4-7.2 15.8z"/>
    <path fill-rule="evenodd" clip-rule="evenodd" fill="#C4A68D" stroke-width="1" stroke="#C4A68D" d="M150.1 376.8l8.5 35.4 15-17.9z"/>
    <path fill-rule="evenodd" clip-rule="evenodd" fill="#BD9A7E" stroke-width="1" stroke="#BD9A7E" d="M163.5 374.7l-13.4 2.1 23.5 17.5z"/>
    <path fill-rule="evenodd" clip-rule="evenodd" fill="#D4B69B" stroke-width="1" stroke="#D4B69B" d="M150.1 376.8l-14 40.6 22.5-5.2z"/>
    <path fill-rule="evenodd" clip-rule="evenodd" fill="#C1917A" stroke-width="1" stroke="#C1917A" d="M136.1 417.4l3.8 36.2 18.7-41.4z"/>
    <path fill-rule="evenodd" clip-rule="evenodd" fill="#C5A48B" stroke-width="1" stroke="#C5A48B" d="M158.6 412.2l-18.7 41.4 20.3-14.6z"/>
    <path fill-rule="evenodd" clip-rule="evenodd" fill="#EFECE4" stroke-width="1" stroke="#EFECE4" d="M182.8 370.4l-9.2 23.9 29.6 10.3z"/>
    <path fill-rule="evenodd" clip-rule="evenodd" fill="#E1D4C9" stroke-width="1" stroke="#E1D4C9" d="M173.6 394.3l7.8 6.1 21.8 4.2z"/>
    <path fill-rule="evenodd" clip-rule="evenodd" fill="#502A30" stroke-width="1" stroke="#502A30" d="M181.4 400.4l5.7 38.6 12.2-11z"/>
    <path fill-rule="evenodd" clip-rule="evenodd" fill="#6A4B55" stroke-width="1" stroke="#6A4B55" d="M173.6 394.3l-15 17.9 22.8-11.8z"/>
    <path fill-rule="evenodd" clip-rule="evenodd" fill="#3E2029" stroke-width="1" stroke="#3E2029" d="M158.6 412.2l1.6 26.8h26.9z"/>
    <path fill-rule="evenodd" clip-rule="evenodd" fill="#553D49" stroke-width="1" stroke="#553D49" d="M181.4 400.4l-22.8 11.8 28.5 26.8z"/>
    <path fill-rule="evenodd" clip-rule="evenodd" fill="#CBB1A1" stroke-width="1" stroke="#CBB1A1" d="M182.8 370.4l20.4 34.2 14.6-40.9z"/>
    <path fill-rule="evenodd" clip-rule="evenodd" fill="#B89F94" stroke-width="1" stroke="#B89F94" d="M193 356.9l-10.2 13.5 35-6.7z"/>
    <path fill-rule="evenodd" clip-rule="evenodd" fill="#CAB5A9" stroke-width="1" stroke="#CAB5A9" d="M208.8 325.3L193 356.9l24.8 6.8z"/>
    <path fill-rule="evenodd" clip-rule="evenodd" fill="#CAB3A3" stroke-width="1" stroke="#CAB3A3" d="M208.8 325.3l9 38.4 54.7 6.3z"/>
    <path fill-rule="evenodd" clip-rule="evenodd" fill="#D6C3B7" stroke-width="1" stroke="#D6C3B7" d="M217.8 363.7l54 69.1.7-62.8z"/>
    <path fill-rule="evenodd" clip-rule="evenodd" fill="#BC9880" stroke-width="1" stroke="#BC9880" d="M217.8 363.7l-14.6 40.9 68.6 28.2z"/>
    <path fill-rule="evenodd" clip-rule="evenodd" fill="#AC7A54" stroke-width="1" stroke="#AC7A54" d="M203.2 404.6l-3.9 23.4 72.5 4.8z"/>
    <path fill-rule="evenodd" clip-rule="evenodd" fill="#814D3A" stroke-width="1" stroke="#814D3A" d="M199.3 428l-12.2 11 39.8 13.3z"/>
    <path fill-rule="evenodd" clip-rule="evenodd" fill="#B07C51" stroke-width="1" stroke="#B07C51" d="M199.3 428l46.5 8 26-3.2z"/>
    <path fill-rule="evenodd" clip-rule="evenodd" fill="#935C3C" stroke-width="1" stroke="#935C3C" d="M199.3 428l27.6 24.3 18.9-16.3z"/>
    <path fill-rule="evenodd" clip-rule="evenodd" fill="#A0827D" stroke-width="1" stroke="#A0827D" d="M160.2 439l4.6 25.7 22.3-25.7z"/>
    <path fill-rule="evenodd" clip-rule="evenodd" fill="#C3A388" stroke-width="1" stroke="#C3A388" d="M160.2 439l-20.3 14.6 24.9 11.1z"/>
    <path fill-rule="evenodd" clip-rule="evenodd" fill="#A37D68" stroke-width="1" stroke="#A37D68" d="M139.9 453.6l-24.4 44.5 49.3-33.4z"/>
    <path fill-rule="evenodd" clip-rule="evenodd" fill="#9E7861" stroke-width="1" stroke="#9E7861" d="M187.1 439l-22.3 25.7 43.1 19.2z"/>
    <path fill-rule="evenodd" clip-rule="evenodd" fill="#814F3B" stroke-width="1" stroke="#814F3B" d="M187.1 439l20.8 44.9 19-31.6z"/>
    <path fill-rule="evenodd" clip-rule="evenodd" fill="#9E7B66" stroke-width="1" stroke="#9E7B66" d="M115.5 498.1l43.4 14.6 5.9-48z"/>
    <path fill-rule="evenodd" clip-rule="evenodd" fill="#9D7860" stroke-width="1" stroke="#9D7860" d="M164.8 464.7l-5.9 48 49-28.8z"/>
    <path fill-rule="evenodd" clip-rule="evenodd" fill="#A77F65" stroke-width="1" stroke="#A77F65" d="M115.5 498.1l36.8 54.7 6.6-40.1z"/>
    <path fill-rule="evenodd" clip-rule="evenodd" fill="#9E8176" stroke-width="1" stroke="#9E8176" d="M207.9 483.9l-49 28.8 50.2-2.8z"/>
    <path fill-rule="evenodd" clip-rule="evenodd" fill="#CDB495" stroke-width="1" stroke="#CDB495" d="M158.9 512.7l-6.6 40.1 56.8-42.9z"/>
    <path fill-rule="evenodd" clip-rule="evenodd" fill="#D0B698" stroke-width="1" stroke="#D0B698" d="M186.7 545.6l-34.4 7.2 45 19.2z"/>
    <path fill-rule="evenodd" clip-rule="evenodd" fill="#D0B798" stroke-width="1" stroke="#D0B798" d="M152.3 552.8l34.4-7.2 22.4-35.7z"/>
    <path fill-rule="evenodd" clip-rule="evenodd" fill="#B69980" stroke-width="1" stroke="#B69980" d="M197.3 572l38.4 27.9 6.2-37.6z"/>
    <path fill-rule="evenodd" clip-rule="evenodd" fill="#B7987C" stroke-width="1" stroke="#B7987C" d="M241.9 562.3l-6.2 37.6 36.8 1.2z"/>
    <path fill-rule="evenodd" clip-rule="evenodd" fill="#A47F6A" stroke-width="1" stroke="#A47F6A" d="M241.9 562.3l30.6 38.8.2-35.1z"/>
    <path fill-rule="evenodd" clip-rule="evenodd" fill="#D6C3B7" stroke-width="1" stroke="#D6C3B7" d="M246 472.2l25.7-10.1.1-29.3z"/>
    <path fill-rule="evenodd" clip-rule="evenodd" fill="#DDC29E" stroke-width="1" stroke="#DDC29E" d="M245.8 436l.2 36.2 25.8-39.4z"/>
    <path fill-rule="evenodd" clip-rule="evenodd" fill="#DCB78D" stroke-width="1" stroke="#DCB78D" d="M245.8 436l-18.9 16.3 19.1 19.9z"/>
    <path fill-rule="evenodd" clip-rule="evenodd" fill="#D4B088" stroke-width="1" stroke="#D4B088" d="M226.9 452.3l-19 31.6 38.1-11.7z"/>
    <path fill-rule="evenodd" clip-rule="evenodd" fill="#87584D" stroke-width="1" stroke="#87584D" d="M271.7 462.1L246 472.2l26.5 3z"/>
    <path fill-rule="evenodd" clip-rule="evenodd" fill="#55282C" stroke-width="1" stroke="#55282C" d="M246 472.2l26.5 18.7v-15.7z"/>
    <path fill-rule="evenodd" clip-rule="evenodd" fill="#46282F" stroke-width="1" stroke="#46282F" d="M251.8 492.3l19.9 14.9.8-16.3z"/>
    <path fill-rule="evenodd" clip-rule="evenodd" fill="#4B262D" stroke-width="1" stroke="#4B262D" d="M246 472.2l5.8 20.1 20.7-1.4z"/>
    <path fill-rule="evenodd" clip-rule="evenodd" fill="#CEAF92" stroke-width="1" stroke="#CEAF92" d="M246 472.2l-38.1 11.7 43.9 8.4z"/>
    <path fill-rule="evenodd" clip-rule="evenodd" fill="#D6BEA3" stroke-width="1" stroke="#D6BEA3" d="M207.9 483.9l1.2 26 42.7-17.6z"/>
    <path fill-rule="evenodd" clip-rule="evenodd" fill="#784B48" stroke-width="1" stroke="#784B48" d="M197.3 572l44.6-9.7 30-13.8z"/>
    <path fill-rule="evenodd" clip-rule="evenodd" fill="#5F272B" stroke-width="1" stroke="#5F272B" d="M271.9 548.5l-30 13.8 30.8 3.7z"/>
    <path fill-rule="evenodd" clip-rule="evenodd" fill="#906C64" stroke-width="1" stroke="#906C64" d="M249.7 520l-52.4 52 74.6-23.5z"/>
    <path fill-rule="evenodd" clip-rule="evenodd" fill="#CDBEB2" stroke-width="1" stroke="#CDBEB2" d="M186.7 545.6l10.6 26.4 52.4-52z"/>
    <path fill-rule="evenodd" clip-rule="evenodd" fill="#E2DACE" stroke-width="1" stroke="#E2DACE" d="M209.1 509.9l-22.4 35.7 63-25.6z"/>
    <path fill-rule="evenodd" clip-rule="evenodd" fill="#D3B99D" stroke-width="1" stroke="#D3B99D" d="M209.1 509.9l40.6 10.1 2.1-27.7z"/>
    <path fill-rule="evenodd" clip-rule="evenodd" fill="#A78372" stroke-width="1" stroke="#A78372" d="M251.8 492.3l-2.1 27.7 22-12.8z"/>
    <path fill-rule="evenodd" clip-rule="evenodd" fill="#814F3B" stroke-width="1" stroke="#814F3B" d="M271.7 507.2l-22 12.8 22.2 28.5z"/>
    <path fill-rule="evenodd" clip-rule="evenodd" fill="#D1AB8F" stroke-width="1" stroke="#D1AB8F" d="M158.3 251.7l2.1 52 24.9-12.2z"/>
    <path fill-rule="evenodd" clip-rule="evenodd" fill="#CE9E7D" stroke-width="1" stroke="#CE9E7D" d="M185.3 291.5l-24.9 12.2 29.5 28.1z"/>
    <path fill-rule="evenodd" clip-rule="evenodd" fill="#9B644F" stroke-width="1" stroke="#9B644F" d="M158.3 252.5L145 282.9l15.4 20.8zM145 282.9l-9.3 36.1 24.7-15.3z"/>
    <path fill-rule="evenodd" clip-rule="evenodd" fill="#AE7C62" stroke-width="1" stroke="#AE7C62" d="M135.7 319l-3.7 14 28.4-29.3z"/>
    <path fill-rule="evenodd" clip-rule="evenodd" fill="#AF7B56" stroke-width="1" stroke="#AF7B56" d="M160.4 303.7l10.4 55.2 19.1-27.1z"/>
    <path fill-rule="evenodd" clip-rule="evenodd" fill="#B48B73" stroke-width="1" stroke="#B48B73" d="M150.1 376.8l13.4-2.1 7.3-15.8z"/>
    <path fill-rule="evenodd" clip-rule="evenodd" fill="#BD8665" stroke-width="1" stroke="#BD8665" d="M132 333l18.1 43.8 10.3-73.1z"/>
    <path fill-rule="evenodd" clip-rule="evenodd" fill="#B17E5D" stroke-width="1" stroke="#B17E5D" d="M160.4 303.7l-10.3 73.1 20.7-17.9z"/>
    <path fill-rule="evenodd" clip-rule="evenodd" fill="#CBB1A1" stroke-width="1" stroke="#CBB1A1" d="M203.2 404.6l-3.9 23.4-17.9-27.6z"/>
    <path fill-rule="evenodd" clip-rule="evenodd" fill="#EFECE4" stroke-width="1" stroke="#EFECE4" d="M271.8 547.7l-3.3 23.6h-16v-19.2l19.3-4.4"/>
    <path fill="#F15622" stroke-width="1" stroke="#F15622" d="M389.7 332.1l38.3 65.7-42.8-21.4 4.5-44.3"/>
    <path fill="#E45925" stroke-width="1" stroke="#E45925" d="M411.5 333l-21.8-.9 38.3 65.7zM398.5 282.9l13 50.1 13.5-11.4z"/>
    <path fill="#C43127" stroke-width="1" stroke="#C43127" d="M428 397.8l5-52.2-21.5-12.6z"/>
    <path fill="#D44227" stroke-width="1" stroke="#D44227" d="M425 321.6l8 24-21.5-12.6z"/>
    <path fill="#E75E24" stroke-width="1" stroke="#E75E24" d="M259.2 354l-26.9-5.6 34.9 36.3-8-30.7"/>
    <path fill="#F36D21" stroke-width="1" stroke="#F36D21" d="M326.6 406.7L259.2 354l8 30.7z"/>
    <path fill="#F15B22" stroke-width="1" stroke="#F15B22" d="M326.6 406.7l-.9-43-66.5-9.7z"/>
    <path fill="#F36D21" stroke-width="1" stroke="#F36D21" d="M325.7 363.7l59.5 12.7-58.6 30.3-.9-43"/>
    <path fill="#F15B22" stroke-width="1" stroke="#F15B22" d="M410.9 406.7l-25.7-30.3-58.6 30.3z"/>
    <path fill="#F36D21" stroke-width="1" stroke="#F36D21" d="M428 397.8l-42.8-21.4 25.7 30.3z"/>
    <path fill="#E25926" stroke-width="1" stroke="#E25926" d="M447.5 417.8l-36.6-11.1 17.1-8.9z"/>
    <path fill="#C43127" stroke-width="1" stroke="#C43127" d="M473.6 451.6l-62.7-44.9 36.6 11.1z"/>
    <path fill="#D44227" stroke-width="1" stroke="#D44227" d="M186.1 336.6l15.5-49.1 57.6 66.5-73.1-13.6"/>
    <path fill="#ED4524" stroke-width="1" stroke="#ED4524" d="M235.1 252.5l-33.5 35 57.6 66.5z"/>
    <path fill="#F15622" stroke-width="1" stroke="#F15622" d="M259.3 246.6l-.1 107.4-24.1-101.5z"/>
    <path fill="#F36D21" stroke-width="1" stroke="#F36D21" d="M291.3 259l-14.6 18.5-17.4-30.9z"/>
    <path fill="#F15B22" stroke-width="1" stroke="#F15B22" d="M322.8 247.5l-63.5-.9 32 12.4z"/>
    <path fill="#F05023" stroke-width="1" stroke="#F05023" d="M385.2 376.4l-31.7-44.6-94.3 22.2 17.5-76.5-17.4-30.9-.1 107.4z"/>
    <path fill="#F15B22" stroke-width="1" stroke="#F15B22" d="M353.5 331.8l-76.8-54.3-17.5 76.5z"/>
    <path fill="#F36B21" stroke-width="1" stroke="#F36B21" d="M374.6 267.5l-52.2-20-31.1 11.5z"/>
    <path fill="#F15622" stroke-width="1" stroke="#F15622" d="M353.5 331.8l4.5-40.1-81.3-14.2z"/>
    <path fill="#F36D21" stroke-width="1" stroke="#F36D21" d="M374.6 267.5l-97.9 10 81.3 14.2z"/>
    <path fill="#F15B22" stroke-width="1" stroke="#F15B22" d="M291.3 259l-14.6 18.5 97.9-10zM389.7 332.1l-36.2-.3 31.7 44.6z"/>
    <g fill-rule="evenodd" clip-rule="evenodd">
        <path fill="#A5D6DD" stroke-width="1" stroke="#A5D6DD" d="M186.4 438.7c-1.1 0-12 29.7-12 29.7l-6 11.6-8.3 14.2 5.3 19.2 20.3 11.1 25.5-14.9-2.3-22.5-9.8-14.1-12.7-34.3z"/>
        <path fill="#8FD1D6" stroke-width="1" stroke="#8FD1D6" d="M174.4 468.3l16.9 31.7-31.2-5.9z"/>
        <path fill="#7FC8CD" stroke-width="1" stroke="#7FC8CD" d="M191.3 500l-5.7 24.5-20.2-11.2z"/>
        <path fill="#89D2D8" stroke-width="1" stroke="#89D2D8" d="M191.3 500l19.9 9.6-25.6 14.9z"/>
        <path fill="#80CFD6" stroke-width="1" stroke="#80CFD6" d="M191.3 500l-31.2-5.9 5.3 19.2z"/>
        <path fill="#90D5DE" stroke-width="1" stroke="#90D5DE" d="M191.3 500l17.6-13 2.3 22.6z"/>
        <path fill="#B1E1E8" stroke-width="1" stroke="#B1E1E8" d="M191.3 500l7.9-27 9.7 14z"/>
        <path fill="#A7DDE3" stroke-width="1" stroke="#A7DDE3" d="M191.3 500l-16.9-31.7 24.8 4.7z"/>
        <path fill="#B1E1E8" stroke-width="1" stroke="#B1E1E8" d="M199.2 473l-24.8-4.7 12-29.6z"/>
    </g>

    <g class="button play-again">
        <path fill="#ED4524" stroke-width="1" stroke="#ED4524" d="M457.3 691H88.7l-5-4 368.6-90.5 5 4z"/>
        <path fill="#F36D21" stroke-width="1" stroke="#F36D21" d="M83.7 596.5h368.6V687H83.7z"/>
        <text transform="translate(145 670)" fill="#FFF" stroke-width="1" stroke="#FFF" font-size="80">
            TRY AGAIN
        </text>
    </g>

    <g>
        <text class="headline" transform="translate(68 256)" fill="#FFF" stroke-width="1" stroke="#FFF" font-size="120">
            YOU FAILED!
        </text>
    </g>
</svg>
