<svg xmlns="http://www.w3.org/2000/svg" width="100%" height="100%" viewBox="0 0 595.3 841.9">
    <path fill-rule="evenodd" clip-rule="evenodd" fill="#E2CAB4" stroke-width="1" stroke="#E2CAB4" d="M187.5 316.7l2 22.2 19.5-6.6z"/>
    <path fill-rule="evenodd" clip-rule="evenodd" fill="#C5B1A7" stroke-width="1" stroke="#C5B1A7" d="M242.2 328.4l31.9 50.1v-45.4z"/>
    <path fill-rule="evenodd" clip-rule="evenodd" fill="#E0CCC0" stroke-width="1" stroke="#E0CCC0" d="M242.2 328.4l-33.2 3.9 65.1 46.2z"/>
    <path fill-rule="evenodd" clip-rule="evenodd" fill="#D4C0B4" stroke-width="1" stroke="#D4C0B4" d="M189.5 338.9l3.2 26 16.3-32.6z"/>
    <path fill-rule="evenodd" clip-rule="evenodd" fill="#CAB3A3" stroke-width="1" stroke="#CAB3A3" d="M189.5 338.9L170 367.3l22.7-2.4z"/>
    <path fill-rule="evenodd" clip-rule="evenodd" fill="#BFA798" stroke-width="1" stroke="#BFA798" d="M170 367.3l-1.3 28.2 24-30.6z"/>
    <path fill-rule="evenodd" clip-rule="evenodd" fill="#BFA798" stroke-width="1" stroke="#BFA798" d="M168.7 395.6c0-.1 0-.1 0 0 0-.1 0-.1 0 0zm-6.5-12.3s5 8.6 6.5 12.2l1.3-28.2-7.8 16zm6.7 12.6s0-.1-.1-.1c0 0 0 .1.1.1z"/>
    <path fill-rule="evenodd" clip-rule="evenodd" fill="#C4A68D" stroke-width="1" stroke="#C4A68D" d="M148.3 385.5l8.8 36.6 11.6-26.6z"/>
    <path fill-rule="evenodd" clip-rule="evenodd" fill="#BD9A7E" stroke-width="1" stroke="#BD9A7E" d="M162.2 383.3l-13.9 2.2 20.4 10z"/>
    <path fill-rule="evenodd" clip-rule="evenodd" fill="#D4B69B" stroke-width="1" stroke="#D4B69B" d="M148.3 385.5l-14.5 42 23.3-5.4z"/>
    <path fill-rule="evenodd" clip-rule="evenodd" fill="#C1917A" stroke-width="1" stroke="#C1917A" d="M133.8 427.5l3.9 37.5 19.4-42.9z"/>
    <path fill-rule="evenodd" clip-rule="evenodd" fill="#C5A48B" stroke-width="1" stroke="#C5A48B" d="M157.1 422.1L137.7 465l21-10.1z"/>
    <path fill-rule="evenodd" clip-rule="evenodd" fill="#EFECE4" stroke-width="1" stroke="#EFECE4" d="M182.1 378.9l-13.4 16.6 33.1 3.8z"/>
    <path fill-rule="evenodd" clip-rule="evenodd" fill="#E1D4C9" stroke-width="1" stroke="#E1D4C9" d="M168.7 395.5l27.4 37.6 5.7-33.8z"/>
    <path fill-rule="evenodd" clip-rule="evenodd" fill="#502A30" stroke-width="1" stroke="#502A30" d="M180.3 409.5l6.3 40.4 9.5-16.8z"/>
    <path fill-rule="evenodd" clip-rule="evenodd" fill="#6A4B55" stroke-width="1" stroke="#6A4B55" d="M168.7 395.5l-11.6 26.6 23.2-12.6z"/>
    <path fill-rule="evenodd" clip-rule="evenodd" fill="#3E2029" stroke-width="1" stroke="#3E2029" d="M157.1 422.1l1.6 32.8 27.9-5z"/>
    <path fill-rule="evenodd" clip-rule="evenodd" fill="#553D49" stroke-width="1" stroke="#553D49" d="M180.3 409.5l-23.2 12.6 29.5 27.8z"/>
    <path fill-rule="evenodd" clip-rule="evenodd" fill="#CBB1A1" stroke-width="1" stroke="#CBB1A1" d="M182.1 378.9l19.7 20.4 16.5-27.3z"/>
    <path fill-rule="evenodd" clip-rule="evenodd" fill="#B89F94" stroke-width="1" stroke="#B89F94" d="M192.7 364.9l-10.6 14 36.2-6.9z"/>
    <path fill-rule="evenodd" clip-rule="evenodd" fill="#CAB5A9" stroke-width="1" stroke="#CAB5A9" d="M209 332.3l-16.3 32.6 25.6 7.1z"/>
    <path fill-rule="evenodd" clip-rule="evenodd" fill="#D6C3B7" stroke-width="1" stroke="#D6C3B7" d="M209 332.3l9.3 39.7 55.8 6.5z"/>
    <path fill-rule="evenodd" clip-rule="evenodd" fill="#CDB4A6" stroke-width="1" stroke="#CDB4A6" d="M274.1 378.5l-55.8-6.5 56 55.5z"/>
    <path fill-rule="evenodd" clip-rule="evenodd" fill="#BC9880" stroke-width="1" stroke="#BC9880" d="M218.3 372l-16.5 27.3 72.5 28.2z"/>
    <path fill-rule="evenodd" clip-rule="evenodd" fill="#AC7A54" stroke-width="1" stroke="#AC7A54" d="M201.8 399.3l-5.7 33.8 78.2-5.6z"/>
    <path fill-rule="evenodd" clip-rule="evenodd" fill="#814D3A" stroke-width="1" stroke="#814D3A" d="M196.1 433.1l-9.5 16.8 41.2 13.7z"/>
    <path fill-rule="evenodd" clip-rule="evenodd" fill="#B07C51" stroke-width="1" stroke="#B07C51" d="M196.1 433.1l51.2 13.6 27-19.2z"/>
    <path fill-rule="evenodd" clip-rule="evenodd" fill="#935C3C" stroke-width="1" stroke="#935C3C" d="M196.1 433.1l31.7 30.5 19.5-16.9z"/>
    <path fill-rule="evenodd" clip-rule="evenodd" fill="#A0827D" stroke-width="1" stroke="#A0827D" d="M158.7 454.9l4.8 21.5 23.1-26.5z"/>
    <path fill-rule="evenodd" clip-rule="evenodd" fill="#C3A388" stroke-width="1" stroke="#C3A388" d="M158.7 454.9l-21 10.1 25.8 11.4z"/>
    <path fill-rule="evenodd" clip-rule="evenodd" fill="#A37D68" stroke-width="1" stroke="#A37D68" d="M137.7 465l-22.1 29.6 47.9-18.2z"/>
    <path fill-rule="evenodd" clip-rule="evenodd" fill="#9E7861" stroke-width="1" stroke="#9E7861" d="M186.6 449.9l-23.1 26.5 34.4 8.7z"/>
    <path fill-rule="evenodd" clip-rule="evenodd" fill="#814F3B" stroke-width="1" stroke="#814F3B" d="M186.6 449.9l11.3 35.2 29.9-21.5z"/>
    <path fill-rule="evenodd" clip-rule="evenodd" fill="#9E7B66" stroke-width="1" stroke="#9E7B66" d="M115.6 494.6l41.8 31.5 6.1-49.7z"/>
    <path fill-rule="evenodd" clip-rule="evenodd" fill="#9D7860" stroke-width="1" stroke="#9D7860" d="M163.5 476.4l-6.1 49.7 40.5-41z"/>
    <path fill-rule="evenodd" clip-rule="evenodd" fill="#A77F65" stroke-width="1" stroke="#A77F65" d="M115.6 494.6l33.9 67.1 7.9-35.6z"/>
    <path fill-rule="evenodd" clip-rule="evenodd" fill="#9E8176" stroke-width="1" stroke="#9E8176" d="M157.4 526.1l37.9-27.6 2.6-13.4z"/>
    <path fill-rule="evenodd" clip-rule="evenodd" fill="#CDB495" stroke-width="1" stroke="#CDB495" d="M157.4 526.1l-7.9 35.6 45.8-63.2z"/>
    <path fill-rule="evenodd" clip-rule="evenodd" fill="#D0B698" stroke-width="1" stroke="#D0B698" d="M185.3 521.8l-35.8 39.9 47.7 25.8z"/>
    <path fill-rule="evenodd" clip-rule="evenodd" fill="#D0B798" stroke-width="1" stroke="#D0B798" d="M149.5 561.7l35.8-39.9 10-23.3z"/>
    <path fill-rule="evenodd" clip-rule="evenodd" fill="#B69980" stroke-width="1" stroke="#B69980" d="M209 544.9l-11.8 42.6 39.6 28.8z"/>
    <path fill-rule="evenodd" clip-rule="evenodd" fill="#B7987C" stroke-width="1" stroke="#B7987C" d="M209 544.9l27.8 71.4 37.3 1.2z"/>
    <path fill-rule="evenodd" clip-rule="evenodd" fill="#A47F6A" stroke-width="1" stroke="#A47F6A" d="M273.9 593.9l-64.9-49 65.1 72.6z"/>
    <path fill-rule="evenodd" clip-rule="evenodd" fill="#B69E8E" stroke-width="1" stroke="#B69E8E" d="M185.3 521.8l11.9 65.7 11.8-42.6z"/>
    <path fill-rule="evenodd" clip-rule="evenodd" fill="#9C7E6E" stroke-width="1" stroke="#9C7E6E" d="M247.5 484.2l26.6-10.5.2-46.2z"/>
    <path fill-rule="evenodd" clip-rule="evenodd" fill="#DDC29E" stroke-width="1" stroke="#DDC29E" d="M247.3 446.7l.2 37.5 26.8-56.7z"/>
    <path fill-rule="evenodd" clip-rule="evenodd" fill="#DCB78D" stroke-width="1" stroke="#DCB78D" d="M247.3 446.7l-19.5 16.9 19.7 20.6z"/>
    <path fill-rule="evenodd" clip-rule="evenodd" fill="#D4B088" stroke-width="1" stroke="#D4B088" d="M227.8 463.6l-29.9 21.5 49.6-.9z"/>
    <path fill-rule="evenodd" clip-rule="evenodd" fill="#87584D" stroke-width="1" stroke="#87584D" d="M247.5 484.2l26.6 3.1v-13.6z"/>
    <path fill-rule="evenodd" clip-rule="evenodd" fill="#55282C" stroke-width="1" stroke="#55282C" d="M247.5 484.2l26.6 19.3v-16.2z"/>
    <path fill-rule="evenodd" clip-rule="evenodd" fill="#46282F" stroke-width="1" stroke="#46282F" d="M253.5 504.9l20.6 15.5v-16.9z"/>
    <path fill-rule="evenodd" clip-rule="evenodd" fill="#4B262D" stroke-width="1" stroke="#4B262D" d="M247.5 484.2l6 20.7 20.6-1.4z"/>
    <path fill-rule="evenodd" clip-rule="evenodd" fill="#CEAF92" stroke-width="1" stroke="#CEAF92" d="M247.5 484.2l-49.6.9 55.6 19.8z"/>
    <path fill-rule="evenodd" clip-rule="evenodd" fill="#D6BEA3" stroke-width="1" stroke="#D6BEA3" d="M197.9 485.1l-2.6 13.4 58.2 6.4z"/>
    <path fill-rule="evenodd" clip-rule="evenodd" fill="#5F272B" stroke-width="1" stroke="#5F272B" d="M209 544.9l64.9 49 .4-24.6z"/>
    <path fill-rule="evenodd" clip-rule="evenodd" fill="#906C64" stroke-width="1" stroke="#906C64" d="M253.5 538.7l-44.5 6.2 65.3 24.4z"/>
    <path fill-rule="evenodd" clip-rule="evenodd" fill="#CDBEB2" stroke-width="1" stroke="#CDBEB2" d="M185.3 521.8l23.7 23.1 44.5-6.2z"/>
    <path fill-rule="evenodd" clip-rule="evenodd" fill="#E2DACE" stroke-width="1" stroke="#E2DACE" d="M195.3 498.5l-10 23.3 68.2 16.9z"/>
    <path fill-rule="evenodd" clip-rule="evenodd" fill="#D3B99D" stroke-width="1" stroke="#D3B99D" d="M195.3 498.5l58.2 40.2v-33.8z"/>
    <path fill-rule="evenodd" clip-rule="evenodd" fill="#A78372" stroke-width="1" stroke="#A78372" d="M253.5 504.9v33.8l20.6-18.3z"/>
    <path fill-rule="evenodd" clip-rule="evenodd" fill="#753C31" stroke-width="1" stroke="#753C31" d="M274.1 520.4l-20.6 18.3 20.8 30.6z"/>
    <path fill-rule="evenodd" clip-rule="evenodd" fill="#D1AB8F" stroke-width="1" stroke="#D1AB8F" d="M156.8 256.1l2.2 53.8 25.8-12.4z"/>
    <path fill-rule="evenodd" clip-rule="evenodd" fill="#CE9E7D" stroke-width="1" stroke="#CE9E7D" d="M184.8 297.5L159 309.9l30.5 29z"/>
    <path fill-rule="evenodd" clip-rule="evenodd" fill="#9B644F" stroke-width="1" stroke="#9B644F" d="M156.8 256.9L143 288.4l16 21.5z"/>
    <path fill-rule="evenodd" clip-rule="evenodd" fill="#9B644F" stroke-width="1" stroke="#9B644F" d="M143 288.4l-9.6 37.3 25.6-15.8z"/>
    <path fill-rule="evenodd" clip-rule="evenodd" fill="#AE7C62" stroke-width="1" stroke="#AE7C62" d="M133.4 325.7l-3.8 14.5 29.4-30.3z"/>
    <path fill-rule="evenodd" clip-rule="evenodd" fill="#AF7B56" stroke-width="1" stroke="#AF7B56" d="M159 309.9l10.2 56.6 20.3-27.6z"/>
    <path fill-rule="evenodd" clip-rule="evenodd" fill="#B48B73" stroke-width="1" stroke="#B48B73" d="M148.3 385.5l13.9-2.2 7.8-16.8z"/>
    <path fill-rule="evenodd" clip-rule="evenodd" fill="#BD8665" stroke-width="1" stroke="#BD8665" d="M129.6 340.2l18.7 45.3 10.7-75.6z"/>
    <path fill-rule="evenodd" clip-rule="evenodd" fill="#B17E5D" stroke-width="1" stroke="#B17E5D" d="M159 309.9l-10.7 75.6 20.9-18.2z"/>
    <g>
        <path fill-rule="evenodd" clip-rule="evenodd" fill="#C5B1A7" stroke-width="1" stroke="#C5B1A7" d="M274.1 333.1v45.4l31.9-50.1z"/>
        <path fill-rule="evenodd" clip-rule="evenodd" fill="#E0CCC0" stroke-width="1" stroke="#E0CCC0" d="M306 328.4l-31.9 50.1 65.1-46.2z"/>
        <path fill-rule="evenodd" clip-rule="evenodd" fill="#D4C0B4" stroke-width="1" stroke="#D4C0B4" d="M339.2 332.3l16.3 32.6 3.2-26z"/>
        <path fill-rule="evenodd" clip-rule="evenodd" fill="#CAB3A3" stroke-width="1" stroke="#CAB3A3" d="M358.7 338.9l-3.2 26 23 2.1z"/>
        <path fill-rule="evenodd" clip-rule="evenodd" fill="#BFA798" stroke-width="1" stroke="#BFA798" d="M378.5 367l-23-2.1 23.1 31.5z"/>
        <path fill-rule="evenodd" clip-rule="evenodd" fill="#BFA798" stroke-width="1" stroke="#BFA798" d="M378.6 396.4c0 .1 0 .1-.1.2 0-.1.1-.2.1-.2zm-.1-29.4l.1 29.4c1.5-3.5 7.4-13 7.4-13l-7.5-16.4z"/>
        <path fill-rule="evenodd" clip-rule="evenodd" fill="#C4A68D" stroke-width="1" stroke="#C4A68D" d="M378.6 396.4l12.5 25.7 8.8-36.6z"/>
        <path fill-rule="evenodd" clip-rule="evenodd" fill="#BD9A7E" stroke-width="1" stroke="#BD9A7E" d="M386 383.3l-7.4 13.1 21.3-10.9z"/>
        <path fill-rule="evenodd" clip-rule="evenodd" fill="#D4B69B" stroke-width="1" stroke="#D4B69B" d="M399.9 385.5l-8.8 36.6 19.4 2.1z"/>
        <path fill-rule="evenodd" clip-rule="evenodd" fill="#C1917A" stroke-width="1" stroke="#C1917A" d="M391.1 422.1l15.7 36.1 3.7-34z"/>
        <path fill-rule="evenodd" clip-rule="evenodd" fill="#C5A48B" stroke-width="1" stroke="#C5A48B" d="M391.1 422.1l-1.6 27.8 17.3 8.3z"/>
        <path fill-rule="evenodd" clip-rule="evenodd" fill="#EFECE4" stroke-width="1" stroke="#EFECE4" d="M366.1 378.9L345 414.3l33.6-17.9z"/>
        <path fill-rule="evenodd" clip-rule="evenodd" fill="#E1D4C9" stroke-width="1" stroke="#E1D4C9" d="M345 414.3l22.6-4.3 11-13.6z"/>
        <path fill-rule="evenodd" clip-rule="evenodd" fill="#502A30" stroke-width="1" stroke="#502A30" d="M349 438.5l12.6 11.4 6-39.9z"/>
        <path fill-rule="evenodd" clip-rule="evenodd" fill="#6A4B55" stroke-width="1" stroke="#6A4B55" d="M378.6 396.4l-11 13.6 23.5 12.1z"/>
        <path fill-rule="evenodd" clip-rule="evenodd" fill="#3E2029" stroke-width="1" stroke="#3E2029" d="M361.6 449.9h27.9l1.6-27.8z"/>
        <path fill-rule="evenodd" clip-rule="evenodd" fill="#553D49" stroke-width="1" stroke="#553D49" d="M367.6 410l-6 39.9 29.5-27.8z"/>
        <path fill-rule="evenodd" clip-rule="evenodd" fill="#CBB1A1" stroke-width="1" stroke="#CBB1A1" d="M329.9 372l15.1 42.3 21.1-35.4z"/>
        <path fill-rule="evenodd" clip-rule="evenodd" fill="#B89F94" stroke-width="1" stroke="#B89F94" d="M355.5 364.9l-25.6 7.1 36.2 6.9z"/>
        <path fill-rule="evenodd" clip-rule="evenodd" fill="#CAB5A9" stroke-width="1" stroke="#CAB5A9" d="M339.2 332.3l-9.3 39.7 25.6-7.1z"/>
        <path fill-rule="evenodd" clip-rule="evenodd" fill="#CAB3A3" stroke-width="1" stroke="#CAB3A3" d="M274.1 378.5l55.8-6.5 9.3-39.7z"/>
        <path fill-rule="evenodd" clip-rule="evenodd" fill="#D6C3B7" stroke-width="1" stroke="#D6C3B7" d="M274.1 378.5l.2 49 55.6-55.5z"/>
        <path fill-rule="evenodd" clip-rule="evenodd" fill="#BC9880" stroke-width="1" stroke="#BC9880" d="M329.9 372l-55.6 55.5 70.7-13.2z"/>
        <path fill-rule="evenodd" clip-rule="evenodd" fill="#AC7A54" stroke-width="1" stroke="#AC7A54" d="M345 414.3l-70.7 13.2 74.7 11z"/>
        <path fill-rule="evenodd" clip-rule="evenodd" fill="#814D3A" stroke-width="1" stroke="#814D3A" d="M349 438.5l-28.6 25.1 41.2-13.7z"/>
        <path fill-rule="evenodd" clip-rule="evenodd" fill="#B07C51" stroke-width="1" stroke="#B07C51" d="M274.3 427.5l26.6 19.2 48.1-8.2z"/>
        <path fill-rule="evenodd" clip-rule="evenodd" fill="#935C3C" stroke-width="1" stroke="#935C3C" d="M300.9 446.7l19.5 16.9 28.6-25.1z"/>
        <path fill-rule="evenodd" clip-rule="evenodd" fill="#A0827D" stroke-width="1" stroke="#A0827D" d="M361.6 449.9l23.1 26.5 4.8-26.5z"/>
        <path fill-rule="evenodd" clip-rule="evenodd" fill="#C3A388" stroke-width="1" stroke="#C3A388" d="M389.5 449.9l-4.8 26.5 22.1-18.2z"/>
        <path fill-rule="evenodd" clip-rule="evenodd" fill="#A37D68" stroke-width="1" stroke="#A37D68" d="M406.8 458.2l-22.1 18.2 44.1 24.9z"/>
        <path fill-rule="evenodd" clip-rule="evenodd" fill="#9E7861" stroke-width="1" stroke="#9E7861" d="M361.6 449.9l-21.4 46.4 44.5-19.9z"/>
        <path fill-rule="evenodd" clip-rule="evenodd" fill="#814F3B" stroke-width="1" stroke="#814F3B" d="M320.4 463.6l19.8 32.7 21.4-46.4z"/>
        <path fill-rule="evenodd" clip-rule="evenodd" fill="#9E7B66" stroke-width="1" stroke="#9E7B66" d="M384.7 476.4l6.1 49.7 38-24.8z"/>
        <path fill-rule="evenodd" clip-rule="evenodd" fill="#9D7860" stroke-width="1" stroke="#9D7860" d="M384.7 476.4l-44.5 19.9 50.6 29.8z"/>
        <path fill-rule="evenodd" clip-rule="evenodd" fill="#A77F65" stroke-width="1" stroke="#A77F65" d="M390.8 526.1l6.9 41.5 31.1-66.3z"/>
        <path fill-rule="evenodd" clip-rule="evenodd" fill="#9E8176" stroke-width="1" stroke="#9E8176" d="M340.2 496.3l.8 21.2 49.8 8.6z"/>
        <path fill-rule="evenodd" clip-rule="evenodd" fill="#CDB495" stroke-width="1" stroke="#CDB495" d="M390.8 526.1l-49.8-8.6 56.7 50.1z"/>
        <path fill-rule="evenodd" clip-rule="evenodd" fill="#D0B698" stroke-width="1" stroke="#D0B698" d="M364.8 553.7L351 587.5l46.7-19.9z"/>
        <path fill-rule="evenodd" clip-rule="evenodd" fill="#D0B798" stroke-width="1" stroke="#D0B798" d="M341 517.5l23.8 36.2 32.9 13.9z"/>
        <path fill-rule="evenodd" clip-rule="evenodd" fill="#B69980" stroke-width="1" stroke="#B69980" d="M331.8 554.1l-20.4 62.2 39.6-28.8z"/>
        <path fill-rule="evenodd" clip-rule="evenodd" fill="#B7987C" stroke-width="1" stroke="#B7987C" d="M274.1 617.5l37.3-1.2 20.4-62.2z"/>
        <path fill-rule="evenodd" clip-rule="evenodd" fill="#A47F6A" stroke-width="1" stroke="#A47F6A" d="M273.9 593.9l.2 23.6 57.7-63.4z"/>
        <path fill-rule="evenodd" clip-rule="evenodd" fill="#B69E8E" stroke-width="1" stroke="#B69E8E" d="M331.8 554.1l19.2 33.4 13.8-33.8z"/>
        <path fill-rule="evenodd" clip-rule="evenodd" fill="#D6C3B7" stroke-width="1" stroke="#D6C3B7" d="M274.3 427.5l-.2 46.2 26.6 10.5z"/>
        <path fill-rule="evenodd" clip-rule="evenodd" fill="#DDC29E" stroke-width="1" stroke="#DDC29E" d="M274.3 427.5l26.4 56.7.2-37.5z"/>
        <path fill-rule="evenodd" clip-rule="evenodd" fill="#DCB78D" stroke-width="1" stroke="#DCB78D" d="M300.9 446.7l-.2 37.5 19.7-20.6z"/>
        <path fill-rule="evenodd" clip-rule="evenodd" fill="#D4B088" stroke-width="1" stroke="#D4B088" d="M320.4 463.6l-19.7 20.6 39.5 12.1z"/>
        <path fill-rule="evenodd" clip-rule="evenodd" fill="#87584D" stroke-width="1" stroke="#87584D" d="M274.1 473.7v13.6l26.6-3.1z"/>
        <path fill-rule="evenodd" clip-rule="evenodd" fill="#55282C" stroke-width="1" stroke="#55282C" d="M274.1 487.3v16.2l26.6-19.3z"/>
        <path fill-rule="evenodd" clip-rule="evenodd" fill="#46282F" stroke-width="1" stroke="#46282F" d="M274.1 503.5v16.9l20.6-15.5z"/>
        <path fill-rule="evenodd" clip-rule="evenodd" fill="#4B262D" stroke-width="1" stroke="#4B262D" d="M274.1 503.5l20.6 1.4 6-20.7z"/>
        <path fill-rule="evenodd" clip-rule="evenodd" fill="#CEAF92" stroke-width="1" stroke="#CEAF92" d="M300.7 484.2l-6 20.7 45.5-8.6z"/>
        <path fill-rule="evenodd" clip-rule="evenodd" fill="#D6BEA3" stroke-width="1" stroke="#D6BEA3" d="M340.2 496.3l-45.5 8.6 46.3 12.6z"/>
        <path fill-rule="evenodd" clip-rule="evenodd" fill="#5F272B" stroke-width="1" stroke="#5F272B" d="M274.3 569.3l-.4 24.6 57.9-39.8z"/>
        <path fill-rule="evenodd" clip-rule="evenodd" fill="#906C64" stroke-width="1" stroke="#906C64" d="M296.8 538.7l-22.5 30.6 57.5-15.2z"/>
        <path fill-rule="evenodd" clip-rule="evenodd" fill="#CDBEB2" stroke-width="1" stroke="#CDBEB2" d="M296.8 538.7l35 15.4 33-.4z"/>
        <path fill-rule="evenodd" clip-rule="evenodd" fill="#E2DACE" stroke-width="1" stroke="#E2DACE" d="M341 517.5l-44.2 21.2 68 15z"/>
        <path fill-rule="evenodd" clip-rule="evenodd" fill="#D3B99D" stroke-width="1" stroke="#D3B99D" d="M294.7 504.9l2.1 33.8 44.2-21.2z"/>
        <path fill-rule="evenodd" clip-rule="evenodd" fill="#A78372" stroke-width="1" stroke="#A78372" d="M294.7 504.9l-20.6 15.5 22.7 18.3z"/>
        <path fill-rule="evenodd" clip-rule="evenodd" fill="#814F3B" stroke-width="1" stroke="#814F3B" d="M274.1 520.4l.2 48.9 22.5-30.6z"/>
        <path fill-rule="evenodd" clip-rule="evenodd" fill="#D1AB8F" stroke-width="1" stroke="#D1AB8F" d="M386 278.7l3.2 31.2 79.2-12.8z"/>
        <path fill-rule="evenodd" clip-rule="evenodd" fill="#CE9E7D" stroke-width="1" stroke="#CE9E7D" d="M386 278.7l-27.3 60.2 30.5-29z"/>
        <path fill-rule="evenodd" clip-rule="evenodd" fill="#9B644F" stroke-width="1" stroke="#9B644F" d="M389.2 309.9l25.9 12.5 53.3-24.5z"/>
        <path fill-rule="evenodd" clip-rule="evenodd" fill="#9B644F" stroke-width="1" stroke="#9B644F" d="M389.2 309.9l25.9 30.9v-18.4z"/>
        <path fill-rule="evenodd" clip-rule="evenodd" fill="#AE7C62" stroke-width="1" stroke="#AE7C62" d="M389.2 309.9l16.6 45.5 9.3-14.6z"/>
        <path fill-rule="evenodd" clip-rule="evenodd" fill="#AF7B56" stroke-width="1" stroke="#AF7B56" d="M358.7 338.9l19.8 28.1 10.7-57.1z"/>
        <path fill-rule="evenodd" clip-rule="evenodd" fill="#B48B73" stroke-width="1" stroke="#B48B73" d="M378.5 367l7.5 16.3 13.9 2.2z"/>
        <path fill-rule="evenodd" clip-rule="evenodd" fill="#BD8665" stroke-width="1" stroke="#BD8665" d="M389.2 309.9l10.7 75.6 5.9-30.1z"/>
        <path fill-rule="evenodd" clip-rule="evenodd" fill="#B17E5D" stroke-width="1" stroke="#B17E5D" d="M389.2 309.9L378.5 367l21.4 18.5z"/>
        <path fill-rule="evenodd" clip-rule="evenodd" fill="#CBB1A1" stroke-width="1" stroke="#CBB1A1" d="M345 414.3l4 24.2 18.6-28.5z"/>
    </g>
    <path fill="#E75E24" stroke-width="1" stroke="#E75E24" d="M287.1 362l27.8-5.8-36.1 37.5 8.3-31.7"/>
    <path fill="#F36D21" stroke-width="1" stroke="#F36D21" d="M217.4 416.5l69.7-54.5-8.3 31.7z"/>
    <path fill="#F15B22" stroke-width="1" stroke="#F15B22" d="M217.4 416.5l.9-44.5 68.8-10z"/>
    <path fill="#F36D21" stroke-width="1" stroke="#F36D21" d="M218.3 372l-61.5 13.1 60.6 31.4.9-44.5"/>
    <path fill="#F15B22" stroke-width="1" stroke="#F15B22" d="M130.1 416.5l26.7-31.4 60.6 31.4z"/>
    <path fill="#D44227" stroke-width="1" stroke="#D44227" d="M362.7 343.9l-16.1-50.7-59.5 68.8 75.6-14.2"/>
    <path fill="#ED4524" stroke-width="1" stroke="#ED4524" d="M311.9 256.9l34.7 36.3-59.5 68.8z"/>
    <path fill="#F15622" stroke-width="1" stroke="#F15622" d="M287 250.8l.1 111.2 24.8-105.1z"/>
    <path fill="#F36D21" stroke-width="1" stroke="#F36D21" d="M253.9 263.6l15 19.2 18.1-32z"/>
    <path fill="#F15B22" stroke-width="1" stroke="#F15B22" d="M221.3 251.8l65.7-1-33.1 12.8z"/>
    <path fill="#F05023" stroke-width="1" stroke="#F05023" d="M156.8 385.1l32.7-46.2 97.6 23.1-18.2-79.2 18.1-32 .1 111.2z"/>
    <path fill="#F15B22" stroke-width="1" stroke="#F15B22" d="M189.5 338.9l79.4-56.1 18.2 79.2z"/>
    <path fill="#F36B21" stroke-width="1" stroke="#F36B21" d="M167.6 272.5l54.1-20.8 32.2 11.9z"/>
    <path fill="#F15622" stroke-width="1" stroke="#F15622" d="M189.5 338.9l-4.7-41.4 84.1-14.7z"/>
    <path fill="#F36D21" stroke-width="1" stroke="#F36D21" d="M167.6 272.5l101.3 10.3-84.1 14.7z"/>
    <path fill="#F15B22" stroke-width="1" stroke="#F15B22" d="M253.9 263.6l15 19.2-101.3-10.3z"/>

    <g class="button next-level">
        <path fill="#ED4524" stroke-width="1" stroke="#ED4524" d="M458.8 695H90.2l-5-4 368.6-90.5 5 4z"/>
        <path fill="#F36D21" stroke-width="1" stroke="#F36D21" d="M85.2 600.5h368.6V691H85.2z"/>
        <text transform="translate(130 674)" fill="#FFF" stroke-width="1" stroke="#FFF" font-size="80">
            NEXT LEVEL
        </text>
    </g>

    <g>
        <text class="headline" transform="translate(80 252)" fill="#FFF" stroke-width="1" stroke="#FFF" font-size="120">
            YOU WON!!!
        </text>
    </g>
</svg>
