<?xml version="1.0" encoding="utf-8"?>
<svg version="1.1" xmlns="http://www.w3.org/2000/svg" xmlns:xlink="http://www.w3.org/1999/xlink" x="0px" y="0px"
	 width="595.3px" height="841.9px" viewBox="0 0 595.3 841.9" enable-background="new 0 0 595.3 841.9" xml:space="preserve">
	 <g id="character">
		<path fill="#CDB79E" stroke-width="1" stroke="#CDB79E" d="M387.4,108l-14.5,5l-0.8-20L360,93.5l-4.6-13.9l-13.1,7l17.1-32.3L372.2,0l-25.7,19.3l-43.8,28.2l-21-5.2
			l-13.8,12l9.3-12L242.5,54L186-3l3.8,64.2L182,93l-20.2,15l7.2,26l16.2-5.4l-27.5,9.9l-7.1,15l22.6,0.3l-15.4,21.6l14.1,0.2
			l9.2,12.8l-4.6,13.7l4.4,11.7l-7.3,17l3.2,18.7l10.1,12.2l13.7,0.1l14.6-8.2l0,0l0,0l0.1-0.1l-0.1-0.1l-0.8-5.7l1,5.8l12.9,20.6l9,2
			l9-7.3l1.6-24.8l-1.6-8.3l42.3-23.9l10.7-11.3l18.3,4l11.8-14l7-13l26.2,17.7l10.4-19.8l10.6-20l-6.9-17.7L387.4,108z"/>
		<polygon fill="#F2D8C4" stroke-width="1" stroke="#F2D8C4" points="442.7,362.4 449.3,336.3 434,316.7 416.6,289.5 416.6,255.9 406,236 389,216.2 366.1,200.2
			347.8,189 340.1,195.4 322.4,184.4 310.6,198.3 260,200.2 237.9,222.6 232.8,249.5 180.8,251.4 166.5,244 150.3,266.5 142.7,282
			153,319 148,343.7 165.2,368.6 153,378.2 145.7,402.7 136,430 129.3,456.7 115.3,474 114,508.6 124.3,524.3 138.3,520.8 128,508.5
			126.7,494.1 138.3,507.8 140,518.7 148,507 145.7,480.6 159.6,456.9 148.7,486 171.6,507.5 171.7,507 225.3,519 262.5,498.2
			297.7,467.3 353,465.3 343.6,427.5 326.8,411 343.6,427.2 325.3,392 317.3,367 347.8,337.5 356.1,306.5 360.1,316.7 384.3,337.7
			376.7,364 386,399.3 391.3,420 379.7,442.3 362.4,456.8 347.9,476.7 344.3,495.7 353.4,505 355.2,491.3 369,478.3 379.7,491.3
			376.7,507 369,505 362.1,514 374,527.1 398.8,527.2 413,514.4 425.3,507 430.7,489.7 434,456.7 430.7,430 449.3,390.7 "/>
		<g>
			<polygon fill="#6E5B54" stroke-width="1" stroke="#6E5B54" points="433.7,758.2 430.7,744.8 434,716.3 433.5,716.1 420.4,699.6 420.3,699.3 423,674.3 411.8,660.8
				407.7,637.5 396,619.8 371.2,578.1 363.5,516.2 352.5,466.5 384.2,472.5 421.3,484.3 437.7,511.5 480.7,517.5 459.8,484.1
				456.3,446.5 434,413.8 393,409.6 337,424.8 344.1,459.4 299,456.5 262.5,483.9 252.5,546.3 262,612.3 301.9,654.3 338.4,681.7
				338,681.8 378.4,706.2 385.7,726.5 388,758.2 383.7,794.8 372.7,815.2 359,818.8 352.7,834.2 367.7,839.7 374.3,831.2 383.7,842.8
				393.1,834.3 405.7,845 412,834.3 418.6,842.8 432.3,835.8 439.5,817.8 439.4,797.7 	"/>
			<polygon fill="#6E5B54" stroke-width="1" stroke="#6E5B54" points="240.3,664.5 237.7,635 224,627.9 201.2,596.1 212.5,544.3 212.5,544.3 212.5,544.2 204,483.8
				152,480.5 133.5,515.9 118.5,566.3 118,622.3 123.9,643.3 166.5,670.2 195.2,687.2 206.5,698.8 195.2,725.8 187,741.3 179.3,757.6
				166.2,766.2 144,766.3 131.3,775.8 133.7,784.2 137.7,793.8 149,787.5 151,797.5 164.3,792.5 166.1,803.9 187,804.2 209.7,793.8
				222.7,787.5 227.7,766.3 237.7,757.6 230.8,742.8 249,720.8 257.3,713.2 261.7,694 249,684.5 	"/>
		</g>
		<polygon fill="#A59386" stroke-width="1" stroke="#A59386" points="166.5,244 150.3,266.5 192.8,257.7 166.5,244 166.5,244 166.5,244 "/>
		<polygon fill="#A49486" stroke-width="1" stroke="#A49486" points="150.3,266.5 142.7,282 156.3,294.3 150.3,266.5 150.3,266.5 150.3,266.5 "/>
		<polygon fill="#A78E7C" stroke-width="1" stroke="#A78E7C" points="150.3,266.5 192.8,257.7 156.3,294.3 150.3,266.5 150.3,266.5 150.3,266.5 "/>
		<polygon fill="#443228" stroke-width="1" stroke="#443228" points="156.3,294.3 142.7,282 153,319 156.3,294.3 156.3,294.3 156.3,294.3 "/>
		<polygon fill="#CCB6A2" stroke-width="1" stroke="#CCB6A2" points="153,319 177.5,297 156.3,294.3 153,319 153,319 153,319 "/>
		<polygon fill="#CCB6A2" stroke-width="1" stroke="#CCB6A2" points="177.5,297 156.3,294.3 192.8,257.7 177.5,297 177.5,297 177.5,297 "/>
		<polygon fill="#A49486" stroke-width="1" stroke="#A49486" points="153,319 148,343.7 169.6,337.7 153,319 153,319 153,319 "/>
		<polygon fill="#A78E7C" stroke-width="1" stroke="#A78E7C" points="148,343.7 165.2,368.6 169.6,337.7 148,343.7 148,343.7 148,343.7 "/>
		<polygon fill="#F2D8C4" stroke-width="1" stroke="#F2D8C4" points="165.2,368.6 153,378.2 169.8,382.5 165.2,368.6 165.2,368.6 165.2,368.6 "/>
		<polygon fill="#E0C7B3" stroke-width="1" stroke="#E0C7B3" points="153,378.2 145.7,402.7 169.8,382.5 153,378.2 153,378.2 153,378.2 "/>
		<polygon fill="#E0C7B3" stroke-width="1" stroke="#E0C7B3" points="169.6,337.7 177.5,297 153,319 169.6,337.7 169.6,337.7 169.6,337.7 "/>
		<polygon fill="#F2D8C4" stroke-width="1" stroke="#F2D8C4" points="145.7,402.7 136,430 163.3,405.7 145.7,402.7 145.7,402.7 145.7,402.7 "/>
		<polygon fill="#E0C7B3" stroke-width="1" stroke="#E0C7B3" points="145.7,402.7 169.8,382.5 163.3,405.7 145.7,402.7 145.7,402.7 145.7,402.7 "/>
		<polygon fill="#F2D8C4" stroke-width="1" stroke="#F2D8C4" points="136,430 129.3,456.7 150.3,446.7 136,430 136,430 136,430 "/>
		<polygon fill="#E0C7B3" stroke-width="1" stroke="#E0C7B3" points="129.3,456.7 115.3,474 140,471.8 129.3,456.7 129.3,456.7 129.3,456.7 "/>
		<polygon fill="#E0C7B3" stroke-width="1" stroke="#E0C7B3" points="140,471.8 145.7,480.6 136,489.7 140,471.8 140,471.8 140,471.8 "/>
		<polygon fill="#E0C7B3" stroke-width="1" stroke="#E0C7B3" points="136,489.7 115.3,474 140,471.8 136,489.7 136,489.7 136,489.7 "/>
		<polygon fill="#E0C7B3" stroke-width="1" stroke="#E0C7B3" points="126.7,494.1 115.3,474 136,489.7 126.7,494.1 126.7,494.1 126.7,494.1 "/>
		<polygon fill="#A78E7C" stroke-width="1" stroke="#A78E7C" points="126.7,494.1 138.3,507.8 136,489.7 126.7,494.1 126.7,494.1 126.7,494.1 "/>
		<polygon fill="#F2D8C4" stroke-width="1" stroke="#F2D8C4" points="136,489.7 145.7,480.6 138.3,507.8 136,489.7 136,489.7 136,489.7 "/>
		<polygon fill="#F2D8C4" stroke-width="1" stroke="#F2D8C4" points="145.7,480.6 148,507 138.3,507.8 145.7,480.6 145.7,480.6 145.7,480.6 "/>
		<polyline fill="#F2D8C4" stroke-width="1" stroke="#F2D8C4" points="138.3,507.8 140,518.7 148,507 "/>
		<polygon fill="#F2D8C4" stroke-width="1" stroke="#F2D8C4" points="126.7,494.1 114,508.6 115.3,474 126.7,494.1 126.7,494.1 126.7,494.1 "/>
		<polygon fill="#F5E1CE" stroke-width="1" stroke="#F5E1CE" points="126.7,494.1 114,508.6 128,508.5 126.7,494.1 126.7,494.1 126.7,494.1 "/>
		<polygon fill="#F5E1CE" stroke-width="1" stroke="#F5E1CE" points="114,508.6 124.3,524.3 128,508.5 114,508.6 114,508.6 114,508.6 "/>
		<polygon fill="#F5E1CE" stroke-width="1" stroke="#F5E1CE" points="128,508.5 138.3,520.8 124.3,524.3 128,508.5 128,508.5 128,508.5 "/>
		<polygon fill="#CCB6A2" stroke-width="1" stroke="#CCB6A2" points="185,382.5 189.9,401 163.3,405.7 185,382.5 185,382.5 185,382.5 "/>
		<polygon fill="#CCB6A2" stroke-width="1" stroke="#CCB6A2" points="185,382.5 169.8,382.5 163.3,405.7 185,382.5 185,382.5 185,382.5 "/>
		<polygon fill="#CCB6A2" stroke-width="1" stroke="#CCB6A2" points="189.9,401 161.3,436.8 163.3,405.7 189.9,401 189.9,401 189.9,401 "/>
		<polygon fill="#F2D8C4" stroke-width="1" stroke="#F2D8C4" points="161.3,436.8 136,430 163.3,405.7 161.3,436.8 161.3,436.8 161.3,436.8 "/>
		<polygon fill="#E0C7B3" stroke-width="1" stroke="#E0C7B3" points="161.3,436.8 150.3,446.7 136,430 161.3,436.8 161.3,436.8 161.3,436.8 "/>
		<polygon fill="#E0C7B3" stroke-width="1" stroke="#E0C7B3" points="161.4,453.9 161.3,436.8 150.3,446.7 161.4,453.9 161.4,453.9 161.4,453.9 "/>
		<polygon fill="#A49486" stroke-width="1" stroke="#A49486" points="165.2,368.6 193.5,369.2 169.8,382.5 165.2,368.6 165.2,368.6 165.2,368.6 "/>
		<polygon fill="#A78E7C" stroke-width="1" stroke="#A78E7C" points="169.8,382.5 193.5,369.2 185,382.5 169.8,382.5 169.8,382.5 169.8,382.5 "/>
		<polygon fill="#A49486" stroke-width="1" stroke="#A49486" points="193.5,369.2 169.6,337.5 165.2,368.6 193.5,369.2 193.5,369.2 193.5,369.2 "/>
		<polygon fill="#E7CBB8" stroke-width="1" stroke="#E7CBB8" points="193.5,369.2 177.5,297 169.6,337.5 193.5,369.2 193.5,369.2 193.5,369.2 "/>
		<polygon fill="#E0C7B3" stroke-width="1" stroke="#E0C7B3" points="192.8,257.7 190.9,300.5 177.5,297 192.8,257.7 192.8,257.7 192.8,257.7 "/>
		<polygon fill="#F2D8C4" stroke-width="1" stroke="#F2D8C4" points="190.9,300.5 193.5,369.2 177.5,297 190.9,300.5 190.9,300.5 190.9,300.5 "/>
		<polygon fill="#A78E7C" stroke-width="1" stroke="#A78E7C" points="193.5,369.2 189.9,401 185,382.5 193.5,369.2 193.5,369.2 193.5,369.2 "/>
		<polygon fill="#CCB6A2" stroke-width="1" stroke="#CCB6A2" points="161.4,453.9 189.9,401 161.3,436.8 161.4,453.9 161.4,453.9 161.4,453.9 "/>
		<polygon fill="#F2D8C4" stroke-width="1" stroke="#F2D8C4" points="129.3,456.7 161.4,453.9 161.4,453.9 150.3,446.7 129.3,456.7 "/>
		<polygon fill="#F2D8C4" stroke-width="1" stroke="#F2D8C4" points="129.3,456.7 140,471.8 161.4,453.9 129.3,456.7 "/>
		<polygon fill="#F2D8C4" stroke-width="1" stroke="#F2D8C4" points="140,471.8 145.7,480.6 161.4,453.9 140,471.8 "/>
		<polygon fill="#1E1114" stroke-width="1" stroke="#1E1114" points="337,425 345.3,465.3 378.4,443.7 337,425 337,425 337,425 "/>
		<polygon fill="#381A1C" stroke-width="1" stroke="#381A1C" points="337,425 393,409.8 378.4,443.7 337,425 337,425 337,425 "/>
		<polygon fill="#BAA090" stroke-width="1" stroke="#BAA090" points="393,409.8 434,414 404.7,452.7 393,409.8 393,409.8 393,409.8 "/>
		<polygon fill="#6E5B54" stroke-width="1" stroke="#6E5B54" points="434,414 456.3,446.7 428.3,457.1 434,414 434,414 434,414 "/>
		<polygon fill="#6E5B54" stroke-width="1" stroke="#6E5B54" points="456.3,446.7 459.8,484.2 428.3,457.1 456.3,446.7 456.3,446.7 456.3,446.7 "/>
		<polygon fill="#361A1D" stroke-width="1" stroke="#361A1D" points="459.8,484.2 480.7,517.7 437.8,511.6 459.8,484.2 459.8,484.2 459.8,484.2 "/>
		<polygon fill="#6E5949" stroke-width="1" stroke="#6E5949" points="437.8,511.6 421.3,484.5 459.8,484.2 437.8,511.6 437.8,511.6 437.8,511.6 "/>
		<polygon fill="#6E5949" stroke-width="1" stroke="#6E5949" points="428.3,457.1 421.3,484.5 459.8,484.2 428.3,457.1 428.3,457.1 428.3,457.1 "/>
		<polygon fill="#BAA090" stroke-width="1" stroke="#BAA090" points="428.3,457.1 404.7,452.7 434,414 428.3,457.1 428.3,457.1 428.3,457.1 "/>
		<polygon fill="#6E5949" stroke-width="1" stroke="#6E5949" points="428.3,457.1 421.3,484.5 404.7,452.7 428.3,457.1 428.3,457.1 428.3,457.1 "/>
		<polygon fill="#BAA090" stroke-width="1" stroke="#BAA090" points="404.7,452.7 378.4,443.7 393,409.8 404.7,452.7 404.7,452.7 404.7,452.7 "/>
		<polygon fill="#543938" stroke-width="1" stroke="#543938" points="404.7,452.7 384.2,472.7 378.4,443.7 404.7,452.7 404.7,452.7 404.7,452.7 "/>
		<polygon fill="#543938" stroke-width="1" stroke="#543938" points="384.2,472.7 345.3,465.3 378.4,443.7 384.2,472.7 384.2,472.7 384.2,472.7 "/>
		<polygon fill="#543938" stroke-width="1" stroke="#543938" points="384.2,472.7 404.7,452.7 421.3,484.5 384.2,472.7 384.2,472.7 384.2,472.7 "/>
		<polygon fill="#9F8380" stroke-width="1" stroke="#9F8380" points="351,460 363.5,516.4 325,524.3 351,460 351,460 351,460 "/>
		<polygon fill="#4A302F" stroke-width="1" stroke="#4A302F" points="301.9,654.4 359,640 338.5,682 301.9,654.4 301.9,654.4 301.9,654.4 "/>
		<polygon fill="#4A302F" stroke-width="1" stroke="#4A302F" points="359,640 378.3,671 338.5,682 359,640 359,640 359,640 "/>
		<polygon fill="#4A302F" stroke-width="1" stroke="#4A302F" points="359,640 396,620 378.3,671 359,640 359,640 359,640 "/>
		<polygon fill="#4A302F" stroke-width="1" stroke="#4A302F" points="359,640 306.4,627.2 301.9,654.4 359,640 359,640 359,640 "/>
		<polygon fill="#503636" stroke-width="1" stroke="#503636" points="301.9,654.4 262,612.5 306.4,627.2 301.9,654.4 301.9,654.4 301.9,654.4 "/>
		<polygon fill="#543938" stroke-width="1" stroke="#543938" points="306.4,627.2 371.2,578.2 359,640 306.4,627.2 306.4,627.2 306.4,627.2 "/>
		<polygon fill="#543938" stroke-width="1" stroke="#543938" points="359,640 371.2,578.2 396,620 359,640 359,640 359,640 "/>
		<polygon fill="#543938" stroke-width="1" stroke="#543938" points="306.4,627.2 284.2,578.5 371.2,578.2 306.4,627.2 306.4,627.2 306.4,627.2 "/>
		<polygon fill="#543938" stroke-width="1" stroke="#543938" points="306.4,627.2 262,612.5 284.2,578.5 306.4,627.2 306.4,627.2 306.4,627.2 "/>
		<polygon fill="#C3A59D" stroke-width="1" stroke="#C3A59D" points="262,612.5 252.5,546.5 284.2,578.5 262,612.5 262,612.5 262,612.5 "/>
		<polygon fill="#C3A59D" stroke-width="1" stroke="#C3A59D" points="284.2,578.5 278,498.3 252.5,546.5 284.2,578.5 284.2,578.5 284.2,578.5 "/>
		<polygon fill="#C3A59D" stroke-width="1" stroke="#C3A59D" points="278,498.3 262.5,484.1 252.5,546.5 278,498.3 278,498.3 278,498.3 "/>
		<polygon fill="#EDD1C3" stroke-width="1" stroke="#EDD1C3" points="278,498.3 299,456.7 262.5,484.1 278,498.3 278,498.3 278,498.3 "/>
		<polygon fill="#BDA09D" stroke-width="1" stroke="#BDA09D" points="278,498.3 325,524.3 351,460 278,498.3 278,498.3 278,498.3 "/>
		<polygon fill="#E6CCBC" stroke-width="1" stroke="#E6CCBC" points="278,498.3 299,456.7 351,460 278,498.3 278,498.3 278,498.3 "/>
		<polygon fill="#4A302F" stroke-width="1" stroke="#4A302F" points="325,524.3 284.2,578.5 278,498.3 325,524.3 325,524.3 325,524.3 "/>
		<polygon fill="#543938" stroke-width="1" stroke="#543938" points="284.2,578.5 371.2,578.2 325,524.3 284.2,578.5 284.2,578.5 284.2,578.5 "/>
		<polygon fill="#796161" stroke-width="1" stroke="#796161" points="325,524.3 363.5,516.4 371.2,578.2 325,524.3 325,524.3 325,524.3 "/>
		<polygon fill="#9F8380" stroke-width="1" stroke="#9F8380" points="325,524.3 351,460 363.5,516.4 325,524.3 325,524.3 325,524.3 "/>
		<polygon fill="#806273" stroke-width="1" stroke="#806273" points="338,682 378.4,706.3 378.3,671 338,682 338,682 338,682 "/>
		<polygon fill="#543938" stroke-width="1" stroke="#543938" points="378.3,671 396,620 407.7,637.7 378.3,671 378.3,671 378.3,671 "/>
		<polygon fill="#543938" stroke-width="1" stroke="#543938" points="407.7,637.7 411.8,661 378.3,671 407.7,637.7 407.7,637.7 407.7,637.7 "/>
		<polygon fill="#6D5662" stroke-width="1" stroke="#6D5662" points="378.3,671 411.8,661 378.4,706.3 378.3,671 378.3,671 378.3,671 "/>
		<polygon fill="#705463" stroke-width="1" stroke="#705463" points="378.4,706.3 411.8,661 423,674.4 378.4,706.3 378.4,706.3 378.4,706.3 "/>
		<polygon fill="#2A151A" stroke-width="1" stroke="#2A151A" points="378.4,706.3 403.6,699.8 385.7,726.7 378.4,706.3 378.4,706.3 378.4,706.3 "/>
		<polygon fill="#1D1115" stroke-width="1" stroke="#1D1115" points="403.6,699.8 423,674.4 420.3,699.5 403.6,699.8 403.6,699.8 403.6,699.8 "/>
		<polygon fill="#634458" stroke-width="1" stroke="#634458" points="403.6,699.8 423,674.4 378.4,706.3 403.6,699.8 403.6,699.8 403.6,699.8 "/>
		<polygon fill="#221119" stroke-width="1" stroke="#221119" points="403.6,699.8 400.5,738 385.7,726.7 403.6,699.8 403.6,699.8 403.6,699.8 "/>
		<polygon fill="#221119" stroke-width="1" stroke="#221119" points="400.5,738 425,712.4 403.6,699.8 400.5,738 400.5,738 400.5,738 "/>
		<polygon fill="#1D1115" stroke-width="1" stroke="#1D1115" points="403.6,699.8 420.3,699.5 425,712.4 403.6,699.8 403.6,699.8 403.6,699.8 "/>
		<polygon fill="#221119" stroke-width="1" stroke="#221119" points="420.3,699.7 433.7,716.5 425,712.4 420.3,699.7 420.3,699.7 420.3,699.7 "/>
		<polygon fill="#221119" stroke-width="1" stroke="#221119" points="425,712.4 434,716.5 430.7,745 425,712.4 425,712.4 425,712.4 "/>
		<polygon fill="#2F1128" stroke-width="1" stroke="#2F1128" points="400.5,738 430.7,745 425,712.4 400.5,738 400.5,738 400.5,738 "/>
		<polygon fill="#2F1128" stroke-width="1" stroke="#2F1128" points="400.5,738 385.7,726.7 388,758.3 400.5,738 400.5,738 400.5,738 "/>
		<polygon fill="#2F1128" stroke-width="1" stroke="#2F1128" points="388,758.3 405.8,782 400.5,738 388,758.3 388,758.3 388,758.3 "/>
		<polygon fill="#2F1128" stroke-width="1" stroke="#2F1128" points="405.8,782 433.7,758.3 400.5,738 405.8,782 405.8,782 405.8,782 "/>
		<polygon fill="#2F1128" stroke-width="1" stroke="#2F1128" points="400.5,738 430.7,745 433.7,758.3 400.5,738 400.5,738 400.5,738 "/>
		<polygon fill="#493030" stroke-width="1" stroke="#493030" points="388,758.3 383.7,795 405.8,782 388,758.3 388,758.3 388,758.3 "/>
		<polygon fill="#493030" stroke-width="1" stroke="#493030" points="405.8,782 433.7,758.3 439.4,797.8 405.8,782 405.8,782 405.8,782 "/>
		<polygon fill="#BBA09C" stroke-width="1" stroke="#BBA09C" points="383.7,795 405.8,782 398.6,803.2 383.7,795 383.7,795 383.7,795 "/>
		<polygon fill="#E3CDC0" stroke-width="1" stroke="#E3CDC0" points="398.6,803.2 383.7,795 372.7,815.3 398.6,803.2 398.6,803.2 398.6,803.2 "/>
		<polygon fill="#BBA09C" stroke-width="1" stroke="#BBA09C" points="398.6,803.2 439.4,797.8 405.8,782 398.6,803.2 398.6,803.2 398.6,803.2 "/>
		<polygon fill="#E8D3C3" stroke-width="1" stroke="#E8D3C3" points="439.4,797.8 439.5,818 420,815.3 439.4,797.8 439.4,797.8 439.4,797.8 "/>
		<polygon fill="#E3CDC0" stroke-width="1" stroke="#E3CDC0" points="420,815.3 398.6,803.2 439.4,797.8 420,815.3 420,815.3 420,815.3 "/>
		<polygon fill="#E8D3C3" stroke-width="1" stroke="#E8D3C3" points="372.7,815.3 378.5,816.7 398.6,803.2 372.7,815.3 372.7,815.3 372.7,815.3 "/>
		<polygon fill="#FAE5D3" stroke-width="1" stroke="#FAE5D3" points="394.5,818 398.6,803.2 378.5,816.7 394.5,818 394.5,818 394.5,818 "/>
		<polygon fill="#E8D3C3" stroke-width="1" stroke="#E8D3C3" points="394.5,818 398.6,803.2 420,815.3 394.5,818 394.5,818 394.5,818 "/>
		<polygon fill="#4A302F" stroke-width="1" stroke="#4A302F" points="204,484 212.5,544.4 178,548.3 204,484 204,484 204,484 "/>
		<polygon fill="#543938" stroke-width="1" stroke="#543938" points="118.5,566.5 118,622.5 123.9,643.5 166.5,670.4 201.5,659.1 224,628 201.2,596.3 212.5,544.5
			204,484 152,480.7 133.5,516.1 118.5,566.5 118.5,566.5 118.5,566.5 "/>
		<polygon fill="#4A302F" stroke-width="1" stroke="#4A302F" points="123.9,643.5 189,641.1 166.5,670.4 123.9,643.5 123.9,643.5 123.9,643.5 "/>
		<polygon fill="#4A302F" stroke-width="1" stroke="#4A302F" points="189,641.1 201.5,659.1 166.5,670.4 189,641.1 189,641.1 189,641.1 "/>
		<polygon fill="#543938" stroke-width="1" stroke="#543938" points="189,641.1 224,628 201.5,659.1 189,641.1 189,641.1 189,641.1 "/>
		<polygon fill="#4A302F" stroke-width="1" stroke="#4A302F" points="189,641.1 157.4,635.2 123.9,643.5 189,641.1 189,641.1 189,641.1 "/>
		<polygon fill="#4A302F" stroke-width="1" stroke="#4A302F" points="123.9,643.5 118,622.5 157.4,635.2 123.9,643.5 123.9,643.5 123.9,643.5 "/>
		<polygon fill="#543938" stroke-width="1" stroke="#543938" points="157.4,635.2 201.2,596.3 189,641.1 157.4,635.2 157.4,635.2 157.4,635.2 "/>
		<polygon fill="#543938" stroke-width="1" stroke="#543938" points="189,641.1 201.2,596.3 224,628 189,641.1 189,641.1 189,641.1 "/>
		<polygon fill="#4A302F" stroke-width="1" stroke="#4A302F" points="157.4,635.2 137.2,602.5 201.2,596.3 157.4,635.2 157.4,635.2 157.4,635.2 "/>
		<polygon fill="#543938" stroke-width="1" stroke="#543938" points="157.4,635.2 118,622.5 137.2,602.5 157.4,635.2 157.4,635.2 157.4,635.2 "/>
		<polygon fill="#796161" stroke-width="1" stroke="#796161" points="118,622.5 118.5,566.5 137.2,602.5 118,622.5 118,622.5 118,622.5 "/>
		<polygon fill="#543938" stroke-width="1" stroke="#543938" points="137.2,602.5 149,530.3 118.5,566.5 137.2,602.5 137.2,602.5 137.2,602.5 "/>
		<polygon fill="#4A302F" stroke-width="1" stroke="#4A302F" points="149,530.3 133.5,516.1 118.5,566.5 149,530.3 149,530.3 149,530.3 "/>
		<polygon fill="#C1A69C" stroke-width="1" stroke="#C1A69C" points="149,530.3 152,480.7 133.5,516.1 149,530.3 149,530.3 149,530.3 "/>
		<polygon fill="#9F8380" stroke-width="1" stroke="#9F8380" points="149,530.3 178,548.3 204,484 149,530.3 149,530.3 149,530.3 "/>
		<polygon fill="#BDA09D" stroke-width="1" stroke="#BDA09D" points="149,530.3 152,480.7 204,484 149,530.3 149,530.3 149,530.3 "/>
		<polygon fill="#543938" stroke-width="1" stroke="#543938" points="178,548.3 137.2,602.5 149,530.3 178,548.3 178,548.3 178,548.3 "/>
		<polygon fill="#543938" stroke-width="1" stroke="#543938" points="137.2,602.5 201.2,596.3 178,548.3 137.2,602.5 137.2,602.5 137.2,602.5 "/>
		<polygon fill="#4A302F" stroke-width="1" stroke="#4A302F" points="178,548.3 212.5,544.4 201.2,596.3 178,548.3 178,548.3 178,548.3 "/>
		<polygon fill="#796161" stroke-width="1" stroke="#796161" points="178,548.3 204,484 212.5,544.4 178,548.3 178,548.3 178,548.3 "/>
		<polygon fill="#281619" stroke-width="1" stroke="#281619" points="224,628 237.7,635.2 230.8,649 224,628 224,628 224,628 "/>
		<polygon fill="#281619" stroke-width="1" stroke="#281619" points="237.7,635.2 240.3,664.7 230.8,649 237.7,635.2 237.7,635.2 237.7,635.2 "/>
		<polygon fill="#211215" stroke-width="1" stroke="#211215" points="240.3,664.7 249,684.7 243.3,697.3 240.3,664.7 240.3,664.7 240.3,664.7 "/>
		<polygon fill="#897576" stroke-width="1" stroke="#897576" points="249,684.7 261.7,694.2 257.3,713.3 249,684.7 249,684.7 249,684.7 "/>
		<polygon fill="#4A302F" stroke-width="1" stroke="#4A302F" points="166.5,670.4 195.2,687.3 201.5,659.1 166.5,670.4 166.5,670.4 166.5,670.4 "/>
		<polygon fill="#4A302F" stroke-width="1" stroke="#4A302F" points="195.2,687.3 206.5,699 220.3,688.9 195.2,687.3 195.2,687.3 195.2,687.3 "/>
		<polygon fill="#3A2A2C" stroke-width="1" stroke="#3A2A2C" points="206.5,699 195.2,726 215.7,711.8 206.5,699 206.5,699 206.5,699 "/>
		<polygon fill="#211215" stroke-width="1" stroke="#211215" points="195.2,726 187,741.5 199.7,751.3 195.2,726 195.2,726 195.2,726 "/>
		<polygon fill="#321E20" stroke-width="1" stroke="#321E20" points="187,741.5 179.3,757.7 199.7,751.3 187,741.5 187,741.5 187,741.5 "/>
		<polygon fill="#F9E4D2" stroke-width="1" stroke="#F9E4D2" points="179.3,757.7 166.2,766.3 180.7,767.5 179.3,757.7 179.3,757.7 179.3,757.7 "/>
		<polygon fill="#F7E1D0" stroke-width="1" stroke="#F7E1D0" points="166.2,766.3 144,766.5 164,771.2 166.2,766.3 166.2,766.3 166.2,766.3 "/>
		<polygon fill="#91817F" stroke-width="1" stroke="#91817F" points="144,766.5 131.3,776 133.8,784.3 144,766.5 144,766.5 144,766.5 "/>
		<polygon fill="#BBA09C" stroke-width="1" stroke="#BBA09C" points="133.8,784.3 137.7,794 149,787.7 133.8,784.3 133.8,784.3 133.8,784.3 "/>
		<polygon fill="#BBA09C" stroke-width="1" stroke="#BBA09C" points="149,787.7 151,797.7 164.3,792.7 149,787.7 149,787.7 149,787.7 "/>
		<polygon fill="#BBA09C" stroke-width="1" stroke="#BBA09C" points="164.3,792.7 166.1,804.1 182.7,793.9 164.3,792.7 164.3,792.7 164.3,792.7 "/>
		<polygon fill="#BBA09C" stroke-width="1" stroke="#BBA09C" points="166.1,804.1 187,804.4 182.7,793.9 166.1,804.1 166.1,804.1 166.1,804.1 "/>
		<polygon fill="#E8D3C3" stroke-width="1" stroke="#E8D3C3" points="187,804.4 193.3,790.5 209.7,794 187,804.4 187,804.4 187,804.4 "/>
		<polygon fill="#D2BBB2" stroke-width="1" stroke="#D2BBB2" points="209.7,794 222.7,787.7 212.3,779.2 209.7,794 209.7,794 209.7,794 "/>
		<polygon fill="#D2BBB2" stroke-width="1" stroke="#D2BBB2" points="222.7,787.7 227.7,766.5 212.3,779.2 222.7,787.7 222.7,787.7 222.7,787.7 "/>
		<polygon fill="#553A3A" stroke-width="1" stroke="#553A3A" points="227.7,766.5 237.7,757.7 230.8,743 227.7,766.5 227.7,766.5 227.7,766.5 "/>
		<polygon fill="#211215" stroke-width="1" stroke="#211215" points="230.8,743 249,721 229.3,729.7 230.8,743 230.8,743 230.8,743 "/>
		<polygon fill="#211215" stroke-width="1" stroke="#211215" points="249,721 257.3,713.3 243.3,697.3 249,721 249,721 249,721 "/>
		<polygon fill="#211215" stroke-width="1" stroke="#211215" points="243.3,697.3 249,684.7 257.3,713.3 243.3,697.3 243.3,697.3 243.3,697.3 "/>
		<polygon fill="#4A302F" stroke-width="1" stroke="#4A302F" points="201.5,659.1 220.3,688.9 195.2,687.3 201.5,659.1 201.5,659.1 201.5,659.1 "/>
		<polygon fill="#543938" stroke-width="1" stroke="#543938" points="201.5,659.1 224,628 230.8,649 201.5,659.1 201.5,659.1 201.5,659.1 "/>
		<polygon fill="#543938" stroke-width="1" stroke="#543938" points="201.5,659.1 230.8,649 220.3,688.9 201.5,659.1 201.5,659.1 201.5,659.1 "/>
		<polygon fill="#211215" stroke-width="1" stroke="#211215" points="220.3,688.9 240.3,664.7 230.8,649 220.3,688.9 220.3,688.9 220.3,688.9 "/>
		<polygon fill="#211215" stroke-width="1" stroke="#211215" points="220.3,688.9 243.3,697.3 240.3,664.7 220.3,688.9 220.3,688.9 220.3,688.9 "/>
		<polygon fill="#3A2A2C" stroke-width="1" stroke="#3A2A2C" points="215.7,711.8 206.5,699 220.3,688.9 215.7,711.8 215.7,711.8 215.7,711.8 "/>
		<polygon fill="#211215" stroke-width="1" stroke="#211215" points="215.7,711.8 243.3,697.3 220.3,688.9 215.7,711.8 215.7,711.8 215.7,711.8 "/>
		<polygon fill="#211215" stroke-width="1" stroke="#211215" points="215.7,711.8 249,721 243.3,697.3 215.7,711.8 215.7,711.8 215.7,711.8 "/>
		<polygon fill="#211215" stroke-width="1" stroke="#211215" points="215.7,711.8 229.3,729.7 249,721 215.7,711.8 215.7,711.8 215.7,711.8 "/>
		<polygon fill="#3A2A2C" stroke-width="1" stroke="#3A2A2C" points="215.7,711.8 195.2,726 229.3,729.7 215.7,711.8 215.7,711.8 215.7,711.8 "/>
		<polygon fill="#211215" stroke-width="1" stroke="#211215" points="199.7,751.3 195.2,726 229.3,729.7 199.7,751.3 199.7,751.3 199.7,751.3 "/>
		<polygon fill="#211215" stroke-width="1" stroke="#211215" points="199.7,751.3 230.8,743 229.3,729.7 199.7,751.3 199.7,751.3 199.7,751.3 "/>
		<polygon fill="#321E20" stroke-width="1" stroke="#321E20" points="227.7,766.5 199.7,751.3 230.8,743 227.7,766.5 227.7,766.5 227.7,766.5 "/>
		<polygon fill="#553A3A" stroke-width="1" stroke="#553A3A" points="212.3,779.2 227.7,766.5 199.7,751.3 212.3,779.2 212.3,779.2 212.3,779.2 "/>
		<polygon fill="#553A3A" stroke-width="1" stroke="#553A3A" points="212.3,779.2 180.7,767.5 199.7,751.3 212.3,779.2 212.3,779.2 212.3,779.2 "/>
		<polygon fill="#553A3A" stroke-width="1" stroke="#553A3A" points="199.7,751.3 179.3,757.7 180.7,767.5 199.7,751.3 199.7,751.3 199.7,751.3 "/>
		<polygon fill="#F3E8DB" stroke-width="1" stroke="#F3E8DB" points="164.3,792.7 187,779.3 182.7,793.9 164.3,792.7 164.3,792.7 164.3,792.7 "/>
		<polygon fill="#FAE5D3" stroke-width="1" stroke="#FAE5D3" points="187,779.3 193.3,790.5 182.7,793.9 187,779.3 187,779.3 187,779.3 "/>
		<polygon fill="#FAE5D3" stroke-width="1" stroke="#FAE5D3" points="182.7,793.9 187,804.4 193.3,790.5 182.7,793.9 182.7,793.9 182.7,793.9 "/>
		<polygon fill="#FAE5D3" stroke-width="1" stroke="#FAE5D3" points="187,779.3 209.7,794 193.3,790.5 187,779.3 187,779.3 187,779.3 "/>
		<polygon fill="#FAE5D3" stroke-width="1" stroke="#FAE5D3" points="187,779.3 212.3,779.2 209.7,794 187,779.3 187,779.3 187,779.3 "/>
		<polygon fill="#FAE5D3" stroke-width="1" stroke="#FAE5D3" points="149,787.7 161.3,777.1 164.3,792.7 149,787.7 149,787.7 149,787.7 "/>
		<polygon fill="#E8D3C3" stroke-width="1" stroke="#E8D3C3" points="161.3,777.1 187,779.3 164.3,792.7 161.3,777.1 161.3,777.1 161.3,777.1 "/>
		<polygon fill="#FAE5D3" stroke-width="1" stroke="#FAE5D3" points="133.8,784.3 161.3,777.1 149,787.7 133.8,784.3 133.8,784.3 133.8,784.3 "/>
		<polygon fill="#F3E8DB" stroke-width="1" stroke="#F3E8DB" points="133.8,784.3 144,766.5 164,771.2 133.8,784.3 133.8,784.3 133.8,784.3 "/>
		<polygon fill="#E8D3C3" stroke-width="1" stroke="#E8D3C3" points="133.8,784.3 164,771.2 161.3,777.1 133.8,784.3 133.8,784.3 133.8,784.3 "/>
		<polygon fill="#F7E1D0" stroke-width="1" stroke="#F7E1D0" points="164,771.2 180.7,767.5 166.2,766.3 164,771.2 164,771.2 164,771.2 "/>
		<polygon fill="#E2CCBE" stroke-width="1" stroke="#E2CCBE" points="161.3,777.1 180.7,767.5 164,771.2 161.3,777.1 161.3,777.1 161.3,777.1 "/>
		<polygon fill="#F9E4D2" stroke-width="1" stroke="#F9E4D2" points="161.3,777.1 180.7,767.5 187,779.3 161.3,777.1 161.3,777.1 161.3,777.1 "/>
		<polygon fill="#F9E4D2" stroke-width="1" stroke="#F9E4D2" points="187,779.3 180.7,767.5 212.3,779.2 187,779.3 187,779.3 187,779.3 "/>
		<polygon fill="#938078" stroke-width="1" stroke="#938078" points="322.4,184.4 368.5,213 369.3,257 322.4,184.4 322.4,184.4 322.4,184.4 "/>
		<polygon fill="#D7C1B7" stroke-width="1" stroke="#D7C1B7" points="369.3,257 347.8,337.5 339.5,246.9 369.3,257 369.3,257 369.3,257 "/>
		<polygon fill="#6E5B54" stroke-width="1" stroke="#6E5B54" points="347.8,337.5 317.3,367 319.1,318.5 347.8,337.5 347.8,337.5 347.8,337.5 "/>
		<polygon fill="#F3E0CA" stroke-width="1" stroke="#F3E0CA" points="175.7,251.6 150,292.2 183,280.5 175.7,251.6 175.7,251.6 175.7,251.6 "/>
		<polygon fill="#F9E3CD" stroke-width="1" stroke="#F9E3CD" points="150,292.2 158.8,325 189.8,321 150,292.2 150,292.2 150,292.2 "/>
		<polygon fill="#BAA090" stroke-width="1" stroke="#BAA090" points="158.8,325 189.8,321 177.5,339.9 158.8,325 158.8,325 158.8,325 "/>
		<polygon fill="#FBE4D0" stroke-width="1" stroke="#FBE4D0" points="177.5,339.9 177.5,352 185.6,357.5 177.5,339.9 177.5,339.9 177.5,339.9 "/>
		<polygon fill="#EFD4C4" stroke-width="1" stroke="#EFD4C4" points="185.6,357.5 180.5,379 200,371.5 185.6,357.5 185.6,357.5 185.6,357.5 "/>
		<polygon fill="#EFD4C4" stroke-width="1" stroke="#EFD4C4" points="180.5,379 187,395.5 200,371.5 180.5,379 180.5,379 180.5,379 "/>
		<polygon fill="#E4CCC0" stroke-width="1" stroke="#E4CCC0" points="187,395.5 178.5,412 190.7,426.5 187,395.5 187,395.5 187,395.5 "/>
		<polygon fill="#806963" stroke-width="1" stroke="#806963" points="317.3,367 292.3,368.2 325.2,392 317.3,367 317.3,367 317.3,367 "/>
		<polygon fill="#EFD4C4" stroke-width="1" stroke="#EFD4C4" points="190.7,426.5 210.2,431 187,395.5 190.7,426.5 190.7,426.5 190.7,426.5 "/>
		<polygon fill="#EFD4C4" stroke-width="1" stroke="#EFD4C4" points="210.2,431 252.8,418.7 213.2,392 210.2,431 210.2,431 210.2,431 "/>
		<polygon fill="#EDD1C3" stroke-width="1" stroke="#EDD1C3" points="252.8,418.7 297.7,395.5 265.6,379.5 252.8,418.7 252.8,418.7 252.8,418.7 "/>
		<polygon fill="#70595D" stroke-width="1" stroke="#70595D" points="297.7,395.5 325.2,392 292.3,368.2 297.7,395.5 297.7,395.5 297.7,395.5 "/>
		<polygon fill="#A48B85" stroke-width="1" stroke="#A48B85" points="292.3,368.2 273,357.5 265.6,379.5 292.3,368.2 292.3,368.2 292.3,368.2 "/>
		<polygon fill="#C8B0AC" stroke-width="1" stroke="#C8B0AC" points="292.3,368.2 297.7,395.5 265.6,379.5 292.3,368.2 292.3,368.2 292.3,368.2 "/>
		<polygon fill="#FBE2D0" stroke-width="1" stroke="#FBE2D0" points="213.2,392 200,371.5 265.6,379.5 213.2,392 213.2,392 213.2,392 "/>
		<polygon fill="#FBE2D0" stroke-width="1" stroke="#FBE2D0" points="200,371.5 209.8,342.7 265.6,379.5 200,371.5 200,371.5 200,371.5 "/>
		<polygon fill="#FBE2D0" stroke-width="1" stroke="#FBE2D0" points="187,395.5 213.2,392 210.2,431 187,395.5 187,395.5 187,395.5 "/>
		<polygon fill="#E1CABC" stroke-width="1" stroke="#E1CABC" points="187,395.5 200,371.5 213.2,392 187,395.5 187,395.5 187,395.5 "/>
		<polygon fill="#EFD4C4" stroke-width="1" stroke="#EFD4C4" points="185.6,357.5 209.8,342.7 200,371.5 185.6,357.5 185.6,357.5 185.6,357.5 "/>
		<polygon fill="#EBD0C2" stroke-width="1" stroke="#EBD0C2" points="185.6,357.5 177.5,339.9 209.8,342.7 185.6,357.5 185.6,357.5 185.6,357.5 "/>
		<polygon fill="#C7AD9D" stroke-width="1" stroke="#C7AD9D" points="189.8,321 209.8,342.7 177.5,339.9 189.8,321 189.8,321 189.8,321 "/>
		<polygon fill="#FBE5D1" stroke-width="1" stroke="#FBE5D1" points="209.8,342.7 259.4,330.2 265.6,379.5 209.8,342.7 209.8,342.7 209.8,342.7 "/>
		<polygon fill="#FBE5D1" stroke-width="1" stroke="#FBE5D1" points="273,357.5 259.4,330.2 265.6,379.5 273,357.5 273,357.5 273,357.5 "/>
		<polygon fill="#E6CCBC" stroke-width="1" stroke="#E6CCBC" points="273,357.5 302.8,313 259.4,330.2 273,357.5 273,357.5 273,357.5 "/>
		<polygon fill="#C1A69D" stroke-width="1" stroke="#C1A69D" points="273,357.5 292.3,368.2 302.8,313 273,357.5 273,357.5 273,357.5 "/>
		<polygon fill="#A88A82" stroke-width="1" stroke="#A88A82" points="319.1,318.5 292.3,368.2 317.3,367 319.1,318.5 319.1,318.5 319.1,318.5 "/>
		<polygon fill="#B4997A" stroke-width="1" stroke="#B4997A" points="319.1,318.5 302.8,313 292.3,368.2 319.1,318.5 319.1,318.5 319.1,318.5 "/>
		<polygon fill="#FBE5D0" stroke-width="1" stroke="#FBE5D0" points="226.7,323 259.4,330.2 265.9,299.7 226.7,323 226.7,323 226.7,323 "/>
		<polygon fill="#F5DDC8" stroke-width="1" stroke="#F5DDC8" points="259.4,330.2 302.8,313 265.9,299.7 259.4,330.2 259.4,330.2 259.4,330.2 "/>
		<polygon fill="#FBE5D1" stroke-width="1" stroke="#FBE5D1" points="226.7,323 209.8,342.7 259.4,330.2 226.7,323 226.7,323 226.7,323 "/>
		<polygon fill="#FBE4D0" stroke-width="1" stroke="#FBE4D0" points="189.8,321 226.7,323 209.8,342.7 189.8,321 189.8,321 189.8,321 "/>
		<polygon fill="#B4997A" stroke-width="1" stroke="#B4997A" points="302.8,313 318.4,269.7 265.9,299.7 302.8,313 302.8,313 302.8,313 "/>
		<polygon fill="#938078" stroke-width="1" stroke="#938078" points="319.1,318.5 339.5,246.9 347.8,337.5 319.1,318.5 319.1,318.5 319.1,318.5 "/>
		<polygon fill="#A59187" stroke-width="1" stroke="#A59187" points="318.4,269.7 319.1,318.5 302.8,313 318.4,269.7 318.4,269.7 318.4,269.7 "/>
		<polygon fill="#FBE4D0" stroke-width="1" stroke="#FBE4D0" points="183,280.5 189.8,321 150,292.2 183,280.5 183,280.5 183,280.5 "/>
		<polygon fill="#EBD1BE" stroke-width="1" stroke="#EBD1BE" points="226.7,323 211,299.5 237.9,280.5 226.7,323 226.7,323 226.7,323 "/>
		<polygon fill="#F6DFCA" stroke-width="1" stroke="#F6DFCA" points="237.9,280.5 265.9,299.7 226.7,323 237.9,280.5 237.9,280.5 237.9,280.5 "/>
		<polygon fill="#E6CDBC" stroke-width="1" stroke="#E6CDBC" points="189.8,321 211,299.5 226.7,323 189.8,321 189.8,321 189.8,321 "/>
		<polygon fill="#DDC6BA" stroke-width="1" stroke="#DDC6BA" points="211,299.5 183,280.5 189.8,321 211,299.5 211,299.5 211,299.5 "/>
		<polygon fill="#D8C3B6" stroke-width="1" stroke="#D8C3B6" points="211,299.5 232.8,249.5 237.9,280.5 211,299.5 211,299.5 211,299.5 "/>
		<polygon fill="#D8C3B6" stroke-width="1" stroke="#D8C3B6" points="237.9,280.5 279,259.3 265.9,299.7 237.9,280.5 237.9,280.5 237.9,280.5 "/>
		<polyline fill="#AA918A" stroke-width="1" stroke="#AA918A" points="265.9,299.7 279,259.3 318.4,269.7 339.5,246.9 319.1,318.5 318.4,269.7 "/>
		<polygon fill="#856D6A" stroke-width="1" stroke="#856D6A" points="279,259.3 322.7,231.7 318.4,269.7 279,259.3 279,259.3 279,259.3 "/>
		<polygon fill="#D8C3B6" stroke-width="1" stroke="#D8C3B6" points="232.8,249.5 279,259.3 237.9,280.5 232.8,249.5 232.8,249.5 232.8,249.5 "/>
		<polygon fill="#86686D" stroke-width="1" stroke="#86686D" points="183,280.5 232.8,249.5 211,299.5 183,280.5 183,280.5 183,280.5 "/>
		<polygon fill="#B6A69C" stroke-width="1" stroke="#B6A69C" points="183,280.5 175.7,251.6 232.8,249.5 183,280.5 183,280.5 183,280.5 "/>
		<polygon fill="#D9C3B6" stroke-width="1" stroke="#D9C3B6" points="232.8,249.5 263,228.6 279,259.3 232.8,249.5 232.8,249.5 232.8,249.5 "/>
		<polygon fill="#9C8479" stroke-width="1" stroke="#9C8479" points="263,228.6 322.7,231.7 279,259.3 263,228.6 263,228.6 263,228.6 "/>
		<polygon fill="#D1B7A2" stroke-width="1" stroke="#D1B7A2" points="232.8,249.5 237.9,222.6 263,228.6 232.8,249.5 232.8,249.5 232.8,249.5 "/>
		<polygon fill="#CBB69F" stroke-width="1" stroke="#CBB69F" points="263,228.6 310.6,198.3 322.7,231.7 263,228.6 263,228.6 263,228.6 "/>
		<polygon fill="#6E5949" stroke-width="1" stroke="#6E5949" points="310.6,198.3 260,200.2 237.9,222.6 310.6,198.3 310.6,198.3 310.6,198.3 "/>
		<polygon fill="#EBD2BC" stroke-width="1" stroke="#EBD2BC" points="310.6,198.3 263,228.6 237.9,222.6 310.6,198.3 310.6,198.3 310.6,198.3 "/>
		<polygon fill="#AD9183" stroke-width="1" stroke="#AD9183" points="322.7,231.7 339.5,246.9 318.4,269.7 322.7,231.7 322.7,231.7 322.7,231.7 "/>
		<polygon fill="#C0AA99" stroke-width="1" stroke="#C0AA99" points="322.7,231.7 322.4,184.4 310.6,198.3 322.7,231.7 322.7,231.7 322.7,231.7 "/>
		<polygon fill="#9C8479" stroke-width="1" stroke="#9C8479" points="322.7,231.7 369.3,257 322.4,184.4 322.7,231.7 322.7,231.7 322.7,231.7 "/>
		<polygon fill="#AD9183" stroke-width="1" stroke="#AD9183" points="322.7,231.7 339.5,246.9 369.3,257 322.7,231.7 322.7,231.7 322.7,231.7 "/>
		<polygon fill="#201213" stroke-width="1" stroke="#201213" points="178.5,412 165,442.6 190.7,426.5 178.5,412 178.5,412 178.5,412 "/>
		<polygon fill="#361A1D" stroke-width="1" stroke="#361A1D" points="190.7,426.5 210.2,431 204,460 190.7,426.5 190.7,426.5 190.7,426.5 "/>
		<polygon fill="#361A1D" stroke-width="1" stroke="#361A1D" points="210.2,431 244.3,449.5 252.8,418.7 210.2,431 210.2,431 210.2,431 "/>
		<polygon fill="#381A1C" stroke-width="1" stroke="#381A1C" points="252.8,418.7 297.7,395.5 326.8,411 252.8,418.7 252.8,418.7 252.8,418.7 "/>
		<polygon fill="#1F1114" stroke-width="1" stroke="#1F1114" points="297.7,395.5 325.2,392 326.8,411 297.7,395.5 297.7,395.5 297.7,395.5 "/>
		<polygon fill="#1E1114" stroke-width="1" stroke="#1E1114" points="325.2,392 343.6,427.2 326.8,411 325.2,392 325.2,392 325.2,392 "/>
		<polygon fill="#34191D" stroke-width="1" stroke="#34191D" points="204,460 225.2,519 244.3,449.5 204,460 204,460 204,460 "/>
		<polygon fill="#30181B" stroke-width="1" stroke="#30181B" points="204,460 210.2,431 244.3,449.5 204,460 204,460 204,460 "/>
		<polygon fill="#30181B" stroke-width="1" stroke="#30181B" points="225.2,519 270.5,456 244.3,449.5 225.2,519 225.2,519 225.2,519 "/>
		<polygon fill="#C1A69C" stroke-width="1" stroke="#C1A69C" points="270.5,456 322.8,449.6 289.9,427.5 270.5,456 270.5,456 270.5,456 "/>
		<polygon fill="#B4997A" stroke-width="1" stroke="#B4997A" points="322.8,449.6 343.6,427.5 289.9,427.5 322.8,449.6 322.8,449.6 322.8,449.6 "/>
		<polygon fill="#1E1114" stroke-width="1" stroke="#1E1114" points="289.9,427.5 326.8,411 343.6,427.5 289.9,427.5 289.9,427.5 289.9,427.5 "/>
		<polygon fill="#211215" stroke-width="1" stroke="#211215" points="289.9,427.5 252.8,418.7 326.8,411 289.9,427.5 289.9,427.5 289.9,427.5 "/>
		<polygon fill="#391D1E" stroke-width="1" stroke="#391D1E" points="289.9,427.5 244.3,449.5 252.8,418.7 289.9,427.5 289.9,427.5 289.9,427.5 "/>
		<polygon fill="#35191D" stroke-width="1" stroke="#35191D" points="270.5,456 244.3,449.5 289.9,427.5 270.5,456 270.5,456 270.5,456 "/>
		<polygon fill="#30181B" stroke-width="1" stroke="#30181B" points="165,442.6 204,460 190.7,426.5 165,442.6 165,442.6 165,442.6 "/>
		<polygon fill="#30181B" stroke-width="1" stroke="#30181B" points="204,460 225.2,519 177.5,485.6 204,460 204,460 204,460 "/>
		<polygon fill="#361A1D" stroke-width="1" stroke="#361A1D" points="177.5,485.6 165,442.6 204,460 177.5,485.6 177.5,485.6 177.5,485.6 "/>
		<polygon fill="#C9B1A4" stroke-width="1" stroke="#C9B1A4" points="177.5,485.6 165,442.6 148.7,486 177.5,485.6 177.5,485.6 177.5,485.6 "/>
		<polygon fill="#E6CCBC" stroke-width="1" stroke="#E6CCBC" points="148.7,486 171.6,507.5 177.5,485.6 148.7,486 148.7,486 148.7,486 "/>
		<polygon fill="#C9B1A4" stroke-width="1" stroke="#C9B1A4" points="171.6,507 177.5,485.6 225.2,519 171.6,507 171.6,507 171.6,507 "/>
		<polygon fill="#EDD1C3" stroke-width="1" stroke="#EDD1C3" points="225.2,519 262.5,498.2 270.5,456 225.2,519 225.2,519 225.2,519 "/>
		<polygon fill="#EDD1C3" stroke-width="1" stroke="#EDD1C3" points="262.5,498.2 297.7,467.3 270.5,456 262.5,498.2 262.5,498.2 262.5,498.2 "/>
		<polygon fill="#E6CCBC" stroke-width="1" stroke="#E6CCBC" points="297.7,467.3 322.8,449.6 270.5,456 297.7,467.3 297.7,467.3 297.7,467.3 "/>
		<polygon fill="#AF948D" stroke-width="1" stroke="#AF948D" points="322.8,449.6 353,465.3 343.6,427.5 322.8,449.6 322.8,449.6 322.8,449.6 "/>
		<polygon fill="#EFD4C4" stroke-width="1" stroke="#EFD4C4" points="297.7,467.3 353,465.3 322.8,449.6 297.7,467.3 297.7,467.3 297.7,467.3 "/>
		<g>
			<g>
				<path fill="#EFD4C4" stroke-width="1" stroke="#EFD4C4" d="M216,364.8c1.9,0,1.9-3,0-3C214.1,361.8,214.1,364.8,216,364.8L216,364.8z"/>
			</g>
		</g>
		<polygon fill="#FBE2D1" stroke-width="1" stroke="#FBE2D1" points="213.2,392 265.6,379.5 252.8,418.7 213.2,392 "/>
		<polygon fill="#E0C7B3" stroke-width="1" stroke="#E0C7B3" points="366.1,200.2 347.8,189 327.3,206.1 366.1,200.2 366.1,200.2 366.1,200.2 "/>
		<polygon fill="#E0C7B3" stroke-width="1" stroke="#E0C7B3" points="327.3,206.1 326.2,228.1 353.8,220.7 327.3,206.1 327.3,206.1 327.3,206.1 "/>
		<polygon fill="#F2D8C4" stroke-width="1" stroke="#F2D8C4" points="326.2,228.1 347.5,259.1 353.8,220.7 326.2,228.1 326.2,228.1 326.2,228.1 "/>
		<polygon fill="#E0C7B3" stroke-width="1" stroke="#E0C7B3" points="347.5,259.1 347.5,285 376.5,268.4 347.5,259.1 347.5,259.1 347.5,259.1 "/>
		<polygon fill="#D3C2AC" stroke-width="1" stroke="#D3C2AC" points="347.5,285 360.1,316.7 376.5,268.4 347.5,285 347.5,285 347.5,285 "/>
		<polygon fill="#FAE6CF" stroke-width="1" stroke="#FAE6CF" points="353.8,220.7 366.1,200.2 327.3,206.1 353.8,220.7 353.8,220.7 353.8,220.7 "/>
		<polygon fill="#FAE6CF" stroke-width="1" stroke="#FAE6CF" points="353.8,220.7 389,216.2 366.1,200.2 353.8,220.7 353.8,220.7 353.8,220.7 "/>
		<polygon fill="#FAE4D2" stroke-width="1" stroke="#FAE4D2" points="389,216.2 406,236 376.6,236.8 389,216.2 389,216.2 389,216.2 "/>
		<polygon fill="#FAE4D2" stroke-width="1" stroke="#FAE4D2" points="406,236 416.6,255.9 376.6,236.8 406,236 406,236 406,236 "/>
		<polygon fill="#FAE4D2" stroke-width="1" stroke="#FAE4D2" points="416.6,255.9 416.6,289.5 392.5,277.2 416.6,255.9 416.6,255.9 416.6,255.9 "/>
		<polygon fill="#E0C7B3" stroke-width="1" stroke="#E0C7B3" points="360.1,316.7 384.3,337.7 392.9,307.6 360.1,316.7 360.1,316.7 360.1,316.7 "/>
		<polygon fill="#E0C7B3" stroke-width="1" stroke="#E0C7B3" points="384.3,337.7 376.7,364 401.7,353.7 384.3,337.7 384.3,337.7 384.3,337.7 "/>
		<polygon fill="#FAE4D2" stroke-width="1" stroke="#FAE4D2" points="376.7,364 386,399.3 401.7,353.7 376.7,364 376.7,364 376.7,364 "/>
		<polygon fill="#FAE4D2" stroke-width="1" stroke="#FAE4D2" points="386,399.3 391.3,420 420,402.7 386,399.3 386,399.3 386,399.3 "/>
		<polygon fill="#FAE4D2" stroke-width="1" stroke="#FAE4D2" points="391.3,420 379.7,442.3 396.8,462 391.3,420 391.3,420 391.3,420 "/>
		<polygon fill="#CCB6A2" stroke-width="1" stroke="#CCB6A2" points="396.8,462 412,474 434,456.7 396.8,462 396.8,462 396.8,462 "/>
		<polygon fill="#F2D8C4" stroke-width="1" stroke="#F2D8C4" points="434,456.7 430.7,430 416.5,446.7 434,456.7 434,456.7 434,456.7 "/>
		<polygon fill="#F2D8C4" stroke-width="1" stroke="#F2D8C4" points="430.7,430 449.3,390.7 436,401 430.7,430 430.7,430 430.7,430 "/>
		<polygon fill="#F2D8C4" stroke-width="1" stroke="#F2D8C4" points="449.3,390.7 442.7,362.4 436,401 449.3,390.7 449.3,390.7 449.3,390.7 "/>
		<polygon fill="#FAE4D2" stroke-width="1" stroke="#FAE4D2" points="442.7,362.4 449.3,336.3 430.7,337.7 442.7,362.4 442.7,362.4 442.7,362.4 "/>
		<polygon fill="#FAE4D2" stroke-width="1" stroke="#FAE4D2" points="430.7,337.7 434,316.7 449.3,336.3 430.7,337.7 430.7,337.7 430.7,337.7 "/>
		<polygon fill="#FAE4D2" stroke-width="1" stroke="#FAE4D2" points="416.6,289.5 434,316.7 413,309.3 416.6,289.5 416.6,289.5 416.6,289.5 "/>
		<polygon fill="#FAE4D2" stroke-width="1" stroke="#FAE4D2" points="353.8,220.7 376.6,236.8 389,216.2 353.8,220.7 353.8,220.7 353.8,220.7 "/>
		<polygon fill="#F2D8C4" stroke-width="1" stroke="#F2D8C4" points="353.8,220.7 347.5,259.1 376.6,236.8 353.8,220.7 353.8,220.7 353.8,220.7 "/>
		<polygon fill="#F2D8C4" stroke-width="1" stroke="#F2D8C4" points="347.5,259.1 376.6,236.8 376.5,268.4 347.5,259.1 347.5,259.1 347.5,259.1 "/>
		<polygon fill="#FAE4D2" stroke-width="1" stroke="#FAE4D2" points="376.5,268.4 416.6,255.9 376.6,236.8 376.5,268.4 376.5,268.4 376.5,268.4 "/>
		<polygon fill="#FAE4D2" stroke-width="1" stroke="#FAE4D2" points="376.5,268.4 392.5,277.2 416.6,255.9 376.5,268.4 376.5,268.4 376.5,268.4 "/>
		<polygon fill="#FAE4D2" stroke-width="1" stroke="#FAE4D2" points="376.5,268.4 360.1,316.7 392.9,307.6 376.5,268.4 376.5,268.4 376.5,268.4 "/>
		<polyline fill="#FAE4D2" stroke-width="1" stroke="#FAE4D2" points="376.5,268.4 392.9,307.6 416.6,289.5 "/>
		<polygon fill="#F2D8C4" stroke-width="1" stroke="#F2D8C4" points="392.9,307.6 413,309.3 416.6,289.5 392.9,307.6 392.9,307.6 392.9,307.6 "/>
		<polygon fill="#D3C2AC" stroke-width="1" stroke="#D3C2AC" points="392.9,307.6 413,309.3 384.3,337.7 392.9,307.6 392.9,307.6 392.9,307.6 "/>
		<polygon fill="#D3C2AC" stroke-width="1" stroke="#D3C2AC" points="401.7,353.7 384.3,337.7 413,309.3 401.7,353.7 401.7,353.7 401.7,353.7 "/>
		<polygon fill="#FAE4D2" stroke-width="1" stroke="#FAE4D2" points="401.7,353.7 434,316.7 413,309.3 401.7,353.7 401.7,353.7 401.7,353.7 "/>
		<polygon fill="#FAE4D2" stroke-width="1" stroke="#FAE4D2" points="430.7,337.7 401.7,353.7 434,316.7 430.7,337.7 430.7,337.7 430.7,337.7 "/>
		<polygon fill="#FAE4D2" stroke-width="1" stroke="#FAE4D2" points="401.7,353.7 442.7,362.4 430.7,337.7 401.7,353.7 401.7,353.7 401.7,353.7 "/>
		<polygon fill="#FAE4D2" stroke-width="1" stroke="#FAE4D2" points="420,402.7 401.7,353.7 386,399.3 420,402.7 420,402.7 420,402.7 "/>
		<polygon fill="#F2D8C4" stroke-width="1" stroke="#F2D8C4" points="420,402.7 442.7,362.4 401.7,353.7 420,402.7 420,402.7 420,402.7 "/>
		<polygon fill="#F2D8C4" stroke-width="1" stroke="#F2D8C4" points="391.3,420 430.7,430 420,402.7 391.3,420 391.3,420 391.3,420 "/>
		<polygon fill="#FAE4D2" stroke-width="1" stroke="#FAE4D2" points="391.3,420 416.5,446.7 430.7,430 391.3,420 391.3,420 391.3,420 "/>
		<polygon fill="#FAE4D2" stroke-width="1" stroke="#FAE4D2" points="396.8,462 391.3,420 416.5,446.7 396.8,462 396.8,462 396.8,462 "/>
		<polygon fill="#F2D8C4" stroke-width="1" stroke="#F2D8C4" points="396.8,462 416.5,446.7 434,456.7 396.8,462 396.8,462 396.8,462 "/>
		<polygon fill="#F2D8C4" stroke-width="1" stroke="#F2D8C4" points="379.7,442.3 362.4,456.8 374,465.3 379.7,442.3 379.7,442.3 379.7,442.3 "/>
		<polygon fill="#F2D8C4" stroke-width="1" stroke="#F2D8C4" points="362.4,456.8 347.9,476.7 362.5,471.3 362.4,456.8 362.4,456.8 362.4,456.8 "/>
		<polygon fill="#FAE4D2" stroke-width="1" stroke="#FAE4D2" points="347.9,476.7 344.3,495.7 362.5,471.3 347.9,476.7 347.9,476.7 347.9,476.7 "/>
		<polygon fill="#FAE4D2" stroke-width="1" stroke="#FAE4D2" points="344.3,495.7 353.4,505 355.2,491.3 344.3,495.7 344.3,495.7 344.3,495.7 "/>
		<polygon fill="#CCB6A2" stroke-width="1" stroke="#CCB6A2" points="355.2,491.3 369,478.3 362.5,471.3 355.2,491.3 355.2,491.3 355.2,491.3 "/>
		<polygon fill="#FAE4D2" stroke-width="1" stroke="#FAE4D2" points="355.2,491.3 344.3,495.7 362.5,471.3 355.2,491.3 355.2,491.3 355.2,491.3 "/>
		<polygon fill="#CCB6A2" stroke-width="1" stroke="#CCB6A2" points="369,478.3 374,465.3 362.5,471.3 369,478.3 369,478.3 369,478.3 "/>
		<polygon fill="#F2D8C4" stroke-width="1" stroke="#F2D8C4" points="362.5,471.3 362.4,456.8 374,465.3 362.5,471.3 362.5,471.3 362.5,471.3 "/>
		<polygon fill="#CCB6A2" stroke-width="1" stroke="#CCB6A2" points="369,478.3 374,465.3 379.7,491.3 369,478.3 369,478.3 369,478.3 "/>
		<polygon fill="#E0C7B3" stroke-width="1" stroke="#E0C7B3" points="374,465.3 396.8,462 379.7,442.3 374,465.3 374,465.3 374,465.3 "/>
		<polygon fill="#E0C7B3" stroke-width="1" stroke="#E0C7B3" points="374,465.3 396.8,462 379.7,491.3 374,465.3 374,465.3 374,465.3 "/>
		<polygon fill="#FAE4D2" stroke-width="1" stroke="#FAE4D2" points="379.7,491.3 376.7,507 394.3,514.2 379.7,491.3 379.7,491.3 379.7,491.3 "/>
		<polygon fill="#FAE4D2" stroke-width="1" stroke="#FAE4D2" points="376.7,507 374,527.1 394.3,514.2 376.7,507 376.7,507 376.7,507 "/>
		<polygon fill="#FAE4D2" stroke-width="1" stroke="#FAE4D2" points="374,527.1 362.1,514 369,505 374,527.1 374,527.1 374,527.1 "/>
		<polygon fill="#CCB6A2" stroke-width="1" stroke="#CCB6A2" points="369,505 376.7,507 374,527.1 369,505 369,505 369,505 "/>
		<polygon fill="#FAE4D2" stroke-width="1" stroke="#FAE4D2" points="394.3,514.2 401.6,495.1 379.7,491.3 394.3,514.2 394.3,514.2 394.3,514.2 "/>
		<polygon fill="#FAE4D2" stroke-width="1" stroke="#FAE4D2" points="401.6,495.1 396.8,462 379.7,491.3 401.6,495.1 401.6,495.1 401.6,495.1 "/>
		<polygon fill="#F2D8C4" stroke-width="1" stroke="#F2D8C4" points="412,474 413,514.4 401.6,495.1 412,474 412,474 412,474 "/>
		<polygon fill="#FAE4D2" stroke-width="1" stroke="#FAE4D2" points="412,474 396.8,462 401.6,495.1 412,474 412,474 412,474 "/>
		<polygon fill="#F2D8C4" stroke-width="1" stroke="#F2D8C4" points="401.6,495.1 394.3,514.2 413,514.4 401.6,495.1 401.6,495.1 401.6,495.1 "/>
		<polygon fill="#F2D8C4" stroke-width="1" stroke="#F2D8C4" points="394.3,514.2 398.8,527.2 413,514.4 394.3,514.2 394.3,514.2 394.3,514.2 "/>
		<polygon fill="#F2D8C4" stroke-width="1" stroke="#F2D8C4" points="398.8,527.2 374,527.1 394.3,514.2 398.8,527.2 398.8,527.2 398.8,527.2 "/>
		<polygon fill="#FAE4D2" stroke-width="1" stroke="#FAE4D2" points="413,514.4 425.2,507 412,474 413,514.4 413,514.4 413,514.4 "/>
		<polygon fill="#CCB6A2" stroke-width="1" stroke="#CCB6A2" points="425.2,507 430.7,489.7 412,474 425.2,507 425.2,507 425.2,507 "/>
		<polygon fill="#CCB6A2" stroke-width="1" stroke="#CCB6A2" points="430.7,489.7 434,456.7 412,474 430.7,489.7 430.7,489.7 430.7,489.7 "/>
		<polygon fill="#F2D8C4" stroke-width="1" stroke="#F2D8C4" points="436,401 420,402.7 442.7,362.4 436,401 436,401 436,401 "/>
		<polygon fill="#F2D8C4" stroke-width="1" stroke="#F2D8C4" points="436,401 430.7,430 420,402.7 436,401 436,401 436,401 "/>
		<polygon fill="#FAE4D2" stroke-width="1" stroke="#FAE4D2" points="392.5,277.2 392.9,307.6 376.5,268.4 392.5,277.2 392.5,277.2 392.5,277.2 "/>
		<polygon fill="#FAE4D2" stroke-width="1" stroke="#FAE4D2" points="392.5,277.2 416.6,289.5 392.9,307.6 392.5,277.2 392.5,277.2 392.5,277.2 "/>
		<polygon fill="#BF987E" stroke-width="1" stroke="#BF987E" points="186,-3 203.5,47.5 242.5,54 186,-3 186,-3 186,-3 "/>
		<polygon fill="#8C583F" stroke-width="1" stroke="#8C583F" points="186,-3 189.8,61.2 203.5,47.5 186,-3 186,-3 186,-3 "/>
		<polygon fill="#A38C6D" stroke-width="1" stroke="#A38C6D" points="189.8,61.2 242.5,54 203.5,47.5 189.8,61.2 189.8,61.2 189.8,61.2 "/>
		<polygon fill="#CDB495" stroke-width="1" stroke="#CDB495" points="242.5,54 277.2,42.3 267.8,54.3 242.5,54 242.5,54 242.5,54 "/>
		<polygon fill="#E3CEB5" stroke-width="1" stroke="#E3CEB5" points="267.8,54.3 281.7,42.3 302.7,47.5 267.8,54.3 267.8,54.3 267.8,54.3 "/>
		<polygon fill="#B97761" stroke-width="1" stroke="#B97761" points="302.7,47.5 346.5,19.3 318,72.2 302.7,47.5 302.7,47.5 302.7,47.5 "/>
		<polygon fill="#C5B093" stroke-width="1" stroke="#C5B093" points="346.5,19.3 372.2,0 359.3,54.3 346.5,19.3 346.5,19.3 346.5,19.3 "/>
		<polygon fill="#E3CBB4" stroke-width="1" stroke="#E3CBB4" points="318,72.2 359.3,54.3 346.5,19.3 318,72.2 318,72.2 318,72.2 "/>
		<polygon fill="#BCA48C" stroke-width="1" stroke="#BCA48C" points="318,72.2 342.2,86.6 359.3,54.3 318,72.2 318,72.2 318,72.2 "/>
		<polygon fill="#D3B89D" stroke-width="1" stroke="#D3B89D" points="342.2,86.6 355.4,79.6 360,93.5 342.2,86.6 342.2,86.6 342.2,86.6 "/>
		<polygon fill="#C5B093" stroke-width="1" stroke="#C5B093" points="360,93.5 372.2,93 372.9,113 360,93.5 360,93.5 360,93.5 "/>
		<polygon fill="#EAD4BE" stroke-width="1" stroke="#EAD4BE" points="372.9,113 387.4,108 376.8,137.5 372.9,113 372.9,113 372.9,113 "/>
		<polygon fill="#C8BCA5" stroke-width="1" stroke="#C8BCA5" points="157.7,138.5 196.8,138.4 185.2,128.6 157.7,138.5 157.7,138.5 157.7,138.5 "/>
		<polygon fill="#271E13" stroke-width="1" stroke="#271E13" points="173.3,153.8 181.6,172 202.7,162.8 173.3,153.8 173.3,153.8 173.3,153.8 "/>
		<polygon fill="#1A140F" stroke-width="1" stroke="#1A140F" points="173.3,153.8 172,175.6 157.9,175.3 173.3,153.8 173.3,153.8 173.3,153.8 "/>
		<g id="XMLID_1_">
			<g>
				<polygon fill="#271E13" stroke-width="1" stroke="#271E13" points="173.3,153.8 157.9,175.3 150.7,153.5 		"/>
			</g>
			<g>
			</g>
		</g>
		<polygon fill="#1B140F" stroke-width="1" stroke="#1B140F" points="150.7,153.5 157.7,138.5 173.3,153.8 150.7,153.5 150.7,153.5 150.7,153.5 "/>
		<polygon fill="#1B140F" stroke-width="1" stroke="#1B140F" points="173.3,153.8 196.8,138.4 157.7,138.5 173.3,153.8 173.3,153.8 173.3,153.8 "/>
		<polygon fill="#271E13" stroke-width="1" stroke="#271E13" points="173.3,153.8 196.8,138.4 202.7,162.8 173.3,153.8 173.3,153.8 173.3,153.8 "/>
		<polygon fill="#271E13" stroke-width="1" stroke="#271E13" points="173.3,153.8 172,175.6 181.6,172 173.3,153.8 173.3,153.8 173.3,153.8 "/>
		<polygon fill="#E7DCBD" stroke-width="1" stroke="#E7DCBD" points="185.2,128.6 216.1,114.6 232.3,128.5 185.2,128.6 185.2,128.6 185.2,128.6 "/>
		<polygon fill="#D5CFB8" stroke-width="1" stroke="#D5CFB8" points="196.8,138.4 232.3,128.5 185.2,128.6 196.8,138.4 196.8,138.4 196.8,138.4 "/>
		<polygon fill="#E7DCBD" stroke-width="1" stroke="#E7DCBD" points="208.9,167.5 214.3,142.6 242.5,151.7 208.9,167.5 208.9,167.5 208.9,167.5 "/>
		<polygon fill="#57422C" stroke-width="1" stroke="#57422C" points="214.3,142.6 196.8,138.4 202.7,162.8 214.3,142.6 214.3,142.6 214.3,142.6 "/>
		<polygon fill="#BCA587" stroke-width="1" stroke="#BCA587" points="202.7,162.8 208.9,167.5 214.3,142.6 202.7,162.8 202.7,162.8 202.7,162.8 "/>
		<polygon fill="#754B34" stroke-width="1" stroke="#754B34" points="214.3,142.6 232.3,128.5 196.8,138.4 214.3,142.6 214.3,142.6 214.3,142.6 "/>
		<polygon fill="#7F5A42" stroke-width="1" stroke="#7F5A42" points="214.3,142.6 242.5,151.7 232.3,128.5 214.3,142.6 214.3,142.6 214.3,142.6 "/>
		<polygon fill="#2E2011" stroke-width="1" stroke="#2E2011" points="216.1,114.6 249.7,113 232.3,128.5 216.1,114.6 216.1,114.6 216.1,114.6 "/>
		<polygon fill="#856D6A" stroke-width="1" stroke="#856D6A" points="216.1,114.6 251.7,79.6 249.7,113 216.1,114.6 216.1,114.6 216.1,114.6 "/>
		<polygon fill="#856D6A" stroke-width="1" stroke="#856D6A" points="249.7,113 272.6,75.4 251.7,79.6 249.7,113 249.7,113 249.7,113 "/>
		<polygon fill="#BFAE94" stroke-width="1" stroke="#BFAE94" points="251.7,79.6 267.8,54.3 272.6,75.4 251.7,79.6 251.7,79.6 251.7,79.6 "/>
		<polygon fill="#836249" stroke-width="1" stroke="#836249" points="216.1,114.6 201.4,106.1 228.4,81.7 216.1,114.6 216.1,114.6 216.1,114.6 "/>
		<polygon fill="#938078" stroke-width="1" stroke="#938078" points="228.4,81.7 216.1,114.6 251.7,79.6 228.4,81.7 228.4,81.7 228.4,81.7 "/>
		<polygon fill="#D7CFBC" stroke-width="1" stroke="#D7CFBC" points="228.4,81.7 242.5,54 251.7,79.6 228.4,81.7 228.4,81.7 228.4,81.7 "/>
		<polygon fill="#D3C2AC" stroke-width="1" stroke="#D3C2AC" points="251.7,79.6 242.5,54 267.8,54.3 251.7,79.6 251.7,79.6 251.7,79.6 "/>
		<polygon fill="#CEBBA0" stroke-width="1" stroke="#CEBBA0" points="208.9,167.5 224.3,173.2 242.5,151.7 208.9,167.5 208.9,167.5 208.9,167.5 "/>
		<polygon fill="#AD947C" stroke-width="1" stroke="#AD947C" points="224.3,173.2 255.2,161 242.5,151.7 224.3,173.2 224.3,173.2 224.3,173.2 "/>
		<polygon fill="#987C64" stroke-width="1" stroke="#987C64" points="255.2,161 302.7,159.3 242.5,151.7 255.2,161 255.2,161 255.2,161 "/>
		<path fill="none" stroke="#BF57A1" stroke-miterlimit="10" d="M232.3,128.5"/>
		<polygon fill="#322012" stroke-width="1" stroke="#322012" points="249.7,113 276.9,122.9 259.8,121.8 249.7,113 249.7,113 249.7,113 "/>
		<polygon fill="#704C35" stroke-width="1" stroke="#704C35" points="249.7,113 249.7,113 232.3,128.5 242.5,151.7 249.7,113 249.7,113 249.7,113 "/>
		<polygon fill="#2D1C12" stroke-width="1" stroke="#2D1C12" points="259.8,121.8 250,132.1 264.3,130.7 259.8,121.8 259.8,121.8 259.8,121.8 "/>
		<polygon fill="#704C35" stroke-width="1" stroke="#704C35" points="250,132.1 249.7,113 259.8,121.8 250,132.1 250,132.1 250,132.1 "/>
		<polygon fill="#6A4630" stroke-width="1" stroke="#6A4630" points="250,132.1 249.7,113 242.5,151.7 250,132.1 265,137.6 264.3,130.7 250,132.1 250,132.1 250,132.1
			"/>
		<polygon fill="#21150D" stroke-width="1" stroke="#21150D" points="264.3,130.7 276.9,122.9 259.8,121.8 264.3,130.7 264.3,130.7 264.3,130.7 "/>
		<polygon fill="#70442D" stroke-width="1" stroke="#70442D" points="265,137.6 276.9,122.9 264.3,130.7 265,137.6 265,137.6 265,137.6 "/>
		<polygon fill="#69432D" stroke-width="1" stroke="#69432D" points="265,137.6 276.9,122.9 291.5,122 265,137.6 265,137.6 265,137.6 "/>
		<polygon fill="#A97963" stroke-width="1" stroke="#A97963" points="249.7,113 266.4,97.1 291.5,114.7 249.7,113 249.7,113 249.7,113 "/>
		<polygon fill="#754B35" stroke-width="1" stroke="#754B35" points="276.9,122.9 291.5,114.7 291.5,122 276.9,122.9 276.9,122.9 276.9,122.9 "/>
		<polygon fill="#86686D" stroke-width="1" stroke="#86686D" points="266.4,97.1 272.6,75.4 249.7,113 266.4,97.1 266.4,97.1 266.4,97.1 "/>
		<polygon fill="#F9F4EC" stroke-width="1" stroke="#F9F4EC" points="272.6,75.4 267.8,54.3 302.7,47.5 272.6,75.4 272.6,75.4 272.6,75.4 "/>
		<polygon fill="#D5A789" stroke-width="1" stroke="#D5A789" points="272.6,75.4 318,72.2 302.7,47.5 272.6,75.4 272.6,75.4 272.6,75.4 "/>
		<polygon fill="#938078" stroke-width="1" stroke="#938078" points="291.5,114.7 295,85.3 266.4,97.1 291.5,114.7 291.5,114.7 291.5,114.7 "/>
		<polygon fill="#938078" stroke-width="1" stroke="#938078" points="272.6,75.4 295,85.3 266.4,97.1 272.6,75.4 272.6,75.4 272.6,75.4 "/>
		<polygon fill="#D3BEA8" stroke-width="1" stroke="#D3BEA8" points="295,85.3 318,72.2 272.6,75.4 295,85.3 295,85.3 295,85.3 "/>
		<polygon fill="#8D7157" stroke-width="1" stroke="#8D7157" points="295,85.3 324.4,102.9 291.5,114.7 295,85.3 295,85.3 295,85.3 "/>
		<polygon fill="#856D6A" stroke-width="1" stroke="#856D6A" points="324.4,102.9 318,72.2 295,85.3 324.4,102.9 324.4,102.9 324.4,102.9 "/>
		<polygon fill="#E9D8C5" stroke-width="1" stroke="#E9D8C5" points="324.4,102.9 342.2,86.6 318,72.2 324.4,102.9 324.4,102.9 324.4,102.9 "/>
		<polygon fill="#D6BDA3" stroke-width="1" stroke="#D6BDA3" points="324.4,102.9 360,93.5 342.2,86.6 324.4,102.9 324.4,102.9 324.4,102.9 "/>
		<polygon fill="#504229" stroke-width="1" stroke="#504229" points="291.5,114.7 324.5,120.8 324.4,102.9 291.5,114.7 291.5,114.7 291.5,114.7 "/>
		<polygon fill="#7A614A" stroke-width="1" stroke="#7A614A" points="324.4,102.9 348.1,111.7 347.9,126 324.4,102.9 324.4,102.9 324.4,102.9 "/>
		<polygon fill="#938078" stroke-width="1" stroke="#938078" points="324.5,120.8 324.4,102.9 347.9,126 324.5,120.8 324.5,120.8 324.5,120.8 "/>
		<polygon fill="#EAD4BE" stroke-width="1" stroke="#EAD4BE" points="348.1,111.7 360,93.5 324.4,102.9 348.1,111.7 348.1,111.7 348.1,111.7 "/>
		<polygon fill="#F4ECDF" stroke-width="1" stroke="#F4ECDF" points="348.1,111.7 372.9,113 360,93.5 348.1,111.7 348.1,111.7 348.1,111.7 "/>
		<polygon fill="#F8F1E8" stroke-width="1" stroke="#F8F1E8" points="347.9,126 372.9,113 348.1,111.7 347.9,126 347.9,126 347.9,126 "/>
		<polygon fill="#C6B6A4" stroke-width="1" stroke="#C6B6A4" points="347.9,126 376.8,137.5 372.9,113 347.9,126 347.9,126 347.9,126 "/>
		<polygon fill="#A28F73" stroke-width="1" stroke="#A28F73" points="302.7,159.3 314.7,171.7 318,153.8 302.7,159.3 302.7,159.3 302.7,159.3 "/>
		<polygon fill="#6A4630" stroke-width="1" stroke="#6A4630" points="242.5,151.7 265,137.6 250,132.1 242.5,151.7 242.5,151.7 242.5,151.7 "/>
		<polygon fill="#2E1F13" stroke-width="1" stroke="#2E1F13" points="265,137.6 291.4,146 242.5,151.7 265,137.6 265,137.6 265,137.6 "/>
		<polygon fill="#987C64" stroke-width="1" stroke="#987C64" points="291.4,146 302.7,159.3 242.5,151.7 291.4,146 291.4,146 291.4,146 "/>
		<polygon fill="#CAB59A" stroke-width="1" stroke="#CAB59A" points="291.4,146 318,153.8 302.7,159.3 291.4,146 291.4,146 291.4,146 "/>
		<polygon fill="#21150D" stroke-width="1" stroke="#21150D" points="291.4,146 291.5,122 265,137.6 291.4,146 291.4,146 291.4,146 "/>
		<polygon fill="#21150D" stroke-width="1" stroke="#21150D" points="291.5,122 324.5,120.8 291.5,114.7 291.5,122 291.5,122 291.5,122 "/>
		<polygon fill="#21150D" stroke-width="1" stroke="#21150D" points="291.4,146 324.5,120.8 291.5,122 291.4,146 291.4,146 291.4,146 "/>
		<polygon fill="#21150D" stroke-width="1" stroke="#21150D" points="291.4,146 318,153.8 324.5,120.8 291.4,146 291.4,146 291.4,146 "/>
		<polygon fill="#938078" stroke-width="1" stroke="#938078" points="318,153.8 347.9,126 324.5,120.8 318,153.8 318,153.8 318,153.8 "/>
		<polygon fill="#AE977D" stroke-width="1" stroke="#AE977D" points="318,153.8 336.4,177.3 314.7,171.7 318,153.8 318,153.8 318,153.8 "/>
		<polygon fill="#A0836C" stroke-width="1" stroke="#A0836C" points="314.7,171.7 277.3,196.8 299.3,200.3 314.7,171.7 314.7,171.7 314.7,171.7 "/>
		<polygon fill="#AD957E" stroke-width="1" stroke="#AD957E" points="314.7,171.7 336.4,177.3 329.4,190.4 314.7,171.7 314.7,171.7 314.7,171.7 "/>
		<polygon fill="#C8B299" stroke-width="1" stroke="#C8B299" points="314.7,171.7 299.3,200.3 317.6,204.3 314.7,171.7 314.7,171.7 314.7,171.7 "/>
		<polygon fill="#CDB79E" stroke-width="1" stroke="#CDB79E" points="317.6,204.3 329.4,190.4 314.7,171.7 317.6,204.3 317.6,204.3 317.6,204.3 "/>
		<polygon fill="#816A55" stroke-width="1" stroke="#816A55" points="336.4,177.3 373.1,175.2 346.5,159.2 336.4,177.3 336.4,177.3 336.4,177.3 "/>
		<polygon fill="#86686D" stroke-width="1" stroke="#86686D" points="336.4,177.3 318,153.8 346.5,159.2 336.4,177.3 336.4,177.3 336.4,177.3 "/>
		<polygon fill="#AD947C" stroke-width="1" stroke="#AD947C" points="346.5,159.2 383.7,155.2 350.6,140.1 346.5,159.2 346.5,159.2 346.5,159.2 "/>
		<polygon fill="#D4BDA4" stroke-width="1" stroke="#D4BDA4" points="346.5,159.2 373.1,175.2 383.7,155.2 346.5,159.2 346.5,159.2 346.5,159.2 "/>
		<polygon fill="#CDBAA7" stroke-width="1" stroke="#CDBAA7" points="383.7,155.2 376.8,137.5 350.6,140.1 383.7,155.2 383.7,155.2 383.7,155.2 "/>
		<polygon fill="#5A4B34" stroke-width="1" stroke="#5A4B34" points="350.6,140.1 347.9,126 376.8,137.5 350.6,140.1 350.6,140.1 350.6,140.1 "/>
		<polygon fill="#4C3F29" stroke-width="1" stroke="#4C3F29" points="350.6,140.1 318,153.8 347.9,126 350.6,140.1 350.6,140.1 350.6,140.1 "/>
		<polygon fill="#86686D" stroke-width="1" stroke="#86686D" points="350.6,140.1 346.5,159.2 318,153.8 350.6,140.1 350.6,140.1 350.6,140.1 "/>
		<polygon fill="#98805F" stroke-width="1" stroke="#98805F" points="189.8,61.2 182,93 204.1,70.5 189.8,61.2 189.8,61.2 189.8,61.2 "/>
		<polygon fill="#B4997A" stroke-width="1" stroke="#B4997A" points="204.1,70.5 242.5,54 189.8,61.2 204.1,70.5 204.1,70.5 204.1,70.5 "/>
		<polygon fill="#B4997A" stroke-width="1" stroke="#B4997A" points="204.1,70.5 228.4,81.7 242.5,54 204.1,70.5 204.1,70.5 204.1,70.5 "/>
		<polygon fill="#D5CFB8" stroke-width="1" stroke="#D5CFB8" points="182,93 161.8,108 178,112.9 182,93 182,93 182,93 "/>
		<polygon fill="#A98266" stroke-width="1" stroke="#A98266" points="178,112.9 169,134 161.8,108 178,112.9 178,112.9 178,112.9 "/>
		<polygon fill="#6A452E" stroke-width="1" stroke="#6A452E" points="178,112.9 185.2,128.6 169,134 178,112.9 178,112.9 178,112.9 "/>
		<polygon fill="#A1977B" stroke-width="1" stroke="#A1977B" points="182,93 196.8,100 178,112.9 182,93 182,93 182,93 "/>
		<polygon fill="#B79074" stroke-width="1" stroke="#B79074" points="196.8,100 201.4,106.1 194.8,114.6 196.8,100 196.8,100 196.8,100 "/>
		<polygon fill="#A77862" stroke-width="1" stroke="#A77862" points="194.8,114.6 178,112.9 196.8,100 194.8,114.6 194.8,114.6 194.8,114.6 "/>
		<polygon fill="#2F1C10" stroke-width="1" stroke="#2F1C10" points="178,112.9 187.3,124.7 194.8,114.6 178,112.9 178,112.9 178,112.9 "/>
		<polygon fill="#5E5039" stroke-width="1" stroke="#5E5039" points="187.3,124.7 178,112.9 185.2,128.6 187.3,124.7 187.3,124.7 187.3,124.7 "/>
		<polygon fill="#7B5F40" stroke-width="1" stroke="#7B5F40" points="201.4,106.1 204.1,70.5 228.4,81.7 201.4,106.1 201.4,106.1 201.4,106.1 "/>
		<polygon fill="#98805F" stroke-width="1" stroke="#98805F" points="201.4,106.1 196.8,100 204.1,70.5 201.4,106.1 201.4,106.1 201.4,106.1 "/>
		<polygon fill="#927959" stroke-width="1" stroke="#927959" points="196.8,100 182,93 204.1,70.5 196.8,100 196.8,100 196.8,100 "/>
		<polygon fill="#D4BDA4" stroke-width="1" stroke="#D4BDA4" points="336.4,177.3 362.6,195 373.1,175.2 336.4,177.3 336.4,177.3 336.4,177.3 "/>
		<polygon fill="#856D6A" stroke-width="1" stroke="#856D6A" points="277.3,196.8 234.4,222.3 288.7,211.7 277.3,196.8 277.3,196.8 277.3,196.8 "/>
		<polygon fill="#856D6A" stroke-width="1" stroke="#856D6A" points="277.3,196.8 299.3,200.3 288.7,211.7 277.3,196.8 277.3,196.8 277.3,196.8 "/>
		<polygon fill="#17120F" stroke-width="1" stroke="#17120F" points="288.7,211.7 246.3,235.6 234.4,222.3 288.7,211.7 288.7,211.7 288.7,211.7 "/>
		<polygon fill="#FFFFFF" stroke-width="1" stroke="#FFFFFF" points="172,175.6 181.2,188.3 181.6,172 172,175.6 172,175.6 172,175.6 "/>
		<polygon fill="#FFFFFF" stroke-width="1" stroke="#FFFFFF" points="208.9,167.5 218,190.9 224.3,173.2 208.9,167.5 208.9,167.5 208.9,167.5 "/>
		<polygon fill="#19140F" stroke-width="1" stroke="#19140F" points="181.6,172 192.3,188.5 181.2,188.3 181.6,172 181.6,172 181.6,172 "/>
		<polygon fill="#634531" stroke-width="1" stroke="#634531" points="181.2,188.3 176.6,202 192.3,188.5 181.2,188.3 181.2,188.3 181.2,188.3 "/>
		<polygon fill="#634531" stroke-width="1" stroke="#634531" points="176.6,202 194.7,205.7 192.3,188.5 176.6,202 176.6,202 176.6,202 "/>
		<polygon fill="#805F4C" stroke-width="1" stroke="#805F4C" points="176.6,202 181,213.7 194.7,205.7 176.6,202 176.6,202 176.6,202 "/>
		<polygon fill="#7F5F4D" stroke-width="1" stroke="#7F5F4D" points="194.7,205.7 181,213.7 190.5,226.1 194.7,205.7 194.7,205.7 194.7,205.7 "/>
		<polygon fill="#AC927D" stroke-width="1" stroke="#AC927D" points="181,213.7 173.7,230.7 190.5,226.1 181,213.7 181,213.7 181,213.7 "/>
		<polygon fill="#A57A68" stroke-width="1" stroke="#A57A68" points="173.7,230.7 176.9,249.3 184.5,238.7 173.7,230.7 173.7,230.7 173.7,230.7 "/>
		<polygon fill="#B49D86" stroke-width="1" stroke="#B49D86" points="184.5,238.7 190.5,226.1 173.7,230.7 184.5,238.7 184.5,238.7 184.5,238.7 "/>
		<polygon fill="#E4E0C9" stroke-width="1" stroke="#E4E0C9" points="190.5,226.1 190.3,248.9 184.5,238.7 190.5,226.1 190.5,226.1 190.5,226.1 "/>
		<polygon fill="#2B2119" stroke-width="1" stroke="#2B2119" points="190.3,248.9 176.9,249.3 184.5,238.7 190.3,248.9 190.3,248.9 190.3,248.9 "/>
		<polygon fill="#E4E0C9" stroke-width="1" stroke="#E4E0C9" points="190.3,248.9 194.8,242 196.9,253.5 190.3,248.9 190.3,248.9 190.3,248.9 "/>
		<polygon fill="#E4E0C9" stroke-width="1" stroke="#E4E0C9" points="196.9,253.5 200.1,247.7 202.8,253.5 196.9,253.5 196.9,253.5 196.9,253.5 "/>
		<polygon fill="#E4E0C9" stroke-width="1" stroke="#E4E0C9" points="202.8,253.5 206.6,249 203.5,245.7 202.8,253.5 202.8,253.5 202.8,253.5 "/>
		<polygon fill="#E4E0C9" stroke-width="1" stroke="#E4E0C9" points="206.6,249 206.2,235.9 213.7,242.8 206.6,249 206.6,249 206.6,249 "/>
		<polygon fill="#E4E0C9" stroke-width="1" stroke="#E4E0C9" points="192.3,237.5 197.9,236.4 194.8,230.7 192.3,237.5 192.3,237.5 192.3,237.5 "/>
		<polygon fill="#583E2A" stroke-width="1" stroke="#583E2A" points="199.7,226.7 199.5,219 205.1,226.5 199.7,226.7 199.7,226.7 199.7,226.7 "/>
		<polygon fill="#AD977D" stroke-width="1" stroke="#AD977D" points="205,219 206.3,210 215,211.6 205,219 205,219 205,219 "/>
		<polygon fill="#2B2119" stroke-width="1" stroke="#2B2119" points="213.8,242.9 215.4,253.5 206.6,248.9 213.8,242.9 213.8,242.9 213.8,242.9 "/>
		<polygon fill="#2A2019" stroke-width="1" stroke="#2A2019" points="206.6,249 202.8,253.5 215.5,253.4 206.6,249 206.6,249 206.6,249 "/>
		<polygon fill="#2A2019" stroke-width="1" stroke="#2A2019" points="202.8,253.5 215.5,253.4 200.7,261.6 202.8,253.5 202.8,253.5 202.8,253.5 "/>
		<polygon fill="#2A2019" stroke-width="1" stroke="#2A2019" points="202.8,253.5 196.9,253.5 200.7,261.6 202.8,253.5 202.8,253.5 202.8,253.5 "/>
		<polygon fill="#2A2019" stroke-width="1" stroke="#2A2019" points="200.7,261.6 187,261.5 196.9,253.5 200.7,261.6 200.7,261.6 200.7,261.6 "/>
		<polygon fill="#483E37" stroke-width="1" stroke="#483E37" points="196.9,253.5 190.3,248.9 187,261.5 196.9,253.5 196.9,253.5 196.9,253.5 "/>
		<polygon fill="#483E37" stroke-width="1" stroke="#483E37" points="187,261.5 176.9,249.3 190.3,248.9 187,261.5 187,261.5 187,261.5 "/>
		<polygon fill="#AD977D" stroke-width="1" stroke="#AD977D" points="205,219 205.1,226.5 215,211.6 205,219 205,219 205,219 "/>
		<polygon fill="#FFFFFF" stroke-width="1" stroke="#FFFFFF" points="206.3,210 211.3,207.8 215,211.6 206.3,210 206.3,210 206.3,210 "/>
		<polygon fill="#583E2A" stroke-width="1" stroke="#583E2A" points="215,211.6 222.7,197.6 211.3,207.8 215,211.6 215,211.6 215,211.6 "/>
		<polygon fill="#E4E0C9" stroke-width="1" stroke="#E4E0C9" points="205.1,226.5 213.7,242.8 206.2,235.9 205.1,226.5 205.1,226.5 205.1,226.5 "/>
		<polygon fill="#17130F" stroke-width="1" stroke="#17130F" points="206.2,235.9 197.9,236.4 205.1,226.5 206.2,235.9 206.2,235.9 206.2,235.9 "/>
		<polygon fill="#17130F" stroke-width="1" stroke="#17130F" points="194.8,230.7 205.1,226.5 197.9,236.4 194.8,230.7 194.8,230.7 194.8,230.7 "/>
		<polygon fill="#583E2A" stroke-width="1" stroke="#583E2A" points="194.8,230.7 199.7,226.7 205.1,226.5 194.8,230.7 194.8,230.7 194.8,230.7 "/>
		<polygon fill="#17130F" stroke-width="1" stroke="#17130F" points="192.3,237.5 194.8,242 190.3,248.9 192.3,237.5 192.3,237.5 192.3,237.5 "/>
		<polygon fill="#A57A68" stroke-width="1" stroke="#A57A68" points="192.3,237.5 190.5,226.1 190.3,248.9 192.3,237.5 192.3,237.5 192.3,237.5 "/>
		<polygon fill="#010101" stroke-width="1" stroke="#010101" points="192.3,237.5 194.8,230.7 190.5,226.1 192.3,237.5 192.3,237.5 192.3,237.5 "/>
		<polygon fill="#17130F" stroke-width="1" stroke="#17130F" points="203.5,245.7 206.6,249 206.2,235.9 197.9,236.4 203.5,245.7 203.5,245.7 203.5,245.7 "/>
		<polygon fill="#17130F" stroke-width="1" stroke="#17130F" points="197.9,236.4 192.3,237.5 194.8,242 196.9,253.5 200.1,247.7 202.8,253.5 203.5,245.7 197.9,236.4
			197.9,236.4 197.9,236.4 "/>
		<polygon fill="#856D6A" stroke-width="1" stroke="#856D6A" points="234.4,222.3 246,206.2 277.3,196.8 234.4,222.3 234.4,222.3 234.4,222.3 "/>
		<polygon fill="#18120F" stroke-width="1" stroke="#18120F" points="246,206.2 277.4,186 277.3,196.8 246,206.2 246,206.2 246,206.2 "/>
		<polygon fill="#18120F" stroke-width="1" stroke="#18120F" points="277.3,196.8 277.4,186 314.7,171.7 277.3,196.8 277.3,196.8 277.3,196.8 "/>
		<polygon fill="#564A36" stroke-width="1" stroke="#564A36" points="314.7,171.7 302.7,159.3 296.1,173.3 314.7,171.7 314.7,171.7 314.7,171.7 "/>
		<polygon fill="#7C6F57" stroke-width="1" stroke="#7C6F57" points="314.7,171.7 296.1,173.3 277.4,186 314.7,171.7 314.7,171.7 314.7,171.7 "/>
		<polygon fill="#987C64" stroke-width="1" stroke="#987C64" points="255.2,161 296.1,173.3 302.7,159.3 255.2,161 255.2,161 255.2,161 "/>
		<polygon fill="#987C64" stroke-width="1" stroke="#987C64" points="255.2,161 277.4,186 296.1,173.3 255.2,161 255.2,161 255.2,161 "/>
		<polygon fill="#BC8474" stroke-width="1" stroke="#BC8474" points="215.5,253.4 228.4,274 233.9,257.5 215.5,253.4 215.5,253.4 215.5,253.4 "/>
		<polygon fill="#906153" stroke-width="1" stroke="#906153" points="228.4,274 237.3,276 233.9,257.5 228.4,274 228.4,274 228.4,274 "/>
		<polygon fill="#A86D5F" stroke-width="1" stroke="#A86D5F" points="237.3,276 246.3,268.7 233.9,257.5 237.3,276 237.3,276 237.3,276 "/>
		<polygon fill="#DEBCAE" stroke-width="1" stroke="#DEBCAE" points="246.3,268.7 247.9,243.9 233.9,257.5 246.3,268.7 246.3,268.7 246.3,268.7 "/>
		<polygon fill="#DDBDAE" stroke-width="1" stroke="#DDBDAE" points="247.9,243.9 233.9,257.5 235.2,235.6 247.9,243.9 247.9,243.9 247.9,243.9 "/>
		<polygon fill="#BD8574" stroke-width="1" stroke="#BD8574" points="235.2,235.6 225.7,242 233.9,257.5 235.2,235.6 235.2,235.6 235.2,235.6 "/>
		<polygon fill="#B98070" stroke-width="1" stroke="#B98070" points="225.7,242 213.7,242.8 233.9,257.5 225.7,242 225.7,242 225.7,242 "/>
		<polyline fill="#AD7261" stroke-width="1" stroke="#AD7261" points="233.9,257.5 215.5,253.4 213.7,242.8 213.7,242.8 "/>
		<polygon fill="#906153" stroke-width="1" stroke="#906153" points="205.1,226.5 235.2,235.6 225.7,242 205.1,226.5 205.1,226.5 205.1,226.5 "/>
		<polygon fill="#DCB59D" stroke-width="1" stroke="#DCB59D" points="225.7,242 213.7,242.8 205.1,226.5 225.7,242 225.7,242 225.7,242 "/>
		<polygon fill="#010101" stroke-width="1" stroke="#010101" points="218,190.9 222.7,197.6 216,197.1 211.3,207.8 206.3,210 205.1,226.5 199.5,219 199.7,226.7
			194.8,230.7 190.5,226.1 194.7,205.7 192.3,188.5 181.6,172 202.7,162.8 208.9,167.5 218,190.9 218,190.9 218,190.9 "/>
		<polygon fill="#59402E" stroke-width="1" stroke="#59402E" points="247.9,243.9 246.3,235.6 235.2,235.6 247.9,243.9 247.9,243.9 247.9,243.9 "/>
		<polygon fill="#453121" stroke-width="1" stroke="#453121" points="246.3,235.6 234.4,222.3 235.2,235.6 246.3,235.6 246.3,235.6 246.3,235.6 "/>
		<polygon fill="#59412E" stroke-width="1" stroke="#59412E" points="235.2,235.6 205.1,226.5 234.4,222.3 235.2,235.6 235.2,235.6 235.2,235.6 "/>
		<polygon fill="#A86D5F" stroke-width="1" stroke="#A86D5F" points="205.1,226.5 222.7,197.6 234.4,222.3 205.1,226.5 205.1,226.5 205.1,226.5 "/>
		<polygon fill="#906153" stroke-width="1" stroke="#906153" points="234.4,222.3 246,206.2 222.7,197.6 234.4,222.3 234.4,222.3 234.4,222.3 "/>
		<polygon fill="#322115" stroke-width="1" stroke="#322115" points="222.7,197.6 246.1,190.7 246,206.2 222.7,197.6 222.7,197.6 222.7,197.6 "/>
		<polygon fill="#010101" stroke-width="1" stroke="#010101" points="246.1,190.7 224.3,173.2 218,190.9 246.1,190.7 246.1,190.7 246.1,190.7 "/>
		<polygon fill="#010101" stroke-width="1" stroke="#010101" points="218,190.9 246.1,190.7 222.7,197.6 218,190.9 218,190.9 218,190.9 "/>
		<polygon fill="#856D6A" stroke-width="1" stroke="#856D6A" points="246.1,190.7 277.4,186 246,206.2 246.1,190.7 246.1,190.7 246.1,190.7 "/>
		<polygon fill="#987C64" stroke-width="1" stroke="#987C64" points="246.1,190.7 277.4,186 224.3,173.2 246.1,190.7 246.1,190.7 246.1,190.7 "/>
		<polygon fill="#AD947C" stroke-width="1" stroke="#AD947C" points="255.2,161 224.3,173.2 277.4,186 255.2,161 255.2,161 255.2,161 "/>
		<polygon fill="#9F9781" stroke-width="1" stroke="#9F9781" points="187.3,124.7 216.1,114.6 185.2,128.6 187.3,124.7 "/>
		<polygon fill="#70442D" stroke-width="1" stroke="#70442D" points="187.3,124.7 194.8,114.6 216.1,114.6 187.3,124.7 "/>
		<polygon fill="#68432C" stroke-width="1" stroke="#68432C" points="194.8,114.6 201.4,106.1 216.1,114.6 194.8,114.6 "/>
		<polyline fill="#65442D" stroke-width="1" stroke="#65442D" points="250,113 250,113 291.5,114.7 276.9,122.9 "/>
		<polygon fill="#FFFFFF" stroke-width="1" stroke="#FFFFFF" points="222.7,197.6 216,197.1 211.3,207.8 222.7,197.6 "/>
	</g>
</svg>
