<?xml version="1.0" encoding="utf-8"?>
<svg version="1.1" xmlns="http://www.w3.org/2000/svg" xmlns:xlink="http://www.w3.org/1999/xlink" x="0px" y="0px"
	 width="595.3px" height="841.9px" viewBox="0 0 595.3 841.9" enable-background="new 0 0 595.3 841.9" xml:space="preserve">
	<g id="character">
		<g>
			<polygon fill="#45261A" points="131,750 124.7,665.8 109,750 	"/>
			<path fill="#45261A" d="M520,774h0.3l-10.7-26.8l-8-18.7l8-15.1l-20-12.4l-6.1-26.3l24.1-13.7l-9.3-25.3l-8.7-34.5l-3-28.2l-2-25.3
				l-5.3-26.7L467,488.7l-8-44.1l-3.7-32.7L438,391.1l-20.8-28.8l-29.5-31.7L357.4,307l-47.7,7l-5.6,3.3l-10.2-7.6l4.9-24.4l10.9-18.4
				l10.7-25.4l12.6-25.8l20-8.7l22.3-2l19.7,18.3l-8.1,30.9l-14.6-1.2l12.3,20.6l18.3-9.1l14.7-30.2l-19.4-31.7l-23.2-24.7l-14.9-17.3
				L339,153l-24.7,7.8l-20.8,8.6l-29.2,8.3l-6,18.3L235,209.7l-33,21.9l-1.2,19.9l0,0l1.2-19.9L183.8,253l-21.3-1.4l7.2-58.6l4.7-37
				l5.1-54.5l20-91l-25,48.2l-6-57.2l-17.4,13l6.4,42l-9.1,78.5l-0.7,51.8L132.5,249l10.9,1.5L99.2,249l29,30.2l25.7,21.9L179,315
				l22.8,10.5l33.5-7l3.6,21.8l17.5,4.5L226,362.3l-26.2,29.3l-19.1,23l-4.2,44.7l14.9,25.3l23.6,9l8.5,28.5l-0.3,0.1L193.7,512
				L165,500.6l-2.7-48.9l-12-6.8l-5.4-15.3l-14.8,9.5l-2.8,19l-18.4-6.3l16.6,18.6l-5.2,28.9l7,18.5l-2.3,20.1l-0.7,31.7l-11,30.5
				l-10.9,54.6l6.6,94.9l15.7-83.7l-0.6-40.3l16.3-71.8l6.2-29l7.1,1.1l16,12l39.3,15.8l22.3-0.8l-8.7,26.5l-17.2,44.5l19.1-12.2
				l-4.2,18l-14.6,9l5.8,10.9l-5.8,13.8L198,683l22.3-0.3l-22,0.3l-1.9,17.7l8,17.6l8.7,13.4l14.3-3.9l10.7-12.6l1.5-23.1l-10.3-22.8
				l10.3-14.8l-10.3-13.6l7-18.9l31.3,34.4l33.6,27l11-25l6.7,42.4l31.4,4.4l3.9-32.4l12.2,44.3l27-4l40.8-13.7l31.5-15l11.8,32
				L463.3,735l14.2,20.3l-14.2,31.3l2,31.7l14.7,17.3l19.7,5.3l12-18.3l11-24.1L520,774z M217,251.6l-15.9,0.4l0,0L217,251.6z"/>
		</g>
		<path fill="#FCDBA1" d="M238.9,340.6l-5.4-18.5l-16.2-1.8L203,332.8l-8.3,16.6L156.5,324L123,312.7l-20.7,28.6l7,12.9L86.8,372
			l-13.5,34.3l-0.3,13l19-0.4l36.2-29.6l13.8,12.6l-13.6,17.4l1.7,20l22.1-2.4l22.7-17.7l-4-17.4l4,17.2l18.7-29.8L203,376l11.2-5.7
			l10.5,5.7l7.8-13.2l-7.4-8.7L238.9,340.6z M128.3,372.2l0.2,0l23.8,3.8L128.3,372.2z"/>
		<polygon fill="#FDECC4" points="109.5,353.8 86.8,371.7 109.4,375.7 109.5,353.8 109.5,353.8 109.5,353.8 "/>
		<polygon fill="#FCCF9F" points="86.8,371.7 73.3,406 109.4,375.7 86.8,371.7 86.8,371.7 86.8,371.7 "/>
		<polygon fill="#E9AC7E" points="73.3,406 73,419 92,418.6 73.3,406 73.3,406 73.3,406 "/>
		<polygon fill="#F6BE8F" points="73.3,406 109.4,375.7 92,418.6 73.3,406 73.3,406 73.3,406 "/>
		<polygon fill="#F6C59C" points="92,418.6 128.2,389 109.4,375.7 92,418.6 92,418.6 92,418.6 "/>
		<polygon fill="#FCDBA1" points="109.5,353.8 128.5,357.7 109.4,375.7 109.5,353.8 109.5,353.8 109.5,353.8 "/>
		<polygon fill="#F2CC94" points="109.5,354.2 102.3,341 119,340.6 109.5,354.2 109.5,354.2 109.5,354.2 "/>
		<polygon fill="#F3CB96" points="102.3,341 123,312.4 119,340.6 102.3,341 102.3,341 102.3,341 "/>
		<polygon fill="#DE9060" points="119,340.6 123,312.4 140.3,337 119,340.6 119,340.6 119,340.6 "/>
		<polygon fill="#F4BA84" points="119,340.6 109.5,353.8 128.5,357.7 119,340.6 119,340.6 119,340.6 "/>
		<polygon fill="#FCDAA9" points="128.5,357.7 119,340.6 140.3,337 128.5,357.7 128.5,357.7 128.5,357.7 "/>
		<polygon fill="#EFC48B" points="128.5,357.7 156.3,349.3 140.3,337 128.5,357.7 128.5,357.7 128.5,357.7 "/>
		<polygon fill="#D89961" points="128.2,389 152.3,375.7 128,371.8 128.2,389 128.2,389 128.2,389 "/>
		<polygon fill="#F69277" points="109.4,375.7 128,371.8 128.2,389 109.4,375.7 109.4,375.7 109.4,375.7 "/>
		<polygon fill="#E9B57E" points="109.4,375.7 128.5,357.7 128.5,371.8 109.4,375.7 109.4,375.7 109.4,375.7 "/>
		<polygon fill="#A32322" points="128.5,357.7 152.3,375.7 128.5,371.8 128.5,357.7 128.5,357.7 128.5,357.7 "/>
		<polygon fill="#020202" points="128.5,357.7 156.3,349.3 162.3,361.2 128.5,357.7 128.5,357.7 128.5,357.7 "/>
		<polygon fill="#D57A42" points="128.5,357.7 152.3,375.7 162.3,361.2 128.5,357.7 128.5,357.7 128.5,357.7 "/>
		<polygon fill="#B74D39" points="128.2,389 142.1,401.6 152.3,375.7 128.2,389 128.2,389 128.2,389 "/>
		<polygon fill="#DC895D" points="142.1,401.6 171,401.6 152.3,375.7 142.1,401.6 142.1,401.6 142.1,401.6 "/>
		<polygon fill="#DBA97F" points="142.1,401.6 128.5,419 145.1,418.9 142.1,401.6 142.1,401.6 142.1,401.6 "/>
		<polygon fill="#D1AA79" points="128.5,419 130.2,439 145.1,418.9 128.5,419 128.5,419 128.5,419 "/>
		<polygon fill="#ECBE94" points="130.2,439 152.3,436.7 145.1,418.9 130.2,439 130.2,439 130.2,439 "/>
		<polygon fill="#EBC49D" points="145.1,418.9 171,401.6 142.1,401.6 145.1,418.9 145.1,418.9 145.1,418.9 "/>
		<polygon fill="#F5D0A9" points="145.1,418.9 152.3,436.7 175,419 145.1,418.9 145.1,418.9 145.1,418.9 "/>
		<polygon fill="#F6D3AD" points="145.1,418.9 171,401.6 175,419 145.1,418.9 145.1,418.9 145.1,418.9 "/>
		<polygon fill="#ECBD9C" points="171,401.6 193.7,389 175,418.8 171,401.6 171,401.6 171,401.6 "/>
		<polygon fill="#E8A26E" points="152.3,375.7 162.3,361.2 186.3,366.7 152.3,375.7 152.3,375.7 152.3,375.7 "/>
		<polygon fill="#E4A978" points="152.3,375.7 171,401.6 186.3,366.7 152.3,375.7 152.3,375.7 152.3,375.7 "/>
		<polygon fill="#E7B485" points="186.3,366.7 193.7,389 171,401.6 186.3,366.7 186.3,366.7 186.3,366.7 "/>
		<polygon fill="#E8AB7D" points="193.7,389 203,375.7 186.3,366.7 193.7,389 193.7,389 193.7,389 "/>
		<polygon fill="#EFC48B" points="162.3,361.2 156.3,349.3 175,349.5 162.3,361.2 162.3,361.2 162.3,361.2 "/>
		<polygon fill="#EDBB88" points="162.3,361.2 175,349.5 186.3,366.7 162.3,361.2 162.3,361.2 162.3,361.2 "/>
		<polygon fill="#FAB38A" points="186.3,366.7 194.7,349.1 175,349.5 186.3,366.7 186.3,366.7 186.3,366.7 "/>
		<polygon fill="#E0A879" points="186.3,366.7 203,375.7 205.6,355.5 186.3,366.7 186.3,366.7 186.3,366.7 "/>
		<polygon fill="#E9A97B" points="205.6,355.5 186.3,366.7 194.7,349.1 205.6,355.5 205.6,355.5 205.6,355.5 "/>
		<polygon fill="#DEA077" points="156.3,349.3 156.5,323.7 175,349.5 156.3,349.3 156.3,349.3 156.3,349.3 "/>
		<polygon fill="#DEA077" points="175,349.5 194.7,349.1 156.5,323.7 175,349.5 175,349.5 175,349.5 "/>
		<polygon fill="#DE9060" points="140.3,337 156.5,323.7 156.3,349.3 140.3,337 140.3,337 140.3,337 "/>
		<polygon fill="#DE9060" points="140.3,337 123,312.4 156.5,323.7 140.3,337 140.3,337 140.3,337 "/>
		<polygon fill="#FBBA8B" points="203,375.7 214.2,370 205.6,355.5 203,375.7 203,375.7 203,375.7 "/>
		<polygon fill="#E8AA77" points="214.2,370 224.8,375.7 232.5,362.5 214.2,370 214.2,370 214.2,370 "/>
		<polygon fill="#EDA674" points="232.5,362.5 225.1,353.8 214.2,370 232.5,362.5 232.5,362.5 232.5,362.5 "/>
		<polygon fill="#DD8B67" points="225.1,353.8 238.9,340.2 225.4,336.2 225.1,353.8 225.1,353.8 225.1,353.8 "/>
		<polygon fill="#BE7A5A" points="225.4,336.2 233.5,321.8 238.9,340.2 225.4,336.2 225.4,336.2 225.4,336.2 "/>
		<polygon fill="#B67C56" points="233.5,321.8 217.2,320 225.4,336.2 233.5,321.8 233.5,321.8 233.5,321.8 "/>
		<polygon fill="#D3A37E" points="217.2,320 203,332.5 225.4,336.2 217.2,320 217.2,320 217.2,320 "/>
		<polygon fill="#F5AF83" points="203,332.5 194.7,349.1 205.6,355.5 203,332.5 203,332.5 203,332.5 "/>
		<polygon fill="#DA8B5D" points="203,332.5 225.4,336.2 205.6,355.5 203,332.5 203,332.5 203,332.5 "/>
		<polygon fill="#E8986B" points="205.6,355.5 225.4,336.2 225.1,353.8 205.6,355.5 205.6,355.5 205.6,355.5 "/>
		<polygon fill="#DF9F65" points="205.6,355.5 214.2,370 225.1,353.8 205.6,355.5 205.6,355.5 205.6,355.5 "/>
		<polygon fill="#56343A" points="109,750 131,750 124.7,665.8 109,750 109,750 109,750 "/>
		<polygon fill="#7A3F35" points="109,749.5 102.4,654.6 124.7,665.8 109,749.5 109,749.5 109,749.5 "/>
		<polygon fill="#56343A" points="102.4,654.6 124.1,625.5 124.7,665.8 102.4,654.6 102.4,654.6 102.4,654.6 "/>
		<polygon fill="#7A3F35" points="102.4,654.6 113.2,600 124.1,625.5 102.4,654.6 102.4,654.6 102.4,654.6 "/>
		<polygon fill="#7A3F35" points="124.1,625.5 113.2,600 124.3,569.5 124.1,625.5 124.1,625.5 124.1,625.5 "/>
		<polygon fill="#56343A" points="124.1,625.5 140.4,553.7 124.3,569.5 124.1,625.5 124.1,625.5 124.1,625.5 "/>
		<polygon fill="#7A3F35" points="124.3,569.5 125,537.8 140.4,553.7 124.3,569.5 124.3,569.5 124.3,569.5 "/>
		<polygon fill="#56343A" points="140.4,553.7 149,513.2 125,537.8 140.4,553.7 140.4,553.7 140.4,553.7 "/>
		<polygon fill="#7A3F35" points="125,537.8 128.5,507.8 149,513.2 125,537.8 125,537.8 125,537.8 "/>
		<polygon fill="#7A3F35" points="130.2,439 125.6,470.3 159.3,470.3 145,429.5 130.2,439 130.2,439 130.2,439 "/>
		<polygon fill="#56343A" points="132.5,249 162.3,253 169.7,193 132.5,249 132.5,249 132.5,249 "/>
		<polygon fill="#7A3F35" points="132.5,249 147.8,186.8 169.7,193 132.5,249 132.5,249 132.5,249 "/>
		<polygon fill="#553339" points="147.8,186.8 148.4,135 174.4,156 147.8,186.8 147.8,186.8 147.8,186.8 "/>
		<polyline fill="#56343A" points="147.8,186.8 174.4,156 169.7,193 147.8,186.8 "/>
		<polygon fill="#7A3F35" points="174.4,156 179.5,101.5 148.4,135 174.4,156 174.4,156 174.4,156 "/>
		<polygon fill="#864F46" points="148.4,135 157.5,56.5 179.5,101.5 148.4,135 148.4,135 148.4,135 "/>
		<polygon fill="#D8A275" points="179.5,101.5 199.5,10.5 174.5,58.7 179.5,101.5 179.5,101.5 179.5,101.5 "/>
		<polygon fill="#814D4A" points="157.5,56.5 151.1,14.5 174.5,58.7 157.5,56.5 157.5,56.5 157.5,56.5 "/>
		<polygon fill="#9F6353" points="157.5,56.5 179.5,101.5 174.5,58.7 157.5,56.5 157.5,56.5 157.5,56.5 "/>
		<polygon fill="#DCAD7A" points="174.5,58.7 168.5,1.5 151.1,14.5 174.5,58.7 174.5,58.7 174.5,58.7 "/>
		<polygon fill="#FEF5D2" points="131.5,288.2 100.5,313.8 123,312.4 131.5,288.2 131.5,288.2 131.5,288.2 "/>
		<polygon fill="#FEF5D2" points="100.5,313.8 79,321.8 123,312.4 100.5,313.8 100.5,313.8 100.5,313.8 "/>
		<polygon fill="#FDEFCE" points="131.5,288.2 158.5,275 162.3,291 131.5,288.2 131.5,288.2 131.5,288.2 "/>
		<polygon fill="#FDEFCE" points="158.5,275 189.8,264.2 162.3,291 158.5,275 158.5,275 158.5,275 "/>
		<polygon fill="#FDEFCE" points="189.8,264.2 221.1,268.5 198.2,283.4 189.8,264.2 189.8,264.2 189.8,264.2 "/>
		<polygon fill="#FDEFCE" points="221.1,268.5 243.4,280.8 221.2,292.6 221.1,268.5 221.1,268.5 221.1,268.5 "/>
		<polygon fill="#FDEFCE" points="243.4,280.8 255.2,299.5 232.5,305 243.4,280.8 243.4,280.8 243.4,280.8 "/>
		<polygon fill="#FDEFCE" points="255.2,299.5 264.2,321.8 250.2,333.6 255.2,299.5 255.2,299.5 255.2,299.5 "/>
		<polygon fill="#E4CCA0" points="264.2,321.8 272.2,350.8 250.2,333.6 264.2,321.8 264.2,321.8 264.2,321.8 "/>
		<polygon fill="#C5A088" points="272.2,350.8 261.2,379.5 253.2,352 272.2,350.8 272.2,350.8 272.2,350.8 "/>
		<polygon fill="#C5A088" points="261.2,379.5 264.2,395.5 247.5,382.2 261.2,379.5 261.2,379.5 261.2,379.5 "/>
		<polygon fill="#DFC0A8" points="264.2,395.5 268.5,417.2 250.2,401.4 264.2,395.5 264.2,395.5 264.2,395.5 "/>
		<polygon fill="#D0A08C" points="268.5,417.2 264.2,438 253.2,415 268.5,417.2 268.5,417.2 268.5,417.2 "/>
		<polygon fill="#FCE3C6" points="253.2,415 255.9,438 245.5,440.8 253.2,415 253.2,415 253.2,415 "/>
		<polygon fill="#FCE3C6" points="255.9,438 250.7,461.5 245.5,440.8 255.9,438 255.9,438 255.9,438 "/>
		<polygon fill="#FDEFCE" points="245.5,440.8 232.5,455.8 242.2,421.2 245.5,440.8 245.5,440.8 245.5,440.8 "/>
		<polygon fill="#FCE3C6" points="245.5,440.8 253.2,415 242.2,421.2 245.5,440.8 245.5,440.8 245.5,440.8 "/>
		<polygon fill="#FDEFCE" points="242.2,421.2 239,406.4 250.2,401.4 242.2,421.2 242.2,421.2 242.2,421.2 "/>
		<polygon fill="#FCE3C6" points="242.2,421.2 253.2,415 250.2,401.4 242.2,421.2 242.2,421.2 242.2,421.2 "/>
		<polygon fill="#DFC0A8" points="253.2,415 250.2,401.4 268.5,417.2 253.2,415 253.2,415 253.2,415 "/>
		<polygon fill="#FCE3C6" points="239,406.4 247.5,382.2 250.2,401.4 239,406.4 239,406.4 239,406.4 "/>
		<polygon fill="#FCE3C6" points="250.2,401.4 247.5,382.2 264.2,395.5 250.2,401.4 250.2,401.4 250.2,401.4 "/>
		<polygon fill="#FCE3C6" points="247.5,382.2 232.5,397.1 235,377.8 247.5,382.2 247.5,382.2 247.5,382.2 "/>
		<polygon fill="#E4CCA0" points="235,377.8 226.8,356.5 243.9,361.2 235,377.8 235,377.8 235,377.8 "/>
		<polygon fill="#E4CCA0" points="226.8,356.5 232.4,340.5 243.9,361.2 226.8,356.5 226.8,356.5 226.8,356.5 "/>
		<polygon fill="#E4CCA0" points="232.4,340.5 250.2,333.6 243.9,361.2 232.4,340.5 232.4,340.5 232.4,340.5 "/>
		<polygon fill="#E4CCA0" points="243.9,361.2 247.5,382.2 235,377.8 243.9,361.2 243.9,361.2 243.9,361.2 "/>
		<polygon fill="#C5A088" points="243.9,361.2 261.2,379.5 247.5,382.2 243.9,361.2 243.9,361.2 243.9,361.2 "/>
		<polygon fill="#C5A088" points="243.9,361.2 253.2,352 261.2,379.5 243.9,361.2 243.9,361.2 243.9,361.2 "/>
		<polygon fill="#E4CCA0" points="243.9,361.2 250.2,333.6 253.2,352 243.9,361.2 243.9,361.2 243.9,361.2 "/>
		<polygon fill="#E4CCA0" points="253.2,352 250.2,333.6 272.2,350.8 253.2,352 253.2,352 253.2,352 "/>
		<polygon fill="#FDEFCE" points="250.2,333.6 255.2,299.5 232.5,305 250.2,333.6 250.2,333.6 250.2,333.6 "/>
		<polygon fill="#FDEFCE" points="232.4,340.5 232.5,305 250.2,333.6 232.4,340.5 232.4,340.5 232.4,340.5 "/>
		<polygon fill="#DFC0A8" points="123,312.4 152.3,342.9 153.8,313.8 123,312.4 123,312.4 123,312.4 "/>
		<polygon fill="#FCE3C6" points="153.8,313.8 163.8,359.9 175.6,331.1 153.8,313.8 153.8,313.8 153.8,313.8 "/>
		<polygon fill="#FCD5B8" points="163.8,359.9 162.3,379.7 174.1,359.8 163.8,359.9 163.8,359.9 163.8,359.9 "/>
		<polyline fill="#FEFBDA" points="163.8,359.9 175.6,331.1 174.1,359.8 "/>
		<polygon fill="#FDFCE8" points="175.6,331.1 183.8,355.2 186.1,336.7 175.6,331.1 175.6,331.1 175.6,331.1 "/>
		<polygon fill="#C5A088" points="186.1,336.7 191.2,359.8 198.2,355.7 186.1,336.7 186.1,336.7 186.1,336.7 "/>
		<polygon fill="#D0A08C" points="191.2,359.8 184.8,375.7 198.2,355.7 191.2,359.8 191.2,359.8 191.2,359.8 "/>
		<polygon fill="#FDEFCE" points="198.2,355.7 207.4,380.4 214.4,365.6 198.2,355.7 198.2,355.7 198.2,355.7 "/>
		<polygon fill="#E4CCA0" points="207.4,380.4 205.7,391.8 214.1,379.1 207.4,380.4 207.4,380.4 207.4,380.4 "/>
		<polygon fill="#FDEFCE" points="207.4,380.4 214.4,365.6 214.1,379.1 207.4,380.4 207.4,380.4 207.4,380.4 "/>
		<polygon fill="#FDEFCE" points="214.4,365.6 202.1,336.7 198.2,355.7 214.4,365.6 214.4,365.6 214.4,365.6 "/>
		<polygon fill="#FDEFCE" points="186.1,336.7 202.1,336.7 198.2,355.7 186.1,336.7 186.1,336.7 186.1,336.7 "/>
		<polygon fill="#FDFCED" points="153.8,313.8 131.5,288.2 123,312.4 153.8,313.8 153.8,313.8 153.8,313.8 "/>
		<polygon fill="#DFC0A8" points="153.8,313.8 181,311.2 175.6,331.1 153.8,313.8 153.8,313.8 153.8,313.8 "/>
		<polygon fill="#DFC0A8" points="186.1,336.7 175.6,331.1 181,311.2 186.1,336.7 186.1,336.7 186.1,336.7 "/>
		<polygon fill="#E4CCA0" points="186.1,336.7 203.7,319.8 202.1,336.7 186.1,336.7 186.1,336.7 186.1,336.7 "/>
		<polygon fill="#FDEFCE" points="202.1,336.7 219.2,317 203.7,319.8 202.1,336.7 202.1,336.7 202.1,336.7 "/>
		<polygon fill="#FDEFCE" points="219.2,317 232.4,340.5 232.5,305 219.2,317 219.2,317 219.2,317 "/>
		<polygon fill="#FDEFCE" points="219.2,317 221.2,292.6 232.5,305 219.2,317 219.2,317 219.2,317 "/>
		<polygon fill="#FDEFCE" points="221.2,292.6 243.4,280.8 232.5,305 221.2,292.6 221.2,292.6 221.2,292.6 "/>
		<polygon fill="#FDEFCE" points="221,292.6 221,292.6 195.7,299.5 203.7,319.8 221,292.6 221,292.6 221,292.6 "/>
		<polygon fill="#FDEFCE" points="195.7,299.5 198.2,283.4 221.2,292.6 195.7,299.5 195.7,299.5 195.7,299.5 "/>
		<polygon fill="#FDEFCE" points="198.2,283.4 221.1,268.5 221.2,292.6 198.2,283.4 198.2,283.4 198.2,283.4 "/>
		<polygon fill="#FDEFCE" points="181,311.2 186.1,336.7 203.7,319.8 181,311.2 181,311.2 181,311.2 "/>
		<polygon fill="#FDFCED" points="181,311.2 162.3,291 153.8,313.8 181,311.2 181,311.2 181,311.2 "/>
		<polygon fill="#FDEFCE" points="203.7,319.8 195.7,299.5 181,311.2 203.7,319.8 203.7,319.8 203.7,319.8 "/>
		<polygon fill="#FDEFCE" points="181,311.2 162.3,291 195.7,299.5 181,311.2 181,311.2 181,311.2 "/>
		<polygon fill="#FDEFCE" points="195.7,299.5 198.2,283.4 162.3,291 195.7,299.5 195.7,299.5 195.7,299.5 "/>
		<polygon fill="#FDEFCE" points="162.3,291 189.8,264.2 198.2,283.4 162.3,291 162.3,291 162.3,291 "/>
		<polygon fill="#FDFCED" points="131.5,288.2 162.3,291 153.8,313.8 131.5,288.2 "/>
		<polygon fill="#FDEFCE" points="221.2,292.6 203.7,319.8 219.2,317 221.2,292.6 "/>
		<polygon fill="#AD9B87" points="183.8,253 144.5,250.5 153.8,272 183.8,253 183.8,253 183.8,253 "/>
		<polygon fill="#8C7861" points="144.5,250.5 99.2,249 128.2,279.2 144.5,250.5 144.5,250.5 144.5,250.5 "/>
		<polygon fill="#8C7861" points="128.2,279.2 153.8,272 144.5,250.5 128.2,279.2 128.2,279.2 128.2,279.2 "/>
		<polygon fill="#8F7C67" points="128.2,279.2 153.9,301.1 153.8,272 128.2,279.2 128.2,279.2 128.2,279.2 "/>
		<polygon fill="#806A57" points="153.8,272 183.8,253 178.8,280.8 153.8,272 153.8,272 153.8,272 "/>
		<polygon fill="#806A57" points="183.8,253 199.8,277.6 178.8,280.8 183.8,253 183.8,253 183.8,253 "/>
		<polygon fill="#5E403D" points="199.8,277.6 227,295.6 206.4,305 199.8,277.6 199.8,277.6 199.8,277.6 "/>
		<polygon fill="#654C48" points="227,295.6 257.2,311.5 235.3,318.5 227,295.6 227,295.6 227,295.6 "/>
		<polygon fill="#301C1B" points="257.2,311.5 285.8,312.4 277.8,325.7 257.2,311.5 257.2,311.5 257.2,311.5 "/>
		<polygon fill="#110D1A" points="285.8,312.4 293.8,309.6 316.8,326.8 285.8,312.4 285.8,312.4 285.8,312.4 "/>
		<polygon fill="#614245" points="153.9,301.1 179,315 176.5,295.8 153.9,301.1 153.9,301.1 153.9,301.1 "/>
		<polygon fill="#61423A" points="176.5,295.8 153.8,272 153.9,301.1 176.5,295.8 176.5,295.8 176.5,295.8 "/>
		<polygon fill="#573632" points="176.5,295.8 178.8,280.8 153.8,272 176.5,295.8 176.5,295.8 176.5,295.8 "/>
		<polygon fill="#4F3027" points="176.5,295.8 206.4,305 199.8,277.6 176.5,295.8 176.5,295.8 176.5,295.8 "/>
		<polygon fill="#573632" points="176.5,295.8 178.8,280.8 199.8,277.6 176.5,295.8 176.5,295.8 176.5,295.8 "/>
		<polygon fill="#4F3027" points="176.5,295.8 179,315 201.8,325.5 176.5,295.8 176.5,295.8 176.5,295.8 "/>
		<polygon fill="#4F3027" points="201.8,325.5 206.4,305 176.5,295.8 201.8,325.5 201.8,325.5 201.8,325.5 "/>
		<polygon fill="#836D67" points="201.8,325.5 235.3,318.5 206.4,305 201.8,325.5 201.8,325.5 201.8,325.5 "/>
		<polygon fill="#836D67" points="206.4,305 227,295.6 235.3,318.5 206.4,305 206.4,305 206.4,305 "/>
		<polygon fill="#473233" points="235.3,318.5 238.9,340.2 260.2,345.8 235.3,318.5 235.3,318.5 235.3,318.5 "/>
		<polygon fill="#654C48" points="235.3,318.5 257.2,311.5 260.2,345.8 235.3,318.5 235.3,318.5 235.3,318.5 "/>
		<polygon fill="#473233" points="260.2,345.8 277.8,325.7 257.2,311.5 260.2,345.8 260.2,345.8 260.2,345.8 "/>
		<polygon fill="#654C48" points="260.2,345.8 284,356.2 277.8,325.7 260.2,345.8 260.2,345.8 260.2,345.8 "/>
		<polygon fill="#231621" points="277.8,325.7 316.8,326.8 285.8,312.4 277.8,325.7 277.8,325.7 277.8,325.7 "/>
		<polygon fill="#231621" points="277.8,325.7 303.5,341 316.8,326.8 277.8,325.7 277.8,325.7 277.8,325.7 "/>
		<polygon fill="#231621" points="277.8,325.7 284,356.2 303.5,341 277.8,325.7 277.8,325.7 277.8,325.7 "/>
		<polygon fill="#231621" points="284,356.2 317.5,370.2 303.5,341 284,356.2 284,356.2 284,356.2 "/>
		<polygon fill="#110D1A" points="303.5,341 316.8,326.8 337.2,342.2 303.5,341 303.5,341 303.5,341 "/>
		<polygon fill="#110D1A" points="303.5,341 317.5,370.2 337.2,342.2 303.5,341 303.5,341 303.5,341 "/>
		<polygon fill="#110D1A" points="317.5,370.2 341.8,377.8 337.2,342.2 317.5,370.2 317.5,370.2 317.5,370.2 "/>
		<polygon fill="#110D1A" points="341.8,377.8 362.2,379 337.2,342.2 341.8,377.8 341.8,377.8 341.8,377.8 "/>
		<polygon fill="#110D1A" points="337.2,342.2 377.5,370.2 362.2,379 337.2,342.2 337.2,342.2 337.2,342.2 "/>
		<polygon fill="#4F1441" points="183.8,253 199.8,277.6 200.8,251.5 183.8,253 183.8,253 183.8,253 "/>
		<polygon fill="#440934" points="183.8,253 202,231.6 200.8,251.5 183.8,253 183.8,253 183.8,253 "/>
		<polygon fill="#46073C" points="200.8,252 202,231.6 217,251.6 200.8,252 200.8,252 200.8,252 "/>
		<polygon fill="#520B35" points="200.8,251.5 199.8,277.6 217.2,275.1 200.8,251.5 200.8,251.5 200.8,251.5 "/>
		<polygon fill="#611441" points="201,252 217,251.6 217.2,275.1 201,252 201,252 201,252 "/>
		<polygon fill="#C11D6E" points="217,251.6 238,266.9 217.2,275.1 217,251.6 217,251.6 217,251.6 "/>
		<polygon fill="#6E174C" points="199.8,277.6 227,295.6 217.2,275.1 199.8,277.6 199.8,277.6 199.8,277.6 "/>
		<polygon fill="#7F174A" points="217.2,275.1 238,266.9 227,295.6 217.2,275.1 217.2,275.1 217.2,275.1 "/>
		<polygon fill="#CE1B6C" points="238,266.9 258.2,277.6 227,295.6 238,266.9 238,266.9 238,266.9 "/>
		<polygon fill="#C81D67" points="227,295.6 257.2,311.5 256,293.8 227,295.6 227,295.6 227,295.6 "/>
		<polygon fill="#D8176E" points="227,295.6 258.2,277.6 256,293.8 227,295.6 227,295.6 227,295.6 "/>
		<polygon fill="#721A49" points="258.2,277.6 270.2,298.8 288.2,283.9 258.2,277.6 258.2,277.6 258.2,277.6 "/>
		<polygon fill="#460933" points="288.2,283.9 298.8,285.2 293.8,309.6 288.2,283.9 288.2,283.9 288.2,283.9 "/>
		<polygon fill="#4C0C34" points="270.2,298.8 293.8,309.6 288.2,283.9 270.2,298.8 270.2,298.8 270.2,298.8 "/>
		<polygon fill="#4C0C34" points="270.2,298.8 285.8,312.4 293.8,309.6 270.2,298.8 270.2,298.8 270.2,298.8 "/>
		<polygon fill="#612146" points="270.2,298.8 257.2,311.5 285.8,312.4 270.2,298.8 270.2,298.8 270.2,298.8 "/>
		<polygon fill="#612146" points="270.2,298.8 257.2,311.5 256,293.8 270.2,298.8 270.2,298.8 270.2,298.8 "/>
		<polygon fill="#721A49" points="270.2,298.8 256,293.8 258.2,277.6 270.2,298.8 270.2,298.8 270.2,298.8 "/>
		<polygon fill="#61423A" points="202,231.6 235,209.7 217,251.6 202,231.6 202,231.6 202,231.6 "/>
		<polygon fill="#513432" points="217,251.6 238,266.9 242,249 217,251.6 217,251.6 217,251.6 "/>
		<polygon fill="#331C28" points="238,266.9 258.2,277.6 242,249 238,266.9 238,266.9 238,266.9 "/>
		<polygon fill="#381C17" points="258.2,277.6 276.3,263.3 288.2,283.9 258.2,277.6 258.2,277.6 258.2,277.6 "/>
		<polygon fill="#32252C" points="288.2,283.9 309.7,266.9 298.8,285.2 288.2,283.9 288.2,283.9 288.2,283.9 "/>
		<polygon fill="#3D2734" points="309.7,266.9 320.4,241.5 298.8,249 309.7,266.9 309.7,266.9 309.7,266.9 "/>
		<polygon fill="#32252C" points="320.4,241.5 333,215.7 314.8,226 320.4,241.5 320.4,241.5 320.4,241.5 "/>
		<polygon fill="#392324" points="333,215.7 353,207 339.7,199 333,215.7 333,215.7 333,215.7 "/>
		<polygon fill="#513432" points="235,209.7 242,249 217,251.6 235,209.7 235,209.7 235,209.7 "/>
		<polygon fill="#6B4E46" points="235,209.7 258.2,196 257.2,225 235,209.7 235,209.7 235,209.7 "/>
		<polygon fill="#785E5A" points="257.2,225 242,249 235,209.7 257.2,225 257.2,225 257.2,225 "/>
		<polygon fill="#331C28" points="242,249 276.3,263.3 258.2,277.6 242,249 242,249 242,249 "/>
		<polygon fill="#785E5A" points="242,249 257.2,225 276.3,263.3 242,249 242,249 242,249 "/>
		<polygon fill="#381C17" points="276.3,263.3 288.2,283.9 309.7,266.9 276.3,263.3 276.3,263.3 276.3,263.3 "/>
		<polygon fill="#32252C" points="276.3,263.3 298.8,249 309.7,266.9 276.3,263.3 276.3,263.3 276.3,263.3 "/>
		<polygon fill="#45261A" points="276.3,263.3 257.2,225 298.8,249 276.3,263.3 276.3,263.3 276.3,263.3 "/>
		<polygon fill="#45261A" points="298.8,249 290.6,223.3 257.2,225 298.8,249 298.8,249 298.8,249 "/>
		<polygon fill="#5E463C" points="257.2,225 258.2,196 278,207.3 257.2,225 257.2,225 257.2,225 "/>
		<polygon fill="#5D4333" points="257.2,225 278,207.3 290.6,223.3 257.2,225 257.2,225 257.2,225 "/>
		<polygon fill="#3D2734" points="290.6,223.3 298.8,249 320.4,241.5 290.6,223.3 290.6,223.3 290.6,223.3 "/>
		<polygon fill="#32252C" points="290.6,223.3 314.8,226 320.4,241.5 290.6,223.3 290.6,223.3 290.6,223.3 "/>
		<polygon fill="#4A2C23" points="290.6,223.3 300.8,205 314.8,226 290.6,223.3 290.6,223.3 290.6,223.3 "/>
		<polygon fill="#978372" points="278,207.3 300.8,205 290.6,223.3 278,207.3 278,207.3 278,207.3 "/>
		<polygon fill="#5E463C" points="258.2,196 264.2,177.7 278,207.3 258.2,196 258.2,196 258.2,196 "/>
		<polygon fill="#6A4F3C" points="264.2,177.7 293.5,169.3 278,207.3 264.2,177.7 264.2,177.7 264.2,177.7 "/>
		<polygon fill="#978372" points="278,207.3 300.8,205 293.5,169.3 278,207.3 278,207.3 278,207.3 "/>
		<polygon fill="#4A2C23" points="300.8,205 320.4,200.7 314.8,226 300.8,205 300.8,205 300.8,205 "/>
		<polygon fill="#3B2733" points="314.8,226 333,215.7 320.4,200.7 314.8,226 314.8,226 314.8,226 "/>
		<polygon fill="#896F65" points="300.8,205 293.5,169.3 317.5,181.7 300.8,205 300.8,205 300.8,205 "/>
		<polygon fill="#4A2C23" points="300.8,205 317.5,181.7 320.4,200.7 300.8,205 300.8,205 300.8,205 "/>
		<polygon fill="#3B2733" points="320.4,200.7 339.7,199 333,215.7 320.4,200.7 320.4,200.7 320.4,200.7 "/>
		<polygon fill="#27101D" points="353,207 348.3,188.3 339.7,199 353,207 353,207 353,207 "/>
		<polygon fill="#32252C" points="353,207 364.9,192.6 348.3,188.3 353,207 353,207 353,207 "/>
		<polygon fill="#32252C" points="353,207 375.3,205 364.9,192.6 353,207 353,207 353,207 "/>
		<polygon fill="#4A2C20" points="320.4,200.7 317.5,181.7 339.7,199 320.4,200.7 320.4,200.7 320.4,200.7 "/>
		<polygon fill="#331C28" points="317.5,181.7 348.3,188.3 339.7,199 317.5,181.7 317.5,181.7 317.5,181.7 "/>
		<polygon fill="#583932" points="317.5,181.7 314.4,160.8 293.5,169.3 317.5,181.7 317.5,181.7 317.5,181.7 "/>
		<polygon fill="#745A52" points="317.5,181.7 339.4,167.9 348.3,188.3 317.5,181.7 317.5,181.7 317.5,181.7 "/>
		<polygon fill="#52362C" points="317.5,181.7 314.4,160.8 339.4,167.9 317.5,181.7 317.5,181.7 317.5,181.7 "/>
		<polygon fill="#52362C" points="314.4,160.8 339,153 339.4,167.9 314.4,160.8 314.4,160.8 314.4,160.8 "/>
		<polygon fill="#907E6A" points="339,153 360.2,160.7 339.4,167.9 339,153 339,153 339,153 "/>
		<polygon fill="#6F544F" points="339.4,167.9 348.3,188.3 360.2,160.7 339.4,167.9 339.4,167.9 339.4,167.9 "/>
		<polygon fill="#472C22" points="348.3,188.3 364.9,192.6 360.2,160.7 348.3,188.3 348.3,188.3 348.3,188.3 "/>
		<polygon fill="#472C22" points="364.9,192.6 375.1,177.9 360.2,160.7 364.9,192.6 364.9,192.6 364.9,192.6 "/>
		<polygon fill="#2B121E" points="364.9,192.6 375.3,205 375.1,177.9 364.9,192.6 364.9,192.6 364.9,192.6 "/>
		<polygon fill="#563D33" points="375.1,177.9 398.2,202.7 375.3,205 375.1,177.9 375.1,177.9 375.1,177.9 "/>
		<polygon fill="#7E6C60" points="398.2,202.7 417.7,234.3 395,223.3 398.2,202.7 398.2,202.7 398.2,202.7 "/>
		<polygon fill="#B1A89D" points="417.7,234.3 403,264.6 395,223.3 417.7,234.3 417.7,234.3 417.7,234.3 "/>
		<polygon fill="#B1A89D" points="403,264.6 384.7,273.6 386.9,254.2 403,264.6 403,264.6 403,264.6 "/>
		<polygon fill="#7E6C60" points="384.7,273.6 372.3,253 386.9,254.2 384.7,273.6 384.7,273.6 384.7,273.6 "/>
		<polygon fill="#32252C" points="386.9,254.2 395,223.3 403,264.6 386.9,254.2 386.9,254.2 386.9,254.2 "/>
		<polygon fill="#32252C" points="375.3,205 395,223.3 398.2,202.7 375.3,205 375.3,205 375.3,205 "/>
		<polygon fill="#241323" points="180.7,414.7 176.5,459.3 204.3,446.7 180.7,414.7 180.7,414.7 180.7,414.7 "/>
		<polygon fill="#261425" points="176.5,459.3 191.4,484.7 204.3,446.7 176.5,459.3 176.5,459.3 176.5,459.3 "/>
		<polygon fill="#4B3843" points="235.3,497.3 280.3,502 263.1,475 235.3,497.3 235.3,497.3 235.3,497.3 "/>
		<polygon fill="#301E32" points="280.3,502 321.9,504.1 299,473.5 280.3,502 280.3,502 280.3,502 "/>
		<polygon fill="#342136" points="321.9,504.1 354.3,488.5 317.5,473.3 321.9,504.1 321.9,504.1 321.9,504.1 "/>
		<polygon fill="#342136" points="354.3,488.5 372,448.3 323.3,465.7 354.3,488.5 354.3,488.5 354.3,488.5 "/>
		<polygon fill="#43292E" points="191.4,484.7 215,493.7 204.3,446.7 191.4,484.7 191.4,484.7 191.4,484.7 "/>
		<polygon fill="#422E39" points="215,493.7 226,480.7 235.3,497.3 215,493.7 215,493.7 215,493.7 "/>
		<polygon fill="#2A2230" points="215,493.7 225.2,527.7 235.3,497.3 215,493.7 215,493.7 215,493.7 "/>
		<polygon fill="#311C32" points="225.2,527.7 235.3,540.7 247.8,525.7 225.2,527.7 225.2,527.7 225.2,527.7 "/>
		<polygon fill="#311C32" points="235.3,540.7 280.3,533.2 247.8,525.7 235.3,540.7 235.3,540.7 235.3,540.7 "/>
		<polygon fill="#3E3242" points="280.3,533.2 308.7,527.7 288,516.3 280.3,533.2 280.3,533.2 280.3,533.2 "/>
		<polygon fill="#342538" points="308.7,527.7 333.3,521 321.9,504.1 308.7,527.7 308.7,527.7 308.7,527.7 "/>
		<polygon fill="#010101" points="288,516.3 321.9,504.1 308.7,527.7 288,516.3 288,516.3 288,516.3 "/>
		<polygon fill="#010101" points="288,516.3 280.3,502 321.9,504.1 288,516.3 288,516.3 288,516.3 "/>
		<polygon fill="#311C32" points="288,516.3 247.8,525.7 280.3,533.2 288,516.3 288,516.3 288,516.3 "/>
		<polygon fill="#09090F" points="247.8,525.7 235.3,497.3 280.3,502 247.8,525.7 247.8,525.7 247.8,525.7 "/>
		<polygon fill="#311C32" points="247.8,525.7 280.3,502 288,516.3 247.8,525.7 247.8,525.7 247.8,525.7 "/>
		<polygon fill="#311C32" points="247.8,525.7 235.3,497.3 225.2,527.7 247.8,525.7 247.8,525.7 247.8,525.7 "/>
		<polygon fill="#342136" points="333.3,521 354.3,488.5 321.9,504.1 333.3,521 333.3,521 333.3,521 "/>
		<polygon fill="#140E20" points="333.3,521 368.7,497.3 354.3,488.5 333.3,521 333.3,521 333.3,521 "/>
		<polygon fill="#140E20" points="368.7,497.3 390,465.7 354.3,488.5 368.7,497.3 368.7,497.3 368.7,497.3 "/>
		<polygon fill="#361F34" points="280.3,502 299,473.5 263.1,475 280.3,502 280.3,502 280.3,502 "/>
		<polygon fill="#3C2739" points="226,480.7 235.3,497.3 263.1,475 226,480.7 226,480.7 226,480.7 "/>
		<polygon fill="#331F30" points="226,480.7 204.3,446.7 215,493.7 226,480.7 226,480.7 226,480.7 "/>
		<polygon fill="#341F3D" points="226,480.7 235.2,438.4 204.3,446.7 226,480.7 226,480.7 226,480.7 "/>
		<polygon fill="#CF2027" points="180.7,414.7 212.3,418 204.3,446.7 180.7,414.7 180.7,414.7 180.7,414.7 "/>
		<polygon fill="#B75447" points="212.3,418 235.2,438.4 204.3,446.7 212.3,418 212.3,418 212.3,418 "/>
		<polygon fill="#362233" points="235.2,438.4 263.1,475 226,480.7 235.2,438.4 235.2,438.4 235.2,438.4 "/>
		<polygon fill="#361F34" points="263.1,475 274.1,438.5 299,473.5 263.1,475 263.1,475 263.1,475 "/>
		<polygon fill="#301E32" points="299,473.5 317.5,473.3 321.9,504.1 299,473.5 299,473.5 299,473.5 "/>
		<polygon fill="#301E32" points="323.3,465.7 317.5,473.3 354.3,488.5 323.3,465.7 323.3,465.7 323.3,465.7 "/>
		<polygon fill="#301E32" points="299,473.5 323.3,465.7 317.5,473.3 299,473.5 299,473.5 299,473.5 "/>
		<polygon fill="#52364E" points="274.1,438.5 235.2,438.4 263.1,475 274.1,438.5 274.1,438.5 274.1,438.5 "/>
		<polygon fill="#3E2A38" points="274.1,438.5 238,400.7 235.2,438.4 274.1,438.5 274.1,438.5 274.1,438.5 "/>
		<polygon fill="#B95447" points="235.2,438.4 238,400.7 212.3,418 235.2,438.4 235.2,438.4 235.2,438.4 "/>
		<polygon fill="#730E2A" points="180.7,414.7 199.8,391.7 212.3,418 180.7,414.7 180.7,414.7 180.7,414.7 "/>
		<polygon fill="#693137" points="274.1,438.5 300.7,423.7 299,473.5 274.1,438.5 274.1,438.5 274.1,438.5 "/>
		<polygon fill="#693137" points="323.3,465.7 300.7,423.7 299,473.5 323.3,465.7 323.3,465.7 323.3,465.7 "/>
		<polygon fill="#663C44" points="323.3,465.7 372,448.3 328.4,414.6 323.3,465.7 323.3,465.7 323.3,465.7 "/>
		<polygon fill="#342136" points="372,448.3 354.3,488.5 390,465.7 372,448.3 372,448.3 372,448.3 "/>
		<polygon fill="#663C44" points="300.7,423.7 328.4,414.6 323.3,465.7 300.7,423.7 300.7,423.7 300.7,423.7 "/>
		<polygon fill="#663C44" points="328.4,414.6 357.4,386.6 372,448.3 328.4,414.6 328.4,414.6 328.4,414.6 "/>
		<polygon fill="#B07459" points="372,448.3 396.3,412 357.4,386.6 372,448.3 372,448.3 372,448.3 "/>
		<polygon fill="#AD7D67" points="372,448.3 390,465.7 396.3,412 372,448.3 372,448.3 372,448.3 "/>
		<polygon fill="#4A3641" points="238,400.7 300.7,423.7 274.1,438.5 238,400.7 238,400.7 238,400.7 "/>
		<polygon fill="#2F1421" points="300.7,423.7 290.9,386.5 328.4,414.6 300.7,423.7 300.7,423.7 300.7,423.7 "/>
		<polygon fill="#69373A" points="328.4,414.6 357.4,386.6 290.9,386.5 328.4,414.6 328.4,414.6 328.4,414.6 "/>
		<polygon fill="#9B634D" points="357.4,386.6 327.4,356.2 290.9,386.5 357.4,386.6 357.4,386.6 357.4,386.6 "/>
		<polygon fill="#975B4C" points="357.4,386.6 379.6,370.2 396.3,412 357.4,386.6 357.4,386.6 357.4,386.6 "/>
		<polygon fill="#9E5F4C" points="327.4,356.2 379.6,370.2 357.4,386.6 327.4,356.2 327.4,356.2 327.4,356.2 "/>
		<polygon fill="#B64841" points="199.8,391.7 212.3,418 238,400.7 199.8,391.7 199.8,391.7 199.8,391.7 "/>
		<polygon fill="#B74D42" points="199.8,391.7 226,362.3 238,400.7 199.8,391.7 199.8,391.7 199.8,391.7 "/>
		<polygon fill="#8F534D" points="226,362.3 290.9,386.5 238,400.7 226,362.3 226,362.3 226,362.3 "/>
		<polygon fill="#301C30" points="238,400.7 290.9,386.5 300.7,423.7 238,400.7 238,400.7 238,400.7 "/>
		<polygon fill="#925A46" points="290.9,386.5 327.4,356.2 226,362.3 290.9,386.5 290.9,386.5 290.9,386.5 "/>
		<polygon fill="#733E39" points="396.3,412 390,465.7 430.7,438.4 396.3,412 396.3,412 396.3,412 "/>
		<polygon fill="#6A3C38" points="390,465.7 406.7,493.7 430.7,438.4 390,465.7 390,465.7 390,465.7 "/>
		<polygon fill="#260E16" points="368.7,497.3 406.7,493.7 390,465.7 368.7,497.3 368.7,497.3 368.7,497.3 "/>
		<polygon fill="#683937" points="406.7,493.7 431.7,525.7 438,489 406.7,493.7 406.7,493.7 406.7,493.7 "/>
		<polygon fill="#693735" points="406.7,493.7 430.7,438.4 438,489 406.7,493.7 406.7,493.7 406.7,493.7 "/>
		<polygon fill="#54282C" points="431.7,525.7 459,552 462,516.3 431.7,525.7 431.7,525.7 431.7,525.7 "/>
		<polygon fill="#441724" points="459,552 484.7,547.7 462,516.3 459,552 459,552 459,552 "/>
		<polygon fill="#2C121E" points="484.7,547.7 479.3,521 462,516.3 484.7,547.7 484.7,547.7 484.7,547.7 "/>
		<polygon fill="#4C1525" points="479.3,521 467,488.7 462,516.3 479.3,521 479.3,521 479.3,521 "/>
		<polygon fill="#60282E" points="431.7,525.7 438,489 462,516.3 431.7,525.7 431.7,525.7 431.7,525.7 "/>
		<polygon fill="#4C1525" points="438,489 467,488.7 462,516.3 438,489 438,489 438,489 "/>
		<polygon fill="#652E31" points="438,489 430.7,438.4 467,488.7 438,489 438,489 438,489 "/>
		<polygon fill="#51151D" points="430.7,438.4 459,444.7 467,488.7 430.7,438.4 430.7,438.4 430.7,438.4 "/>
		<polygon fill="#5C1720" points="430.7,438.4 455.3,412 459,444.7 430.7,438.4 430.7,438.4 430.7,438.4 "/>
		<polygon fill="#5B141B" points="430.7,438.4 438,391.1 455.3,412 430.7,438.4 430.7,438.4 430.7,438.4 "/>
		<polygon fill="#743C36" points="430.7,438.4 396.3,412 438,391.1 430.7,438.4 430.7,438.4 430.7,438.4 "/>
		<polygon fill="#A96F54" points="396.3,412 379.6,370.2 438,391.1 396.3,412 396.3,412 396.3,412 "/>
		<polygon fill="#733733" points="379.6,370.2 417.2,362.3 438,391.1 379.6,370.2 379.6,370.2 379.6,370.2 "/>
		<polygon fill="#9C5D45" points="417.2,362.3 387.7,330.7 379.6,370.2 417.2,362.3 417.2,362.3 417.2,362.3 "/>
		<polygon fill="#CF9B6A" points="387.7,330.7 357.4,307 365.7,350.5 387.7,330.7 387.7,330.7 387.7,330.7 "/>
		<polygon fill="#B07352" points="365.7,350.5 379.6,370.2 387.7,330.7 365.7,350.5 365.7,350.5 365.7,350.5 "/>
		<polygon fill="#D4A674" points="357.4,307 309.7,314 365.7,350.5 357.4,307 357.4,307 357.4,307 "/>
		<polygon fill="#D4A674" points="365.7,350.5 327.4,356.2 379.6,370.2 365.7,350.5 365.7,350.5 365.7,350.5 "/>
		<polygon fill="#DCAC7D" points="309.7,314 327.4,356.2 365.7,350.5 309.7,314 309.7,314 309.7,314 "/>
		<polygon fill="#DCAC7D" points="226,362.3 309.7,314 327.4,356.2 226,362.3 226,362.3 226,362.3 "/>
		<polygon fill="#020202" points="235.3,540.7 222.7,579.3 246.3,552.3 235.3,540.7 235.3,540.7 235.3,540.7 "/>
		<polygon fill="#1D1B1B" points="222.7,579.3 205.5,623.8 236.5,587.7 222.7,579.3 222.7,579.3 222.7,579.3 "/>
		<polygon fill="#020202" points="236.5,587.7 222.7,579.3 246.3,552.3 236.5,587.7 236.5,587.7 236.5,587.7 "/>
		<polygon fill="#BE625A" points="205.5,623.8 226,610.7 236.5,587.7 205.5,623.8 205.5,623.8 205.5,623.8 "/>
		<polygon fill="#3D151F" points="236.5,587.7 254.6,574.3 246.3,552.3 236.5,587.7 236.5,587.7 236.5,587.7 "/>
		<polygon fill="#311C32" points="246.3,552.3 280.3,533.2 235.3,540.7 246.3,552.3 246.3,552.3 246.3,552.3 "/>
		<polygon fill="#35122C" points="254.6,574.3 246.3,552.3 280.3,533.2 254.6,574.3 254.6,574.3 254.6,574.3 "/>
		<polygon fill="#373F24" points="280.3,533.2 284,566.7 306.3,539 280.3,533.2 280.3,533.2 280.3,533.2 "/>
		<polygon fill="#59464E" points="280.3,533.2 308.7,527.7 306.3,539 280.3,533.2 280.3,533.2 280.3,533.2 "/>
		<polygon fill="#27341E" points="284,566.7 299,581.3 306.3,539 284,566.7 284,566.7 284,566.7 "/>
		<polygon fill="#1B331F" points="299,581.3 317.6,606.1 319.7,587.6 299,581.3 299,581.3 299,581.3 "/>
		<polygon fill="#22361B" points="306.3,539 330.7,571.3 299,581.3 306.3,539 306.3,539 306.3,539 "/>
		<polygon fill="#1C3D23" points="299,581.3 330.7,571.3 319.7,587.6 299,581.3 299,581.3 299,581.3 "/>
		<polygon fill="#27431F" points="317.6,606.1 340.3,624.7 342.9,587.5 317.6,606.1 317.6,606.1 317.6,606.1 "/>
		<polygon fill="#1F361B" points="317.6,606.1 319.7,587.6 342.9,587.5 317.6,606.1 317.6,606.1 317.6,606.1 "/>
		<polygon fill="#20341A" points="319.7,587.6 330.7,571.3 342.9,587.5 319.7,587.6 319.7,587.6 319.7,587.6 "/>
		<polygon fill="#5B733F" points="342.9,587.5 375.3,609 340.3,624.7 342.9,587.5 342.9,587.5 342.9,587.5 "/>
		<polygon fill="#455E2B" points="340.3,624.7 372,650 368.7,623 340.3,624.7 340.3,624.7 340.3,624.7 "/>
		<polygon fill="#597735" points="340.3,624.7 368.7,623 375.3,609 340.3,624.7 340.3,624.7 340.3,624.7 "/>
		<polygon fill="#596D46" points="368.7,623 408,621.2 375.3,609 368.7,623 368.7,623 368.7,623 "/>
		<polygon fill="#617E37" points="368.7,623 372,650 408,621.2 368.7,623 368.7,623 368.7,623 "/>
		<polygon fill="#859B8A" points="372,650 399.7,662.7 408,621.2 372,650 372,650 372,650 "/>
		<polygon fill="#4D6F5F" points="399.7,662.7 430.7,654.7 419,636.5 399.7,662.7 399.7,662.7 399.7,662.7 "/>
		<polygon fill="#587B3E" points="408,621.2 419,636.5 399.7,662.7 408,621.2 408,621.2 408,621.2 "/>
		<polygon fill="#759448" points="419,636.5 436,616.8 408,621.2 419,636.5 419,636.5 419,636.5 "/>
		<polygon fill="#2B4531" points="419,636.5 430.7,654.7 452.5,650 419,636.5 419,636.5 419,636.5 "/>
		<polygon fill="#4A642E" points="419,636.5 436,616.8 452.5,650 419,636.5 419,636.5 419,636.5 "/>
		<polygon fill="#306B35" points="436,616.8 467,609 452.5,650 436,616.8 436,616.8 436,616.8 "/>
		<polygon fill="#283C27" points="452.5,650 484.6,639.2 467,609 452.5,650 452.5,650 452.5,650 "/>
		<polygon fill="#111538" points="484.6,639.2 498.3,635.7 489.7,601.2 484.6,639.2 484.6,639.2 484.6,639.2 "/>
		<polygon fill="#14281B" points="489.7,601.2 467,609 484.6,639.2 489.7,601.2 489.7,601.2 489.7,601.2 "/>
		<polygon fill="#A26052" points="368.7,497.3 347.7,527.7 363.7,546 368.7,497.3 368.7,497.3 368.7,497.3 "/>
		<polygon fill="#925A46" points="344.7,574.3 362.3,593.7 381.7,562.3 344.7,574.3 344.7,574.3 344.7,574.3 "/>
		<polygon fill="#945D48" points="399.7,590.7 381.7,562.3 413,569.2 399.7,590.7 399.7,590.7 399.7,590.7 "/>
		<polygon fill="#8B5041" points="399.7,590.7 362.3,593.7 381.7,562.3 399.7,590.7 399.7,590.7 399.7,590.7 "/>
		<polygon fill="#BF8E65" points="381.7,562.3 368.7,497.3 363.7,546 381.7,562.3 381.7,562.3 381.7,562.3 "/>
		<polygon fill="#863F36" points="347.7,527.7 344.7,574.3 363.7,546 347.7,527.7 347.7,527.7 347.7,527.7 "/>
		<polygon fill="#BF8D64" points="363.7,546 344.7,574.3 381.7,562.3 363.7,546 363.7,546 363.7,546 "/>
		<polygon fill="#AA7353" points="381.7,562.3 409.3,546 413,569.2 381.7,562.3 381.7,562.3 381.7,562.3 "/>
		<polygon fill="#B78861" points="381.7,562.3 368.7,497.3 409.3,546 381.7,562.3 381.7,562.3 381.7,562.3 "/>
		<polygon fill="#3F3F4C" points="409.3,546 406.7,493.7 368.7,497.3 409.3,546 409.3,546 409.3,546 "/>
		<polygon fill="#3F3F4C" points="409.3,546 406.7,493.7 431.7,525.7 409.3,546 409.3,546 409.3,546 "/>
		<polygon fill="#717279" points="409.3,546 459,552 431.7,525.7 409.3,546 409.3,546 409.3,546 "/>
		<polygon fill="#484A57" points="347.7,527.7 333.3,521 368.7,497.3 347.7,527.7 347.7,527.7 347.7,527.7 "/>
		<polygon fill="#4B4F55" points="333.3,521 306.3,539 308.7,527.7 333.3,521 333.3,521 333.3,521 "/>
		<polygon fill="#484A57" points="333.3,521 331.3,552 347.7,527.7 333.3,521 333.3,521 333.3,521 "/>
		<polygon fill="#4B4F55" points="306.3,539 331.3,552 333.3,521 306.3,539 306.3,539 306.3,539 "/>
		<polygon fill="#4B4F55" points="306.3,539 330.7,571.3 331.3,552 306.3,539 306.3,539 306.3,539 "/>
		<polygon fill="#4B4D5B" points="331.3,552 347.7,527.7 344.7,574.3 331.3,552 331.3,552 331.3,552 "/>
		<polygon fill="#4B4D5B" points="330.7,571.3 344.7,574.3 331.3,552 330.7,571.3 330.7,571.3 330.7,571.3 "/>
		<polygon fill="#484A57" points="330.7,571.3 342.9,587.5 344.7,574.3 330.7,571.3 330.7,571.3 330.7,571.3 "/>
		<polygon fill="#3F3F4C" points="342.9,587.5 362.3,593.7 344.7,574.3 342.9,587.5 342.9,587.5 342.9,587.5 "/>
		<polygon fill="#484A57" points="362.3,593.7 375.3,609 342.9,587.5 362.3,593.7 362.3,593.7 362.3,593.7 "/>
		<polygon fill="#6E5F65" points="362.3,593.7 399.7,590.7 375.3,609 362.3,593.7 362.3,593.7 362.3,593.7 "/>
		<polygon fill="#9BA3AC" points="375.3,609 408,621.2 399.7,590.7 375.3,609 375.3,609 375.3,609 "/>
		<polygon fill="#92A1A4" points="399.7,590.7 436,616.8 408,621.2 399.7,590.7 399.7,590.7 399.7,590.7 "/>
		<polygon fill="#A5A9AA" points="399.7,590.7 413,569.2 436,616.8 399.7,590.7 399.7,590.7 399.7,590.7 "/>
		<polygon fill="#88918F" points="413,569.2 459,552 409.3,546 413,569.2 413,569.2 413,569.2 "/>
		<polygon fill="#8A9296" points="413,569.2 455.3,584 436,616.8 413,569.2 413,569.2 413,569.2 "/>
		<polygon fill="#6A7280" points="436,616.8 455.3,584 467,609 436,616.8 436,616.8 436,616.8 "/>
		<polygon fill="#485162" points="467,609 486.7,573 489.7,601.2 467,609 467,609 467,609 "/>
		<polygon fill="#4D5368" points="455.3,584 486.7,573 467,609 455.3,584 455.3,584 455.3,584 "/>
		<polygon fill="#B4B5AF" points="455.3,584 413,569.2 459,552 455.3,584 455.3,584 455.3,584 "/>
		<polygon fill="#59616A" points="455.3,584 486.7,573 459,552 455.3,584 455.3,584 455.3,584 "/>
		<polygon fill="#43515E" points="486.7,573 484.7,547.7 459,552 486.7,573 486.7,573 486.7,573 "/>
		<polygon fill="#801622" points="280.3,533.2 271,601.6 254.6,574.3 280.3,533.2 280.3,533.2 280.3,533.2 "/>
		<polygon fill="#782228" points="271,601.6 267.5,656.3 226,610.7 271,601.6 271,601.6 271,601.6 "/>
		<polygon fill="#61112D" points="226,610.7 236.5,587.7 271,601.6 226,610.7 226,610.7 226,610.7 "/>
		<polygon fill="#862023" points="236.5,587.7 254.6,574.3 271,601.6 236.5,587.7 236.5,587.7 236.5,587.7 "/>
		<polygon fill="#80393B" points="267.5,656.3 301.1,683.3 312.1,658.3 267.5,656.3 267.5,656.3 267.5,656.3 "/>
		<polygon fill="#773E3C" points="312.1,658.3 318.8,700.7 350.3,705.1 312.1,658.3 312.1,658.3 312.1,658.3 "/>
		<polygon fill="#3F4D5A" points="350.3,705.1 354.2,672.7 342.9,675.7 350.3,705.1 350.3,705.1 350.3,705.1 "/>
		<polygon fill="#674750" points="354.2,672.7 366.3,717 393.3,713 354.2,672.7 354.2,672.7 354.2,672.7 "/>
		<polygon fill="#633234" points="393.3,713 434.2,699.3 408,686.7 393.3,713 393.3,713 393.3,713 "/>
		<polygon fill="#985E52" points="434.2,699.3 470.7,682 450,672.7 434.2,699.3 434.2,699.3 434.2,699.3 "/>
		<polygon fill="#3E141D" points="470.7,682 507.7,661 484.6,656.1 470.7,682 470.7,682 470.7,682 "/>
		<polygon fill="#0C0C15" points="484.6,656.1 498.3,635.7 507.7,661 484.6,656.1 484.6,656.1 484.6,656.1 "/>
		<polygon fill="#0F1A3D" points="484.6,639.2 484.6,656.1 498.3,635.7 484.6,639.2 484.6,639.2 484.6,639.2 "/>
		<polygon fill="#606875" points="484.6,639.2 452.5,650 484.6,656.1 484.6,639.2 484.6,639.2 484.6,639.2 "/>
		<polygon fill="#A16252" points="484.6,656.1 470.7,682 452.5,650 484.6,656.1 484.6,656.1 484.6,656.1 "/>
		<polygon fill="#936352" points="452.5,650 450,672.7 470.7,682 452.5,650 452.5,650 452.5,650 "/>
		<polygon fill="#111037" points="452.5,650 430.7,654.7 450,672.7 452.5,650 452.5,650 452.5,650 "/>
		<polygon fill="#9A6B5C" points="430.7,654.7 399.7,662.7 450,672.7 430.7,654.7 430.7,654.7 430.7,654.7 "/>
		<polygon fill="#92514C" points="434.2,699.3 399.7,662.7 450,672.7 434.2,699.3 434.2,699.3 434.2,699.3 "/>
		<polygon fill="#9B6959" points="408,686.7 399.7,662.7 434.2,699.3 408,686.7 408,686.7 408,686.7 "/>
		<polygon fill="#B88169" points="408,686.7 393.3,713 354.2,672.7 408,686.7 408,686.7 408,686.7 "/>
		<polygon fill="#6B757D" points="408,686.7 399.7,662.7 354.2,672.7 408,686.7 408,686.7 408,686.7 "/>
		<polygon fill="#5A5568" points="372,650 354.2,672.7 399.7,662.7 372,650 372,650 372,650 "/>
		<polygon fill="#706768" points="372,650 340.3,624.7 354.2,672.7 372,650 372,650 372,650 "/>
		<polygon fill="#844449" points="342.9,675.7 354.2,672.7 340.3,624.7 342.9,675.7 342.9,675.7 342.9,675.7 "/>
		<polygon fill="#874746" points="342.9,675.7 312.1,658.3 350.3,705.1 342.9,675.7 342.9,675.7 342.9,675.7 "/>
		<polygon fill="#7D5453" points="342.9,675.7 340.3,624.7 312.1,658.3 342.9,675.7 342.9,675.7 342.9,675.7 "/>
		<polygon fill="#3E141D" points="284,566.7 280.3,533.2 271,601.6 284,566.7 284,566.7 284,566.7 "/>
		<polygon fill="#5E0C26" points="284,566.7 299,581.3 271,601.6 284,566.7 284,566.7 284,566.7 "/>
		<polygon fill="#732632" points="299,581.3 267.5,656.3 271,601.6 299,581.3 299,581.3 299,581.3 "/>
		<polygon fill="#883636" points="299,581.3 317.6,606.1 267.5,656.3 299,581.3 299,581.3 299,581.3 "/>
		<polygon fill="#9C4139" points="317.6,606.1 312.1,658.3 267.5,656.3 317.6,606.1 317.6,606.1 317.6,606.1 "/>
		<polygon fill="#A05F55" points="317.6,606.1 340.3,624.7 312.1,658.3 317.6,606.1 317.6,606.1 317.6,606.1 "/>
		<polygon fill="#8B252F" points="465.3,683.3 483.3,673.7 489.7,701 465.3,683.3 465.3,683.3 465.3,683.3 "/>
		<polygon fill="#A53E47" points="465.3,683.3 477.5,716.3 489.7,701 465.3,683.3 465.3,683.3 465.3,683.3 "/>
		<polygon fill="#CF9A81" points="477.5,716.3 485.3,735 494,720.7 477.5,716.3 477.5,716.3 477.5,716.3 "/>
		<polygon fill="#CF9A81" points="477.5,716.3 489.7,701 494,720.7 477.5,716.3 477.5,716.3 477.5,716.3 "/>
		<polygon fill="#010101" points="477.5,716.3 463.3,735 483.3,745.7 477.5,716.3 477.5,716.3 477.5,716.3 "/>
		<polygon fill="#CF9A81" points="477.5,716.3 483.3,745.7 485.3,735 477.5,716.3 477.5,716.3 477.5,716.3 "/>
		<polygon fill="#140B13" points="483.3,745.7 501.7,728.3 485.3,735 483.3,745.7 483.3,745.7 483.3,745.7 "/>
		<polygon fill="#140B13" points="485.3,735 494,720.7 501.7,728.3 485.3,735 485.3,735 485.3,735 "/>
		<polygon fill="#13080C" points="494,720.7 489.7,701 509.7,713.3 494,720.7 494,720.7 494,720.7 "/>
		<polygon fill="#13080C" points="494,720.7 501.7,728.3 509.7,713.3 494,720.7 494,720.7 494,720.7 "/>
		<polygon fill="#301F2F" points="463.3,735 477.5,755.3 483.3,745.7 463.3,735 463.3,735 463.3,735 "/>
		<polygon fill="#140B13" points="483.3,745.7 501.7,728.3 509.7,746.9 483.3,745.7 483.3,745.7 483.3,745.7 "/>
		<polygon fill="#422933" points="477.5,755.3 463.3,786.7 489.8,773.6 477.5,755.3 477.5,755.3 477.5,755.3 "/>
		<polygon fill="#301F2F" points="477.5,755.3 483.3,745.7 489.8,773.6 477.5,755.3 477.5,755.3 477.5,755.3 "/>
		<polygon fill="#210E17" points="483.3,745.7 509.7,746.9 489.8,773.6 483.3,745.7 483.3,745.7 483.3,745.7 "/>
		<polygon fill="#210E17" points="489.8,773.6 509.7,746.9 520.3,773.5 489.8,773.6 489.8,773.6 489.8,773.6 "/>
		<polygon fill="#422933" points="489.8,773.6 481.4,802 463.3,786.7 489.8,773.6 489.8,773.6 489.8,773.6 "/>
		<polygon fill="#030204" points="489.8,773.6 520,773.5 522.7,798.3 489.8,773.6 489.8,773.6 489.8,773.6 "/>
		<polygon fill="#030204" points="489.8,773.6 481.4,802 522.7,798.3 489.8,773.6 489.8,773.6 489.8,773.6 "/>
		<polygon fill="#030204" points="481.4,802 511.7,822.7 522.7,798.3 481.4,802 481.4,802 481.4,802 "/>
		<polygon fill="#422933" points="481.4,802 465.3,818.3 463.3,786.7 481.4,802 481.4,802 481.4,802 "/>
		<polygon fill="#030204" points="481.4,802 465.3,818.3 480,835.7 481.4,802 481.4,802 481.4,802 "/>
		<polygon fill="#030204" points="481.4,802 511.7,822.7 499.7,841 481.4,802 481.4,802 481.4,802 "/>
		<polygon fill="#030204" points="481.4,802 480,835.7 499.7,841 481.4,802 481.4,802 481.4,802 "/>
		<polygon fill="#782228" points="238.1,616.7 225,609.7 220.4,629.6 238.1,616.7 238.1,616.7 238.1,616.7 "/>
		<polygon fill="#782228" points="238.1,616.7 229.3,640.8 220.4,629.6 238.1,616.7 238.1,616.7 238.1,616.7 "/>
		<polygon fill="#301F2F" points="229.3,640.8 223.5,654.4 217.2,643.9 229.3,640.8 229.3,640.8 229.3,640.8 "/>
		<polygon fill="#301F2F" points="229.3,640.8 220.4,629.6 217.2,643.9 229.3,640.8 229.3,640.8 229.3,640.8 "/>
		<polygon fill="#862023" points="229.3,640.8 239.6,654.4 225,662.1 229.3,640.8 229.3,640.8 229.3,640.8 "/>
		<polygon fill="#862023" points="229.3,640.8 225,662.1 223.5,654.4 229.3,640.8 229.3,640.8 229.3,640.8 "/>
		<polygon fill="#61112D" points="225,662.1 211.6,649.5 223.5,654.4 225,662.1 225,662.1 225,662.1 "/>
		<polygon fill="#301F2F" points="223.5,654.4 217.2,643.9 211.6,649.5 223.5,654.4 223.5,654.4 223.5,654.4 "/>
		<polygon fill="#301F2F" points="217.2,643.9 220.4,629.6 205.8,638.6 217.2,643.9 217.2,643.9 217.2,643.9 "/>
		<polygon fill="#61112D" points="217.2,643.9 211.6,649.5 205.8,638.6 217.2,643.9 217.2,643.9 217.2,643.9 "/>
		<polygon fill="#862023" points="239.6,654.4 229.3,669.2 225,662.1 239.6,654.4 239.6,654.4 239.6,654.4 "/>
		<polygon fill="#301F2F" points="225,662.1 211.6,649.5 205.8,663.3 225,662.1 225,662.1 225,662.1 "/>
		<polygon fill="#301F2F" points="229.3,669.2 239.6,692 220.3,682.7 229.3,669.2 229.3,669.2 229.3,669.2 "/>
		<polygon fill="#61112D" points="229.3,669.2 225,662.1 220.3,682.7 229.3,669.2 229.3,669.2 229.3,669.2 "/>
		<polygon fill="#301F2F" points="225,662.1 205.8,663.3 220.3,682.7 225,662.1 225,662.1 225,662.1 "/>
		<polygon fill="#51373D" points="220.3,682.7 205.8,663.3 198,683 220.3,682.7 220.3,682.7 220.3,682.7 "/>
		<polygon fill="#301F2F" points="220.3,682.7 226.4,703.2 239.6,692 220.3,682.7 220.3,682.7 220.3,682.7 "/>
		<polygon fill="#51373D" points="220.3,682.7 198.3,683 196.3,700.7 220.3,682.7 220.3,682.7 220.3,682.7 "/>
		<polygon fill="#51373D" points="220.3,682.7 226.4,703.2 196.3,700.7 220.3,682.7 220.3,682.7 220.3,682.7 "/>
		<polygon fill="#210E17" points="226.4,703.2 204.4,718.3 196.3,700.7 226.4,703.2 226.4,703.2 226.4,703.2 "/>
		<polygon fill="#210E17" points="226.4,703.2 238.1,715.1 239.6,692 226.4,703.2 226.4,703.2 226.4,703.2 "/>
		<polygon fill="#210E17" points="226.4,703.2 238.1,715.1 227.4,727.8 226.4,703.2 226.4,703.2 226.4,703.2 "/>
		<polygon fill="#210E17" points="226.4,703.2 204.4,718.3 213.1,731.6 226.4,703.2 226.4,703.2 226.4,703.2 "/>
		<polygon fill="#210E17" points="226.4,703.2 227.4,727.8 213.1,731.6 226.4,703.2 226.4,703.2 226.4,703.2 "/>
		<polygon fill="#E39675" points="306.3,404.3 267,481.7 341,448.3 306.3,404.3 306.3,404.3 306.3,404.3 "/>
		<polygon fill="#E7B482" points="306.3,404.3 335,390.3 341,448.3 306.3,404.3 306.3,404.3 306.3,404.3 "/>
		<polygon fill="#E39675" points="335,390.3 359,404.3 341,448.3 335,390.3 335,390.3 335,390.3 "/>
		<polygon fill="#E39675" points="341,448.3 362.3,441.8 359,404.3 341,448.3 341,448.3 341,448.3 "/>
		<polygon fill="#F0A48E" points="341,448.3 296.3,507.8 267,481.7 341,448.3 341,448.3 341,448.3 "/>
		<polygon fill="#F0A48E" points="267,481.7 252.3,512 296.3,507.8 267,481.7 267,481.7 267,481.7 "/>
		<polygon fill="#F0A48E" points="296.3,507.8 274.3,543.6 252.3,512 296.3,507.8 296.3,507.8 296.3,507.8 "/>
		<polygon fill="#FCE3BD" points="252.3,512 223.2,522.2 246.3,552.3 252.3,512 252.3,512 252.3,512 "/>
		<polygon fill="#F0A48E" points="246.3,552.3 274.3,543.6 252.3,512 246.3,552.3 246.3,552.3 246.3,552.3 "/>
		<polygon fill="#FCE3BD" points="246.3,552.3 209,553.6 223.2,522.2 246.3,552.3 246.3,552.3 246.3,552.3 "/>
		<polygon fill="#C5836F" points="209,553.6 223.2,522.2 193.7,512 209,553.6 209,553.6 209,553.6 "/>
		<polygon fill="#F0A48E" points="193.7,512 209,553.6 169.7,537.8 193.7,512 193.7,512 193.7,512 "/>
		<polygon fill="#E7B482" points="193.7,512 165,500.6 153.7,525.8 193.7,512 193.7,512 193.7,512 "/>
		<polygon fill="#E39675" points="193.7,512 153.7,525.8 169.7,537.8 193.7,512 193.7,512 193.7,512 "/>
		<polygon fill="#D58556" points="153.7,525.8 129,522.1 120.3,499.2 153.7,525.8 153.7,525.8 153.7,525.8 "/>
		<polygon fill="#D2835D" points="120.3,499.2 165,500.6 153.7,525.8 120.3,499.2 120.3,499.2 120.3,499.2 "/>
		<polygon fill="#D87D54" points="120.3,499.2 125.6,470.3 165,500.6 120.3,499.2 120.3,499.2 120.3,499.2 "/>
		<polygon fill="#C47E42" points="165,500.6 153.7,467 125.6,470.3 165,500.6 165,500.6 165,500.6 "/>
		<polygon fill="#DA5827" points="125.6,470.3 109,451.7 153.7,467 125.6,470.3 125.6,470.3 125.6,470.3 "/>
		<polygon fill="#B52E26" points="165,500.6 162.3,451.7 153.7,467 165,500.6 165,500.6 165,500.6 "/>
		<polygon fill="#B42529" points="162.3,451.7 145,441.8 153.7,467 162.3,451.7 162.3,451.7 162.3,451.7 "/>
	</g>
</svg>
