<?xml version="1.0" encoding="utf-8"?>
<svg version="1.1" xmlns="http://www.w3.org/2000/svg" xmlns:xlink="http://www.w3.org/1999/xlink" x="0px" y="0px"
	 width="595.3px" height="841.9px" viewBox="0 0 595.3 841.9" enable-background="new 0 0 595.3 841.9" xml:space="preserve">
	<g id="character">
		<path fill="#C8C8CA" d="M467.1,316.6l-4.1-40l6.7-44.4l-18.4-15l-4.4-33l-46.3-17.9l-54.4-5.9l8.4-49.9l-9.2-24.8L283.1,61
			l-46.7,49.3l0.3,55.7l2.5,15.1l-26.5,6.8l-45.4,17.5l-21.2,35l21.7,25.6l18.2,40.8l-5-9.2l-50.6,49.7L114.6,390l-10.7,14l-0.5,18.1
			l14.2,9.9l15.7-8.1l-2.2-14.5l15.6,23l44.2-48.8l35.6-33.2l20.4,19.1l-17.8,11.4l0,29.5l4.4,6l-22.7,4.1l6.2,26l-2.9,22.2l-2.1,26.8
			l-3.6,28.1l-1.1,21.7l-0.7,34.8l-1.6,42.9l-7.4,41.9l-4.2,25l-24.2,24.3l-23.2,11.4l-20.2,9l7,17.5l34.1-1l26.2-5.2l22.9-16.9
			l21.7-14.6l27.9-3.9l-9-26.2l-20.5-17.2l-0.4-28.9l12.4-25.3l12.1-30.8l-0.5-20.1l-7.6-26.3l17.9-42l1.7-25.6l2.2,2.9l32.3-9.6
			l0.7,3.5l9,18.1l11.8,21.5l6.4,24.2l4,17.5l-2.5,10.1l5.7,18.5l6.4,16.4l10,21.3l8.3,19.4l5.7,18.8l5.6,27.2l3.6,17.2l0.7,18
			l7.4,27.4l-0.3,23.5l3.4,18.3l32.5-12.3l-2-19l-3.4-34.8l3-19l-5.2-19l-12.5-6.7l-3.1-37.6l1.9-25.2l-1.4-23.9l-6.4-20.9l-11.3-17.8
			l-9.9-18.2l-5-28.8l-1.2-24.5l-2.5-28.3l-0.8-21.9l-17-19.7l-23.3-5.4l0-2.3l9.5-17.5l-24.5-17.1l5.5-46.1l23.3-15.5l1.6,4.7
			l38.6-20.1l29.8,34.6l24.8,26.5l-2.7,44l-16.6,46.2l0.4,33.2l-14.3,13.8l37.7-4.3l7.7-29.7l24.1,29.7l11.8-85.3l10.9-41.1
			L467.1,316.6z M381.7,213.1l-33.4,40l-2.6-19l30.4-24.7L381.7,213.1z"/>
		<polygon fill="#B9B4B9" points="181,297.5 130.4,347.2 189.7,313.6 181,297.5 181,297.5 181,297.5 "/>
		<polygon fill="#C8C8CA" points="130.4,347.2 114.6,390 132,380.9 130.4,347.2 130.4,347.2 130.4,347.2 "/>
		<polygon fill="#CDCFCD" points="189.7,313.6 221.2,333.3 186.6,360.9 189.7,313.6 189.7,313.6 189.7,313.6 "/>
		<polygon fill="#F7FAF9" points="189.7,313.6 130.4,347.2 186.6,360.9 189.7,313.6 189.7,313.6 189.7,313.6 "/>
		<polygon fill="#F2F5F6" points="130.4,347.2 132,380.9 186.6,360.9 130.4,347.2 130.4,347.2 130.4,347.2 "/>
		<polygon fill="#7E7272" points="221.2,333.3 234.6,342.9 186.6,360.9 221.2,333.3 221.2,333.3 221.2,333.3 "/>
		<polygon fill="#71625E" points="234.6,342.9 190.9,383.6 186.6,360.9 234.6,342.9 234.6,342.9 234.6,342.9 "/>
		<polygon fill="#9D9AA1" points="132,380.9 190.9,383.6 186.6,360.9 132,380.9 132,380.9 132,380.9 "/>
		<polygon fill="#9D9AA1" points="132,380.9 146.4,401.2 190.9,383.6 132,380.9 132,380.9 132,380.9 "/>
		<polygon fill="#767475" points="146.4,401.2 146.7,432.4 190.9,383.6 146.4,401.2 146.4,401.2 146.4,401.2 "/>
		<polygon fill="#A5A6AB" points="146.7,432.4 131.1,409.4 146.4,401.2 146.7,432.4 146.7,432.4 146.7,432.4 "/>
		<polygon fill="#EAEAE8" points="132,380.9 114.6,390 146.4,401.2 132,380.9 132,380.9 132,380.9 "/>
		<polygon fill="#EAEAE8" points="131.1,409.4 146.4,401.2 114.6,390 131.1,409.4 131.1,409.4 131.1,409.4 "/>
		<polygon fill="#F3F3F1" points="114.6,390 103.9,404 131.1,409.4 114.6,390 114.6,390 114.6,390 "/>
		<polygon fill="#F3F3F1" points="103.9,404 103.4,422.1 131.1,409.4 103.9,404 103.9,404 103.9,404 "/>
		<polygon fill="#4E484A" points="103.4,422.1 117.6,432 131.1,409.4 103.4,422.1 103.4,422.1 103.4,422.1 "/>
		<polygon fill="#4E484A" points="117.6,432 133.3,423.9 131.1,409.4 117.6,432 117.6,432 117.6,432 "/>
		<polygon fill="#2C6A87" points="217.1,446.5 254.5,431.9 268.4,451.8 217.1,446.5 217.1,446.5 217.1,446.5 "/>
		<polygon fill="#3D6F97" points="217.1,446.5 214.1,468.8 268.4,451.8 217.1,446.5 217.1,446.5 217.1,446.5 "/>
		<polygon fill="#567FB5" points="268.4,451.8 214.1,468.8 244.5,471.3 268.4,451.8 268.4,451.8 268.4,451.8 "/>
		<polygon fill="#4E6487" points="268.4,451.8 244.5,471.3 272.4,462.9 268.4,451.8 268.4,451.8 268.4,451.8 "/>
		<polygon fill="#979CA0" points="272.4,462.9 270.3,493.9 244.5,471.3 272.4,462.9 272.4,462.9 272.4,462.9 "/>
		<polygon fill="#DDE1E2" points="214.1,468.8 244.5,471.3 212.1,495.6 214.1,468.8 214.1,468.8 214.1,468.8 "/>
		<polygon fill="#DDE1E2" points="212.1,495.6 232.7,519.1 244.5,471.3 212.1,495.6 212.1,495.6 212.1,495.6 "/>
		<polygon fill="#979CA0" points="232.7,519.1 270.3,493.9 244.5,471.3 232.7,519.1 232.7,519.1 232.7,519.1 "/>
		<polygon fill="#A1A6A9" points="270.3,493.9 252.4,535.8 232.7,519.1 270.3,493.9 270.3,493.9 270.3,493.9 "/>
		<polygon fill="#DDE1E2" points="212.1,495.6 208.5,523.7 232.7,519.1 212.1,495.6 212.1,495.6 212.1,495.6 "/>
		<polygon fill="#F2F5F6" points="208.5,523.7 207.4,545.4 232.7,519.1 208.5,523.7 208.5,523.7 208.5,523.7 "/>
		<polygon fill="#A1A6A9" points="232.7,519.1 252.4,535.8 207.4,545.4 232.7,519.1 232.7,519.1 232.7,519.1 "/>
		<polygon fill="#A1A6A9" points="207.4,545.4 252.4,535.8 259.9,562.2 207.4,545.4 207.4,545.4 207.4,545.4 "/>
		<polygon fill="#B0B7B9" points="207.4,545.4 206.7,580.2 259.9,562.2 207.4,545.4 207.4,545.4 207.4,545.4 "/>
		<polygon fill="#BAB9C0" points="259.9,562.2 260.4,582.2 235.6,591.6 259.9,562.2 259.9,562.2 259.9,562.2 "/>
		<polygon fill="#B0B7B9" points="206.7,580.2 235.6,591.6 259.9,562.2 206.7,580.2 206.7,580.2 206.7,580.2 "/>
		<polygon fill="#D1D4D5" points="206.7,580.2 205.1,623.1 235.6,591.6 206.7,580.2 206.7,580.2 206.7,580.2 "/>
		<polygon fill="#F5EBF4" points="235.6,591.6 260.4,582.2 248.3,613 235.6,591.6 235.6,591.6 235.6,591.6 "/>
		<polygon fill="#918A8C" points="235.6,591.6 205.1,623.1 248.3,613 235.6,591.6 235.6,591.6 235.6,591.6 "/>
		<polygon fill="#9FA0A5" points="248.3,613 235.9,638.3 205.1,623.1 248.3,613 248.3,613 248.3,613 "/>
		<polygon fill="#808A8C" points="235.9,638.3 214.7,652.1 205.1,623.1 235.9,638.3 235.9,638.3 235.9,638.3 "/>
		<polygon fill="#82858F" points="235.9,638.3 236.3,667.2 214.7,652.1 235.9,638.3 235.9,638.3 235.9,638.3 "/>
		<polygon fill="#C8CFD2" points="205.1,623.1 197.7,665 214.7,652.1 205.1,623.1 205.1,623.1 205.1,623.1 "/>
		<polygon fill="#B2BCBE" points="214.7,652.1 197.7,665 229.8,684.7 214.7,652.1 214.7,652.1 214.7,652.1 "/>
		<polygon fill="#9EA1AB" points="214.7,652.1 236.3,667.2 229.8,684.7 214.7,652.1 214.7,652.1 214.7,652.1 "/>
		<polygon fill="#9EA1AB" points="236.3,667.2 256.8,684.4 229.8,684.7 236.3,667.2 236.3,667.2 236.3,667.2 "/>
		<polygon fill="#C8CFD2" points="197.7,665 193.5,690 229.8,684.7 197.7,665 197.7,665 197.7,665 "/>
		<polygon fill="#C8CFD2" points="229.8,684.7 217.4,701.2 193.5,690 229.8,684.7 229.8,684.7 229.8,684.7 "/>
		<polygon fill="#C8CFD2" points="193.5,690 169.3,714.3 200.1,713.4 193.5,690 193.5,690 193.5,690 "/>
		<polygon fill="#C7E8E8" points="169.3,714.3 146.1,725.7 184.1,725.7 169.3,714.3 169.3,714.3 169.3,714.3 "/>
		<polygon fill="#C7E8E8" points="146.1,725.7 125.9,734.6 153.2,740.1 146.1,725.7 146.1,725.7 146.1,725.7 "/>
		<polygon fill="#18786D" points="125.9,734.6 133,752.1 153.2,740.1 125.9,734.6 125.9,734.6 125.9,734.6 "/>
		<polyline fill="#18786D" points="133,752.1 167.1,751.1 153.2,740.1 133,752.1 "/>
		<polygon fill="#4DC3C4" points="153.2,740.1 146.1,725.7 184.1,725.7 153.2,740.1 153.2,740.1 153.2,740.1 "/>
		<polygon fill="#18786D" points="153.2,740.1 167.1,751.1 193.2,745.8 153.2,740.1 153.2,740.1 153.2,740.1 "/>
		<polygon fill="#26989C" points="153.2,740.1 184.1,725.7 193.2,745.8 153.2,740.1 153.2,740.1 153.2,740.1 "/>
		<polygon fill="#26989C" points="184.1,725.7 193.2,745.8 216.1,729 184.1,725.7 184.1,725.7 184.1,725.7 "/>
		<polygon fill="#3BC0C1" points="184.1,725.7 169.3,714.3 200.1,713.4 184.1,725.7 184.1,725.7 184.1,725.7 "/>
		<polygon fill="#1D8C7A" points="184.1,725.7 200.1,713.4 216.1,729 184.1,725.7 184.1,725.7 184.1,725.7 "/>
		<polygon fill="#C8CFD2" points="200.1,713.4 217.4,701.2 193.5,690 200.1,713.4 200.1,713.4 200.1,713.4 "/>
		<polygon fill="#125D5A" points="200.1,713.4 216.1,729 237.9,714.4 200.1,713.4 200.1,713.4 200.1,713.4 "/>
		<polygon fill="#125D5A" points="200.1,713.4 217.4,701.2 237.9,714.4 200.1,713.4 200.1,713.4 200.1,713.4 "/>
		<polygon fill="#707076" points="256.8,684.4 265.7,710.5 229.8,684.7 256.8,684.4 256.8,684.4 256.8,684.4 "/>
		<polygon fill="#707076" points="265.7,710.5 217.4,701.2 229.8,684.7 265.7,710.5 265.7,710.5 265.7,710.5 "/>
		<polygon fill="#707076" points="265.7,710.5 237.9,714.4 217.4,701.2 265.7,710.5 265.7,710.5 265.7,710.5 "/>
		<polygon fill="#2A3B50" points="252.4,412.6 233.7,416.4 254.5,431.9 252.4,412.6 252.4,412.6 252.4,412.6 "/>
		<polygon fill="#82AED5" points="233.7,416.4 222.1,429.9 254.5,431.9 233.7,416.4 233.7,416.4 233.7,416.4 "/>
		<polygon fill="#3C6185" points="254.5,431.9 217.1,446.5 222.1,429.9 254.5,431.9 254.5,431.9 254.5,431.9 "/>
		<polygon fill="#517F99" points="233.7,416.4 210.8,420.6 222.1,429.9 233.7,416.4 233.7,416.4 233.7,416.4 "/>
		<polygon fill="#3B5267" points="210.8,420.6 217.1,446.5 222.1,429.9 210.8,420.6 210.8,420.6 210.8,420.6 "/>
		<polygon fill="#D9CDBD" points="327.1,158.4 400.7,166.4 348.9,199.7 327.1,158.4 327.1,158.4 327.1,158.4 "/>
		<polygon fill="#DDC9CA" points="400.7,166.4 447,184.2 376.2,209.4 400.7,166.4 400.7,166.4 400.7,166.4 "/>
		<polygon fill="#F7F6FB" points="348.9,199.7 376.2,209.4 400.7,166.4 348.9,199.7 348.9,199.7 348.9,199.7 "/>
		<polygon fill="#EBF3D9" points="327.1,158.4 212.6,187.9 261.7,209.4 327.1,158.4 327.1,158.4 327.1,158.4 "/>
		<polygon fill="#5A2A0F" points="212.6,187.9 167.3,205.4 196.3,225.3 212.6,187.9 212.6,187.9 212.6,187.9 "/>
		<polygon fill="#F4C1DA" points="167.3,205.4 146.1,240.3 167.8,265.9 167.3,205.4 167.3,205.4 167.3,205.4 "/>
		<polygon fill="#797A7C" points="167.8,265.9 190.3,316.5 212.4,269.1 167.8,265.9 167.8,265.9 167.8,265.9 "/>
		<polygon fill="#F7F7EB" points="167.8,265.9 196.3,225.3 212.4,269.1 167.8,265.9 167.8,265.9 167.8,265.9 "/>
		<polygon fill="#3E454B" points="212.4,269.1 190.3,316.5 247,326.5 212.4,269.1 212.4,269.1 212.4,269.1 "/>
		<polygon fill="#442E13" points="212.4,269.1 255.8,269.4 247,326.5 212.4,269.1 212.4,269.1 212.4,269.1 "/>
		<polygon fill="#594A64" points="247,326.5 315.3,316.5 255.8,269.4 247,326.5 247,326.5 247,326.5 "/>
		<polygon fill="#FDF0D4" points="315.3,316.5 353.4,291.1 301.7,263.5 315.3,316.5 315.3,316.5 315.3,316.5 "/>
		<polygon fill="#BDC1BB" points="255.8,269.4 301.7,263.5 315.3,316.5 255.8,269.4 255.8,269.4 255.8,269.4 "/>
		<polygon fill="#FFFEF8" points="212.4,269.1 265.3,240.3 255.8,269.4 212.4,269.1 212.4,269.1 212.4,269.1 "/>
		<polygon fill="#F8FCF9" points="212.4,269.1 196.3,225.3 265.3,240.3 212.4,269.1 212.4,269.1 212.4,269.1 "/>
		<polygon fill="#AB828A" points="196.3,225.3 212.6,187.9 261.7,209.4 196.3,225.3 196.3,225.3 196.3,225.3 "/>
		<polygon fill="#FEF7F9" points="196.3,225.3 261.7,209.4 265.3,240.3 196.3,225.3 196.3,225.3 196.3,225.3 "/>
		<polygon fill="#DCDCE5" points="261.7,209.4 301.7,214.7 327.1,158.4 261.7,209.4 261.7,209.4 261.7,209.4 "/>
		<polygon fill="#A7ABAC" points="301.7,214.7 348.9,199.7 327.1,158.4 301.7,214.7 301.7,214.7 301.7,214.7 "/>
		<polygon fill="#FCEFF5" points="348.9,199.7 376.2,209.4 315.3,235.7 348.9,199.7 348.9,199.7 348.9,199.7 "/>
		<polygon fill="#FCEFF5" points="301.7,214.7 315.3,235.7 348.9,199.7 301.7,214.7 301.7,214.7 301.7,214.7 "/>
		<polygon fill="#FEFEF9" points="301.7,214.7 265.3,240.3 261.7,209.4 301.7,214.7 301.7,214.7 301.7,214.7 "/>
		<polygon fill="#F4F3F9" points="315.3,235.7 265.3,240.3 301.7,214.7 315.3,235.7 315.3,235.7 315.3,235.7 "/>
		<polygon fill="#DAE5F5" points="315.3,235.7 255.8,269.4 265.3,240.3 315.3,235.7 315.3,235.7 315.3,235.7 "/>
		<polygon fill="#F6ECF4" points="315.3,235.7 301.7,263.5 255.8,269.4 315.3,235.7 315.3,235.7 315.3,235.7 "/>
		<polygon fill="#A9AFAB" points="315.3,235.7 301.7,263.5 353.4,291.1 315.3,235.7 315.3,235.7 315.3,235.7 "/>
		<polygon fill="#FFFCF9" points="315.3,235.7 353.4,291.1 345.7,234.1 315.3,235.7 315.3,235.7 315.3,235.7 "/>
		<polygon fill="#FFFCF9" points="345.7,234.1 376.2,209.4 315.3,235.7 345.7,234.1 345.7,234.1 345.7,234.1 "/>
		<polygon fill="#E5E9E7" points="447,184.2 435.2,248.5 376.2,209.4 447,184.2 447,184.2 447,184.2 "/>
		<polygon fill="#E4E6E4" points="435.2,248.5 408,290 457,259.8 435.2,248.5 435.2,248.5 435.2,248.5 "/>
		<polygon fill="#E4E6E4" points="435.2,248.5 457,259.8 447,184.2 435.2,248.5 435.2,248.5 435.2,248.5 "/>
		<polygon fill="#C2C6C9" points="190.3,316.5 246.9,369.6 247,326.5 190.3,316.5 190.3,316.5 190.3,316.5 "/>
		<polygon fill="#B5B8BB" points="246.9,369.6 281.2,344.2 247,326.5 246.9,369.6 246.9,369.6 246.9,369.6 "/>
		<polygon fill="#626364" points="247,326.5 281.2,344.2 315.3,316.5 247,326.5 247,326.5 247,326.5 "/>
		<polygon fill="#534B49" points="315.3,316.5 309.8,362.6 281.2,344.2 315.3,316.5 315.3,316.5 315.3,316.5 "/>
		<polygon fill="#D8DCDD" points="246.9,369.6 269.9,389.1 281.2,344.2 246.9,369.6 246.9,369.6 246.9,369.6 "/>
		<polygon fill="#C4C8CB" points="269.9,389.1 281.2,344.2 309.8,362.6 269.9,389.1 269.9,389.1 269.9,389.1 "/>
		<polygon fill="#D8DCDD" points="269.9,389.1 246.9,369.6 247.2,401.7 269.9,389.1 269.9,389.1 269.9,389.1 "/>
		<polygon fill="#B5B8BB" points="269.9,389.1 309.8,362.6 294.3,406.1 269.9,389.1 269.9,389.1 269.9,389.1 "/>
		<polygon fill="#D8DCDD" points="247.2,401.7 269.9,389.1 294.3,406.1 247.2,401.7 247.2,401.7 247.2,401.7 "/>
		<polygon fill="#E9EFEE" points="294.3,406.1 274.3,445.9 247.2,401.7 294.3,406.1 294.3,406.1 294.3,406.1 "/>
		<polygon fill="#908F93" points="309.8,362.6 324.8,397.2 294.3,406.1 309.8,362.6 309.8,362.6 309.8,362.6 "/>
		<polygon fill="#534B49" points="294.3,406.1 324.8,397.2 324.6,423.6 294.3,406.1 294.3,406.1 294.3,406.1 "/>
		<polygon fill="#9F9F9F" points="324.6,423.6 301.7,452.4 274.3,445.9 324.6,423.6 324.6,423.6 324.6,423.6 "/>
		<polygon fill="#5E5359" points="324.6,423.6 309.8,460.6 301.7,452.4 324.6,423.6 324.6,423.6 324.6,423.6 "/>
		<polygon fill="#E1E3E2" points="274.3,445.9 274.2,471.2 229.1,410.5 274.3,445.9 274.3,445.9 274.3,445.9 "/>
		<polygon fill="#9F9F9F" points="274.3,445.9 274.2,471.2 301.7,452.4 274.3,445.9 274.3,445.9 274.3,445.9 "/>
		<polygon fill="#66636A" points="274.2,471.2 309.8,460.6 301.7,452.4 274.2,471.2 274.2,471.2 274.2,471.2 "/>
		<polygon fill="#E4E8E8" points="229.1,380.9 229.1,410.5 247.2,401.7 229.1,380.9 229.1,380.9 229.1,380.9 "/>
		<polygon fill="#534B49" points="309.8,362.6 334.4,379.7 324.8,397.2 309.8,362.6 309.8,362.6 309.8,362.6 "/>
		<polygon fill="#D8DCDD" points="229.1,380.9 247.2,401.7 246.9,369.6 229.1,380.9 "/>
		<polygon fill="#E1E7E0" points="229.1,410.5 247.2,401.7 274.3,445.9 229.1,410.5 "/>
		<polygon fill="#5C5B60" points="274.3,445.9 324.6,423.6 294.3,406.1 274.3,445.9 "/>
		<path fill="#F7F7EB" d="M167.3,205.4"/>
		<path fill="#F7F7EB" d="M179.9,225.3"/>
		<path fill="#F7F7EB" d="M150.2,265.9"/>
		<polygon fill="#CCCFA3" points="167.3,205.4 196.3,225.3 167.8,265.9 167.3,205.4 "/>
		<polygon fill="#DAE0E0" points="348,253.4 383.5,210.9 433.6,246.3 348,253.4 348,253.4 348,253.4 "/>
		<polygon fill="#F7F8F8" points="383.5,210.9 433.6,202.7 433.6,246.3 383.5,210.9 383.5,210.9 383.5,210.9 "/>
		<polygon fill="#F2F4F3" points="433.6,202.7 469.7,232.2 433.6,246.3 433.6,202.7 433.6,202.7 433.6,202.7 "/>
		<polygon fill="#D8D9D8" points="469.7,232.2 421.6,269.8 433.6,246.3 469.7,232.2 469.7,232.2 469.7,232.2 "/>
		<polygon fill="#0E0E0F" points="421.6,269.8 378.9,285.5 394.3,257.9 421.6,269.8 421.6,269.8 421.6,269.8 "/>
		<polygon fill="#656565" points="394.3,257.9 433.6,246.3 421.6,269.8 394.3,257.9 394.3,257.9 394.3,257.9 "/>
		<polygon fill="#656565" points="394.3,257.9 348,253.4 433.6,246.3 394.3,257.9 394.3,257.9 394.3,257.9 "/>
		<polygon fill="#3A5962" points="394.3,257.9 378.9,285.5 348,253.4 394.3,257.9 394.3,257.9 394.3,257.9 "/>
		<polygon fill="#182F42" points="378.9,285.5 340.3,305.6 348,253.4 378.9,285.5 378.9,285.5 378.9,285.5 "/>
		<polygon fill="#0A222A" points="348,253.4 327.1,268.3 340.3,305.6 348,253.4 348,253.4 348,253.4 "/>
		<polygon fill="#5A4F53" points="421.6,269.8 437.4,302.8 378.9,285.5 421.6,269.8 421.6,269.8 421.6,269.8 "/>
		<polygon fill="#797373" points="378.9,285.5 408.6,320.1 437.4,302.8 378.9,285.5 378.9,285.5 378.9,285.5 "/>
		<polygon fill="#9B999C" points="437.4,302.8 445.7,330.2 408.6,320.1 437.4,302.8 437.4,302.8 437.4,302.8 "/>
		<polygon fill="#5B8697" points="408.6,320.1 433.4,346.7 445.7,330.2 408.6,320.1 408.6,320.1 408.6,320.1 "/>
		<polygon fill="#D0C7D8" points="445.7,330.2 467.1,316.6 492.4,353.3 445.7,330.2 445.7,330.2 445.7,330.2 "/>
		<polygon fill="#B4B3AE" points="445.7,330.2 433.4,346.7 492.4,353.3 445.7,330.2 445.7,330.2 445.7,330.2 "/>
		<polygon fill="#B4CDD7" points="433.4,346.7 462.9,368.3 492.4,353.3 433.4,346.7 433.4,346.7 433.4,346.7 "/>
		<polygon fill="#98B0BA" points="462.9,368.3 492.4,353.3 481.5,394.4 462.9,368.3 462.9,368.3 462.9,368.3 "/>
		<polygon fill="#CCD2D1" points="433.4,346.7 430.7,390.7 462.9,368.3 433.4,346.7 433.4,346.7 433.4,346.7 "/>
		<polygon fill="#D4D5CD" points="430.7,390.7 457.9,413.3 462.9,368.3 430.7,390.7 430.7,390.7 430.7,390.7 "/>
		<polygon fill="#668F96" points="457.9,413.3 481.5,394.4 462.9,368.3 457.9,413.3 457.9,413.3 457.9,413.3 "/>
		<polygon fill="#524C58" points="457.9,413.3 469.7,479.7 481.5,394.4 457.9,413.3 457.9,413.3 457.9,413.3 "/>
		<polygon fill="#F2F4F3" points="430.7,390.7 414.1,436.9 457.9,413.3 430.7,390.7 430.7,390.7 430.7,390.7 "/>
		<polygon fill="#C8C7C3" points="414.1,436.9 445.7,449.9 457.9,413.3 414.1,436.9 414.1,436.9 414.1,436.9 "/>
		<polygon fill="#AB96BA" points="445.7,449.9 469.7,479.7 457.9,413.3 445.7,449.9 445.7,449.9 445.7,449.9 "/>
		<polygon fill="#CBC9CA" points="445.7,449.9 437.9,479.6 414.1,436.9 445.7,449.9 445.7,449.9 445.7,449.9 "/>
		<polygon fill="#FAEAEB" points="414.1,436.9 414.5,470.1 437.9,479.6 414.1,436.9 414.1,436.9 414.1,436.9 "/>
		<polygon fill="#CACCCB" points="414.5,470.1 400.2,483.9 437.9,479.6 414.5,470.1 414.5,470.1 414.5,470.1 "/>
		<polygon fill="#F7F8F8" points="437.4,302.8 467.1,316.6 445.7,330.2 437.4,302.8 437.4,302.8 437.4,302.8 "/>
		<polygon fill="#F7F8F8" points="437.4,302.8 437.4,302.8 463,276.6 467.1,316.6 437.4,302.8 437.4,302.8 437.4,302.8 "/>
		<polygon fill="#F7F8F8" points="437.4,302.8 421.6,269.8 463,276.6 437.4,302.8 437.4,302.8 437.4,302.8 "/>
		<polygon fill="#F7F8F8" points="463,276.6 469.7,232.2 421.6,269.8 463,276.6 463,276.6 463,276.6 "/>
		<polygon fill="#497EA9" points="314.7,397.2 296.7,407.2 318.6,416.1 314.7,397.2 314.7,397.2 314.7,397.2 "/>
		<polygon fill="#375669" points="314.7,397.2 348.1,404.9 318.6,416.1 314.7,397.2 314.7,397.2 314.7,397.2 "/>
		<polygon fill="#0A1C37" points="348.1,404.9 365.1,424.6 351.2,427 348.1,404.9 348.1,404.9 348.1,404.9 "/>
		<polygon fill="#2B4E6B" points="296.7,407.2 301.3,435.4 318.6,416.1 296.7,407.2 296.7,407.2 296.7,407.2 "/>
		<polygon fill="#324F61" points="318.6,416.1 351.2,427 348.1,404.9 318.6,416.1 318.6,416.1 318.6,416.1 "/>
		<polygon fill="#0D1F2A" points="351.2,427 365.9,446.5 365.1,424.6 351.2,427 351.2,427 351.2,427 "/>
		<polygon fill="#6F9AC6" points="301.3,435.4 326.6,444.5 318.6,416.1 301.3,435.4 301.3,435.4 301.3,435.4 "/>
		<polygon fill="#2A4551" points="326.6,444.5 307.1,465.1 301.3,435.4 326.6,444.5 326.6,444.5 326.6,444.5 "/>
		<polygon fill="#DADEE1" points="307.1,465.1 316.1,483.2 337,464 307.1,465.1 307.1,465.1 307.1,465.1 "/>
		<polygon fill="#A7AAB3" points="368.4,474.8 369.6,499.3 348.3,489.6 368.4,474.8 368.4,474.8 368.4,474.8 "/>
		<polygon fill="#D0D4D7" points="316.1,483.2 327.9,504.7 348.3,489.6 316.1,483.2 316.1,483.2 316.1,483.2 "/>
		<polygon fill="#BFC2C3" points="337,464 348.3,489.6 316.1,483.2 337,464 337,464 337,464 "/>
		<polygon fill="#908E8F" points="348.3,489.6 337,464 368.4,474.8 348.3,489.6 348.3,489.6 348.3,489.6 "/>
		<polygon fill="#273D44" points="337,464 350.8,455.1 368.4,474.8 337,464 337,464 337,464 "/>
		<polygon fill="#415B78" points="307.1,465.1 326.6,444.5 337,464 307.1,465.1 307.1,465.1 307.1,465.1 "/>
		<polygon fill="#43577C" points="326.6,444.5 365.9,446.5 350.8,455.1 326.6,444.5 326.6,444.5 326.6,444.5 "/>
		<polygon fill="#557EA4" points="326.6,444.5 337,464 350.8,455.1 326.6,444.5 326.6,444.5 326.6,444.5 "/>
		<polygon fill="#76A4C2" points="326.6,444.5 351.2,427 365.9,446.5 326.6,444.5 326.6,444.5 326.6,444.5 "/>
		<polygon fill="#72A9CF" points="326.6,444.5 318.6,416.1 351.2,427 326.6,444.5 326.6,444.5 326.6,444.5 "/>
		<polygon fill="#4F5A6E" points="365.9,446.5 350.8,455.1 368.4,474.8 365.9,446.5 365.9,446.5 365.9,446.5 "/>
		<polygon fill="#AFAFB9" points="369.6,499.3 374.6,528.1 349.8,513 369.6,499.3 369.6,499.3 369.6,499.3 "/>
		<polygon fill="#D0D4D7" points="348.3,489.6 327.9,504.7 349.8,513 348.3,489.6 348.3,489.6 348.3,489.6 "/>
		<polygon fill="#A4A7AF" points="348.3,489.6 369.6,499.3 349.8,513 348.3,489.6 348.3,489.6 348.3,489.6 "/>
		<polygon fill="#D0D4D7" points="327.9,504.7 334.3,528.9 349.8,513 327.9,504.7 327.9,504.7 327.9,504.7 "/>
		<polygon fill="#AFAFB9" points="334.3,528.9 354,536.1 349.8,513 334.3,528.9 334.3,528.9 334.3,528.9 "/>
		<polygon fill="#AFAFB9" points="354,536.1 374.6,528.1 349.8,513 354,536.1 354,536.1 354,536.1 "/>
		<polygon fill="#ADB2B5" points="334.3,528.9 338.3,546.4 354,536.1 334.3,528.9 334.3,528.9 334.3,528.9 "/>
		<polygon fill="#AFAFB9" points="354,536.1 374.6,528.1 384.5,546.2 354,536.1 354,536.1 354,536.1 "/>
		<polygon fill="#9A9DA6" points="384.5,546.2 395.7,564 376,564.4 384.5,546.2 384.5,546.2 384.5,546.2 "/>
		<polygon fill="#9A9DA6" points="395.7,564 402.1,584.9 376,564.4 395.7,564 395.7,564 395.7,564 "/>
		<polygon fill="#CFCFCE" points="402.1,584.9 403.5,608.8 385.9,595.1 402.1,584.9 402.1,584.9 402.1,584.9 "/>
		<polygon fill="#CFCFCE" points="403.5,608.8 401.6,634 383.8,617.2 403.5,608.8 403.5,608.8 403.5,608.8 "/>
		<line fill="#ADB2B5" x1="358" y1="562.4" x2="335.8" y2="556.5"/>
		<polygon fill="#979A9F" points="335.8,556.5 341.5,575 358,562.4 335.8,556.5 335.8,556.5 335.8,556.5 "/>
		<polygon fill="#979A9F" points="341.5,575 347.9,591.4 361.9,576.8 341.5,575 341.5,575 341.5,575 "/>
		<polygon fill="#C9C9CB" points="347.9,591.4 357.8,612.6 385.9,595.1 347.9,591.4 347.9,591.4 347.9,591.4 "/>
		<polygon fill="#99979C" points="357.8,612.6 366.2,632 383.8,617.2 357.8,612.6 357.8,612.6 357.8,612.6 "/>
		<polygon fill="#C0B8B6" points="357.8,612.6 385.9,595.1 383.8,617.2 357.8,612.6 357.8,612.6 357.8,612.6 "/>
		<polygon fill="#8B888B" points="347.9,591.4 361.9,576.8 385.9,595.1 347.9,591.4 347.9,591.4 347.9,591.4 "/>
		<polygon fill="#A1A4AF" points="361.9,576.8 385.9,595.1 402.1,584.9 361.9,576.8 361.9,576.8 361.9,576.8 "/>
		<polygon fill="#9A9DA6" points="361.9,576.8 376,564.4 402.1,584.9 361.9,576.8 361.9,576.8 361.9,576.8 "/>
		<polygon fill="#979A9F" points="341.5,575 358,562.4 361.9,576.8 341.5,575 341.5,575 341.5,575 "/>
		<polygon fill="#9A9DA6" points="358,562.4 361.9,576.8 376,564.4 358,562.4 358,562.4 358,562.4 "/>
		<polygon fill="#ADB2B5" points="338.3,546.4 335.8,556.5 358,562.4 338.3,546.4 338.3,546.4 338.3,546.4 "/>
		<polygon fill="#ADB2B5" points="338.3,546.4 354,536.1 358,562.4 338.3,546.4 338.3,546.4 338.3,546.4 "/>
		<polygon fill="#9A9DA6" points="354,536.1 384.5,546.2 376,564.4 354,536.1 354,536.1 354,536.1 "/>
		<polygon fill="#9A9DA6" points="354,536.1 358,562.4 376,564.4 354,536.1 354,536.1 354,536.1 "/>
		<polygon fill="#D0D5DB" points="366.2,632 371.9,650.9 401.6,634 366.2,632 366.2,632 366.2,632 "/>
		<polygon fill="#D0D5DB" points="366.2,632 383.8,617.2 401.6,634 366.2,632 366.2,632 366.2,632 "/>
		<polygon fill="#DCDDDF" points="401.6,634 404.7,671.6 371.9,650.9 401.6,634 401.6,634 401.6,634 "/>
		<polygon fill="#D0D5DB" points="371.9,650.9 377.5,678.1 404.7,671.6 371.9,650.9 371.9,650.9 371.9,650.9 "/>
		<polygon fill="#DCDDDF" points="404.7,671.6 417.2,678.3 398.2,685.4 404.7,671.6 404.7,671.6 404.7,671.6 "/>
		<polygon fill="#DCDDDF" points="417.2,678.3 422.4,697.4 398.2,685.4 417.2,678.3 417.2,678.3 417.2,678.3 "/>
		<polygon fill="#D0D5DB" points="377.5,678.1 381.1,695.3 398.2,685.4 377.5,678.1 377.5,678.1 377.5,678.1 "/>
		<polygon fill="#D0D5DB" points="404.7,671.6 377.5,678.1 398.2,685.4 404.7,671.6 404.7,671.6 404.7,671.6 "/>
		<polygon fill="#D0D5DB" points="381.1,695.3 381.8,713.2 422.4,697.4 381.1,695.3 381.1,695.3 381.1,695.3 "/>
		<polygon fill="#D0D5DB" points="398.2,685.4 381.1,695.3 422.4,697.4 398.2,685.4 398.2,685.4 398.2,685.4 "/>
		<polygon fill="#DCDDDF" points="381.8,713.2 419.4,716.3 422.4,697.4 381.8,713.2 381.8,713.2 381.8,713.2 "/>
		<polygon fill="#C7E8E8" points="381.8,713.2 389.2,740.6 419.4,716.3 381.8,713.2 381.8,713.2 381.8,713.2 "/>
		<polygon fill="#4DC3C4" points="419.4,716.3 422.8,751.1 389.2,740.6 419.4,716.3 419.4,716.3 419.4,716.3 "/>
		<polygon fill="#C7E8E8" points="389.2,740.6 388.9,764.1 422.8,751.1 389.2,740.6 389.2,740.6 389.2,740.6 "/>
		<polygon fill="#4DC3C4" points="422.8,751.1 424.8,770.1 388.9,764.1 422.8,751.1 422.8,751.1 422.8,751.1 "/>
		<polygon fill="#18786D" points="424.8,770.1 392.4,782.4 388.9,764.1 424.8,770.1 424.8,770.1 424.8,770.1 "/>
		<polygon fill="#CFCFCE" points="383.8,617.2 385.9,595.1 403.5,608.8 383.8,617.2 "/>
		<polygon fill="#5FC8D6" points="236.4,110.3 283.1,61 345.5,85.8 236.4,110.3 236.4,110.3 236.4,110.3 "/>
		<polygon fill="#3EBFBB" points="345.5,85.8 354.7,110.6 290.9,130.2 345.5,85.8 345.5,85.8 345.5,85.8 "/>
		<polygon fill="#7BCDCB" points="236.4,110.3 257.6,130.1 290.9,130.2 236.4,110.3 236.4,110.3 236.4,110.3 "/>
		<polygon fill="#3EBFBB" points="236.4,110.3 345.5,85.8 290.9,130.2 236.4,110.3 236.4,110.3 236.4,110.3 "/>
		<polygon fill="#93386D" points="236.4,110.3 236.7,166 257.6,130.1 236.4,110.3 236.4,110.3 236.4,110.3 "/>
		<polygon fill="#922969" points="236.7,166 257.6,208.1 277.4,166.3 236.7,166 236.7,166 236.7,166 "/>
		<polygon fill="#B74F9E" points="277.4,166.3 257.6,130.1 236.7,166 277.4,166.3 277.4,166.3 277.4,166.3 "/>
		<polygon fill="#BF5DA4" points="277.4,166.3 257.6,130.1 290.9,130.2 277.4,166.3 277.4,166.3 277.4,166.3 "/>
		<polygon fill="#C54A98" points="257.6,208.1 290.9,198.5 277.4,166.3 257.6,208.1 257.6,208.1 257.6,208.1 "/>
		<polygon fill="#CB6CAA" points="290.9,198.5 322.8,156 277.4,166.3 290.9,198.5 290.9,198.5 290.9,198.5 "/>
		<polygon fill="#DA7EB4" points="322.8,156 290.9,130.2 277.4,166.3 322.8,156 322.8,156 322.8,156 "/>
		<polygon fill="#EBC5DE" points="290.9,130.2 322.8,156 354.7,110.6 290.9,130.2 290.9,130.2 290.9,130.2 "/>
		<polygon fill="#7BCFDB" points="354.7,110.6 345.5,165.2 322.8,156 354.7,110.6 354.7,110.6 354.7,110.6 "/>
		<polygon fill="#E1F1EB" points="322.8,156 290.9,198.5 345.5,165.2 322.8,156 322.8,156 322.8,156 "/>
		<polygon fill="#D66BA9" points="236.7,166 246.7,227.4 257.6,208.1 236.7,166 236.7,166 236.7,166 "/>
		<polygon fill="#E5DED6" points="246.7,227.4 278.2,227.9 257.6,208.1 246.7,227.4 246.7,227.4 246.7,227.4 "/>
		<polygon fill="#CEE9DC" points="278.2,227.9 290.9,198.5 257.6,208.1 278.2,227.9 278.2,227.9 278.2,227.9 "/>
		<polygon fill="#A8A5A8" points="278.2,227.9 345.5,165.2 290.9,198.5 278.2,227.9 278.2,227.9 278.2,227.9 "/>
	</g>
</svg>
