<?xml version="1.0" encoding="utf-8"?>
<svg version="1.1" id="character-4" xmlns="http://www.w3.org/2000/svg" xmlns:xlink="http://www.w3.org/1999/xlink" x="0px" y="0px"
	 width="595.3px" height="841.9px" viewBox="0 0 595.3 841.9" enable-background="new 0 0 595.3 841.9" xml:space="preserve">
<path fill="#787362" d="M480.7,723.7L477,689l-14-40.3l-28.7-43.3L411,599l12-42l-1-32l22.7-79.7l-19.4-15.4l16.8-14.6l13.3-55.3
	l19.3-51.3l-4-62.7L456,182.7l-19.9-15.2l2.4-17.9L419,116l-41-27l-52.6,28l52.1-28l-52.2-15.9l0.2-0.1l-0.4,0l-0.1,0l0,0l-73,2.5
	L206.5,83l-59,19.5L131,140l1.5,54.5l-3.5,52l16.5,45l15,37.5l10.5,35.5l-5,40.5l6.7,21.8l-23.3,40.7l-16,48.2l5.1,61.1L120.6,610
	l21.1,64.6l11.5,28.9l-24.2,3.2l-15.5,9.1l2.1,26.6l37.7,20.1l40.7,3.9l-1.3-1l47-14l11.1-33.1l4-42.5l-8.1-51.3l-18.6-15.4
	l28.4-33.2l12.4-29.5l14.4-16.9l2.6,24.1l30,53.5l-2.5,37.5l46,50L382,716l-20.7,13L351,743.7l13,23.3l42.7,2.7l38.7-13.3l-1.6-0.4
	L480.7,723.7z M378.3,377.6l3.2-40.6l11.1-21.4l1.4,2.4l-13.3,40L378.3,377.6z"/>
<polygon fill="#5B543F" points="285.4,410.4 205.8,445 282.5,481.6 285.4,410.4 285.4,410.4 "/>
<polygon fill="#4B4634" points="205.8,445 149.4,467.6 192.8,505 205.8,445 205.8,445 "/>
<polygon fill="#4F4A3B" points="149.4,467.6 133.4,515.8 192.8,505 149.4,467.6 149.4,467.6 "/>
<polygon fill="#4B4535" points="133.4,515.8 138.5,576.9 191,536.6 133.4,515.8 133.4,515.8 "/>
<polygon fill="#5E5948" points="138.5,576.9 120.6,610 168,621.8 138.5,576.9 138.5,576.9 "/>
<polygon fill="#252017" points="120.6,610 141.7,674.6 168,621.8 120.6,610 120.6,610 "/>
<polygon fill="#78715E" points="138.5,576.9 191,536.6 168,621.8 138.5,576.9 138.5,576.9 "/>
<polygon fill="#39342F" points="141.7,674.6 153.3,703.5 191.3,681.3 141.7,674.6 141.7,674.6 "/>
<polygon fill="#535045" points="153.3,703.5 129.1,706.7 151.4,733.4 153.3,703.5 153.3,703.5 "/>
<polygon fill="#706D64" points="129.1,706.7 113.6,715.8 115.7,742.4 129.1,706.7 129.1,706.7 "/>
<polygon fill="#0A0808" points="115.7,742.4 153.4,762.6 151.4,733.4 115.7,742.4 115.7,742.4 "/>
<polygon fill="#555247" points="129.1,706.7 151.4,733.4 115.7,742.4 129.1,706.7 129.1,706.7 "/>
<polygon fill="#090808" points="153.4,762.6 194.1,766.5 151.4,733.4 153.4,762.6 153.4,762.6 "/>
<polygon fill="#4B4535" points="192.8,505 191,536.6 133.4,515.8 192.8,505 192.8,505 "/>
<polygon fill="#282319" points="168,621.8 141.7,674.6 191.3,681.3 168,621.8 168,621.8 "/>
<polygon fill="#5E594C" points="153.3,703.5 177.9,721 151.4,733.4 153.3,703.5 153.3,703.5 "/>
<polygon fill="#2E2C27" points="151.4,733.4 192.8,765.5 177.9,721 151.4,733.4 151.4,733.4 "/>
<polygon fill="#282521" points="192.8,765.5 239.9,751.4 177.9,721 192.8,765.5 192.8,765.5 "/>
<polygon fill="#5C5848" points="191.3,681.3 153.3,703.5 177.9,721 191.3,681.3 191.3,681.3 "/>
<polygon fill="#27231B" points="191.3,681.3 254.9,675.9 220.4,712.9 191.3,681.3 191.3,681.3 "/>
<polygon fill="#3D3B2F" points="220.4,712.9 177.9,721 191.3,681.3 220.4,712.9 220.4,712.9 "/>
<polygon fill="#282621" points="177.9,721 239.9,751.4 220.4,712.9 177.9,721 177.9,721 "/>
<polygon fill="#0B0B09" points="220.4,712.9 250.9,718.4 239.9,751.4 220.4,712.9 220.4,712.9 "/>
<polygon fill="#1E1D16" points="254.9,675.9 250.9,718.4 220.4,712.9 254.9,675.9 254.9,675.9 "/>
<polygon fill="#29251C" points="191.3,681.3 168,621.8 212.4,645.5 191.3,681.3 191.3,681.3 "/>
<polygon fill="#1A1812" points="191.3,681.3 254.9,675.9 212.4,645.5 191.3,681.3 191.3,681.3 "/>
<polygon fill="#2A271F" points="212.4,645.5 246.8,624.5 254.9,675.9 212.4,645.5 212.4,645.5 "/>
<polygon fill="#423D36" points="168,621.8 228.2,609.1 212.4,645.5 168,621.8 168,621.8 "/>
<polygon fill="#292720" points="228.2,609.1 246.8,624.5 212.4,645.5 228.2,609.1 228.2,609.1 "/>
<polygon fill="#302E28" points="228.2,609.1 256.6,575.9 191,536.6 228.2,609.1 228.2,609.1 "/>
<polygon fill="#605D53" points="228.2,609.1 168,621.8 191,536.6 228.2,609.1 228.2,609.1 "/>
<polygon fill="#2F2E28" points="191,536.6 269,546.3 256.6,575.9 191,536.6 191,536.6 "/>
<polygon fill="#242119" points="191,536.6 192.8,505 269,546.3 191,536.6 191,536.6 "/>
<polygon fill="#535250" points="192.8,505 205.8,445 282.5,481.6 192.8,505 192.8,505 "/>
<polygon fill="#54514B" points="192.8,505 269,546.3 282.5,481.6 192.8,505 192.8,505 "/>
<polygon fill="#191915" points="282.5,481.6 322.7,483.3 269,546.3 282.5,481.6 282.5,481.6 "/>
<polygon fill="#1B1915" points="285.4,410.4 322.7,483.3 282.5,481.6 285.4,410.4 285.4,410.4 "/>
<polygon fill="#535046" points="149.4,467.6 182,410.5 205.8,445 149.4,467.6 "/>
<polygon fill="#CFC8AE" points="131,140 147.5,102.5 166,114.5 131,140 131,140 131,140 "/>
<polygon fill="#E3DFCE" points="147.5,102.5 206.5,83 166,114.5 147.5,102.5 147.5,102.5 147.5,102.5 "/>
<polygon fill="#E3DFCE" points="206.5,83 218.5,106 252,75.5 206.5,83 206.5,83 206.5,83 "/>
<polygon fill="#E3DFCE" points="252,75.5 325.5,73 267,103.5 252,75.5 252,75.5 252,75.5 "/>
<polygon fill="#E3DFCE" points="325,73 377.5,89 325.4,117 325,73 325,73 325,73 "/>
<polygon fill="#EBE8DA" points="378,89 419,116 362.5,134 378,89 378,89 378,89 "/>
<polygon fill="#D3CEBA" points="419,116 438.5,149.5 392,167.5 419,116 419,116 419,116 "/>
<polygon fill="#CFC8AE" points="131,140 132.5,194.5 155.5,157 131,140 131,140 131,140 "/>
<polygon fill="#C8C1AB" points="132.5,194.5 129,246.5 152.5,207.5 132.5,194.5 132.5,194.5 132.5,194.5 "/>
<polygon fill="#696451" points="129,246.5 145.5,291.5 162,249.5 129,246.5 129,246.5 129,246.5 "/>
<polygon fill="#424030" points="145.5,291.5 160.5,329 197,306.5 145.5,291.5 145.5,291.5 145.5,291.5 "/>
<polygon fill="#777467" points="160.5,329 171,364.5 214,350 160.5,329 160.5,329 160.5,329 "/>
<polygon fill="#C4C1B3" points="171,364.5 166,405 218.5,379.5 171,364.5 171,364.5 171,364.5 "/>
<polygon fill="#908973" points="166,405 178.5,446 215.5,414 166,405 166,405 166,405 "/>
<polygon fill="#4A4843" points="178.5,446 211,477.5 213,448 178.5,446 178.5,446 178.5,446 "/>
<polygon fill="#555249" points="211,477.5 258.5,498.5 240,452 211,477.5 211,477.5 211,477.5 "/>
<polygon fill="#010101" points="258.5,498.5 297,500 274,465 258.5,498.5 258.5,498.5 258.5,498.5 "/>
<polygon fill="#131210" points="297,500 335,467.5 303,451.5 297,500 297,500 297,500 "/>
<polygon fill="#27251D" points="335,467.5 372.5,460 347.5,419.5 335,467.5 335,467.5 335,467.5 "/>
<polygon fill="#3B382C" points="372.5,460 405,469.5 399.5,426.5 372.5,460 372.5,460 372.5,460 "/>
<polygon fill="#302D1F" points="399.5,426.5 377.5,388 347.5,419.5 399.5,426.5 399.5,426.5 399.5,426.5 "/>
<polygon fill="#3A362C" points="399.5,426.5 347.5,419.5 372.5,460 399.5,426.5 399.5,426.5 399.5,426.5 "/>
<polygon fill="#221F17" points="377.5,388 381.5,337 353,373 377.5,388 377.5,388 377.5,388 "/>
<polygon fill="#7C7764" points="438.5,149.5 429.5,216 392,167.5 438.5,149.5 438.5,149.5 438.5,149.5 "/>
<polygon fill="#524C38" points="429.5,216 403.5,294.5 379,238.5 429.5,216 429.5,216 429.5,216 "/>
<polygon fill="#302B1E" points="278,263.5 352,258 309,324.5 278,263.5 278,263.5 278,263.5 "/>
<polygon fill="#565243" points="236,268 214,350 284.5,344 236,268 236,268 236,268 "/>
<polygon fill="#9B988C" points="218.5,379.5 214,350 171,364.5 218.5,379.5 218.5,379.5 218.5,379.5 "/>
<polygon fill="#A6A192" points="218.5,379.5 166,405 215.5,414 218.5,379.5 218.5,379.5 218.5,379.5 "/>
<polygon fill="#625C4B" points="215.5,414 213,448 178.5,446 215.5,414 215.5,414 215.5,414 "/>
<polygon fill="#555249" points="213,448 211,477.5 240,452 213,448 213,448 213,448 "/>
<polygon fill="#221F1A" points="240,452 274,465 258.5,498.5 240,452 240,452 240,452 "/>
<polygon fill="#040404" points="274,465 303,451.5 297,500 274,465 274,465 274,465 "/>
<polygon fill="#373429" points="303,451.5 347.5,419.5 335,467.5 303,451.5 303,451.5 303,451.5 "/>
<polygon fill="#5F5B4C" points="160.5,329 197,306.5 214,350 160.5,329 160.5,329 160.5,329 "/>
<polygon fill="#29241A" points="162,249.5 197,306.5 145.5,291.5 162,249.5 162,249.5 162,249.5 "/>
<polygon fill="#6D6755" points="218.5,379.5 214,350 284.5,344 218.5,379.5 218.5,379.5 218.5,379.5 "/>
<polygon fill="#8B8677" points="218.5,379.5 215.5,414 287,403 218.5,379.5 218.5,379.5 218.5,379.5 "/>
<polygon fill="#5B574C" points="215.5,414 213,448 240,452 215.5,414 215.5,414 215.5,414 "/>
<polygon fill="#6E6A5F" points="215.5,414 287,403 240,452 215.5,414 215.5,414 215.5,414 "/>
<polygon fill="#484539" points="240,452 274,465 287,403 240,452 240,452 240,452 "/>
<polygon fill="#251F17" points="274,465 303,451.5 287,403 274,465 274,465 274,465 "/>
<polygon fill="#3B382B" points="303,451.5 347.5,419.5 287,403 303,451.5 303,451.5 303,451.5 "/>
<polygon fill="#89836F" points="218.5,379.5 284.5,344 287,403 218.5,379.5 218.5,379.5 218.5,379.5 "/>
<polygon fill="#413D32" points="287,403 353,373 347.5,419.5 287,403 287,403 287,403 "/>
<polygon fill="#1F1A11" points="353,373 347.5,419.5 377.5,388 353,373 353,373 353,373 "/>
<polygon fill="#4B483B" points="284.5,344 287,403 353,373 284.5,344 284.5,344 284.5,344 "/>
<polygon fill="#1F1B12" points="284.5,344 309,324.5 353,373 284.5,344 284.5,344 284.5,344 "/>
<polygon fill="#0E0C0A" points="309,324.5 381.5,337 353,373 309,324.5 309,324.5 309,324.5 "/>
<polygon fill="#1A1610" points="309,324.5 352,258 381.5,337 309,324.5 309,324.5 309,324.5 "/>
<polygon fill="#29241A" points="352,258 379,238.5 381.5,337 352,258 352,258 352,258 "/>
<polygon fill="#13100D" points="381.5,337 403.5,294.5 379,238.5 381.5,337 381.5,337 381.5,337 "/>
<polygon fill="#403D2C" points="284.5,344 278,263.5 309,324.5 284.5,344 284.5,344 284.5,344 "/>
<polygon fill="#787465" points="284.5,344 236,268 278,263.5 284.5,344 284.5,344 284.5,344 "/>
<polygon fill="#5B5647" points="197,306.5 236,268 214,350 197,306.5 197,306.5 197,306.5 "/>
<polygon fill="#1A1610" points="197,306.5 162,249.5 236,268 197,306.5 197,306.5 197,306.5 "/>
<polygon fill="#8B8571" points="129,246.5 152.5,207.5 162,249.5 129,246.5 129,246.5 129,246.5 "/>
<polygon fill="#CFC8AE" points="132.5,194.5 155.5,157 152.5,207.5 132.5,194.5 132.5,194.5 132.5,194.5 "/>
<polygon fill="#CFC8AE" points="131,140 166,114.5 155.5,157 131,140 131,140 131,140 "/>
<polygon fill="#CDC7B1" points="166,114.5 218.5,106 206.5,83 166,114.5 166,114.5 166,114.5 "/>
<polygon fill="#C5B6A0" points="166,114.5 155.5,157 236.5,169 166,114.5 166,114.5 166,114.5 "/>
<polygon fill="#C5B6A0" points="166,114.5 218.5,106 236.5,169 166,114.5 166,114.5 166,114.5 "/>
<polygon fill="#C5B6A0" points="155.5,157 236.5,169 152.5,207.5 155.5,157 155.5,157 155.5,157 "/>
<polygon fill="#C5B6A0" points="162,249.5 152.5,207.5 236.5,169 162,249.5 162,249.5 162,249.5 "/>
<polygon fill="#070605" points="162,249.5 236,268 236.5,169 162,249.5 162,249.5 162,249.5 "/>
<polygon fill="#070605" points="236,268 278,263.5 236.5,169 236,268 236,268 236,268 "/>
<polygon fill="#7A7566" points="278,263.5 352,258 304,197.5 278,263.5 278,263.5 278,263.5 "/>
<polygon fill="#423D2F" points="352,258 278,263.5 304,197.5 352,258 352,258 352,258 "/>
<polygon fill="#7D7666" points="304,197.5 392,167.5 379,238.5 304,197.5 304,197.5 304,197.5 "/>
<polygon fill="#615C4F" points="304,197.5 352,258 379,238.5 304,197.5 304,197.5 304,197.5 "/>
<polygon fill="#4C493E" points="392,167.5 379,238.5 429.5,216 392,167.5 392,167.5 392,167.5 "/>
<polygon fill="#D3CEBA" points="392,167.5 362.5,134 419,116 392,167.5 392,167.5 392,167.5 "/>
<polygon fill="#867E68" points="392,167.5 304,197.5 362.5,134 392,167.5 392,167.5 392,167.5 "/>
<polygon fill="#3C382B" points="304,197.5 236.5,169 278,263.5 304,197.5 304,197.5 304,197.5 "/>
<polygon fill="#837B61" points="304,197.5 267,103.5 325.4,117 304,197.5 304,197.5 304,197.5 "/>
<polygon fill="#978F78" points="304,197.5 325.4,117 362.5,134 304,197.5 304,197.5 304,197.5 "/>
<polygon fill="#D3CEBA" points="325.4,117 378,89 362.5,134 325.4,117 325.4,117 325.4,117 "/>
<polygon fill="#948B74" points="267,103.5 236.5,169 218.5,106 267,103.5 267,103.5 267,103.5 "/>
<polygon fill="#EBE7D4" points="267,103.5 252,75.5 218.5,106 267,103.5 267,103.5 267,103.5 "/>
<polygon fill="#242420" points="267,103.5 236.5,169 304,197.5 267,103.5 267,103.5 267,103.5 "/>
<polygon fill="#EBE8DA" points="267,103.5 325,73 325.4,117 267,103.5 "/>
<polygon fill="#5E594C" points="380.5,394.5 322.5,459 407.5,460.5 380.5,394.5 380.5,394.5 "/>
<polygon fill="#605D4B" points="322.5,459 280.5,503 335.5,519 322.5,459 322.5,459 "/>
<polygon fill="#040404" points="280.5,503 286,553.5 335.5,519 280.5,503 280.5,503 "/>
<polygon fill="#040404" points="286,553.5 316,607 347,548.5 286,553.5 286,553.5 "/>
<polygon fill="#2C2820" points="316,607 313.5,644.5 361.5,635.5 316,607 316,607 "/>
<polygon fill="#151310" points="313.5,644.5 359.5,694.5 361.5,635.5 313.5,644.5 313.5,644.5 "/>
<polygon fill="#383226" points="316,607 347,548.5 361.5,635.5 316,607 316,607 "/>
<polygon fill="#010101" points="359.5,694.5 382,716 407.3,680 359.5,694.5 359.5,694.5 "/>
<polygon fill="#665F4E" points="382,716 361.3,729 392.7,744 382,716 382,716 "/>
<polygon fill="#777364" points="361.3,729 351,743.7 364,767 361.3,729 361.3,729 "/>
<polygon fill="#28261F" points="364,767 406.7,769.7 392.7,744 364,767 364,767 "/>
<polygon fill="#767164" points="361.3,729 392.7,744 364,767 361.3,729 361.3,729 "/>
<polygon fill="#2E2C25" points="406.7,769.7 445.3,756.3 392.7,744 406.7,769.7 406.7,769.7 "/>
<polygon fill="#040404" points="335.5,519 347,548.5 286,553.5 335.5,519 335.5,519 "/>
<polygon fill="#2A271D" points="361.5,635.5 359.5,694.5 407.3,680 361.5,635.5 361.5,635.5 "/>
<polygon fill="#5C5849" points="382,716 411.7,721.7 392.7,744 382,716 382,716 "/>
<polygon fill="#726E61" points="392.7,744 443.7,756 411.7,721.7 392.7,744 392.7,744 "/>
<polygon fill="#29251C" points="443.7,756 480.7,723.7 411.7,721.7 443.7,756 443.7,756 "/>
<polygon fill="#010101" points="407.3,680 382,716 411.7,721.7 407.3,680 407.3,680 "/>
<polygon fill="#232017" points="407.3,680 463,648.7 447,696.7 407.3,680 407.3,680 "/>
<polygon fill="#0F0E0C" points="447,696.7 411.7,721.7 407.3,680 447,696.7 447,696.7 "/>
<polygon fill="#3A382F" points="411.7,721.7 480.7,723.7 447,696.7 411.7,721.7 411.7,721.7 "/>
<polygon fill="#1C1A17" points="447,696.7 477,689 480.7,723.7 447,696.7 447,696.7 "/>
<polygon fill="#363532" points="463,648.7 477,689 447,696.7 463,648.7 463,648.7 "/>
<polygon fill="#2A271D" points="407.3,680 361.5,635.5 411.7,638.7 407.3,680 407.3,680 "/>
<polygon fill="#4B463B" points="407.3,680 463,648.7 411.7,638.7 407.3,680 407.3,680 "/>
<polygon fill="#4A4738" points="411.7,638.7 434.3,605.3 463,648.7 411.7,638.7 411.7,638.7 "/>
<polygon fill="#4E4B3F" points="361.5,635.5 411,599 411.7,638.7 361.5,635.5 361.5,635.5 "/>
<polygon fill="#4A4738" points="411,599 434.3,605.3 411.7,638.7 411,599 411,599 "/>
<polygon fill="#2D291F" points="411,599 423,557 347,548.5 411,599 411,599 "/>
<polygon fill="#2E2B21" points="411,599 361.5,635.5 347,548.5 411,599 411,599 "/>
<polygon fill="#343127" points="347,548.5 422,525 423,557 347,548.5 347,548.5 "/>
<polygon fill="#4D4A40" points="347,548.5 335.5,519 422,525 347,548.5 347,548.5 "/>
<polygon fill="#5E594C" points="335.5,519 322.5,459 407.5,460.5 335.5,519 335.5,519 "/>
<polygon fill="#625F50" points="335.5,519 422,525 407.5,460.5 335.5,519 335.5,519 "/>
<polygon fill="#423F30" points="407.5,460.5 444.7,445.3 422,525 407.5,460.5 407.5,460.5 "/>
<polygon fill="#423F30" points="380.5,394.5 444.7,445.3 407.5,460.5 380.5,394.5 380.5,394.5 "/>
<polygon fill="#908D82" points="422,156.7 370,150 353.3,206.7 422,156.7 422,156.7 "/>
<polygon fill="#787362" points="353.3,206.7 371.3,280.7 403.3,236 353.3,206.7 353.3,206.7 "/>
<polygon fill="#4E4A3E" points="371.3,280.7 394,318 422.7,294.7 371.3,280.7 371.3,280.7 "/>
<polygon fill="#2D2619" points="422,156.7 456,182.7 435.3,222.7 422,156.7 422,156.7 "/>
<polygon fill="#221F15" points="456,182.7 470.7,246 435.3,222.7 456,182.7 456,182.7 "/>
<polygon fill="#373225" points="470.7,246 474.7,308.7 450,281.3 470.7,246 470.7,246 "/>
<polygon fill="#635F53" points="474.7,308.7 455.3,360 424.7,310 474.7,308.7 474.7,308.7 "/>
<polygon fill="#AEA892" points="424.7,310 394,318 380.7,358 424.7,310 424.7,310 "/>
<polygon fill="#7B7766" points="380.7,358 455.3,360 424.7,310 380.7,358 380.7,358 "/>
<polygon fill="#BFB9A2" points="380.7,358 374.7,408 455.3,360 380.7,358 380.7,358 "/>
<polygon fill="#7C7663" points="455.3,360 442,415.3 374.7,408 455.3,360 455.3,360 "/>
<polygon fill="#5D594A" points="442,415.3 411.3,442 374.7,408 442,415.3 442,415.3 "/>
<polygon fill="#191711" points="411.3,442 406.7,489.3 376,503.3 411.3,442 411.3,442 "/>
<polygon fill="#4B463C" points="411.3,442 360.7,486 376,503.3 411.3,442 411.3,442 "/>
<polygon fill="#535046" points="360.7,486 366,452 411.3,442 360.7,486 360.7,486 "/>
<polygon fill="#7C7766" points="366,452 374.7,408 411.3,442 366,452 366,452 "/>
<polygon fill="#A29B88" points="374.7,408 324.7,425.3 366,452 374.7,408 374.7,408 "/>
<polygon fill="#BFB9A2" points="324.7,425.3 293.3,454 366,452 324.7,425.3 324.7,425.3 "/>
<polygon fill="#A59A82" points="293.3,454 288.7,474.7 366,452 293.3,454 293.3,454 "/>
<polygon fill="#77715B" points="366,452 330.7,470.7 360.7,486 366,452 366,452 "/>
<polygon fill="#787569" points="330.7,470.7 308.7,484.7 335.3,498 330.7,470.7 330.7,470.7 "/>
<polygon fill="#B6B1A2" points="308.7,484.7 286,494.7 304.7,509.3 308.7,484.7 308.7,484.7 "/>
<polygon fill="#4E4937" points="286,494.7 284,512.7 304.7,509.3 286,494.7 286,494.7 "/>
<polygon fill="#938E82" points="304.7,509.3 308.7,484.7 335.3,498 304.7,509.3 304.7,509.3 "/>
<polygon fill="#656050" points="335.3,498 330.7,470.7 360.7,486 335.3,498 335.3,498 "/>
<polygon fill="#565242" points="376,503.3 349.7,521.1 335.3,498 376,503.3 376,503.3 "/>
<polygon fill="#646054" points="335.3,498 360.7,486 376,503.3 335.3,498 335.3,498 "/>
<polygon fill="#5B5747" points="349.7,521.1 314.5,526 335.3,498 349.7,521.1 349.7,521.1 "/>
<polygon fill="#756D57" points="304.7,509.3 335.3,498 314.5,526 304.7,509.3 304.7,509.3 "/>
<polygon fill="#373326" points="304.7,509.3 288,524 314.5,526 304.7,509.3 304.7,509.3 "/>
<polygon fill="#4B463C" points="314.5,526 349.5,538 349.7,521.1 314.5,526 314.5,526 "/>
<polygon fill="#222018" points="349.7,521.1 376,503.3 365.3,534 349.7,521.1 349.7,521.1 "/>
<polygon fill="#363227" points="349.7,521.1 349.5,538 365.3,534 349.7,521.1 349.7,521.1 "/>
<polygon fill="#2E2922" points="365.3,534 388.7,517.3 376,503.3 365.3,534 365.3,534 "/>
<polygon fill="#191713" points="376,503.3 406.7,489.3 388.7,517.3 376,503.3 376,503.3 "/>
<polygon fill="#464136" points="403.3,236 435.3,222.7 353.3,206.7 403.3,236 403.3,236 "/>
<polygon fill="#88816F" points="353.3,206.7 422,156.7 435.3,222.7 353.3,206.7 353.3,206.7 "/>
<polygon fill="#464231" points="435.3,222.7 403.3,236 450,281.3 435.3,222.7 435.3,222.7 "/>
<polygon fill="#1F1A10" points="435.3,222.7 470.7,246 450,281.3 435.3,222.7 435.3,222.7 "/>
<polygon fill="#595443" points="403.3,236 371.3,280.7 422.7,294.7 403.3,236 403.3,236 "/>
<polygon fill="#302819" points="422.7,294.7 394,318 424.7,310 422.7,294.7 422.7,294.7 "/>
<polygon fill="#302819" points="422.7,294.7 424.7,310 474.7,308.7 422.7,294.7 422.7,294.7 "/>
<polygon fill="#5A5646" points="403.3,236 422.7,294.7 450,281.3 403.3,236 403.3,236 "/>
<polygon fill="#504B3B" points="474.7,308.7 450,281.3 422.7,294.7 474.7,308.7 474.7,308.7 "/>
<polygon fill="#EDE8D8" points="157,123 215.5,137.5 194,109.5 157,123 157,123 "/>
<polygon fill="#B6AD94" points="194,109.5 226,100 215.5,137.5 194,109.5 194,109.5 "/>
<polygon fill="#777363" points="141,234 156,216.5 177,232 141,234 141,234 "/>
<polygon fill="#EDE8D8" points="157,123 143.7,155.7 170,153 157,123 157,123 "/>
<polygon fill="#A9A28C" points="143.7,155.7 138.3,184 164,169.7 143.7,155.7 143.7,155.7 "/>
<polygon fill="#9B937C" points="138.3,184 143,207.7 158,188.3 138.3,184 138.3,184 "/>
<polygon fill="#999075" points="226,100 266.3,104 215.5,137.5 226,100 226,100 "/>
<polygon fill="#4B4636" points="215.5,137.5 266.3,104 258.3,154.3 215.5,137.5 215.5,137.5 "/>
<polygon fill="#070605" points="215.5,137.5 254,179.7 258.3,154.3 215.5,137.5 215.5,137.5 "/>
<polygon fill="#EDE8D8" points="215.5,137.5 170,153 157,123 215.5,137.5 215.5,137.5 "/>
<polygon fill="#252016" points="215.5,137.5 254,179.7 233.3,197.7 215.5,137.5 215.5,137.5 "/>
<polygon fill="#C6BDA5" points="170,153 164,169.7 143.7,155.7 170,153 170,153 "/>
<polygon fill="#FAB426" points="169.7,209.7 171.3,222.7 187.3,212.7 169.7,209.7 169.7,209.7 "/>
<polygon fill="#F78E1E" points="169.7,209.7 182.7,204 187.3,212.7 169.7,209.7 169.7,209.7 "/>
<polygon fill="#FADD58" points="171.3,222.7 187.3,212.7 186.7,221.7 171.3,222.7 171.3,222.7 "/>
<polygon fill="#EBE7E5" points="215.5,137.5 170,153 200.7,173 215.5,137.5 215.5,137.5 "/>
<polygon fill="#AEAA9D" points="164,169.7 170,153 200.7,173 164,169.7 164,169.7 "/>
<polygon fill="#6E6952" points="158,188.3 138.3,184 164,169.7 158,188.3 158,188.3 "/>
<polygon fill="#938C79" points="156,216.5 158,188.3 143,207.7 156,216.5 156,216.5 "/>
<polygon fill="#9E9888" points="143,207.7 141,234 156,216.5 143,207.7 143,207.7 "/>
<polygon fill="#8A8672" points="158,188.3 200.7,173 164,169.7 158,188.3 158,188.3 "/>
<polygon fill="#7D7865" points="158,188.3 169.7,209.7 200.7,173 158,188.3 158,188.3 "/>
<polygon fill="#636050" points="169.7,209.7 182.7,204 200.7,173 169.7,209.7 169.7,209.7 "/>
<polygon fill="#5A574D" points="182.7,204 187.3,212.7 205.7,202.3 182.7,204 182.7,204 "/>
<polygon fill="#615D4E" points="187.3,212.7 208.7,216 186.7,221.7 187.3,212.7 187.3,212.7 "/>
<polygon fill="#8B8677" points="169.7,209.7 156,216.5 158,188.3 169.7,209.7 169.7,209.7 "/>
<polygon fill="#5F5A4D" points="169.7,209.7 156,216.5 171.3,222.7 169.7,209.7 169.7,209.7 "/>
<polygon fill="#8A8679" points="156,216.5 177,232 171.3,222.7 156,216.5 156,216.5 "/>
<polygon fill="#968B7C" points="171.3,222.7 177,232 186.7,221.7 171.3,222.7 171.3,222.7 "/>
<polygon fill="#6E6A5A" points="177,232 199.7,228.3 186.7,221.7 177,232 177,232 "/>
<polygon fill="#4E4A41" points="186.7,221.7 199.7,228.3 208.7,216 186.7,221.7 186.7,221.7 "/>
<polygon fill="#413C30" points="187.3,212.7 205.7,202.3 208.7,216 187.3,212.7 187.3,212.7 "/>
<polygon fill="#5B574B" points="182.7,204 200.7,173 205.7,202.3 182.7,204 182.7,204 "/>
<polygon fill="#757166" points="200.7,173 215.5,137.5 233.3,197.7 200.7,173 200.7,173 "/>
<polygon fill="#666154" points="200.7,173 205.7,202.3 233.3,197.7 200.7,173 200.7,173 "/>
<polygon fill="#2A261D" points="205.7,202.3 208.7,216 233.3,197.7 205.7,202.3 205.7,202.3 "/>
<polygon fill="#231F15" points="233.3,197.7 231.7,217.7 208.7,216 233.3,197.7 233.3,197.7 "/>
<polygon fill="#2A261E" points="199.7,228.3 208.7,216 231.7,217.7 199.7,228.3 199.7,228.3 "/>
<polygon fill="#343027" points="151,284 184,277.7 152,259.9 151,284 151,284 "/>
<polygon fill="#555249" points="151,284 142.3,256 152,259.9 151,284 151,284 "/>
<polygon fill="#848176" points="142.3,256 141.7,244.7 152,259.9 142.3,256 142.3,256 "/>
<polygon fill="#484438" points="152,259.9 188.3,250.7 184,277.7 152,259.9 152,259.9 "/>
<polygon fill="#3A362A" points="184,277.7 212.7,265 188.3,250.7 184,277.7 184,277.7 "/>
<polygon fill="#9F9B95" points="188.3,250.7 141.7,244.7 152,259.9 188.3,250.7 188.3,250.7 "/>
<polygon fill="#312D24" points="188.3,250.7 218.7,233 212.7,265 188.3,250.7 188.3,250.7 "/>
<polygon fill="#444139" points="212.7,265 235,242.3 218.7,233 212.7,265 212.7,265 "/>
<polygon fill="#49463D" points="218.7,233 231.7,217.7 235,242.3 218.7,233 218.7,233 "/>
<polygon fill="#272418" points="141.7,244.7 141,234 177,232 141.7,244.7 141.7,244.7 "/>
<polygon fill="#121210" points="141.7,244.7 188.3,250.7 177,232 141.7,244.7 141.7,244.7 "/>
<polygon fill="#161412" points="177,232 188.3,250.7 199.7,228.3 177,232 177,232 "/>
<polygon fill="#181512" points="188.3,250.7 218.7,233 199.7,228.3 188.3,250.7 188.3,250.7 "/>
<polygon fill="#010101" points="199.7,228.3 218.7,233 231.7,217.7 199.7,228.3 199.7,228.3 "/>
</svg>
