<?xml version="1.0" encoding="utf-8"?>
<svg version="1.1" xmlns="http://www.w3.org/2000/svg" xmlns:xlink="http://www.w3.org/1999/xlink" x="0px" y="0px"
	 width="595.3px" height="841.9px" viewBox="0 0 595.3 841.9" enable-background="new 0 0 595.3 841.9" xml:space="preserve">
	<g id="character">
		<g>
			<polygon fill="#8392A0" points="145.4,649.3 157.7,683 163.7,728.3 171,750 158.3,776 127.3,798 94.7,816 99.3,841.3 135.3,839.7
				174,828 224.7,799.7 220.3,769.3 210.7,734 213,687.7 201.3,648 201.6,633.7 145,630.3 	"/>
			<path fill="#8392A0" d="M416.5,640.8L534,745.3l-102.5-124l-71.6-77.1l0.6-9.9l-6.5-53l-0.5-77l-8.4-16.3l4.3-11.4l4.7-42l-28-7.3
				l27.5,7l0.2-38.2l-1.3-35.8l-0.3-41.1L338.6,176l-7.4-6.1l0.6-2.8l-29.5-19.5L281,128.1l-4.1-2.8l-8.9-19.4l-5.3-4.8l10.8-19.4
				l-0.7-16.9L274,65l19.3-11.3l-19.7-24.3l-38-21.7l-32.3-8.3L190,0.7L169.3,12l-8.7,16.3l0.3,21l11.3,16.3l-9,12l10.8,0.1l-2.6,2.2
				l4,10.8l-2.1,8.2l3,6.6l5.5-0.9l3.6,9.4l-0.2,8.8l-1.8,13.7l-8-3.3l-26.9,16.5L132.3,180l-12,37l-14.8,21.1l-0.2,55l17.2,52
				l-39-42.8l-22,54.5l78,34.2l18.2,13.8l7-15.8l3.9,3.8l-0.9,8.8l-16.7,62l-5.3,41.3l4,48.7l-14,46.7l10,29.9l-0.1,0.1l56.1,3.3
				l13.4-18.3l26-63l-2-26l12.7,36.3l18.7,45.3l12,29l32.7,8.2l2,35.5l13.3,33.6l8,32l1,30.7l-16.7,28.3l-13,18.7l-0.7,15l21.3,5.7
				l21.2-4.9l16.1-19.9L381,800l13.7-13.7l-7.7-17l-6.3-33.7l-1.3-46l-7.3-27L362,628l-5-39.2l0.5-8.3L416.5,640.8z M262.6,63.1
				l-3.9,1.4L262,63L262.6,63.1z M204.1,85.6l1.6-4.4L204.1,85.6L204.1,85.6z M243.4,126.8l-2.8-4.7L243.4,126.8L243.4,126.8z
				 M229,113.4L229,113.4L229,113.4L229,113.4z M227.9,115.8l-0.1,0.1L227,110L227.9,115.8z M235.1,112.8L235.1,112.8l19,5.8
				L235.1,112.8z M202.3,81.3l-1.5-3.6l0,0L202.3,81.3z M152,309.3l3.8-19l10-36.3l0.5-8.8l5.2,14.5l6.5,46.2l-4.6,42.3l-0.4-0.5
				l-12.8-22L152,309.3z"/>
		</g>
		<polygon fill="#3B4042" points="281,126.8 302.2,146.2 279.5,165.2 281,126.8 281,126.8 281,126.8 "/>
		<polygon fill="#6875A0" points="302.2,146.2 331.8,165.8 297.8,195.8 302.2,146.2 302.2,146.2 302.2,146.2 "/>
		<polygon fill="#5C6B82" points="279.5,165.2 297.8,195.8 302.2,146.2 279.5,165.2 279.5,165.2 279.5,165.2 "/>
		<polygon fill="#394776" points="183,139 148.6,148.5 180.1,170.1 183,139 183,139 183,139 "/>
		<polygon fill="#263E76" points="152,204 180.1,170.1 148.6,148.5 152,204 152,204 152,204 "/>
		<polygon fill="#171847" points="152,204 171.5,258.5 192,226.2 152,204 152,204 152,204 "/>
		<polygon fill="#171847" points="171.5,258.5 178,304.8 211,288.5 171.5,258.5 171.5,258.5 171.5,258.5 "/>
		<polygon fill="#171847" points="178,304.8 173,350.3 223.2,353 178,304.8 178,304.8 178,304.8 "/>
		<polygon fill="#A4BCE2" points="297.8,195.8 290.2,258.8 256.6,239.5 297.8,195.8 297.8,195.8 297.8,195.8 "/>
		<polygon fill="#151A45" points="290.2,258.8 280.2,300.2 249,292 290.2,258.8 290.2,258.8 290.2,258.8 "/>
		<polygon fill="#0F123D" points="280.2,300.2 290.5,353.5 254.2,354.2 280.2,300.2 280.2,300.2 280.2,300.2 "/>
		<polygon fill="#171847" points="223.2,353 254.2,354.2 238,309.8 223.2,353 223.2,353 223.2,353 "/>
		<polygon fill="#0D1339" points="178,304.8 211,288.5 223.2,353 178,304.8 178,304.8 178,304.8 "/>
		<polygon fill="#221F3F" points="211,288.5 238,309.8 223.2,353 211,288.5 211,288.5 211,288.5 "/>
		<polygon fill="#1B2D54" points="238,309.8 280.2,300.2 254.2,354.2 238,309.8 238,309.8 238,309.8 "/>
		<polygon fill="#2D365D" points="249,292 238,309.8 280.2,300.2 249,292 249,292 249,292 "/>
		<polygon fill="#222B4F" points="249,292 211,288.5 238,309.8 249,292 249,292 249,292 "/>
		<polygon fill="#404B77" points="249,292 256.6,239.5 290.2,258.8 249,292 249,292 249,292 "/>
		<polygon fill="#404B77" points="211,288.5 256.6,239.5 249,292 211,288.5 211,288.5 211,288.5 "/>
		<polygon fill="#1B2954" points="211,288.5 171.5,258.5 210,251.2 211,288.5 211,288.5 211,288.5 "/>
		<polygon fill="#7CA1CE" points="211,288.5 210,251.2 256.6,239.5 211,288.5 211,288.5 211,288.5 "/>
		<polygon fill="#1A174B" points="210,251.2 192,226.2 171.5,258.5 210,251.2 210,251.2 210,251.2 "/>
		<polygon fill="#4F5EA4" points="210,251.2 215.2,196.8 192,226.2 210,251.2 210,251.2 210,251.2 "/>
		<polygon fill="#6B83BC" points="210,251.2 215.2,196.8 256.6,239.5 210,251.2 210,251.2 210,251.2 "/>
		<polygon fill="#3A3B83" points="256.6,239.5 215.2,196.8 252,190.2 256.6,239.5 256.6,239.5 256.6,239.5 "/>
		<polygon fill="#A4BCE2" points="256.6,239.5 252,190.2 297.8,195.8 256.6,239.5 256.6,239.5 256.6,239.5 "/>
		<polygon fill="#3B4860" points="152,204 192,226.2 215.2,196.8 152,204 152,204 152,204 "/>
		<polygon fill="#33436C" points="152,204 180.1,170.1 215.2,196.8 152,204 152,204 152,204 "/>
		<polygon fill="#1E2B56" points="180.1,170.1 204,162 189.6,147.2 180.1,170.1 180.1,170.1 180.1,170.1 "/>
		<polygon fill="#394776" points="180.1,170.1 183,139 189.6,147.2 180.1,170.1 180.1,170.1 180.1,170.1 "/>
		<polygon fill="#1E2B56" points="204,162 215.2,196.8 180.1,170.1 204,162 204,162 204,162 "/>
		<polygon fill="#274078" points="204,162 222.5,168.2 215.2,196.8 204,162 204,162 204,162 "/>
		<polygon fill="#89A6CF" points="222.5,168.2 255.4,157 252,190.2 222.5,168.2 222.5,168.2 222.5,168.2 "/>
		<polygon fill="#274078" points="222.5,168.2 215.2,196.8 252,190.2 222.5,168.2 222.5,168.2 222.5,168.2 "/>
		<polygon fill="#595D78" points="252,190.2 279.5,165.2 255.4,157 252,190.2 252,190.2 252,190.2 "/>
		<polygon fill="#242F43" points="272.8,143.2 281,126.8 279.5,165.2 272.8,143.2 272.8,143.2 272.8,143.2 "/>
		<polygon fill="#8FB5D2" points="252,190.2 279.5,165.2 297.8,195.8 252,190.2 252,190.2 252,190.2 "/>
		<polygon fill="#1A184C" points="290.5,353.5 311.7,297 280.2,300.2 290.5,353.5 290.5,353.5 "/>
		<polygon fill="#202D5D" points="280.2,300.2 290.2,258.8 311.7,297 280.2,300.2 280.2,300.2 "/>
		<polygon fill="#6989BA" points="331.8,165.8 316.3,239 297.8,195.8 331.8,165.8 331.8,165.8 "/>
		<polygon fill="#6E7DBC" points="297.8,195.8 290.2,258.8 316.3,239 297.8,195.8 297.8,195.8 "/>
		<polygon fill="#202D5D" points="316.3,239 311.7,297 290.2,258.8 316.3,239 316.3,239 "/>
		<polygon fill="#202D5D" points="311.7,297 329,355.7 290.5,353.5 311.7,297 311.7,297 "/>
		<polygon fill="#293579" points="173,350.3 167.7,400.3 223.2,353 173,350.3 173,350.3 "/>
		<polygon fill="#545B52" points="167.7,400.3 151,462.3 206.3,447 167.7,400.3 167.7,400.3 "/>
		<polygon fill="#323F38" points="151,462.3 145.7,503.7 172.3,505 151,462.3 151,462.3 "/>
		<polygon fill="#A4BA92" points="145.7,503.7 149.7,552.3 172.3,505 145.7,503.7 145.7,503.7 "/>
		<polygon fill="#B4AC60" points="149.7,552.3 135.7,599 171,571.7 149.7,552.3 149.7,552.3 "/>
		<polygon fill="#C3B58A" points="135.7,599 145.7,629 177,603.7 135.7,599 135.7,599 "/>
		<polygon fill="#20376A" points="145,629 145.4,648 201.6,632.3 145,629 145,629 "/>
		<polygon fill="#B7C4B3" points="145.5,629 177,603.7 201.6,632.3 145.5,629 145.5,629 "/>
		<polygon fill="#A4BA92" points="172.3,505 151,462.3 206.3,447 172.3,505 172.3,505 "/>
		<polygon fill="#66786B" points="206.3,447 239,525 172.3,505 206.3,447 206.3,447 "/>
		<polygon fill="#66786B" points="172.3,505 149.7,552.3 239,525 172.3,505 172.3,505 "/>
		<polygon fill="#6D7969" points="171,571.7 149.7,552.3 239,525 171,571.7 171,571.7 "/>
		<polygon fill="#534E38" points="239,525 241,551 212,578.5 239,525 239,525 "/>
		<polygon fill="#B9B4A8" points="171,571.7 212,578.5 239,525 171,571.7 171,571.7 "/>
		<polygon fill="#C3B58A" points="177,603.7 171,571.7 135.7,599 177,603.7 177,603.7 "/>
		<path fill="none" stroke="#BF57A1" stroke-miterlimit="10" d="M177,603.7"/>
		<polygon fill="#AAB05A" points="212,578.5 171,571.7 177,603.7 212,578.5 212,578.5 "/>
		<polygon fill="#92944D" points="212,578.5 241,551 215,614 212,578.5 212,578.5 "/>
		<polygon fill="#999C54" points="177,603.7 212,578.5 215,614 177,603.7 177,603.7 "/>
		<polygon fill="#92AA78" points="177,603.7 201.6,632.3 215,614 177,603.7 177,603.7 "/>
		<polygon fill="#1B2D54" points="329,355.7 353.5,403 315.5,420 329,355.7 329,355.7 "/>
		<polygon fill="#2D5E58" points="353.5,403 354,480 315.5,420 353.5,403 353.5,403 "/>
		<polygon fill="#B4AC60" points="354,480 360.5,533 323,506 354,480 354,480 "/>
		<polygon fill="#999C54" points="360.5,533 357,587.5 320,569.5 360.5,533 360.5,533 "/>
		<polygon fill="#999C54" points="357,587.5 362,626.7 328.7,622.4 357,587.5 357,587.5 "/>
		<polygon fill="#7A8EA3" points="239,525 251.7,561.3 286.3,535.3 239,525 239,525 "/>
		<polygon fill="#425250" points="239,525 206.3,447 240.3,473.7 239,525 239,525 "/>
		<polygon fill="#82886F" points="240.3,473.7 239,525 286.3,535.3 240.3,473.7 240.3,473.7 "/>
		<polygon fill="#94A786" points="251.7,561.3 270.3,606.7 320,569.5 251.7,561.3 251.7,561.3 "/>
		<polygon fill="#7A967E" points="286.3,535.3 320,569.5 251.7,561.3 286.3,535.3 286.3,535.3 "/>
		<polygon fill="#7A967E" points="286.3,535.3 360.5,533 320,569.5 286.3,535.3 286.3,535.3 "/>
		<polygon fill="#92944D" points="286.3,535.3 323,506 360.5,533 286.3,535.3 286.3,535.3 "/>
		<polygon fill="#92944D" points="240.3,473.7 288.7,465.3 286.3,535.3 240.3,473.7 240.3,473.7 "/>
		<polygon fill="#66786B" points="288.7,465.3 315.5,420 354,480 288.7,465.3 288.7,465.3 "/>
		<polygon fill="#374797" points="167.7,400.3 218.7,406.7 223.2,353 167.7,400.3 167.7,400.3 "/>
		<polygon fill="#1A110D" points="167.7,400.3 218.7,406.7 206.3,447 167.7,400.3 167.7,400.3 "/>
		<polygon fill="#190F0F" points="206.3,447 218.7,406.7 237,437.3 206.3,447 206.3,447 "/>
		<polygon fill="#17114A" points="218.7,406.7 255,407.7 254.2,354.2 218.7,406.7 218.7,406.7 "/>
		<polygon fill="#17114A" points="223.2,353 254.2,354.2 218.7,406.7 223.2,353 223.2,353 "/>
		<polygon fill="#1B2D54" points="255,407.7 288.7,409.3 290.5,353.5 255,407.7 255,407.7 "/>
		<polygon fill="#1A3D66" points="255,407.7 254.2,354.2 290.5,353.5 255,407.7 255,407.7 "/>
		<polygon fill="#1B2D54" points="288.7,409.3 315.5,420 329,355.7 288.7,409.3 288.7,409.3 "/>
		<polygon fill="#1B2D54" points="288.7,409.3 290.5,353.5 329,355.7 288.7,409.3 288.7,409.3 "/>
		<polygon fill="#1A110D" points="237,437.3 218.7,406.7 255,407.7 237,437.3 237,437.3 "/>
		<polygon fill="#1A110D" points="237,437.3 284,437.5 255,407.7 237,437.3 237,437.3 "/>
		<polygon fill="#0D0C0A" points="255,407.7 288.7,409.3 284,437.5 255,407.7 255,407.7 "/>
		<polygon fill="#010101" points="284,437.5 315.5,420 288.7,409.3 284,437.5 284,437.5 "/>
		<polygon fill="#66786B" points="284,437.5 288.7,465.3 315.5,420 284,437.5 284,437.5 "/>
		<polygon fill="#66786B" points="284,437.5 240.3,473.7 288.7,465.3 284,437.5 284,437.5 "/>
		<polygon fill="#425250" points="237,437.3 240.3,473.7 206.3,447 237,437.3 237,437.3 "/>
		<polygon fill="#425250" points="237,437.3 240.3,473.7 284,437.5 237,437.3 237,437.3 "/>
		<polygon fill="#94A786" points="270.3,606.7 282.3,635.7 305.7,611.3 270.3,606.7 270.3,606.7 "/>
		<polygon fill="#94A786" points="305.7,611.3 315,643.9 282.3,635.7 305.7,611.3 305.7,611.3 "/>
		<polygon fill="#92AA78" points="315,643.9 343,643.6 328.7,622.4 315,643.9 315,643.9 "/>
		<polygon fill="#92AA78" points="328.7,622.4 362,626.7 343,643.6 328.7,622.4 328.7,622.4 "/>
		<polygon fill="#92AA78" points="328.7,622.4 305.7,611.3 315,643.9 328.7,622.4 328.7,622.4 "/>
		<polygon fill="#94A786" points="305.7,611.3 320,569.5 270.3,606.7 305.7,611.3 305.7,611.3 "/>
		<polygon fill="#999C54" points="305.7,611.3 328.7,622.4 357,587.5 305.7,611.3 305.7,611.3 "/>
		<polygon fill="#999C54" points="305.7,611.3 320,569.5 357,587.5 305.7,611.3 305.7,611.3 "/>
		<polygon fill="#3B3746" points="201.6,632.3 201.3,646.7 177.3,651.3 201.6,632.3 201.6,632.3 "/>
		<polygon fill="#20376A" points="145.4,648 177.3,651.3 201.6,632.3 145.4,648 145.4,648 "/>
		<polygon fill="#20376A" points="315,643.9 317,679.4 343,643.6 315,643.9 315,643.9 "/>
		<polygon fill="#20376A" points="343,643.6 362,626.7 372,661.3 343,643.6 343,643.6 "/>
		<polygon fill="#636949" points="343,643.6 346.7,681 372,661.3 343,643.6 343,643.6 "/>
		<polygon fill="#636949" points="343,643.6 317,679.4 346.7,681 343,643.6 343,643.6 "/>
		<polygon fill="#63778D" points="317,679.4 330.3,713 346.7,681 317,679.4 317,679.4 "/>
		<polygon fill="#848892" points="346.7,681 372,661.3 379.3,688.3 346.7,681 346.7,681 "/>
		<polygon fill="#63778D" points="346.7,681 330.3,713 356.7,703.3 346.7,681 346.7,681 "/>
		<polygon fill="#63778D" points="346.7,681 356.7,703.3 379.3,688.3 346.7,681 346.7,681 "/>
		<polygon fill="#333E4F" points="330.3,713 338.3,745 356.7,703.3 330.3,713 330.3,713 "/>
		<polygon fill="#848892" points="356.7,703.3 380.7,734.3 379.3,688.3 356.7,703.3 356.7,703.3 "/>
		<polygon fill="#636949" points="145.4,648 157.7,681.7 177.3,651.3 145.4,648 145.4,648 "/>
		<polygon fill="#3B3746" points="177.3,651.3 213,686.3 201.3,646.7 177.3,651.3 177.3,651.3 "/>
		<polygon fill="#515D5C" points="213,686.3 210.7,732.7 184.3,707.7 213,686.3 213,686.3 "/>
		<polygon fill="#3D4448" points="184.3,707.7 157.7,681.7 163.7,727 184.3,707.7 184.3,707.7 "/>
		<polygon fill="#636949" points="184.3,707.7 157.7,681.7 177.3,651.3 184.3,707.7 184.3,707.7 "/>
		<polygon fill="#515D5C" points="184.3,707.7 177.3,651.3 213,686.3 184.3,707.7 184.3,707.7 "/>
		<polygon fill="#3D4448" points="163.7,727 171,748.7 181,725.7 163.7,727 163.7,727 "/>
		<polygon fill="#3D4448" points="163.7,727 184.3,707.7 181,725.7 163.7,727 163.7,727 "/>
		<polygon fill="#515D5C" points="181,725.7 184.3,707.7 210.7,732.7 181,725.7 181,725.7 "/>
		<polygon fill="#4A5158" points="181,725.7 171,748.7 210.7,732.7 181,725.7 181,725.7 "/>
		<polygon fill="#293652" points="210.7,732.7 220.3,768 189,761 210.7,732.7 210.7,732.7 "/>
		<polygon fill="#7C8888" points="171,748.7 158.3,774.7 189,761 171,748.7 171,748.7 "/>
		<polygon fill="#4A5158" points="171,748.7 210.7,732.7 189,761 171,748.7 171,748.7 "/>
		<polygon fill="#010101" points="220.3,768 224.7,798.3 193.7,804 220.3,768 220.3,768 "/>
		<polygon fill="#4464AD" points="158.3,774.7 127.3,796.7 163.7,803.3 158.3,774.7 158.3,774.7 "/>
		<polygon fill="#283472" points="127.3,796.7 94.7,814.7 127.7,827.3 127.3,796.7 127.3,796.7 "/>
		<polygon fill="#274497" points="94.7,814.7 99.3,840 127.7,827.3 94.7,814.7 94.7,814.7 "/>
		<polygon fill="#28377B" points="99.3,840 135.3,838.3 127.7,827.3 99.3,840 99.3,840 "/>
		<polygon fill="#283472" points="127.7,827.3 127.3,796.7 163.7,803.3 127.7,827.3 127.7,827.3 "/>
		<polygon fill="#263C97" points="127.7,827.3 135.3,838.3 174,826.7 127.7,827.3 127.7,827.3 "/>
		<polygon fill="#010101" points="127.7,827.3 163.7,803.3 174,826.7 127.7,827.3 127.7,827.3 "/>
		<polygon fill="#010101" points="174,826.7 193.7,804 163.7,803.3 174,826.7 174,826.7 "/>
		<polygon fill="#120F40" points="174,826.7 224.7,798.3 193.7,804 174,826.7 174,826.7 "/>
		<polygon fill="#333E4F" points="338.3,745 364,749.7 356.7,703.3 338.3,745 338.3,745 "/>
		<polygon fill="#333E4F" points="364,749.7 380.7,734.3 356.7,703.3 364,749.7 364,749.7 "/>
		<polygon fill="#333E4F" points="338.3,745 339.3,775.7 364,749.7 338.3,745 338.3,745 "/>
		<polygon fill="#38507C" points="364,749.7 380.7,734.3 387,768 364,749.7 364,749.7 "/>
		<polygon fill="#293880" points="387,768 394.7,785 381,798.7 387,768 387,768 "/>
		<polygon fill="#38507C" points="364,749.7 367.3,781 387,768 364,749.7 364,749.7 "/>
		<polygon fill="#6784C2" points="339.3,775.7 322.7,804 346.3,791.3 339.3,775.7 339.3,775.7 "/>
		<polygon fill="#24245E" points="322.7,804 309.7,822.7 332,820.7 322.7,804 322.7,804 "/>
		<polygon fill="#214082" points="309.7,822.7 309,837.7 332,820.7 309.7,822.7 309.7,822.7 "/>
		<polygon fill="#214082" points="309,837.7 330.3,843.3 332,820.7 309,837.7 309,837.7 "/>
		<polygon fill="#214082" points="330.3,843.3 351.6,838.5 332,820.7 330.3,843.3 330.3,843.3 "/>
		<polygon fill="#253C7E" points="351.6,838.5 367.6,818.6 349.9,814.4 351.6,838.5 351.6,838.5 "/>
		<polygon fill="#1B144E" points="367.6,818.6 363,804 381,798.7 367.6,818.6 367.6,818.6 "/>
		<polygon fill="#5D6FB5" points="332,820.7 349.9,814.4 351.6,838.5 332,820.7 332,820.7 "/>
		<polygon fill="#24245E" points="332,820.7 322.7,804 346.3,791.3 332,820.7 332,820.7 "/>
		<polygon fill="#5D6FB5" points="332,820.7 349.9,814.4 346.3,791.3 332,820.7 332,820.7 "/>
		<polygon fill="#728EC8" points="349.9,814.4 367.6,818.6 363,804 349.9,814.4 349.9,814.4 "/>
		<polygon fill="#333E4F" points="339.3,775.7 367.3,781 364,749.7 339.3,775.7 339.3,775.7 "/>
		<polygon fill="#6784C2" points="339.3,775.7 346.3,791.3 367.3,781 339.3,775.7 339.3,775.7 "/>
		<polygon fill="#293880" points="367.3,781 381,798.7 387,768 367.3,781 367.3,781 "/>
		<polygon fill="#728EC8" points="367.3,781 346.3,791.3 363,804 367.3,781 367.3,781 "/>
		<polygon fill="#283A97" points="367.3,781 363,804 381,798.7 367.3,781 367.3,781 "/>
		<polygon fill="#728EC8" points="346.3,791.3 349.9,814.4 363,804 346.3,791.3 346.3,791.3 "/>
		<polygon fill="#92944D" points="288.7,465.3 286.3,535.3 323,506 288.7,465.3 "/>
		<polygon fill="#B4AC60" points="288.7,465.3 354,480 323,506 288.7,465.3 "/>
		<polygon fill="#283472" points="163.7,803.3 189,761 158.3,774.7 163.7,803.3 "/>
		<polygon fill="#303C49" points="163.7,803.3 193.7,804 189,761 163.7,803.3 "/>
		<polygon fill="#283472" points="189,761 220.3,768 193.7,804 189,761 "/>
		<polygon fill="#595D78" points="272.8,143.2 255.4,157 279.5,165.2 272.8,143.2 "/>
		<polygon fill="#1E2B56" points="189.6,147.2 201,147.7 219.2,143.4 245,133 250.2,125.6 263.6,114.7 281,126.8 272.8,143.2
			255.4,157 222.5,168.2 204,162 189.6,147.2 "/>
		<polygon fill="#8392A0" points="315,155.3 292.7,190.7 315.3,195.3 315,155.3 315,155.3 "/>
		<polygon fill="#AFC0DF" points="292.7,190.7 292.7,243.3 315.3,195.3 292.7,190.7 292.7,190.7 "/>
		<polygon fill="#24305D" points="292.7,243.3 300.7,292 322,252.7 292.7,243.3 292.7,243.3 "/>
		<polygon fill="#B6CFEC" points="300.7,292 298.8,328.7 325.3,294 300.7,292 300.7,292 "/>
		<polygon fill="#789CC4" points="298.8,328.7 288.7,378 319.3,356 298.8,328.7 298.8,328.7 "/>
		<polygon fill="#6A88B6" points="288.7,378 282.7,425.3 317.3,386 288.7,378 288.7,378 "/>
		<polygon fill="#9E1C20" points="282.7,425.3 275.3,452 310.7,460.7 282.7,425.3 282.7,425.3 "/>
		<polygon fill="#BE2026" points="310.7,460.7 334.7,414.7 307.3,430.7 310.7,460.7 310.7,460.7 "/>
		<polygon fill="#CCECFC" points="334.7,414.7 349.3,375.3 317.3,386 334.7,414.7 334.7,414.7 "/>
		<polygon fill="#9BBBD0" points="349.3,375.3 354,333.3 319.3,356 349.3,375.3 349.3,375.3 "/>
		<polygon fill="#C02026" points="282.7,425.3 307.3,430.7 310.7,460.7 282.7,425.3 282.7,425.3 "/>
		<polygon fill="#2C5269" points="282.7,425.3 317.3,386 307.3,430.7 282.7,425.3 282.7,425.3 "/>
		<polygon fill="#CCECFC" points="307.3,430.7 334.7,414.7 317.3,386 307.3,430.7 307.3,430.7 "/>
		<polygon fill="#A0CDE5" points="298.8,328.7 326,326 319.3,356 298.8,328.7 298.8,328.7 "/>
		<polygon fill="#BCE6FB" points="319.3,356 317.3,386 288.7,378 319.3,356 319.3,356 "/>
		<polygon fill="#425261" points="319.3,356 317.3,386 349.3,375.3 319.3,356 319.3,356 "/>
		<polygon fill="#A0CDE5" points="319.3,356 326,326 354,333.3 319.3,356 319.3,356 "/>
		<polygon fill="#8FAFDC" points="326,326 325.3,294 298.8,328.7 326,326 326,326 "/>
		<polygon fill="#A4BADB" points="315,155.3 338.6,174.7 315.3,195.3 315,155.3 315,155.3 "/>
		<polygon fill="#BBE0F6" points="338.6,174.7 352.1,217.9 327.7,226.8 338.6,174.7 338.6,174.7 "/>
		<polygon fill="#CAEBF7" points="352.1,217.9 352.4,259 327.7,226.8 352.1,217.9 352.1,217.9 "/>
		<polygon fill="#D0EDF9" points="352.4,259 353.8,294.8 325.3,294 352.4,259 352.4,259 "/>
		<polygon fill="#DDF2FA" points="353.8,294.8 353.5,333 325.3,294 353.8,294.8 353.8,294.8 "/>
		<polygon fill="#8FAFDC" points="325.3,294 326,326 353.5,333 325.3,294 325.3,294 "/>
		<polygon fill="#29364C" points="300.7,292 325.3,294 322,252.7 300.7,292 300.7,292 "/>
		<polygon fill="#DDF2FA" points="325.3,294 352.4,259 322,252.7 325.3,294 325.3,294 "/>
		<polygon fill="#9EBBCE" points="322,252.7 327.7,226.8 352.4,259 322,252.7 322,252.7 "/>
		<polygon fill="#9EBBCE" points="292.7,243.3 322,252.7 327.7,226.8 292.7,243.3 292.7,243.3 "/>
		<polygon fill="#BDD8DC" points="292.7,243.3 315.3,195.3 327.7,226.8 292.7,243.3 292.7,243.3 "/>
		<polygon fill="#BDD8DC" points="327.7,226.8 315.3,195.3 338.6,174.7 327.7,226.8 327.7,226.8 "/>
		<polygon fill="#DCBF8E" points="275.3,452 286.7,478.3 296.3,467 275.3,452 275.3,452 "/>
		<polygon fill="#DDBD7E" points="296.3,467 293.3,491.7 286.7,478.3 296.3,467 296.3,467 "/>
		<polygon fill="#B89C6E" points="286.7,478.3 284.3,504.3 293.3,491.7 286.7,478.3 286.7,478.3 "/>
		<polygon fill="#EDD0AA" points="296.3,467 310.7,460.7 275.3,452 296.3,467 296.3,467 "/>
		<polygon fill="#EDD1AA" points="296.3,467 310.7,460.7 312,491.3 296.3,467 296.3,467 "/>
		<polygon fill="#272E60" points="148.6,148.5 169.7,162.3 159.3,175.7 148.6,148.5 148.6,148.5 "/>
		<polygon fill="#6682C1" points="148.6,148.5 132.3,178.7 159.3,175.7 148.6,148.5 148.6,148.5 "/>
		<polygon fill="#151C46" points="132.3,178.7 120.3,215.7 159.3,175.7 132.3,178.7 132.3,178.7 "/>
		<polygon fill="#3E4F84" points="169.7,162.3 168,216.7 159.3,175.7 169.7,162.3 169.7,162.3 "/>
		<polygon fill="#3E4F84" points="168,216.7 120.3,215.7 159.3,175.7 168,216.7 168,216.7 "/>
		<polygon fill="#54629C" points="148.6,148.5 175.5,132 169.7,162.3 148.6,148.5 148.6,148.5 "/>
		<polygon fill="#3F4770" points="175.5,132 169.7,162.3 190.5,138.2 175.5,132 175.5,132 "/>
		<polygon fill="#161234" points="169.7,162.3 203.2,144.2 190.5,138.2 169.7,162.3 169.7,162.3 "/>
		<polygon fill="#941A1D" points="203.2,144.2 198.5,157 218,168 203.2,144.2 203.2,144.2 "/>
		<polygon fill="#791815" points="203.2,144.2 218.2,144.4 218,168 203.2,144.2 203.2,144.2 "/>
		<polygon fill="#901A1C" points="219.5,144.2 222,170 235.8,136.8 219.5,144.2 219.5,144.2 "/>
		<polygon fill="#D22027" points="222,170 243.5,162.8 235.8,136.8 222,170 222,170 "/>
		<polygon fill="#E53825" points="243.5,162.8 261.5,153 235.8,136.8 243.5,162.8 243.5,162.8 "/>
		<polygon fill="#DD1F26" points="235.8,136.8 251,126 261.5,153 235.8,136.8 235.8,136.8 "/>
		<polygon fill="#C82E29" points="251,126 262.6,115.7 261.5,153 251,126 251,126 "/>
		<polygon fill="#EF4828" points="261.5,153 275.2,139.8 262.6,115.7 261.5,153 261.5,153 "/>
		<polygon fill="#F0543F" points="275.2,139.8 279,128.5 262.6,115.7 275.2,139.8 275.2,139.8 "/>
		<polygon fill="#F04E2C" points="262.6,115.7 268,104.5 279,128.5 262.6,115.7 262.6,115.7 "/>
		<polyline fill="#48443A" points="268,104.5 260.2,97.5 262.6,115.7 "/>
		<polygon fill="#3D487F" points="120.3,215.7 105.5,236.8 143.5,250.8 120.3,215.7 120.3,215.7 "/>
		<polygon fill="#3D4A7F" points="120.3,215.7 168,216.7 143.5,250.8 120.3,215.7 120.3,215.7 "/>
		<polygon fill="#161F48" points="143.5,250.8 165.8,252.8 168,216.7 143.5,250.8 143.5,250.8 "/>
		<polygon fill="#171847" points="105.5,236.8 105.2,291.8 143.5,250.8 105.5,236.8 105.5,236.8 "/>
		<polygon fill="#3C5398" points="143.5,250.8 165.8,252.8 155.8,289 143.5,250.8 143.5,250.8 "/>
		<polygon fill="#4F6191" points="105.2,291.8 135.2,300.2 143.5,250.8 105.2,291.8 105.2,291.8 "/>
		<polygon fill="#33436C" points="135.2,300.2 155.8,289 143.5,250.8 135.2,300.2 135.2,300.2 "/>
		<polygon fill="#3E5083" points="105.2,291.8 135.2,300.2 122.5,343.8 105.2,291.8 105.2,291.8 "/>
		<polygon fill="#BED8F0" points="135.2,300.2 155.8,289 152,308 135.2,300.2 135.2,300.2 "/>
		<polygon fill="#3E5083" points="135.2,300.2 122.5,343.8 152,308 135.2,300.2 135.2,300.2 "/>
		<polygon fill="#6C7CA3" points="152,308 160.2,324.5 122.5,343.8 152,308 152,308 "/>
		<polygon fill="#C82026" points="122.5,343.8 139,368.8 160.2,324.5 122.5,343.8 122.5,343.8 "/>
		<polygon fill="#A02221" points="139,368.8 173,346.5 160.2,324.5 139,368.8 139,368.8 "/>
		<polygon fill="#F7C693" points="139,368.8 139.5,389.8 150.8,371.5 139,368.8 139,368.8 "/>
		<polygon fill="#A1773A" points="139,368.8 150.8,371.5 173,346.5 139,368.8 139,368.8 "/>
		<polygon fill="#EECA82" points="150.8,371.5 186.8,367 173,346.5 150.8,371.5 150.8,371.5 "/>
		<polygon fill="#E7C284" points="150.8,371.5 164.8,387.8 186.8,367 150.8,371.5 150.8,371.5 "/>
		<polygon fill="#BD924B" points="150.8,371.5 139.5,389.8 157.8,403.5 150.8,371.5 150.8,371.5 "/>
		<polygon fill="#AB863D" points="150.8,371.5 157.8,403.5 164.8,387.8 150.8,371.5 150.8,371.5 "/>
		<polygon fill="#272418" points="207.8,74.2 204.1,84.4 218.8,88.3 207.8,74.2 207.8,74.2 207.8,74.2 207.8,74.2 "/>
		<polygon fill="#060508" points="218.8,88.3 228,83.2 220,77.5 218.8,88.3 218.8,88.3 218.8,88.3 218.8,88.3 "/>
		<polygon fill="#060508" points="228,83.2 229.1,70.3 220,77.5 228,83.2 228,83.2 228,83.2 228,83.2 "/>
		<polygon fill="#272418" points="220,77.5 207.8,74.2 218.8,88.3 220,77.5 220,77.5 220,77.5 220,77.5 "/>
		<polygon fill="#060508" points="207.8,74.2 229.1,70.3 220,77.5 207.8,74.2 207.8,74.2 207.8,74.2 207.8,74.2 "/>
		<polygon fill="#2F2C21" points="228,83.2 236.5,72.7 229.1,70.3 228,83.2 228,83.2 228,83.2 228,83.2 "/>
		<polygon fill="#BEB293" points="236.5,72.7 240.4,83.1 228,83.2 236.5,72.7 236.5,72.7 236.5,72.7 236.5,72.7 "/>
		<polygon fill="#9E876B" points="218.8,88.3 226,92 228,83.2 218.8,88.3 218.8,88.3 218.8,88.3 218.8,88.3 "/>
		<polygon fill="#9E876B" points="218.8,88.3 206.6,90 226,92 218.8,88.3 218.8,88.3 218.8,88.3 218.8,88.3 "/>
		<polygon fill="#E8DABC" points="226,92 233.2,99.7 240.4,83.1 226,92 226,92 226,92 226,92 "/>
		<polygon fill="#A49477" points="226,92 228,83.2 240.4,83.1 226,92 226,92 226,92 226,92 "/>
		<polygon fill="#E8DABC" points="240.4,83.1 242.3,97.5 233.2,99.7 240.4,83.1 240.4,83.1 240.4,83.1 240.4,83.1 "/>
		<polygon fill="#E8DABC" points="240.4,83.1 242.3,97.5 258,82.4 240.4,83.1 240.4,83.1 240.4,83.1 240.4,83.1 "/>
		<polygon fill="#82684B" points="240.4,83.1 258,82.4 236.5,72.7 240.4,83.1 240.4,83.1 240.4,83.1 240.4,83.1 "/>
		<polygon fill="#8C7856" points="236.5,72.7 255,64.5 258,82.4 236.5,72.7 236.5,72.7 236.5,72.7 236.5,72.7 "/>
		<polygon fill="#37352F" points="258,82.4 262.8,61.7 255,64.5 258,82.4 258,82.4 258,82.4 258,82.4 "/>
		<polygon fill="#2F2C21" points="229.1,70.3 255,64.5 236.5,72.7 229.1,70.3 229.1,70.3 229.1,70.3 229.1,70.3 "/>
		<polygon fill="#A1998F" points="258,82.4 273.5,80.3 272.7,59.8 258,82.4 258,82.4 258,82.4 258,82.4 "/>
		<polygon fill="#4F4F4A" points="258,82.4 262.8,61.7 272.7,59.8 258,82.4 258,82.4 258,82.4 258,82.4 "/>
		<polygon fill="#241D13" points="258,82.4 261.2,102.5 273.5,80.3 258,82.4 258,82.4 258,82.4 258,82.4 "/>
		<polygon fill="#61513C" points="258,82.4 250.4,99.3 261.2,102.5 258,82.4 258,82.4 258,82.4 258,82.4 "/>
		<polygon fill="#6F6046" points="242.3,97.5 250.4,99.3 258,82.4 242.3,97.5 242.3,97.5 242.3,97.5 242.3,97.5 "/>
		<polygon fill="#8C7D61" points="250.4,99.3 254.1,117.3 235.1,111.4 250.4,99.3 250.4,99.3 250.4,99.3 250.4,99.3 250.4,99.3 "/>
		<polygon fill="#867253" points="242.3,97.5 235.1,111.4 250.4,99.3 242.3,97.5 242.3,97.5 242.3,97.5 242.3,97.5 242.3,97.5 "/>
		<polygon fill="#6C5C3C" points="242.3,97.5 233.2,99.7 235.1,111.4 242.3,97.5 242.3,97.5 242.3,97.5 242.3,97.5 242.3,97.5 "/>
		<polygon fill="#0F0C0A" points="181,70.6 171.5,78.7 181.6,81.8 181,70.6 181,70.6 181,70.6 181,70.6 "/>
		<polygon fill="#0F0C0A" points="181,70.6 189.2,76.1 181.6,81.8 181,70.6 181,70.6 181,70.6 181,70.6 "/>
		<polygon fill="#2E2C1F" points="171.5,78.7 181.6,81.8 175.5,89.5 171.5,78.7 171.5,78.7 171.5,78.7 171.5,78.7 "/>
		<polygon fill="#2E2C1F" points="181.6,81.8 181.8,91.8 175.5,89.5 181.6,81.8 181.6,81.8 181.6,81.8 181.6,81.8 "/>
		<polygon fill="#2E2C1F" points="181.6,81.8 187.6,88.7 181.8,91.8 181.6,81.8 181.6,81.8 181.6,81.8 181.6,81.8 "/>
		<polygon fill="#0F0C0A" points="181.6,81.8 189.2,76.1 190.9,82.9 181.6,81.8 181.6,81.8 181.6,81.8 181.6,81.8 "/>
		<polygon fill="#0E0B0B" points="181.6,81.8 187.6,88.7 190.9,82.9 181.6,81.8 181.6,81.8 181.6,81.8 181.6,81.8 "/>
		<polygon fill="#EEE4C8" points="175.5,89.5 173.4,97.8 181.8,91.8 175.5,89.5 175.5,89.5 175.5,89.5 175.5,89.5 "/>
		<polygon fill="#C6B9A0" points="173.4,97.8 186,94.2 181.8,91.8 173.4,97.8 173.4,97.8 173.4,97.8 173.4,97.8 "/>
		<polygon fill="#D9C9AA" points="186,94.2 187.6,88.7 181.8,91.8 186,94.2 186,94.2 186,94.2 186,94.2 "/>
		<polygon fill="#B7A891" points="186,94.2 190.9,103.2 187.6,88.7 186,94.2 186,94.2 186,94.2 186,94.2 "/>
		<polygon fill="#595341" points="190.9,103.2 193.1,104.8 195.8,100.4 190.9,103.2 190.9,103.2 190.9,103.2 190.9,103.2 "/>
		<polygon fill="#050504" points="195.8,100.4 200.5,102.6 202.8,96.6 195.8,100.4 195.8,100.4 195.8,100.4 195.8,100.4 "/>
		<polygon fill="#050504" points="202.8,96.6 196,88.8 195.8,100.4 202.8,96.6 202.8,96.6 202.8,96.6 202.8,96.6 "/>
		<polygon fill="#050504" points="195.8,100.4 187.6,88.7 190.9,103.2 195.8,100.4 195.8,100.4 195.8,100.4 195.8,100.4 "/>
		<polygon fill="#1F170F" points="195.8,100.4 187.6,88.7 196,88.8 195.8,100.4 195.8,100.4 195.8,100.4 195.8,100.4 "/>
		<polygon fill="#1F170F" points="187.6,88.7 190.9,82.9 196,88.8 187.6,88.7 187.6,88.7 187.6,88.7 187.6,88.7 "/>
		<polygon fill="#79694E" points="173.4,97.8 176.4,104.3 181.9,103.4 173.4,97.8 173.4,97.8 173.4,97.8 173.4,97.8 "/>
		<polygon fill="#89785B" points="173.4,97.8 186,94.2 181.9,103.4 173.4,97.8 173.4,97.8 173.4,97.8 173.4,97.8 "/>
		<polygon fill="#403D37" points="189.2,76.1 200.2,74.6 204.1,84.4 189.2,76.1 189.2,76.1 189.2,76.1 189.2,76.1 "/>
		<polygon fill="#BDB1A0" points="189.2,76.1 190.9,82.9 204.1,84.4 189.2,76.1 189.2,76.1 189.2,76.1 189.2,76.1 "/>
		<polygon fill="#DED2B9" points="190.9,82.9 196,88.8 204.1,84.4 190.9,82.9 190.9,82.9 190.9,82.9 190.9,82.9 "/>
		<polygon fill="#C1B69E" points="196,88.8 202.8,96.6 204.1,84.4 196,88.8 196,88.8 196,88.8 196,88.8 "/>
		<polygon fill="#BCAD99" points="202.8,96.6 206.6,90 204.1,84.4 202.8,96.6 202.8,96.6 202.8,96.6 202.8,96.6 "/>
		<polygon fill="#9B8D6C" points="181.9,103.4 186,94.2 190.9,103.2 181.9,103.4 181.9,103.4 181.9,103.4 181.9,103.4 "/>
		<polygon fill="#897A5D" points="181.9,103.4 185.5,112.8 190.9,103.2 181.9,103.4 181.9,103.4 181.9,103.4 181.9,103.4 "/>
		<polygon fill="#5B5243" points="190.9,103.2 185.5,112.8 193.1,104.8 190.9,103.2 190.9,103.2 190.9,103.2 190.9,103.2 "/>
		<polygon fill="#BCAD99" points="204.1,84.4 218.8,88.3 206.6,90 204.1,84.4 204.1,84.4 204.1,84.4 204.1,84.4 "/>
		<polygon fill="#534231" points="206.6,90 224.6,101.8 226,92 206.6,90 206.6,90 206.6,90 206.6,90 "/>
		<polygon fill="#897961" points="224.6,101.8 233.2,99.7 226,92 224.6,101.8 224.6,101.8 224.6,101.8 224.6,101.8 "/>
		<polygon fill="#3B3227" points="233.2,99.7 235.1,111.4 229.1,112 233.2,99.7 233.2,99.7 233.2,99.7 233.2,99.7 233.2,99.7 "/>
		<polygon fill="#61533E" points="200.5,102.6 197.7,108.7 195.8,100.4 200.5,102.6 200.5,102.6 200.5,102.6 200.5,102.6 "/>
		<polygon fill="#7F7D71" points="193.1,104.8 197.7,108.7 195.8,100.4 193.1,104.8 193.1,104.8 193.1,104.8 193.1,104.8 "/>
		<polygon fill="#A19F93" points="193.1,104.8 197.7,108.7 194.2,117.2 193.1,104.8 193.1,104.8 193.1,104.8 193.1,104.8 "/>
		<polygon fill="#625745" points="197.7,108.7 200.5,102.6 206.9,115.2 197.7,108.7 197.7,108.7 197.7,108.7 197.7,108.7 "/>
		<polygon fill="#534231" points="202.8,96.6 206.6,90 224.6,101.8 202.8,96.6 202.8,96.6 202.8,96.6 202.8,96.6 "/>
		<polygon fill="#796850" points="202.8,96.6 212.2,106.2 224.6,101.8 202.8,96.6 202.8,96.6 202.8,96.6 202.8,96.6 "/>
		<polygon fill="#BFAE92" points="212.2,106.2 221.2,113.1 222.2,107.6 212.2,106.2 212.2,106.2 212.2,106.2 212.2,106.2 "/>
		<polygon fill="#A28F72" points="212.2,106.2 224.6,101.8 222.2,107.6 212.2,106.2 212.2,106.2 212.2,106.2 212.2,106.2 "/>
		<polygon fill="#8A7B6A" points="222.2,107.6 227.9,114.6 221.2,113.1 222.2,107.6 222.2,107.6 222.2,107.6 222.2,107.6 "/>
		<polygon fill="#CFC0B1" points="221.2,113.1 221.8,116.6 227.9,114.6 221.2,113.1 221.2,113.1 221.2,113.1 221.2,113.1 "/>
		<polygon fill="#B0A07D" points="221.2,113.1 213.9,114.8 212.2,106.2 221.2,113.1 221.2,113.1 221.2,113.1 221.2,113.1 "/>
		<polygon fill="#C4B8A8" points="213.9,114.8 206.9,115.2 212.2,106.2 213.9,114.8 213.9,114.8 213.9,114.8 213.9,114.8 "/>
		<polygon fill="#5D503D" points="212.2,106.2 206.9,115.2 200.5,102.6 212.2,106.2 212.2,106.2 212.2,106.2 212.2,106.2 "/>
		<polygon fill="#5D503D" points="202.8,96.6 200.5,102.6 212.2,106.2 202.8,96.6 202.8,96.6 202.8,96.6 202.8,96.6 "/>
		<polygon fill="#6A6059" points="185.5,112.8 185.3,121.6 190,115 185.5,112.8 185.5,112.8 185.5,112.8 185.5,112.8 "/>
		<polygon fill="#6A6663" points="193.1,104.8 185.5,112.8 190,115 193.1,104.8 193.1,104.8 193.1,104.8 193.1,104.8 "/>
		<polygon fill="#3E3A34" points="193.1,104.8 190,115 194.2,117.2 193.1,104.8 193.1,104.8 193.1,104.8 193.1,104.8 "/>
		<polygon fill="#9C9485" points="190,115 189.3,123.7 185.3,121.6 190,115 190,115 190,115 190,115 "/>
		<polygon fill="#AB9988" points="190,115 189.3,123.7 194.2,117.2 190,115 190,115 190,115 190,115 "/>
		<polygon fill="#C1B19F" points="194.2,117.2 193.4,123.9 189.3,123.7 194.2,117.2 194.2,117.2 194.2,117.2 194.2,117.2 "/>
		<polygon fill="#F1ECDF" points="194.2,117.2 198.9,116.7 198.5,124.3 194.2,117.2 194.2,117.2 194.2,117.2 194.2,117.2 "/>
		<polygon fill="#76736A" points="198.9,116.7 197.7,108.7 194.2,117.2 198.9,116.7 198.9,116.7 198.9,116.7 198.9,116.7 "/>
		<polygon fill="#A29B94" points="198.9,116.7 206.9,115.2 197.7,108.7 198.9,116.7 198.9,116.7 198.9,116.7 198.9,116.7 "/>
		<polygon fill="#A19989" points="194.2,117.2 193.4,123.9 198.5,124.3 194.2,117.2 194.2,117.2 194.2,117.2 194.2,117.2 "/>
		<polygon fill="#3E3220" points="206.9,115.2 208.5,121.2 213.9,114.8 206.9,115.2 206.9,115.2 206.9,115.2 206.9,115.2 "/>
		<polygon fill="#D3CBBF" points="208.5,121.2 213.8,119.8 213.9,114.8 208.5,121.2 208.5,121.2 208.5,121.2 208.5,121.2 "/>
		<polygon fill="#6B6454" points="185.3,121.6 183,139 190.8,131.6 185.3,121.6 185.3,121.6 185.3,121.6 185.3,121.6 "/>
		<polygon fill="#312215" points="185.3,121.6 189.3,123.7 190.8,131.6 185.3,121.6 185.3,121.6 185.3,121.6 185.3,121.6 "/>
		<polygon fill="#6C5E42" points="189.3,123.7 193.4,123.9 190.8,131.6 189.3,123.7 189.3,123.7 189.3,123.7 189.3,123.7 "/>
		<polygon fill="#524439" points="190.8,131.6 190.8,131.6 183,139 189.6,147.2 190.8,131.6 190.8,131.6 190.8,131.6 190.8,131.6 "/>
		<polygon fill="#433826" points="189.6,147.2 194.9,144 190.8,131.6 189.6,147.2 189.6,147.2 189.6,147.2 189.6,147.2 "/>
		<polygon fill="#625437" points="190.8,131.6 198.5,124.3 193.4,123.9 190.8,131.6 190.8,131.6 190.8,131.6 190.8,131.6 "/>
		<polygon fill="#56452E" points="198.5,124.3 208.5,121.2 203.2,135.7 198.5,124.3 198.5,124.3 198.5,124.3 198.5,124.3 "/>
		<polygon fill="#8B7754" points="203.2,135.7 201,147.7 194.9,144 203.2,135.7 203.2,135.7 203.2,135.7 203.2,135.7 "/>
		<polygon fill="#4A402C" points="198.5,124.3 190.8,131.6 203.2,135.7 198.5,124.3 198.5,124.3 198.5,124.3 198.5,124.3 "/>
		<polygon fill="#7A6648" points="190.8,131.6 194.9,144 203.2,135.7 190.8,131.6 190.8,131.6 190.8,131.6 190.8,131.6 "/>
		<polygon fill="#CAB9A1" points="208.5,121.2 213.8,119.8 213.6,134.5 208.5,121.2 208.5,121.2 208.5,121.2 208.5,121.2 "/>
		<polygon fill="#E7D9BD" points="213.8,119.8 221.8,116.6 224.1,128.1 213.8,119.8 213.8,119.8 213.8,119.8 213.8,119.8 "/>
		<polygon fill="#C1AE8B" points="224.1,128.1 213.6,134.5 213.8,119.8 224.1,128.1 224.1,128.1 224.1,128.1 224.1,128.1 "/>
		<polygon fill="#C6B08D" points="213.6,134.5 203.2,135.7 208.5,121.2 213.6,134.5 213.6,134.5 213.6,134.5 213.6,134.5 "/>
		<polygon fill="#AF9A77" points="213.6,134.5 201,147.7 203.2,135.7 213.6,134.5 213.6,134.5 213.6,134.5 213.6,134.5 "/>
		<polygon fill="#AB9977" points="213.6,134.5 219.2,143.4 201,147.7 213.6,134.5 213.6,134.5 213.6,134.5 213.6,134.5 "/>
		<polygon fill="#CFBB98" points="213.6,134.5 224.1,128.1 219.2,143.4 213.6,134.5 213.6,134.5 213.6,134.5 213.6,134.5 "/>
		<polygon fill="#CAB482" points="224.1,128.1 243.4,125.5 219.2,143.4 224.1,128.1 224.1,128.1 224.1,128.1 224.1,128.1 "/>
		<polygon fill="#A78E78" points="243.4,125.5 250.2,125.6 254.1,117.3 243.4,125.5 243.4,125.5 243.4,125.5 243.4,125.5 "/>
		<polygon fill="#9F8B66" points="243.4,125.5 235,111.5 254.1,117.3 243.4,125.5 243.4,125.5 243.4,125.5 243.4,125.5 243.4,125.5
			"/>
		<polygon fill="#C6AF84" points="243.4,125.5 224.1,128.1 235.1,111.4 243.4,125.5 243.4,125.5 243.4,125.5 243.4,125.5 243.4,125.5
			"/>
		<polygon fill="#E1D8CF" points="229.1,112 227.9,114.6 235.1,111.4 229.1,112 229.1,112 229.1,112 229.1,112 229.1,112 "/>
		<polygon fill="#D0C4AC" points="227.9,114.6 224.1,128.1 221.8,116.6 227.9,114.6 227.9,114.6 227.9,114.6 227.9,114.6 "/>
		<polygon fill="#ECE2D1" points="227.9,114.6 235.1,111.4 224.1,128.1 227.9,114.6 227.9,114.6 227.9,114.6 227.9,114.6 227.9,114.6
			"/>
		<polygon fill="#3F331F" points="222.2,107.6 224.6,101.8 227,108.7 222.2,107.6 222.2,107.6 222.2,107.6 222.2,107.6 "/>
		<polygon fill="#8A7B6A" points="222.2,107.6 227.9,114.6 227,108.7 222.2,107.6 222.2,107.6 222.2,107.6 222.2,107.6 "/>
		<polygon fill="#1B1211" points="227,108.7 233.2,99.7 224.6,101.8 227,108.7 227,108.7 227,108.7 227,108.7 "/>
		<polygon fill="#0A0607" points="233.2,99.7 227,108.7 229.1,112 233.2,99.7 233.2,99.7 233.2,99.7 233.2,99.7 "/>
		<polygon fill="#767066" points="227,108.7 227.9,114.6 229.1,112 227,108.7 227,108.7 227,108.7 227,108.7 "/>
		<polygon fill="#282420" points="200.2,74.6 207.9,74.2 204.1,84.4 200.2,74.6 200.2,74.6 200.2,74.6 "/>
		<polygon fill="#61513C" points="261.2,102.5 250.4,99.3 254.1,117.3 261.2,102.5 261.2,102.5 261.2,102.5 "/>
		<polygon fill="#292522" points="261.2,102.5 263.6,114.7 254.1,117.3 261.2,102.5 261.2,102.5 261.2,102.5 "/>
		<polygon fill="#292522" points="254.1,117.3 263.6,114.7 250.2,125.6 254.1,117.3 254.1,117.3 254.1,117.3 "/>
		<polygon fill="#2C231B" points="243.4,125.5 250.2,125.6 245,133 243.4,125.5 243.4,125.5 243.4,125.5 "/>
		<polygon fill="#070709" points="243.4,125.5 219.2,143.4 245,133 243.4,125.5 243.4,125.5 243.4,125.5 "/>
		<polygon fill="#0A0807" points="198.9,116.7 198.5,124.3 208.5,121.2 206.9,115.2 198.9,116.7 "/>
		<polygon fill="#0A0807" points="213.9,114.8 213.8,119.8 221.8,116.6 221.2,113.1 213.9,114.8 "/>
		<polygon fill="#8B7754" points="189.6,147.2 194.9,144 201,147.7 189.6,147.2 189.6,147.2 189.6,147.2 "/>
		<polygon fill="#7E644B" points="122.5,343.8 83.5,301 61.5,355.5 122.5,343.8 "/>
		<polygon fill="#523A44" points="61.5,355.5 139,368.8 122.5,343.8 61.5,355.5 "/>
		<polygon fill="#443635" points="61.5,355.5 139.5,389.8 139,368.8 61.5,355.5 "/>
		<polygon fill="#4B2F36" points="164.8,387.8 286.7,478.3 284.3,504.3 164.8,387.8 "/>
		<polygon fill="#856D63" points="164.8,387.8 186.8,367 286.7,478.3 164.8,387.8 "/>
		<polygon fill="#504751" points="284.3,504.3 416.5,639.5 293.3,491.7 284.3,504.3 "/>
		<polygon fill="#523B43" points="293.3,491.7 296.3,467 312,491.3 293.3,491.7 "/>
		<polygon fill="#523B43" points="293.3,491.7 416.5,639.5 431.5,620 293.3,491.7 "/>
		<polygon fill="#856D63" points="293.3,491.7 312,491.3 431.5,620 293.3,491.7 "/>
		<polygon fill="#404451" points="416.5,639.5 534,744 431.5,620 416.5,639.5 "/>
		<polygon fill="#2A2D4E" points="172.3,64.3 163.3,76.3 195.3,76.7 172.3,64.3 172.3,64.3 172.3,64.3 "/>
		<polygon fill="#273653" points="172.3,64.3 207,59 195.3,76.7 172.3,64.3 172.3,64.3 172.3,64.3 "/>
		<polygon fill="#273653" points="195.3,76.7 234,74.3 207,59 195.3,76.7 195.3,76.7 195.3,76.7 "/>
		<polygon fill="#151322" points="234,74.3 262,61.7 207,59 234,74.3 234,74.3 234,74.3 "/>
		<polygon fill="#D12027" points="172.3,64.3 175.7,40 210.7,33.7 172.3,64.3 172.3,64.3 172.3,64.3 "/>
		<polygon fill="#EE3024" points="172.3,64.3 207,59 210.7,33.7 172.3,64.3 172.3,64.3 172.3,64.3 "/>
		<polygon fill="#DC2226" points="207,59 262,61.7 210.7,33.7 207,59 207,59 207,59 "/>
		<polygon fill="#EE2D24" points="210.7,33.7 242.3,35 262,61.7 210.7,33.7 210.7,33.7 210.7,33.7 "/>
		<polygon fill="#24263C" points="262,61.7 274.7,49 242.3,35 262,61.7 262,61.7 262,61.7 "/>
		<polygon fill="#151322" points="262,61.7 274,63.7 274.7,49 262,61.7 262,61.7 262,61.7 "/>
		<polygon fill="#070608" points="274,63.7 293.3,52.3 274.7,49 274,63.7 274,63.7 274,63.7 "/>
		<polygon fill="#0A090C" points="293.3,52.3 273.7,28 274.7,49 293.3,52.3 293.3,52.3 293.3,52.3 "/>
		<polygon fill="#151322" points="274.7,49 242.3,35 273.7,28 274.7,49 274.7,49 274.7,49 "/>
		<polygon fill="#141623" points="273.7,28 235.7,6.3 242.3,35 273.7,28 273.7,28 273.7,28 "/>
		<polygon fill="#262D47" points="235.7,6.3 203.3,-2 223.7,24.3 235.7,6.3 235.7,6.3 235.7,6.3 "/>
		<polygon fill="#24263C" points="223.7,24.3 242.3,35 235.7,6.3 223.7,24.3 223.7,24.3 223.7,24.3 "/>
		<polygon fill="#EE2F24" points="223.7,24.3 210.7,33.7 242.3,35 223.7,24.3 223.7,24.3 223.7,24.3 "/>
		<polygon fill="#EE3324" points="175.7,40 183,15.7 210.7,33.7 175.7,40 175.7,40 175.7,40 "/>
		<polygon fill="#EE3724" points="183,15.7 198.3,3.7 210.7,33.7 183,15.7 183,15.7 183,15.7 "/>
		<polygon fill="#D43427" points="198.3,3.7 223.7,24.3 210.7,33.7 198.3,3.7 198.3,3.7 198.3,3.7 "/>
		<polygon fill="#373155" points="198.3,3.7 203.3,-2 223.7,24.3 198.3,3.7 198.3,3.7 198.3,3.7 "/>
		<polygon fill="#2B2736" points="203.3,-2 190,-0.7 198.3,3.7 203.3,-2 203.3,-2 203.3,-2 "/>
		<polygon fill="#273653" points="190,-0.7 169.3,10.7 183,15.7 190,-0.7 190,-0.7 190,-0.7 "/>
		<polygon fill="#2E2B40" points="190,-0.7 198.3,3.7 183,15.7 190,-0.7 190,-0.7 190,-0.7 "/>
		<polygon fill="#212F45" points="183,15.7 169.3,10.7 160.7,27 183,15.7 183,15.7 183,15.7 "/>
		<polygon fill="#2A2D4E" points="183,15.7 175.7,40 160.7,27 183,15.7 183,15.7 183,15.7 "/>
		<polygon fill="#15181D" points="160.7,27 161,48 175.7,40 160.7,27 160.7,27 160.7,27 "/>
		<polygon fill="#020202" points="161,48 172.3,64.3 175.7,40 161,48 161,48 161,48 "/>
	</g>
</svg>
