<?xml version="1.0" encoding="utf-8"?>
<svg version="1.1" id="character-6" xmlns="http://www.w3.org/2000/svg" xmlns:xlink="http://www.w3.org/1999/xlink" x="0px" y="0px"
	 width="595.3px" height="841.9px" viewBox="0 0 595.3 841.9" enable-background="new 0 0 595.3 841.9" xml:space="preserve">
<g>
	<path fill="#847282" d="M464,311.5l-21.2-38.2l-26.8-31l-7.1-1.8L395.5,227l-8.2-19.8L356,228l-30.5,11l-24.5,6.5l9.6-14l-14.8-2.7
		l-19.2,15.8l-37,12l-22,6l-31,36.5L154,327l-23.5,21l8,48l7,20l19.5,6.5l25.5,2.5l3.5,26l2,30l16.8,25l-0.2,18l9,51l11.5,47.5
		l15.5,50l-9,35l-39,25l-29.5,16l68-5l43-13.5l14.5-3.5l1.5-9l6-31L294,631l2-33l-5.5-30.5L317,625l21,51l-2,56l-37,27.5l-31,22
		l44.5,9.5l41.5-13.5l21-30.5l23.5-66L377,622.5L366.5,575l8.5-51l-11.9-24.5l-0.8-35.5L428,354.5L464,311.5z M308.4,310l17.4,10
		l0,0L308.4,310z"/>
	<polygon fill="#847282" points="288,131.7 270.3,150.7 297.7,153.3 340.7,137 364.3,125.3 375.8,155.8 385,169.8 391.8,144.5
		384,146.3 382,119.7 378,106.7 415,93.3 384.7,85.3 344.3,74.3 328.3,68.7 312.3,63.7 279.3,52.3 265.7,72.3 256,105 282,112.7
		"/>
	<polygon fill="#847282" points="383.5,198.5 385,169.8 369.8,179 	"/>
</g>
<polygon fill="#DFB99A" points="383.5,198.5 385,169.8 375.8,155.8 364.3,125.3 346.8,133.2 328,140.2 298.5,153 299,147.5
	287.2,151.8 282.5,161.5 290.2,182.2 289.8,195.5 287.8,209.2 295.8,228.8 310.6,231.5 301,245.5 325.5,239 356,228 387.2,207.2 "/>
<polygon fill="#DDAB7B" points="287.2,151.8 282.5,161.5 297.2,169.3 287.2,151.8 287.2,151.8 "/>
<polygon fill="#CD946F" points="282.5,161.5 290.2,182.2 297.2,169.3 282.5,161.5 282.5,161.5 "/>
<polygon fill="#BF8E64" points="290.2,182.2 289.8,195.5 298.8,181.2 290.2,182.2 290.2,182.2 "/>
<polygon fill="#DAAC8D" points="289.8,195.5 287.8,209.2 301.8,206.2 289.8,195.5 289.8,195.5 "/>
<polygon fill="#4B475F" points="328,140.2 346.8,133.2 340.5,141.2 328,140.2 328,140.2 "/>
<polygon fill="#FAEFE0" points="328,140.2 327,146.2 340.5,141.2 328,140.2 328,140.2 "/>
<polygon fill="#C78F69" points="327,146.2 341.8,144.5 340.5,141.2 327,146.2 327,146.2 "/>
<polygon fill="#9C6F59" points="340.5,141.2 341.8,144.5 348.8,136 340.5,141.2 340.5,141.2 "/>
<polygon fill="#BCC7CA" points="340.5,141.2 346.8,133.2 348.8,136 340.5,141.2 340.5,141.2 "/>
<polygon fill="#E2B27D" points="287.2,151.8 297.2,169.3 299,147.5 287.2,151.8 287.2,151.8 "/>
<polygon fill="#E5CAB3" points="301,186.2 316,186.8 307.8,192.2 301,186.2 301,186.2 "/>
<polygon fill="#DBB69A" points="383.5,198.5 362.2,216.8 363.2,198.2 383.5,198.5 383.5,198.5 "/>
<polygon fill="#F6DCC3" points="310.6,231.5 343.2,224 319.2,211.2 310.6,231.5 310.6,231.5 "/>
<polygon fill="#E8CAAE" points="343.2,224 362.2,216.8 345.2,208.5 343.2,224 343.2,224 "/>
<polygon fill="#F8D4BE" points="313,168.2 306.2,161.2 306,169.4 313,168.2 313,168.2 "/>
<polygon fill="#C88B6D" points="297.2,169.3 304,178.2 306,169.4 297.2,169.3 297.2,169.3 "/>
<polygon fill="#B58261" points="304,178.2 313,168.2 306,169.4 304,178.2 304,178.2 "/>
<polygon fill="#A08170" points="298.8,181.2 304,178.2 332.5,179.4 298.8,181.2 298.8,181.2 "/>
<polygon fill="#C9916D" points="298.8,181.2 297.2,169.3 304,178.2 298.8,181.2 298.8,181.2 "/>
<polygon fill="#CF936A" points="298.8,181.2 297.2,169.3 290.2,182.2 298.8,181.2 298.8,181.2 "/>
<polygon fill="#D19A71" points="301,186.2 298.8,181.2 289.8,195.5 301,186.2 301,186.2 "/>
<polygon fill="#D59972" points="301,186.2 307.8,192.2 289.8,195.5 301,186.2 301,186.2 "/>
<polygon fill="#C68F6C" points="289.8,195.5 301.8,206.2 307.8,192.2 289.8,195.5 289.8,195.5 "/>
<polygon fill="#F1DBC4" points="287.8,209.2 310.6,231.5 301.8,206.2 287.8,209.2 287.8,209.2 "/>
<polygon fill="#F1DBC4" points="301.8,206.2 319.2,211.2 310.6,231.5 301.8,206.2 301.8,206.2 "/>
<polygon fill="#ECCBB0" points="301.8,206.2 307.8,192.2 319.2,211.2 301.8,206.2 301.8,206.2 "/>
<polygon fill="#D8B092" points="337,152.8 361.2,135.2 349,176 337,152.8 337,152.8 "/>
<polygon fill="#DEB290" points="361.2,135.2 364.3,125.3 375.8,155.8 361.2,135.2 361.2,135.2 "/>
<polygon fill="#D7AF90" points="361.2,135.2 349,176 375.8,155.8 361.2,135.2 361.2,135.2 "/>
<polygon fill="#DCB193" points="349,176 369.8,179 375.8,155.8 349,176 349,176 "/>
<polygon fill="#DDB198" points="375.8,155.8 385,169.8 369.8,179 375.8,155.8 375.8,155.8 "/>
<polygon fill="#DCB195" points="349,176 369.8,179 363.2,198.2 349,176 349,176 "/>
<polygon fill="#D7AF90" points="363.2,198.2 369.8,179 383.5,198.5 363.2,198.2 363.2,198.2 "/>
<polygon fill="#E5C6A5" points="363.2,198.2 345.2,208.5 362.2,216.8 363.2,198.2 363.2,198.2 "/>
<polygon fill="#ECD1B8" points="343.2,224 345.2,208.5 319.2,211.2 343.2,224 343.2,224 "/>
<polygon fill="#9C6F59" points="341.8,144.5 337,152.8 361.2,135.2 341.8,144.5 341.8,144.5 "/>
<polygon fill="#AC7047" points="341.8,144.5 348.8,136 361.2,135.2 341.8,144.5 341.8,144.5 "/>
<polygon fill="#9C6F59" points="348.8,136 346.8,133.2 361.2,135.2 348.8,136 348.8,136 "/>
<polygon fill="#A57962" points="346.8,133.2 364.3,125.3 361.2,135.2 346.8,133.2 346.8,133.2 "/>
<polygon fill="#AB7854" points="337,152.8 341.8,144.5 327,146.2 337,152.8 337,152.8 "/>
<polygon fill="#E8C9A6" points="345.2,208.5 349,176 363.2,198.2 345.2,208.5 345.2,208.5 "/>
<polygon fill="#EDCCB0" points="316,186.8 345.2,208.5 319.2,211.2 316,186.8 316,186.8 "/>
<polygon fill="#EECBB2" points="316,186.8 307.8,192.2 319.2,211.2 316,186.8 316,186.8 "/>
<polygon fill="#D9B79E" points="301,186.2 298.8,181.2 332.5,179.4 301,186.2 301,186.2 "/>
<polygon fill="#EFD9C3" points="301,186.2 332.5,179.4 316,186.8 301,186.2 301,186.2 "/>
<polygon fill="#F0D6C0" points="316,186.8 345.2,208.5 332.5,179.4 316,186.8 316,186.8 "/>
<polygon fill="#E1C09F" points="332.5,179.4 349,176 345.2,208.5 332.5,179.4 332.5,179.4 "/>
<polygon fill="#EDCDAE" points="332.5,179.4 349,176 337,152.8 332.5,179.4 332.5,179.4 "/>
<polygon fill="#E8D6BB" points="332.5,179.4 304,178.2 313,168.2 332.5,179.4 332.5,179.4 "/>
<polygon fill="#EDD3B7" points="313,168.2 337,152.8 332.5,179.4 313,168.2 313,168.2 "/>
<polygon fill="#E6C4AC" points="313,168.2 306.2,161.2 337,152.8 313,168.2 313,168.2 "/>
<polygon fill="#F3DAC1" points="306,169.4 297.2,169.3 306.2,161.2 306,169.4 306,169.4 "/>
<polygon fill="#F5DCC4" points="297.2,169.3 297.7,153.3 306.2,161.2 297.2,169.3 297.2,169.3 "/>
<polygon fill="#B78258" points="306.2,161.2 337,152.8 327,146.2 306.2,161.2 306.2,161.2 "/>
<polygon fill="#CB8F63" points="306.2,161.2 297.7,153.3 327,146.2 306.2,161.2 306.2,161.2 "/>
<polygon fill="#AE8068" points="297.7,153.3 328,140.2 327,146.2 297.7,153.3 297.7,153.3 "/>
<polygon fill="#E6C6B0" points="383.5,198.5 387.2,207.2 362.2,216.8 383.5,198.5 383.5,198.5 "/>
<polygon fill="#AF7B58" points="362.2,216.8 343.2,224 356,228 362.2,216.8 362.2,216.8 "/>
<polygon fill="#C78E6C" points="343.2,224 310.6,231.5 325.5,239 343.2,224 343.2,224 "/>
<polygon fill="#DDA473" points="301,245.5 325.5,239 310.6,231.5 301,245.5 301,245.5 "/>
<polygon fill="#BC8F71" points="325.5,239 343.2,224 356,228 325.5,239 325.5,239 "/>
<polygon fill="#EACAAF" points="356,228 387.2,207.2 362.2,216.8 356,228 356,228 "/>
<polygon fill="#F1DBC2" points="287.8,209.2 295.8,228.8 310.6,231.5 287.8,209.2 287.8,209.2 "/>
<polygon fill="#DFB99A" points="369.8,179 385,169.8 383.5,198.5 369.8,179 "/>
<polygon fill="#897D8F" points="387.2,207.2 395.5,227 356,228 387.2,207.2 387.2,207.2 "/>
<polygon fill="#7E7182" points="356,228 325.5,239 351.8,253.8 356,228 356,228 "/>
<polygon fill="#77676D" points="325.5,239 301,245.5 319.3,270 325.5,239 325.5,239 "/>
<polygon fill="#8B7985" points="319.3,270 325.5,239 351.8,253.8 319.3,270 319.3,270 "/>
<polygon fill="#C4B9BB" points="301,245.5 273,261.2 276.5,244.5 301,245.5 301,245.5 "/>
<polygon fill="#300B42" points="301,245.5 301.8,261 319.3,270 301,245.5 301,245.5 "/>
<polygon fill="#5E4954" points="301,245.5 289,257 273,261.2 301,245.5 301,245.5 "/>
<polygon fill="#523D4B" points="289,257 301.8,261 301,245.5 289,257 289,257 "/>
<polygon fill="#9D8091" points="372.8,241.2 395.5,227 356,228 372.8,241.2 372.8,241.2 "/>
<polygon fill="#97898E" points="372.8,241.2 351.8,253.8 356,228 372.8,241.2 372.8,241.2 "/>
<polygon fill="#A39B9A" points="408.9,240.4 416,242.2 417,266.5 408.9,240.4 408.9,240.4 "/>
<polygon fill="#B0A2A0" points="408.9,240.4 391,240.5 417,266.5 408.9,240.4 408.9,240.4 "/>
<polygon fill="#A79C9C" points="416,242.2 417,266.5 442.8,273.2 416,242.2 416,242.2 "/>
<polygon fill="#B6A9AD" points="395.5,227 408.9,240.4 391,240.5 395.5,227 395.5,227 "/>
<polygon fill="#BEB2B4" points="395.5,227 372.8,241.2 391,240.5 395.5,227 395.5,227 "/>
<polygon fill="#928485" points="442.8,273.2 464,311.5 441.8,296.2 442.8,273.2 442.8,273.2 "/>
<polygon fill="#FDFCE7" points="412,283 440,317.7 407.8,338.8 412,283 412,283 "/>
<polygon fill="#FFFFFF" points="412,283 376,304.5 407.8,338.8 412,283 412,283 "/>
<polygon fill="#F8F9E0" points="376,304.5 367.5,343.2 407.8,338.8 376,304.5 376,304.5 "/>
<polygon fill="#FAF8D2" points="237,293.8 242,286 244.2,294.8 237,293.8 237,293.8 "/>
<polygon fill="#F7F3CE" points="244.2,294.8 249.5,298.2 241.2,301 244.2,294.8 244.2,294.8 "/>
<polygon fill="#EBD690" points="237,293.8 227.6,294.8 231.7,301.8 237,293.8 237,293.8 "/>
<polygon fill="#EBD690" points="231.7,301.8 227.6,307.9 235.8,303.2 231.7,301.8 231.7,301.8 "/>
<polygon fill="#F6E0A7" points="235.8,303.2 240.2,310 241.2,301 235.8,303.2 235.8,303.2 "/>
<polygon fill="#FAF4A8" points="235.8,303.2 237,293.8 231.7,301.8 235.8,303.2 235.8,303.2 "/>
<polygon fill="#FAF4A8" points="235.8,303.2 241.2,301 237,293.8 235.8,303.2 235.8,303.2 "/>
<polygon fill="#FAF4A8" points="237,293.8 244.2,294.8 241.2,301 237,293.8 237,293.8 "/>
<polygon fill="#FBE19A" points="319.3,301.8 323.5,295.8 344.5,297.8 319.3,301.8 319.3,301.8 "/>
<polygon fill="#FBE19A" points="319.3,301.8 338,307 344.5,297.8 319.3,301.8 319.3,301.8 "/>
<polygon fill="#FCFADC" points="319.3,301.8 309.2,302.8 308.4,310 319.3,301.8 319.3,301.8 "/>
<polygon fill="#FCFADC" points="308.4,310 341.3,315 319.3,301.8 308.4,310 308.4,310 "/>
<polygon fill="#FBD691" points="308.4,310 308.4,310 325.8,320 341.3,315 308.4,310 308.4,310 "/>
<polygon fill="#FCDEA0" points="341.3,315 334.2,322.8 325.8,320 341.3,315 341.3,315 "/>
<polygon fill="#FCFADB" points="308.4,310 297.1,310.5 295.8,315.2 308.4,310 308.4,310 "/>
<polygon fill="#FCFADB" points="325.8,320 295.8,315.2 308.4,310 325.8,320 325.8,320 "/>
<polygon fill="#FAC687" points="325.8,320 314.1,325.5 295.8,315.2 325.8,320 325.8,320 "/>
<polygon fill="#E9C17F" points="295.8,315.2 283.8,323.7 314.1,325.5 295.8,315.2 295.8,315.2 "/>
<polygon fill="#8F878A" points="237.5,313.5 218.8,324.5 238.2,333.5 237.5,313.5 237.5,313.5 "/>
<polygon fill="#655768" points="218.8,324.5 234.7,349.8 212.5,343 218.8,324.5 218.8,324.5 "/>
<polygon fill="#44244F" points="212.5,343 218.8,367.2 234.7,349.8 212.5,343 212.5,343 "/>
<polygon fill="#48374F" points="218.8,367.2 247.2,388.2 241.2,362.2 218.8,367.2 218.8,367.2 "/>
<polygon fill="#6B5E6A" points="247.2,388.2 284.8,393.8 267.5,375.8 247.2,388.2 247.2,388.2 "/>
<polygon fill="#A39097" points="237.5,313.5 268.2,322 248.2,330.5 237.5,313.5 237.5,313.5 "/>
<polygon fill="#A69BA1" points="268.2,322 283.8,323.7 274.2,343.2 268.2,322 268.2,322 "/>
<polygon fill="#A69BA1" points="283.8,323.7 314.1,325.5 283.2,341.5 283.8,323.7 283.8,323.7 "/>
<polygon fill="#776A74" points="314.1,325.5 298.8,344.2 325.8,320 314.1,325.5 314.1,325.5 "/>
<polygon fill="#877C85" points="325.8,320 315.5,339.5 334.2,322.8 325.8,320 325.8,320 "/>
<polygon fill="#92828A" points="344.5,297.8 349.8,282.8 323.5,295.8 344.5,297.8 344.5,297.8 "/>
<polygon fill="#65585F" points="219.2,316.2 214.2,286.8 203,300.2 219.2,316.2 219.2,316.2 "/>
<polygon fill="#EDC982" points="219.2,316.2 211.5,322.8 218.8,324.5 219.2,316.2 219.2,316.2 "/>
<polygon fill="#FAF7C7" points="219.2,316.2 226.8,312 237.5,313.5 219.2,316.2 219.2,316.2 "/>
<polygon fill="#EDC982" points="219.2,316.2 218.8,324.5 237.5,313.5 219.2,316.2 219.2,316.2 "/>
<polygon fill="#CF9F54" points="211.5,322.8 212.5,343 218.8,324.5 211.5,322.8 211.5,322.8 "/>
<polygon fill="#CF9F54" points="211.5,322.8 204.8,340.8 212.5,343 211.5,322.8 211.5,322.8 "/>
<polygon fill="#78696A" points="217.5,262.5 239.5,256.5 242,286 217.5,262.5 217.5,262.5 "/>
<polygon fill="#361B50" points="217.5,262.5 186.5,299 214.2,286.8 217.5,262.5 217.5,262.5 "/>
<polygon fill="#65585F" points="186.5,299 154,327 211.5,322.8 186.5,299 186.5,299 "/>
<polygon fill="#6E5E6F" points="186.5,299 214.2,286.8 203,300.2 186.5,299 186.5,299 "/>
<polygon fill="#65585F" points="186.5,299 211.5,322.8 203,300.2 186.5,299 186.5,299 "/>
<polygon fill="#65585F" points="203,300.2 211.5,322.8 219.2,316.2 203,300.2 203,300.2 "/>
<polygon fill="#614A59" points="154,327 130.5,348 172,335 154,327 154,327 "/>
<polygon fill="#503256" points="130.5,348 138.5,396 180.5,367.5 130.5,348 130.5,348 "/>
<polygon fill="#2B0E30" points="138.5,396 145.5,416 180.5,367.5 138.5,396 138.5,396 "/>
<polygon fill="#1B0F1D" points="145.5,416 165,422.5 172.5,391.5 145.5,416 145.5,416 "/>
<polygon fill="#1D0F20" points="165,422.5 208,410.5 187.5,391 165,422.5 165,422.5 "/>
<polygon fill="#210F24" points="208,410.5 247.2,388.2 218.8,367.2 208,410.5 208,410.5 "/>
<polygon fill="#5A475D" points="284.8,393.8 268.5,418 247.2,388.2 284.8,393.8 284.8,393.8 "/>
<polygon fill="#6F5E61" points="268.5,418 375.8,386 284.8,393.8 268.5,418 268.5,418 "/>
<polygon fill="#98888D" points="375.8,386 428,354.5 407.8,338.8 375.8,386 375.8,386 "/>
<polygon fill="#A1959A" points="428,354.5 464,311.5 440,317.7 428,354.5 428,354.5 "/>
<polygon fill="#9F9091" points="407.8,338.8 440,317.7 428,354.5 407.8,338.8 407.8,338.8 "/>
<polygon fill="#010101" points="165,422.5 190.5,425 208,410.5 165,422.5 165,422.5 "/>
<polygon fill="#1B0D1B" points="190.5,425 194,451 208,410.5 190.5,425 190.5,425 "/>
<polygon fill="#2B0E30" points="194,451 234,419.5 208,410.5 194,451 194,451 "/>
<polygon fill="#1B0D1B" points="208,410.5 234,419.5 247.2,388.2 208,410.5 208,410.5 "/>
<polygon fill="#1B0D1B" points="234,419.5 247.2,388.2 268.5,418 234,419.5 234,419.5 "/>
<polygon fill="#2B0E30" points="234,419.5 278.1,467 268.5,418 234,419.5 234,419.5 "/>
<polygon fill="#2B0E30" points="268.5,418 375.8,386 278.1,467 268.5,418 268.5,418 "/>
<polygon fill="#300B42" points="278.1,467 322.9,486 375.8,386 278.1,467 278.1,467 "/>
<polygon fill="#300B42" points="322.9,486 362.4,464 375.8,386 322.9,486 322.9,486 "/>
<polygon fill="#2B0E30" points="362.4,464 428,354.5 375.8,386 362.4,464 362.4,464 "/>
<polygon fill="#472952" points="234,419.5 225.5,466.5 194,451 234,419.5 234,419.5 "/>
<polygon fill="#4D3657" points="225.5,466.5 278.1,467 234,419.5 225.5,466.5 225.5,466.5 "/>
<polygon fill="#442355" points="194,451 196,481 225.5,466.5 194,451 194,451 "/>
<polygon fill="#412052" points="196,481 212.8,506 225.5,466.5 196,481 196,481 "/>
<polygon fill="#442353" points="212.8,506 241.4,508.5 225.5,466.5 212.8,506 212.8,506 "/>
<polygon fill="#493659" points="241.4,508.5 295,514 225.5,466.5 241.4,508.5 241.4,508.5 "/>
<polygon fill="#5C4A60" points="225.5,466.5 278.1,467 295,514 225.5,466.5 225.5,466.5 "/>
<polygon fill="#6A5767" points="295,514 278.1,467 322.9,486 295,514 295,514 "/>
<polygon fill="#70626C" points="295,514 347.5,492 322.9,486 295,514 295,514 "/>
<polygon fill="#706368" points="347.5,492 362.4,464 322.9,486 347.5,492 347.5,492 "/>
<polygon fill="#010101" points="212.8,506 212.5,524 243,527 212.8,506 212.8,506 "/>
<polygon fill="#010101" points="212.8,506 241.4,508.5 243,527 212.8,506 212.8,506 "/>
<polygon fill="#010101" points="243,527 299,537 295,514 243,527 243,527 "/>
<polygon fill="#010101" points="243,527 241.4,508.5 295,514 243,527 243,527 "/>
<polygon fill="#080505" points="299,537 321.5,527 295,514 299,537 299,537 "/>
<polygon fill="#333138" points="321.5,527 328,571.8 343.5,534 321.5,527 321.5,527 "/>
<polygon fill="#2C1F31" points="328,571.8 343,588.5 343.5,534 328,571.8 328,571.8 "/>
<polygon fill="#363132" points="343.5,534 321.5,527 343.5,534 343.5,534 "/>
<polygon fill="#363132" points="343.5,534 321.5,527 363.1,499.5 343.5,534 343.5,534 "/>
<path fill="none" stroke="#BF57A1" stroke-miterlimit="10" d="M321.5,527"/>
<polygon fill="#080505" points="295,514 321.5,527 347.5,492 295,514 295,514 "/>
<polygon fill="#211214" points="321.5,527 363.1,499.5 347.5,492 321.5,527 321.5,527 "/>
<polygon fill="#726670" points="362.4,464 363.1,499.5 347.5,492 362.4,464 362.4,464 "/>
<polygon fill="#421F55" points="212.5,524 221.5,575 243,527 212.5,524 212.5,524 "/>
<polygon fill="#3C1A54" points="221.5,575 233,622.5 254,587.5 221.5,575 221.5,575 "/>
<polygon fill="#44244F" points="233,622.5 248.5,672.5 261.7,638.9 233,622.5 233,622.5 "/>
<polygon fill="#33124C" points="248.5,672.5 239.5,707.5 277.5,712 248.5,672.5 248.5,672.5 "/>
<polygon fill="#837788" points="239.5,707.5 200.5,732.5 241.1,727.5 239.5,707.5 239.5,707.5 "/>
<polygon fill="#331B4F" points="200.5,732.5 171,748.5 239,743.5 200.5,732.5 200.5,732.5 "/>
<polygon fill="#837788" points="200.5,732.5 241.1,727.5 239,743.5 200.5,732.5 200.5,732.5 "/>
<polygon fill="#3F1D55" points="239,743.5 277.5,712 241.1,727.5 239,743.5 239,743.5 "/>
<polygon fill="#3F1D55" points="241.1,727.5 239.5,707.5 277.5,712 241.1,727.5 241.1,727.5 "/>
<polygon fill="#100C16" points="277.5,712 298,717.5 296.5,726.5 277.5,712 277.5,712 "/>
<polygon fill="#100C16" points="277.5,712 282,730 296.5,726.5 277.5,712 277.5,712 "/>
<polygon fill="#220E2F" points="239,743.5 282,730 277.5,712 239,743.5 239,743.5 "/>
<polygon fill="#3E1C4C" points="298,717.5 304,686.5 277.5,712 298,717.5 298,717.5 "/>
<polygon fill="#431E57" points="248.5,672.5 304,686.5 277.5,712 248.5,672.5 248.5,672.5 "/>
<polygon fill="#411B52" points="304,686.5 294,631 248.5,672.5 304,686.5 304,686.5 "/>
<polygon fill="#200E2F" points="294,631 296,598 261.7,638.9 294,631 294,631 "/>
<polygon fill="#3F1B52" points="261.7,638.9 248.5,672.5 294,631 261.7,638.9 261.7,638.9 "/>
<polygon fill="#503D59" points="299,537 290.5,567.5 328,571.8 299,537 299,537 "/>
<polygon fill="#423838" points="299,537 321.5,527 328,571.8 299,537 299,537 "/>
<polygon fill="#200E2F" points="290.5,567.5 317,625 328,571.8 290.5,567.5 290.5,567.5 "/>
<polygon fill="#270F2A" points="317,625 343,588.5 328,571.8 317,625 317,625 "/>
<polygon fill="#2D0C44" points="296,598 290.5,567.5 254,587.5 296,598 296,598 "/>
<polygon fill="#44244F" points="233,622.5 261.7,638.9 254,587.5 233,622.5 233,622.5 "/>
<polygon fill="#2D0C44" points="254,587.5 296,598 261.7,638.9 254,587.5 254,587.5 "/>
<polygon fill="#431C53" points="254,587.5 243,527 221.5,575 254,587.5 254,587.5 "/>
<polygon fill="#4C1F55" points="254,587.5 290.5,567.5 243,527 254,587.5 254,587.5 "/>
<polygon fill="#48365B" points="290.5,567.5 243,527 299,537 290.5,567.5 290.5,567.5 "/>
<polygon fill="#655D5F" points="343.5,534 363.1,499.5 375,524 343.5,534 343.5,534 "/>
<polygon fill="#675769" points="343.5,534 343,588.5 366.5,575 343.5,534 343.5,534 "/>
<polygon fill="#6C6160" points="343.5,534 375,524 366.5,575 343.5,534 343.5,534 "/>
<polygon fill="#190F24" points="317,625 338,676 348.5,641 317,625 317,625 "/>
<polygon fill="#190F24" points="348.5,641 350.5,703.5 338,676 348.5,641 348.5,641 "/>
<polygon fill="#421F53" points="338,676 336,732 350.5,703.5 338,676 338,676 "/>
<polygon fill="#1A0D3B" points="336,732 375,747 350.5,703.5 336,732 336,732 "/>
<polygon fill="#1D0F20" points="375,747 376,690.5 398.5,681 375,747 375,747 "/>
<polygon fill="#1A0D3B" points="375,747 376,690.5 350.5,703.5 375,747 375,747 "/>
<polygon fill="#4C385A" points="350.5,703.5 348.5,641 376,690.5 350.5,703.5 350.5,703.5 "/>
<polygon fill="#5B4A61" points="376,690.5 398.5,681 377,622.5 376,690.5 376,690.5 "/>
<polygon fill="#5B4C62" points="376,690.5 348.5,641 377,622.5 376,690.5 376,690.5 "/>
<polygon fill="#5B4A61" points="343,588.5 348.5,641 343,588.5 343,588.5 "/>
<polygon fill="#5B4A61" points="348.5,641 377,622.5 343,588.5 348.5,641 348.5,641 "/>
<polygon fill="#68526C" points="343,588.5 366.5,575 377,622.5 343,588.5 343,588.5 "/>
<polygon fill="#36154F" points="336,732 299,759.5 375,747 336,732 336,732 "/>
<polygon fill="#77708C" points="299,759.5 268,781.5 312.5,791 299,759.5 299,759.5 "/>
<polygon fill="#36154F" points="299,759.5 375,747 354,777.5 299,759.5 299,759.5 "/>
<polygon fill="#77708C" points="312.5,791 354,777.5 299,759.5 312.5,791 312.5,791 "/>
<polygon fill="#8F878A" points="237.5,313.5 238.2,333.5 248.2,330.5 237.5,313.5 237.5,313.5 "/>
<polygon fill="#655768" points="218.8,324.5 234.7,349.8 238.2,333.5 218.8,324.5 218.8,324.5 "/>
<polygon fill="#48374F" points="218.8,367.2 234.7,349.8 241.2,362.2 218.8,367.2 218.8,367.2 "/>
<polygon fill="#6A5D68" points="241.2,362.2 247.2,388.2 267.5,375.8 241.2,362.2 241.2,362.2 "/>
<polygon fill="#6A5D68" points="241.2,362.2 234.7,349.8 274.2,343.2 241.2,362.2 241.2,362.2 "/>
<polygon fill="#685867" points="234.7,349.8 238.2,333.5 274.2,343.2 234.7,349.8 234.7,349.8 "/>
<polygon fill="#71636D" points="238.2,333.5 248.2,330.5 274.2,343.2 238.2,333.5 238.2,333.5 "/>
<polygon fill="#A39097" points="248.2,330.5 274.2,343.2 268.2,322 248.2,330.5 248.2,330.5 "/>
<polygon fill="#6A5D69" points="241.2,362.2 274.2,343.2 267.5,375.8 241.2,362.2 241.2,362.2 "/>
<polygon fill="#A69BA1" points="274.2,343.2 283.2,341.5 283.8,323.7 274.2,343.2 274.2,343.2 "/>
<polyline fill="#807876" points="283.2,341.5 283.2,341.5 298.8,344.2 314.1,325.5 "/>
<polygon fill="#837B7F" points="298.8,344.2 315.5,339.5 325.8,320 298.8,344.2 298.8,344.2 "/>
<polygon fill="#736671" points="274.2,343.2 283.2,341.5 267.5,375.8 274.2,343.2 274.2,343.2 "/>
<polygon fill="#776A74" points="283.2,341.5 298.8,344.2 267.5,375.8 283.2,341.5 283.2,341.5 "/>
<polygon fill="#776A74" points="267.5,375.8 284.8,393.8 298.8,344.2 267.5,375.8 267.5,375.8 "/>
<polygon fill="#80757F" points="284.8,393.8 375.8,386 298.8,344.2 284.8,393.8 284.8,393.8 "/>
<polygon fill="#80757F" points="298.8,344.2 375.8,386 315.5,339.5 298.8,344.2 298.8,344.2 "/>
<polygon fill="#948187" points="334.2,322.8 367.5,343.2 315.5,339.5 334.2,322.8 334.2,322.8 "/>
<polygon fill="#89787F" points="315.5,339.5 375.8,386 367.5,343.2 315.5,339.5 315.5,339.5 "/>
<polygon fill="#98888D" points="367.5,343.2 407.8,338.8 375.8,386 367.5,343.2 367.5,343.2 "/>
<polygon fill="#948187" points="334.2,322.8 376,304.5 367.5,343.2 334.2,322.8 334.2,322.8 "/>
<polygon fill="#889096" points="334.2,322.8 341.3,315 376,304.5 334.2,322.8 334.2,322.8 "/>
<polygon fill="#48374F" points="341.3,315 338,307 319.3,301.8 341.3,315 341.3,315 "/>
<polygon fill="#A79B9F" points="338,307 341.3,315 376,304.5 338,307 338,307 "/>
<polygon fill="#8E7C87" points="338,307 344.5,297.8 376,304.5 338,307 338,307 "/>
<polygon fill="#A09197" points="440,317.7 441.8,296.2 464,311.5 440,317.7 440,317.7 "/>
<polygon fill="#A28FA1" points="440,317.7 412,283 441.8,296.2 440,317.7 440,317.7 "/>
<polygon fill="#847282" points="412,283 442.8,273.2 441.8,296.2 412,283 412,283 "/>
<polygon fill="#928386" points="412,283 417,266.5 442.8,273.2 412,283 412,283 "/>
<polygon fill="#9D8B91" points="376,304.5 365.5,270.5 412,283 376,304.5 376,304.5 "/>
<polygon fill="#A08B92" points="365.5,270.5 417,266.5 412,283 365.5,270.5 365.5,270.5 "/>
<polygon fill="#B8ABB2" points="365.5,270.5 391,240.5 417,266.5 365.5,270.5 365.5,270.5 "/>
<polygon fill="#B9ADB1" points="365.5,270.5 372.8,241.2 391,240.5 365.5,270.5 365.5,270.5 "/>
<polygon fill="#C4B9BB" points="351.8,253.8 372.8,241.2 365.5,270.5 351.8,253.8 351.8,253.8 "/>
<polygon fill="#95878A" points="344.5,297.8 349.8,282.8 376,304.5 344.5,297.8 344.5,297.8 "/>
<polygon fill="#9A898D" points="349.8,282.8 365.5,270.5 376,304.5 349.8,282.8 349.8,282.8 "/>
<polygon fill="#978491" points="349.8,282.8 351.8,253.8 365.5,270.5 349.8,282.8 349.8,282.8 "/>
<polygon fill="#978491" points="349.8,282.8 319.3,270 351.8,253.8 349.8,282.8 349.8,282.8 "/>
<polygon fill="#92828A" points="349.8,282.8 323.5,295.8 319.3,270 349.8,282.8 349.8,282.8 "/>
<polygon fill="#8E8288" points="319.3,270 319.3,301.8 323.5,295.8 319.3,270 319.3,270 "/>
<polygon fill="#8E8288" points="309.2,302.8 319.3,301.8 319.3,270 309.2,302.8 309.2,302.8 "/>
<polygon fill="#89777F" points="309.2,302.8 297.1,310.5 308.4,310 309.2,302.8 309.2,302.8 "/>
<polygon fill="#7D6F80" points="295.8,315.2 297.1,310.5 283.8,323.7 295.8,315.2 295.8,315.2 "/>
<polygon fill="#89777F" points="297.1,310.5 301.8,261 309.2,302.8 297.1,310.5 297.1,310.5 "/>
<polygon fill="#89777F" points="309.2,302.8 301.8,261 319.3,270 309.2,302.8 309.2,302.8 "/>
<polygon fill="#85767C" points="301.8,261 289,257 297.1,310.5 301.8,261 301.8,261 "/>
<polygon fill="#78696A" points="242,286 214.2,286.8 217.5,262.5 242,286 242,286 "/>
<polygon fill="#716279" points="242,286 237,293.8 227.6,294.8 242,286 242,286 "/>
<polygon fill="#716279" points="227.6,294.8 214.2,286.8 242,286 227.6,294.8 227.6,294.8 "/>
<polygon fill="#686679" points="231.7,301.8 227.6,294.8 227.6,307.9 231.7,301.8 231.7,301.8 "/>
<polygon fill="#686679" points="227.6,307.9 214.2,286.8 227.6,294.8 227.6,307.9 227.6,307.9 "/>
<polygon fill="#665E53" points="214.2,286.8 219.2,316.2 227.6,307.9 214.2,286.8 214.2,286.8 "/>
<polygon fill="#73615F" points="237.5,313.5 227.6,307.9 235.8,303.2 237.5,313.5 237.5,313.5 "/>
<polygon fill="#796C73" points="241.2,301 268.2,322 240.2,310 241.2,301 241.2,301 "/>
<polygon fill="#796C73" points="241.2,301 249.5,298.2 268.2,322 241.2,301 241.2,301 "/>
<polygon fill="#796C73" points="249.5,298.2 283.8,323.7 268.2,322 249.5,298.2 249.5,298.2 "/>
<polygon fill="#7B6D73" points="249.5,298.2 244.2,294.8 242,286 249.5,298.2 249.5,298.2 "/>
<polygon fill="#7D7178" points="239.5,256.5 273,261.2 276.5,244.5 239.5,256.5 239.5,256.5 "/>
<polygon fill="#B0A2A0" points="276.5,244.5 301,245.5 295.8,228.8 276.5,244.5 276.5,244.5 "/>
<polygon fill="#DCAA83" points="295.8,228.8 301,245.5 310.6,231.5 295.8,228.8 295.8,228.8 "/>
<polygon fill="#7C7079" points="242,286 273,261.2 239.5,256.5 242,286 242,286 "/>
<polygon fill="#7B6D73" points="242,286 249.5,298.2 289,257 242,286 242,286 "/>
<polygon fill="#7C7079" points="242,286 273,261.2 289,257 242,286 242,286 "/>
<polygon fill="#7C717B" points="249.5,298.2 283.8,323.7 289,257 249.5,298.2 249.5,298.2 "/>
<polygon fill="#7D6F80" points="283.8,323.7 297.1,310.5 289,257 283.8,323.7 283.8,323.7 "/>
<polygon fill="#614C61" points="172,335 204.8,340.8 211.5,322.8 172,335 172,335 "/>
<polygon fill="#65585F" points="172,335 154,327 211.5,322.8 172,335 172,335 "/>
<polygon fill="#54425F" points="172,335 130.5,348 180.5,367.5 172,335 172,335 "/>
<polygon fill="#2B0E30" points="180.5,367.5 172.5,391.5 145.5,416 180.5,367.5 180.5,367.5 "/>
<path fill="none" stroke="#BF57A1" stroke-miterlimit="10" d="M172.5,391.5"/>
<polygon fill="#1D0F20" points="172.5,391.5 187.5,391 165,422.5 172.5,391.5 172.5,391.5 "/>
<polygon fill="#1D0F20" points="187.5,391 218.8,367.2 208,410.5 187.5,391 187.5,391 "/>
<polygon fill="#300B42" points="187.5,391 180.5,367.5 172.5,391.5 187.5,391 187.5,391 "/>
<polygon fill="#1D0F20" points="187.5,391 218.8,367.2 180.5,367.5 187.5,391 187.5,391 "/>
<polygon fill="#5B4A62" points="180.5,367.5 212.5,343 218.8,367.2 180.5,367.5 180.5,367.5 "/>
<polygon fill="#54455E" points="172,335 180.5,367.5 204.8,340.8 172,335 172,335 "/>
<polygon fill="#775D6C" points="180.5,367.5 204.8,340.8 212.5,343 180.5,367.5 180.5,367.5 "/>
<polygon fill="#73615F" points="227.6,307.9 226.8,312 237.5,313.5 227.6,307.9 227.6,307.9 "/>
<polygon fill="#665E53" points="227.6,307.9 219.2,316.2 226.8,312 227.6,307.9 227.6,307.9 "/>
<polygon fill="#73615F" points="237.5,313.5 235.8,303.2 240.2,310 237.5,313.5 237.5,313.5 "/>
<polygon fill="#796C73" points="237.5,313.5 240.2,310 268.2,322 237.5,313.5 237.5,313.5 "/>
<polygon fill="#200E2F" points="343,588.5 317,625 348.5,641 343,588.5 "/>
<polygon fill="#74617B" points="279.3,52.3 265.7,72.3 285,77 279.3,52.3 279.3,52.3 "/>
<polygon fill="#725C7B" points="279.3,52.3 312.3,63.7 285,77 279.3,52.3 279.3,52.3 "/>
<polygon fill="#614162" points="265.7,72.3 256,105 285,77 265.7,72.3 265.7,72.3 "/>
<polygon fill="#2B0E31" points="256,105 282,112.7 285,77 256,105 256,105 "/>
<polygon fill="#674A69" points="285,77 312.3,63.7 296.7,84 285,77 285,77 "/>
<polygon fill="#725B7D" points="296.7,84 328.3,68.7 312.3,63.7 296.7,84 296.7,84 "/>
<polygon fill="#543157" points="328.3,68.7 344.3,74.3 321.3,100 328.3,68.7 328.3,68.7 "/>
<polygon fill="#48294D" points="344.3,74.3 384.7,85.3 344.7,109 344.3,74.3 344.3,74.3 "/>
<polygon fill="#2D102F" points="384.7,85.3 415,93.3 378,106.7 384.7,85.3 384.7,85.3 "/>
<polygon fill="#1E0F24" points="384.7,85.3 344.7,109 378,106.7 384.7,85.3 384.7,85.3 "/>
<polygon fill="#48204F" points="344.7,109 344.3,74.3 321.3,100 344.7,109 344.7,109 "/>
<polygon fill="#584469" points="296.7,84 321.3,100 328.3,68.7 296.7,84 296.7,84 "/>
<polygon fill="#F7F5E4" points="296.7,84 285,77 282,112.7 296.7,84 296.7,84 "/>
<polygon fill="#F7F5E4" points="296.7,84 321.3,100 282,112.7 296.7,84 296.7,84 "/>
<polygon fill="#1D0F20" points="321.3,100 344.7,109 317.7,113.7 321.3,100 321.3,100 "/>
<polygon fill="#E3E1D1" points="317.7,113.7 282,112.7 321.3,100 317.7,113.7 317.7,113.7 "/>
<polygon fill="#E3E1D1" points="282,112.7 302.3,120.7 317.7,113.7 282,112.7 282,112.7 "/>
<polygon fill="#90778D" points="282,112.7 288,131.7 302.3,120.7 282,112.7 282,112.7 "/>
<polygon fill="#A696A2" points="302.3,120.7 317.7,113.7 323.5,130.8 302.3,120.7 302.3,120.7 "/>
<polygon fill="#6D5067" points="317.7,113.7 344.7,109 323.5,130.8 317.7,113.7 317.7,113.7 "/>
<polygon fill="#4A154A" points="344.7,109 378,106.7 364.3,125.3 344.7,109 344.7,109 "/>
<polygon fill="#5B4159" points="364.3,125.3 382,119.7 378,106.7 364.3,125.3 364.3,125.3 "/>
<polygon fill="#532F63" points="323.5,130.8 364.3,125.3 344.7,109 323.5,130.8 323.5,130.8 "/>
<polygon fill="#947892" points="288,131.7 302.3,120.7 323.5,130.8 288,131.7 288,131.7 "/>
<polygon fill="#AD9CA0" points="288,131.7 270.3,150.7 323.5,130.8 288,131.7 288,131.7 "/>
<polygon fill="#9E8A95" points="270.3,150.7 297.7,153.3 323.5,130.8 270.3,150.7 270.3,150.7 "/>
<polygon fill="#9B92AE" points="297.7,153.3 340.7,137 323.5,130.8 297.7,153.3 297.7,153.3 "/>
<polygon fill="#A192AF" points="323.5,130.8 364.3,125.3 340.7,137 323.5,130.8 323.5,130.8 "/>
<polygon fill="#17100F" points="382,119.7 384,146.3 364.3,125.3 382,119.7 382,119.7 "/>
<polygon fill="#17100F" points="364.3,125.3 375.8,155.8 384,146.3 364.3,125.3 364.3,125.3 "/>
<polygon fill="#B88C6C" points="384,146.3 391.8,144.5 385,169.8 384,146.3 384,146.3 "/>
<polygon fill="#DDB593" points="384,146.3 375.8,155.8 385,169.8 384,146.3 384,146.3 "/>
<polygon fill="#D3A889" points="385,169.8 383.5,198.5 369.8,179 385,169.8 385,169.8 "/>
</svg>
