<?xml version="1.0" encoding="utf-8"?>
<svg version="1.1" id="character-7" xmlns="http://www.w3.org/2000/svg" xmlns:xlink="http://www.w3.org/1999/xlink" x="0px" y="0px"
	 width="595.3px" height="841.9px" viewBox="0 0 595.3 841.9" enable-background="new 0 0 595.3 841.9" xml:space="preserve">
<path fill="#B54F4C" d="M396.8,387.5l-13.5-40.2L382,317l22.2-21l-1.8-45.8l17.5-40.5l-9.5-31.5L394.7,147l17-22l9.3-31.3l-11.7-29
	L381.7,47l-21,8l-13-20.3l-21.7-10l-19,0.7l-15,5l-5.3,10.3l-35.3,0.7l-21,24.7l-8.7,27.3l5.7,26.3l-33.6-2.5l-31.9-7L140,113
	l-16,41.8l-6,43.2l-1.2,55.2l-4.2,20.2l12,33.2l9,22.8l15,8l-7.2-54.8l30.5,10.5l-19-23.2l-11.8-8.8l4-36.8l23-45.2l20.5-0.5
	L207,198l5.8,30.5l20,29.5l2.8,33.2l8,15.8l-5,34.9l-26.3,1.1l-16,8.5l-23.2,7.2l-12.8,17.5l26.9-8.6l-18.4,12.6l-5.5,17.2l4.2,13
	l11-7.2l-1,8.5l13.8-6l0.8,3.8l-15.5,45.8l-10,55.2l-13,51l-1,29.2l-4.8,39l-0.2,65l-7.8,38.2L122,749.5l8.8,19.2l-7,13.2l-11,5.2
	l-5.2,20.2l12,11l51-1l5-26l-1-20.2l-4.2-27.5l19-75l17.5-54.2l12.8-55.5l28-45.6l28.2-40.4l22-35l25-0.8l45.5,71l43.2,46.5l-1,44
	l-4.8,48.2l15.8,31.8L434,721l0.3,1l3.2,24.2l-3.5,23.5l-1,27.2l26,7.5l24,0.5l-4.2-10.2l9.5-16l-10-14.8l-2.2-12l-8.5-15.5
	l-6.2-51.8l4.2-46L459,594l-10-31.5l0.5-66l-27.2-55.3l-25.7-53.7 M396.6,387.6"/>
<polygon fill="#B64846" points="276.7,72.7 278.3,60.3 287,74.7 276.7,72.7 276.7,72.7 "/>
<polygon fill="#C23B38" points="278.3,60.3 289.3,55 287,74.7 278.3,60.3 278.3,60.3 "/>
<polygon fill="#B82F29" points="289.3,55 299.7,62.3 287,74.7 289.3,55 289.3,55 "/>
<polygon fill="#992A25" points="287,74.7 299,79.3 299.7,62.3 287,74.7 287,74.7 "/>
<polygon fill="#D2CBC7" points="299.7,62.3 308.7,43.4 316.7,57.7 299.7,62.3 299.7,62.3 "/>
<polygon fill="#8E7D69" points="308.7,43.4 316.7,57.7 327.3,44.3 308.7,43.4 308.7,43.4 "/>
<polygon fill="#867C70" points="327.3,44.3 337,64.7 316.7,57.7 327.3,44.3 327.3,44.3 "/>
<polygon fill="#9C8F85" points="316.7,57.7 328.7,71.7 337,64.7 316.7,57.7 316.7,57.7 "/>
<polygon fill="#56483B" points="299.7,62.3 328.7,71.7 316.7,57.7 299.7,62.3 299.7,62.3 "/>
<polygon fill="#8E7D69" points="289.3,55 286.7,40.7 275.7,47 289.3,55 289.3,55 "/>
<polygon fill="#E4CAA5" points="275.7,47 274.3,52.7 289.3,55 275.7,47 275.7,47 "/>
<polygon fill="#413329" points="274.3,52.7 278.3,60.3 289.3,55 274.3,52.7 274.3,52.7 "/>
<polygon fill="#E5DCD0" points="299,79.3 306,108.7 290,90.3 299,79.3 299,79.3 "/>
<polygon fill="#E7DCD2" points="287,74.7 290,90.3 299,79.3 287,74.7 287,74.7 "/>
<polygon fill="#EDE3D9" points="287,74.7 276.7,72.7 268.3,87.3 287,74.7 287,74.7 "/>
<polygon fill="#E5DDD2" points="268.3,87.3 290,90.3 287,74.7 268.3,87.3 268.3,87.3 "/>
<polygon fill="#B82926" points="268.3,87.3 272.3,101 290,90.3 268.3,87.3 268.3,87.3 "/>
<polygon fill="#FFFFFF" points="272.3,101 290.3,100.7 290,90.3 272.3,101 272.3,101 "/>
<polygon fill="#B82926" points="290.3,100.7 306,108.7 290,90.3 290.3,100.7 290.3,100.7 "/>
<polygon fill="#A93939" points="272.3,101 266.3,113.3 268.3,87.3 272.3,101 272.3,101 "/>
<polygon fill="#B0403F" points="266.3,113.3 271.3,125.7 265.7,128.3 266.3,113.3 266.3,113.3 "/>
<polygon fill="#B0403F" points="265.7,128.3 281.7,135.3 271.3,125.7 265.7,128.3 265.7,128.3 "/>
<polygon fill="#B82926" points="271.3,125.7 288,126.7 281.7,135.3 271.3,125.7 271.3,125.7 "/>
<polygon fill="#A63F3E" points="281.7,135.3 294.7,130.7 288,126.7 281.7,135.3 281.7,135.3 "/>
<polygon fill="#94231F" points="288,126.7 306,108.7 294.7,130.7 288,126.7 288,126.7 "/>
<polygon fill="#E3DBCC" points="271.3,125.7 266.3,113.3 288,126.7 271.3,125.7 271.3,125.7 "/>
<polygon fill="#010101" points="272.3,101 266.3,113.3 288,126.7 272.3,101 272.3,101 "/>
<polygon fill="#010101" points="272.3,101 290.3,100.7 288,126.7 272.3,101 272.3,101 "/>
<polygon fill="#010101" points="290.3,100.7 306,108.7 288,126.7 290.3,100.7 290.3,100.7 "/>
<polygon fill="#E9DCC9" points="299,79.3 299.7,62.3 328.7,71.7 299,79.3 299,79.3 "/>
<polygon fill="#E9DFD5" points="274.3,52.7 261.7,74.3 276.7,72.7 274.3,52.7 274.3,52.7 "/>
<polygon fill="#E2D7BE" points="274.3,52.7 278.3,60.3 276.7,72.7 274.3,52.7 274.3,52.7 "/>
<polygon fill="#C7C1B6" points="261.7,74.3 268.3,87.3 276.7,72.7 261.7,74.3 261.7,74.3 "/>
<polygon fill="#DCD6C6" points="261.7,74.3 255.7,95.3 268.3,87.3 261.7,74.3 261.7,74.3 "/>
<polygon fill="#DCD8CE" points="255.7,95.3 266.3,113.3 268.3,87.3 255.7,95.3 255.7,95.3 "/>
<polygon fill="#EFE1CA" points="255.7,95.3 258,134.7 266.3,113.3 255.7,95.3 255.7,95.3 "/>
<polygon fill="#DBC7AA" points="266.3,113.3 258,134.7 265.7,128.3 266.3,113.3 266.3,113.3 "/>
<polygon fill="#E6E6DB" points="258,134.7 264.7,150.7 265.7,128.3 258,134.7 258,134.7 "/>
<polygon fill="#E6E0D4" points="264.7,150.7 279.7,153.7 265.7,128.3 264.7,150.7 264.7,150.7 "/>
<polygon fill="#E6DCD2" points="265.7,128.3 281.7,135.3 279.7,153.7 265.7,128.3 265.7,128.3 "/>
<polygon fill="#E2DCD1" points="281.7,135.3 294.7,130.7 297,151.7 281.7,135.3 281.7,135.3 "/>
<polygon fill="#E1DAD0" points="281.7,135.3 279.7,153.7 297,151.7 281.7,135.3 281.7,135.3 "/>
<polygon fill="#EBE5DA" points="294.7,130.7 306,108.7 311.3,139.7 294.7,130.7 294.7,130.7 "/>
<polygon fill="#E5DFD5" points="294.7,130.7 297,151.7 311.3,139.7 294.7,130.7 294.7,130.7 "/>
<polygon fill="#E8E0D7" points="311.3,139.7 335,105.7 306,108.7 311.3,139.7 311.3,139.7 "/>
<polygon fill="#EAE7DB" points="299,79.3 306,108.7 335,105.7 299,79.3 299,79.3 "/>
<polygon fill="#E5DDD2" points="299,79.3 328.7,71.7 335,105.7 299,79.3 299,79.3 "/>
<polygon fill="#DBD6CD" points="328.7,71.7 337,64.7 353.3,78.3 328.7,71.7 328.7,71.7 "/>
<polygon fill="#DBD4CA" points="337,64.7 360.7,55 366.7,73.7 337,64.7 337,64.7 "/>
<polygon fill="#CBC1B5" points="337,64.7 353.3,78.3 366.7,73.7 337,64.7 337,64.7 "/>
<polygon fill="#DDD3CA" points="337,64.7 327.3,44.3 360.7,55 337,64.7 337,64.7 "/>
<polygon fill="#E7DCD2" points="327.3,44.3 347.7,34.7 360.7,55 327.3,44.3 327.3,44.3 "/>
<polygon fill="#C1B2A9" points="308.7,43.4 289.3,55 299.7,62.3 308.7,43.4 308.7,43.4 "/>
<polygon fill="#E5DDD2" points="289.3,55 286.7,40.7 308.7,43.4 289.3,55 289.3,55 "/>
<polygon fill="#E04645" points="360.7,55 381.7,47 389.3,66.3 360.7,55 360.7,55 "/>
<polygon fill="#E54C45" points="360.7,55 366.7,73.7 389.3,66.3 360.7,55 360.7,55 "/>
<polygon fill="#C53B32" points="381.7,47 409.3,64.7 389.3,66.3 381.7,47 381.7,47 "/>
<polygon fill="#E03E32" points="409.3,64.7 421,93.7 393.7,88.7 409.3,64.7 409.3,64.7 "/>
<polygon fill="#DC4945" points="421,93.7 411.7,125 394.7,103.3 421,93.7 421,93.7 "/>
<polygon fill="#DF453A" points="411.7,125 394.7,147 383,130 411.7,125 411.7,125 "/>
<polygon fill="#E04238" points="394.7,147 365,144.3 383,130 394.7,147 394.7,147 "/>
<polygon fill="#EA4844" points="331.7,140.3 335,105.7 357.7,119.3 331.7,140.3 331.7,140.3 "/>
<polygon fill="#E5DDD2" points="335,105.7 353.3,78.3 328.7,71.7 335,105.7 335,105.7 "/>
<polygon fill="#DD3E30" points="335,105.7 357.7,119.3 353.3,78.3 335,105.7 335,105.7 "/>
<polygon fill="#F15B57" points="357.7,119.3 383,130 365,144.3 357.7,119.3 357.7,119.3 "/>
<polygon fill="#D7392D" points="383,130 394.7,103.3 411.7,125 383,130 383,130 "/>
<polygon fill="#F15753" points="357.7,119.3 394.7,103.3 383,130 357.7,119.3 357.7,119.3 "/>
<polygon fill="#D93E35" points="353.3,78.3 394.7,103.3 357.7,119.3 353.3,78.3 353.3,78.3 "/>
<polygon fill="#E34841" points="353.3,78.3 366.7,73.7 394.7,103.3 353.3,78.3 353.3,78.3 "/>
<polygon fill="#EF5753" points="366.7,73.7 389.3,66.3 393.7,88.7 366.7,73.7 366.7,73.7 "/>
<polygon fill="#D2423B" points="389.3,66.3 409.3,64.7 393.7,88.7 389.3,66.3 389.3,66.3 "/>
<polygon fill="#D63B2E" points="366.7,73.7 394.7,103.3 393.7,88.7 366.7,73.7 366.7,73.7 "/>
<polygon fill="#CA362E" points="394.7,103.3 393.7,88.7 421,93.7 394.7,103.3 394.7,103.3 "/>
<polygon fill="#CD403E" points="286.7,40.7 251.3,41.3 275.7,47 286.7,40.7 286.7,40.7 "/>
<polygon fill="#CC3A32" points="251.3,41.3 230.3,66 254,55 251.3,41.3 251.3,41.3 "/>
<polygon fill="#D93C32" points="230.3,66 221.7,93.3 244.4,72.8 230.3,66 230.3,66 "/>
<polygon fill="#DE3D31" points="221.7,93.3 227.3,119.7 241,92 221.7,93.3 221.7,93.3 "/>
<polygon fill="#E64A44" points="227.3,119.7 239,143.3 240.7,113.7 227.3,119.7 227.3,119.7 "/>
<polygon fill="#B42E2C" points="239,143.3 253.3,155.3 258,134.7 239,143.3 239,143.3 "/>
<polygon fill="#E44840" points="239,143.3 240.7,113.7 258,134.7 239,143.3 239,143.3 "/>
<polygon fill="#CD362E" points="240.7,113.7 255.7,95.3 258,134.7 240.7,113.7 240.7,113.7 "/>
<polygon fill="#E95049" points="240.7,113.7 241,92 227.3,119.7 240.7,113.7 240.7,113.7 "/>
<polygon fill="#E5433C" points="240.7,113.7 241,92 255.7,95.3 240.7,113.7 240.7,113.7 "/>
<polygon fill="#D93B32" points="221.7,93.3 244.4,72.8 241,92 221.7,93.3 221.7,93.3 "/>
<polygon fill="#E13D33" points="254,55 230.3,66 244.4,72.8 254,55 254,55 "/>
<polygon fill="#F15852" points="254,55 275.7,47 251.3,41.3 254,55 254,55 "/>
<polygon fill="#C5352E" points="254,55 274.3,52.7 275.7,47 254,55 254,55 "/>
<polygon fill="#DC3B2E" points="244.4,72.8 261.7,74.3 254,55 244.4,72.8 244.4,72.8 "/>
<polygon fill="#DC3D30" points="261.7,74.3 254,55 274.3,52.7 261.7,74.3 261.7,74.3 "/>
<polygon fill="#C5342D" points="244.4,72.8 244.4,72.8 255.7,95.3 261.7,74.3 244.4,72.8 244.4,72.8 "/>
<polygon fill="#D73B2F" points="241,92 255.7,95.3 244.4,72.8 241,92 241,92 "/>
<polygon fill="#E8C59A" points="311.3,139.7 331.7,140.3 335,105.7 311.3,139.7 311.3,139.7 "/>
<polygon fill="#918271" points="311.3,139.7 311,140 297,151.7 312,176 311.3,139.7 311.3,139.7 "/>
<polygon fill="#BB9D7C" points="311.3,139.7 331.7,140.3 326.7,169.7 311.3,139.7 311.3,139.7 "/>
<polygon fill="#952422" points="253.3,155.3 264.7,150.7 258,134.7 253.3,155.3 253.3,155.3 "/>
<polygon fill="#9F8A71" points="253.3,155.3 269,179.7 264.7,150.7 253.3,155.3 253.3,155.3 "/>
<polygon fill="#B3997B" points="264.7,150.7 279.7,153.7 269,179.7 264.7,150.7 264.7,150.7 "/>
<polygon fill="#A69F98" points="279.7,153.7 297,151.7 294.7,181.7 279.7,153.7 279.7,153.7 "/>
<polygon fill="#DBB18E" points="269,179.7 294.7,181.7 279.7,153.7 269,179.7 269,179.7 "/>
<polygon fill="#918271" points="297,151.7 312,176 297,151.7 297,151.7 "/>
<polygon fill="#DBB18E" points="294.7,181.7 297,151.7 312,176 294.7,181.7 294.7,181.7 "/>
<polygon fill="#DBB18E" points="312,176 326.7,169.7 311.3,139.7 312,176 312,176 "/>
<polygon fill="#EBCC9F" points="326.7,169.7 319.7,208.5 312,176 326.7,169.7 326.7,169.7 "/>
<polygon fill="#EBCC9F" points="326.7,169.7 340.5,181.5 319.7,208.5 326.7,169.7 326.7,169.7 "/>
<polygon fill="#EBCC9F" points="294.7,181.7 301,207.2 312,176 294.7,181.7 294.7,181.7 "/>
<polygon fill="#DBB18E" points="312,176 301,207.2 319.7,208.5 312,176 312,176 "/>
<polygon fill="#EBCC9F" points="269,179.7 301,207.2 294.7,181.7 269,179.7 269,179.7 "/>
<polygon fill="#AD9579" points="340.5,181.5 342,159.5 326.7,169.7 340.5,181.5 340.5,181.5 "/>
<polygon fill="#EBCC9F" points="342,159.5 326.7,169.7 331.7,140.3 342,159.5 342,159.5 "/>
<polygon fill="#DBB18E" points="342,159.5 344.5,141.8 331.7,140.3 342,159.5 342,159.5 "/>
<polygon fill="#EA4844" points="344.5,141.8 331.7,140.3 357.7,119.3 344.5,141.8 344.5,141.8 "/>
<polygon fill="#C5312D" points="344.5,141.8 365,144.3 357.7,119.3 344.5,141.8 344.5,141.8 "/>
<polyline fill="#C6B098" points="340.5,181.5 370.8,193.5 344.5,141.8 344.5,141.8 "/>
<polygon fill="#C8AF93" points="365,144.3 344.5,141.8 370.8,193.5 365,144.3 365,144.3 "/>
<polygon fill="#9B1C1F" points="365,144.3 394.7,147 370.8,193.5 365,144.3 365,144.3 "/>
<polygon fill="#F6999E" points="394.7,147 410.5,178.2 394.2,186.2 394.7,147 394.7,147 "/>
<polygon fill="#F5949A" points="410.5,178.2 420,209.8 399,203 410.5,178.2 410.5,178.2 "/>
<polygon fill="#F7A5A6" points="420,209.8 402.5,250.2 400.2,228.8 420,209.8 420,209.8 "/>
<polygon fill="#F15D5E" points="402.5,250.2 404.2,296 383.5,281.5 402.5,250.2 402.5,250.2 "/>
<polygon fill="#C22C2D" points="404.2,296 382,317 383.5,281.5 404.2,296 404.2,296 "/>
<polygon fill="#F04E4A" points="382,317 383.2,347.2 371,313.2 382,317 382,317 "/>
<polygon fill="#CE2127" points="383.2,347.2 376.8,380 367.2,347.4 383.2,347.2 383.2,347.2 "/>
<polygon fill="#B73433" points="355.5,386.5 337,378.8 358,375.8 355.5,386.5 355.5,386.5 "/>
<polygon fill="#F26E71" points="355.5,386.5 376.8,380 358,375.8 355.5,386.5 355.5,386.5 "/>
<polygon fill="#BF3A37" points="358,375.8 367.2,347.4 376.8,380 358,375.8 358,375.8 "/>
<polygon fill="#E6585B" points="328.8,319.2 346.5,307 371,313.2 328.8,319.2 328.8,319.2 "/>
<polygon fill="#F48287" points="328.8,319.2 360.2,325.5 371,313.2 328.8,319.2 328.8,319.2 "/>
<polygon fill="#D53834" points="360.2,325.5 367.2,347.4 371,313.2 360.2,325.5 360.2,325.5 "/>
<polygon fill="#F04F4E" points="367.2,347.4 383.2,347.2 371,313.2 367.2,347.4 367.2,347.4 "/>
<polygon fill="#FAF6BC" points="328.8,319.2 287,337.5 323.2,334 328.8,319.2 328.8,319.2 "/>
<polygon fill="#F29B82" points="337,378.8 306.8,377 329.8,368 337,378.8 337,378.8 "/>
<polygon fill="#FAF7C2" points="238.5,341.9 212.2,343 223,369 238.5,341.9 238.5,341.9 "/>
<polygon fill="#FBD19B" points="212.2,343 196.2,351.5 205,370 212.2,343 212.2,343 "/>
<polygon fill="#FCECB1" points="196.2,351.5 173,358.8 187.2,367.6 196.2,351.5 196.2,351.5 "/>
<polygon fill="#FBDDA4" points="173,358.8 160.2,376.2 187.2,367.6 173,358.8 173,358.8 "/>
<polygon fill="#FBD3A1" points="187.2,367.6 168.8,380.2 185.2,384.2 187.2,367.6 187.2,367.6 "/>
<polygon fill="#FBDDA4" points="168.8,380.2 163.2,397.5 185.2,384.2 168.8,380.2 168.8,380.2 "/>
<polygon fill="#F38272" points="185.2,384.2 178.5,403.2 163.2,397.5 185.2,384.2 185.2,384.2 "/>
<polygon fill="#FCDAA8" points="163.2,397.5 167.5,410.5 178.5,403.2 163.2,397.5 163.2,397.5 "/>
<polygon fill="#AD3036" points="178.5,403.2 177.5,411.8 191.2,405.8 178.5,403.2 178.5,403.2 "/>
<polygon fill="#B1393E" points="191.2,405.8 192,409.5 204.5,406.5 191.2,405.8 191.2,405.8 "/>
<polygon fill="#AD363A" points="204.5,406.5 217.8,404.5 216.2,393 204.5,406.5 204.5,406.5 "/>
<polygon fill="#C26463" points="216.2,393 230.8,392 217.8,404.5 216.2,393 216.2,393 "/>
<polygon fill="#B43A3E" points="178.5,403.2 185.2,384.2 191.2,405.8 178.5,403.2 178.5,403.2 "/>
<polygon fill="#F48374" points="191.2,405.8 201.5,387.5 185.2,384.2 191.2,405.8 191.2,405.8 "/>
<polygon fill="#B1393E" points="191.2,405.8 204.5,406.5 201.5,387.5 191.2,405.8 191.2,405.8 "/>
<polygon fill="#D85350" points="204.5,406.5 201.5,387.5 216.2,393 204.5,406.5 204.5,406.5 "/>
<polygon fill="#FCD8A4" points="185.2,384.2 205,370 187.2,367.6 185.2,384.2 185.2,384.2 "/>
<polyline fill="#FCECB1" points="187.2,367.6 196.2,351.5 205,370 187.2,367.6 "/>
<polygon fill="#FCD8A4" points="185.2,384.2 205,370 201.5,387.5 185.2,384.2 185.2,384.2 "/>
<polygon fill="#F47C65" points="201.5,387.5 216.2,393 205,370 201.5,387.5 201.5,387.5 "/>
<polygon fill="#F47C65" points="205,370 223,369 216.2,393 205,370 205,370 "/>
<polygon fill="#FBD19B" points="205,370 212.2,343 223,369 205,370 205,370 "/>
<polygon fill="#F69582" points="216.2,393 230.8,392 223,369 216.2,393 216.2,393 "/>
<polygon fill="#F69582" points="230.8,392 238,367.8 223,369 230.8,392 230.8,392 "/>
<polygon fill="#FCD8A1" points="223,369 238.5,341.9 238,367.8 223,369 223,369 "/>
<polygon fill="#FCD8A1" points="238,367.8 263.8,365.5 238.5,341.9 238,367.8 238,367.8 "/>
<polygon fill="#FCD7A4" points="263.8,365.5 306.8,377 276.2,349.6 263.8,365.5 263.8,365.5 "/>
<polygon fill="#FCD19E" points="238.5,341.9 276.2,349.6 263.8,365.5 238.5,341.9 238.5,341.9 "/>
<polygon fill="#F9A783" points="323.2,334 306.8,377 287,337.5 323.2,334 323.2,334 "/>
<polygon fill="#F9AF88" points="287,337.5 276.2,349.6 306.8,377 287,337.5 287,337.5 "/>
<polygon fill="#FAB593" points="306.8,377 323.2,334 329.8,368 306.8,377 306.8,377 "/>
<polygon fill="#F2A58A" points="329.8,368 358,375.8 337,378.8 329.8,368 329.8,368 "/>
<polygon fill="#F69685" points="329.8,368 367.2,347.4 358,375.8 329.8,368 329.8,368 "/>
<polygon fill="#FAF6BC" points="323.2,334 328.8,319.2 360.2,325.5 323.2,334 323.2,334 "/>
<polygon fill="#F8A681" points="323.2,334 329.8,368 367.2,347.4 323.2,334 323.2,334 "/>
<polygon fill="#FCD09D" points="323.2,334 360.2,325.5 367.2,347.4 323.2,334 323.2,334 "/>
<polygon fill="#EF3935" points="352,268.8 382,317 383.5,281.5 352,268.8 352,268.8 "/>
<polygon fill="#EF3935" points="352,268.8 368,239.2 383.5,281.5 352,268.8 352,268.8 "/>
<polygon fill="#C2282B" points="368,239.2 370.8,193.5 399,203 368,239.2 368,239.2 "/>
<polygon fill="#F05145" points="370.8,193.5 394.7,147 394.2,186.2 370.8,193.5 370.8,193.5 "/>
<polygon fill="#F04E44" points="370.8,193.5 399,203 394.2,186.2 370.8,193.5 370.8,193.5 "/>
<polygon fill="#F5949C" points="394.2,186.2 399,203 410.5,178.2 394.2,186.2 394.2,186.2 "/>
<polygon fill="#F26A6F" points="420,209.8 399,203 400.2,228.8 420,209.8 420,209.8 "/>
<polygon fill="#C82327" points="368,239.2 383.5,281.5 402.5,250.2 368,239.2 368,239.2 "/>
<polygon fill="#BF2C2D" points="227.3,119.7 193.7,117.2 223.6,159.7 227.3,119.7 227.3,119.7 "/>
<polygon fill="#F16161" points="193.7,117.2 161.8,110.2 166.2,134.1 193.7,117.2 193.7,117.2 "/>
<polygon fill="#F15A5A" points="161.8,110.2 140,113 166.2,134.1 161.8,110.2 161.8,110.2 "/>
<polygon fill="#F15A59" points="140,113 141.2,144.2 166.2,134.1 140,113 140,113 "/>
<polygon fill="#9B1C1F" points="141.2,144.2 155,168 166.2,134.1 141.2,144.2 141.2,144.2 "/>
<polygon fill="#BC3232" points="155,168 168,179.2 166.5,156.5 155,168 155,168 "/>
<polygon fill="#C62B2D" points="168,179.2 188.5,178.8 166.5,156.5 168,179.2 168,179.2 "/>
<polygon fill="#AD3435" points="188.5,178.8 193.2,153.6 207,198 188.5,178.8 188.5,178.8 "/>
<polygon fill="#D43533" points="207,198 212.8,228.5 228.2,219 207,198 207,198 "/>
<polygon fill="#EF433D" points="212.8,228.5 232.8,258 228.2,219 212.8,228.5 212.8,228.5 "/>
<polygon fill="#F15F5F" points="232.8,258 235.5,291.2 244.2,273.5 232.8,258 232.8,258 "/>
<polygon fill="#F15956" points="244.2,273.5 243.5,307 235.5,291.2 244.2,273.5 244.2,273.5 "/>
<polygon fill="#E62826" points="243.5,307 238.5,341.9 256.9,339.8 243.5,307 243.5,307 "/>
<polyline fill="#FAF6BD" points="238.5,341.9 256.9,339.8 276.2,349.6 238.5,341.9 "/>
<polygon fill="#FAF6BD" points="256.9,339.8 273,340 276.2,349.6 256.9,339.8 256.9,339.8 "/>
<polygon fill="#FAF6BD" points="273,339.5 287,337.5 276.2,349.6 273,339.5 273,339.5 "/>
<polygon fill="#805556" points="256.9,339.8 243.5,307 267.2,320.3 256.9,339.8 256.9,339.8 "/>
<polygon fill="#8E6A66" points="256.9,339.8 273,340 267.2,320.3 256.9,339.8 256.9,339.8 "/>
<polygon fill="#C3AC94" points="243.5,307 244.2,273.5 258,288.8 243.5,307 243.5,307 "/>
<polygon fill="#88595A" points="243.5,307 267.2,320.3 258,288.8 243.5,307 243.5,307 "/>
<polygon fill="#D4C5A3" points="258,288.8 250,253 244.2,273.5 258,288.8 258,288.8 "/>
<polygon fill="#8E6866" points="244.2,273.5 232.8,258 250,253 244.2,273.5 244.2,273.5 "/>
<polygon fill="#F1818E" points="253.3,155.3 237.5,206.2 269,179.7 253.3,155.3 253.3,155.3 "/>
<polygon fill="#F5909C" points="237.5,206.2 301,207.2 269,179.7 237.5,206.2 237.5,206.2 "/>
<polygon fill="#5C272E" points="301,207.2 254.2,219.8 297.2,253.2 301,207.2 301,207.2 "/>
<polygon fill="#92706A" points="350,219.2 370.8,193.5 345.2,199.6 350,219.2 350,219.2 "/>
<polygon fill="#C8AF93" points="370.8,193.5 351.8,242.2 350,219.2 370.8,193.5 370.8,193.5 "/>
<polygon fill="#92706A" points="350,219.2 336.2,228 351.8,242.2 350,219.2 350,219.2 "/>
<polygon fill="#C8AF93" points="345.2,199.6 340.5,181.5 370.8,193.5 345.2,199.6 345.2,199.6 "/>
<polygon fill="#763236" points="345.2,199.6 319.7,208.5 340.5,181.5 345.2,199.6 345.2,199.6 "/>
<polygon fill="#703034" points="319.7,208.5 350,219.2 345.2,199.6 319.7,208.5 319.7,208.5 "/>
<polygon fill="#AE4E4D" points="319.7,208.5 350,219.2 336.2,228 319.7,208.5 319.7,208.5 "/>
<polygon fill="#743034" points="319.7,208.5 297.2,253.2 336.2,228 319.7,208.5 319.7,208.5 "/>
<polygon fill="#CFB99D" points="336.2,228 334.8,263.2 351.8,242.2 336.2,228 336.2,228 "/>
<polygon fill="#C6B098" points="351.8,242.2 352,268.8 334.8,263.2 351.8,242.2 351.8,242.2 "/>
<polygon fill="#C8AE95" points="352,268.8 346.5,307 334.8,263.2 352,268.8 352,268.8 "/>
<polygon fill="#824C4E" points="334.8,263.2 328.8,319.2 346.5,307 334.8,263.2 334.8,263.2 "/>
<polygon fill="#C8AF93" points="232.8,258 228.2,219 250,253 232.8,258 232.8,258 "/>
<polygon fill="#CFB99D" points="228.2,219 237.5,206.2 250,253 228.2,219 228.2,219 "/>
<polygon fill="#92706A" points="228.2,219 223.6,159.7 237.5,206.2 228.2,219 228.2,219 "/>
<polygon fill="#845455" points="237.5,206.2 239,143.3 223.6,159.7 237.5,206.2 237.5,206.2 "/>
<polygon fill="#8B5759" points="223.6,159.7 227.3,119.7 239,143.3 223.6,159.7 223.6,159.7 "/>
<polygon fill="#AD2C2E" points="254.2,219.8 237.5,206.2 301,207.2 254.2,219.8 254.2,219.8 "/>
<polygon fill="#BF2F2F" points="254.2,219.8 237.5,206.2 250,253 254.2,219.8 254.2,219.8 "/>
<polygon fill="#C42E2F" points="166.5,156.5 166.2,134.1 155,168 166.5,156.5 166.5,156.5 "/>
<polygon fill="#BF2E2F" points="166.5,156.5 193.2,153.6 188.5,178.8 166.5,156.5 166.5,156.5 "/>
<polygon fill="#C8292A" points="166.5,156.5 166.2,134.1 193.2,153.6 166.5,156.5 166.5,156.5 "/>
<polygon fill="#F04B41" points="166.2,134.1 193.7,117.2 193.2,153.6 166.2,134.1 166.2,134.1 "/>
<polygon fill="#CE292C" points="223.6,159.7 193.2,153.6 193.7,117.2 223.6,159.7 223.6,159.7 "/>
<polygon fill="#C62527" points="223.6,159.7 207,198 193.2,153.6 223.6,159.7 223.6,159.7 "/>
<polygon fill="#C92F30" points="223.6,159.7 207,198 228.2,219 223.6,159.7 223.6,159.7 "/>
<polygon fill="#F6E7A7" points="140,113 124,154.8 141.2,144.2 140,113 140,113 "/>
<polygon fill="#F37561" points="168,179.2 145,224.5 155,168 168,179.2 168,179.2 "/>
<polygon fill="#E6AC8B" points="145,224.5 141,261.2 131.2,229 145,224.5 145,224.5 "/>
<polygon fill="#FBD49F" points="124,154.8 155,168 141.2,144.2 124,154.8 124,154.8 "/>
<polygon fill="#FAF7C0" points="124,154.8 118,198 155,168 124,154.8 124,154.8 "/>
<polygon fill="#FBD3A3" points="118,198 145,224.5 155,168 118,198 118,198 "/>
<polygon fill="#F79C80" points="118,198 131.2,229 145,224.5 118,198 118,198 "/>
<polygon fill="#FCE3AA" points="118,198 116.8,253.2 131.2,229 118,198 118,198 "/>
<polygon fill="#F9A885" points="116.8,253.2 112.5,273.5 141,261.2 116.8,253.2 116.8,253.2 "/>
<polygon fill="#F79C80" points="116.8,253.2 131.2,229 141,261.2 116.8,253.2 116.8,253.2 "/>
<polygon fill="#FAE7A9" points="141,261.2 152.8,270 141.2,282.8 141,261.2 141,261.2 "/>
<polygon fill="#FBECAD" points="112.5,273.5 124.5,306.8 141,261.2 112.5,273.5 112.5,273.5 "/>
<polygon fill="#FBDDA4" points="124.5,306.8 133.5,329.5 141.2,282.8 124.5,306.8 124.5,306.8 "/>
<polygon fill="#FCD7A3" points="124.5,306.8 141,261.2 141.2,282.8 124.5,306.8 124.5,306.8 "/>
<polygon fill="#FCD7A3" points="152.8,270 171.8,293.2 141.2,282.8 152.8,270 152.8,270 "/>
<polygon fill="#F39280" points="141.2,282.8 148.5,337.5 133.5,329.5 141.2,282.8 141.2,282.8 "/>
<polygon fill="#F0524C" points="250,253 297.2,253.2 254.2,219.8 250,253 250,253 "/>
<polygon fill="#F04E44" points="297.2,253.2 336.2,228 334.8,263.2 297.2,253.2 297.2,253.2 "/>
<polygon fill="#F15A57" points="258,288.8 250,253 297.2,253.2 258,288.8 258,288.8 "/>
<polygon fill="#F0524A" points="297.2,253.2 328.8,319.2 334.8,263.2 297.2,253.2 297.2,253.2 "/>
<polygon fill="#EF413A" points="267.2,320.3 296.2,287.2 258,288.8 267.2,320.3 267.2,320.3 "/>
<polygon fill="#9F1D21" points="273,339.5 267.2,320.3 287,337.5 273,339.5 273,339.5 "/>
<polygon fill="#C8292A" points="287,337.5 296.2,287.2 267.2,320.3 287,337.5 287,337.5 "/>
<polygon fill="#EF3D37" points="287,337.5 328.8,319.2 296.2,287.2 287,337.5 287,337.5 "/>
<polygon fill="#F15C5C" points="258,288.8 297.2,253.2 296.2,287.2 258,288.8 258,288.8 "/>
<polygon fill="#EF3D36" points="296.2,287.2 328.8,319.2 297.2,253.2 296.2,287.2 296.2,287.2 "/>
<polygon fill="#7D6980" points="383.2,347.2 396.8,387.5 376.8,380 383.2,347.2 383.2,347.2 "/>
<polygon fill="#B3AABB" points="396.6,387.6 422.3,441.2 388.2,410.1 396.6,387.6 396.6,387.6 "/>
<polygon fill="#85738A" points="422.3,441.2 449.5,496.5 402.5,475.8 422.3,441.2 422.3,441.2 "/>
<polygon fill="#9E8D8D" points="449.5,496.5 449,562.5 424,515.5 449.5,496.5 449.5,496.5 "/>
<polygon fill="#8B7678" points="449,562.5 411.5,554.8 429.8,585.5 449,562.5 449,562.5 "/>
<polygon fill="#A18D8F" points="449,562.5 459,594 429.8,585.5 449,562.5 449,562.5 "/>
<polygon fill="#7E6A7B" points="459,594 465.5,638.8 440.8,611.5 459,594 459,594 "/>
<polygon fill="#493655" points="465.5,638.8 461.2,684.8 439.5,647.2 465.5,638.8 465.5,638.8 "/>
<polygon fill="#7C3637" points="461.2,684.8 467.5,736.5 445.5,693.2 461.2,684.8 461.2,684.8 "/>
<polygon fill="#565E5F" points="467.5,736.5 476,752 462.2,750.2 467.5,736.5 467.5,736.5 "/>
<polygon fill="#3F3D67" points="476,752 478.2,764 462.2,750.2 476,752 476,752 "/>
<polygon fill="#8F8083" points="478.2,764 488.2,778.8 463.8,777 478.2,764 478.2,764 "/>
<polygon fill="#523F4E" points="488.2,778.8 478.8,794.8 463.8,777 488.2,778.8 488.2,778.8 "/>
<polygon fill="#46303C" points="478.8,794.8 450.5,794.2 463.8,777 478.8,794.8 478.8,794.8 "/>
<polygon fill="#46303C" points="450.5,794.2 445.8,776 463.8,777 450.5,794.2 450.5,794.2 "/>
<polygon fill="#89787B" points="445.8,776 433,797 450.5,794.2 445.8,776 445.8,776 "/>
<polygon fill="#BFB2B3" points="445.8,776 434,769.8 433,797 445.8,776 445.8,776 "/>
<polygon fill="#BBB1B2" points="434,769.8 449,760 445.8,776 434,769.8 434,769.8 "/>
<polygon fill="#BBB1B2" points="445.8,776 463.8,777 449,760 445.8,776 445.8,776 "/>
<polygon fill="#816866" points="449,760 478.2,764 463.8,777 449,760 449,760 "/>
<polygon fill="#7E7F75" points="434,769.8 437.5,746.2 449,760 434,769.8 434,769.8 "/>
<polygon fill="#2F2F46" points="449,760 462.2,750.2 478.2,764 449,760 449,760 "/>
<polygon fill="#565C60" points="449,760 437.5,746.2 462.2,750.2 449,760 449,760 "/>
<polygon fill="#3B1313" points="437.5,746.2 434.2,722 467.5,736.5 437.5,746.2 437.5,746.2 "/>
<polygon fill="#565E5F" points="437.5,746.2 467.5,736.5 462.2,750.2 437.5,746.2 437.5,746.2 "/>
<polygon fill="#E48690" points="434.2,722 434,721 421.5,678.8 445.5,693.2 434.2,722 434.2,722 "/>
<polygon fill="#933F3C" points="434.2,722 445.5,693.2 467.5,736.5 434.2,722 434.2,722 "/>
<polygon fill="#4C3957" points="439.5,647.2 445.5,693.2 461.2,684.8 439.5,647.2 439.5,647.2 "/>
<polygon fill="#4C3957" points="439.5,647.2 421.5,678.8 445.5,693.2 439.5,647.2 439.5,647.2 "/>
<polygon fill="#352144" points="421.5,678.8 405.8,647 439.5,647.2 421.5,678.8 421.5,678.8 "/>
<polygon fill="#635062" points="405.8,647 410.5,598.8 439.5,647.2 405.8,647 405.8,647 "/>
<polygon fill="#4F3C51" points="440.8,611.5 439.5,647.2 465.5,638.8 440.8,611.5 440.8,611.5 "/>
<polygon fill="#493854" points="410.5,598.8 440.8,611.5 439.5,647.2 410.5,598.8 410.5,598.8 "/>
<polygon fill="#4C3A53" points="410.5,598.8 429.8,585.5 440.8,611.5 410.5,598.8 410.5,598.8 "/>
<polygon fill="#4C3A53" points="429.8,585.5 440.8,611.5 459,594 429.8,585.5 429.8,585.5 "/>
<polygon fill="#A18D8F" points="410.5,598.8 411.5,554.8 429.8,585.5 410.5,598.8 410.5,598.8 "/>
<polygon fill="#A19092" points="411.5,554.8 368.2,508.2 424,515.5 411.5,554.8 411.5,554.8 "/>
<polygon fill="#9E8D8D" points="411.5,554.8 424,515.5 449,562.5 411.5,554.8 411.5,554.8 "/>
<polygon fill="#7E6A81" points="402.5,475.8 424,515.5 449.5,496.5 402.5,475.8 402.5,475.8 "/>
<polygon fill="#7E6A81" points="368.2,508.2 402.5,475.8 424,515.5 368.2,508.2 368.2,508.2 "/>
<polygon fill="#705C6F" points="368.2,508.2 322.8,437.2 402.5,475.8 368.2,508.2 368.2,508.2 "/>
<polygon fill="#756277" points="402.5,475.8 388.2,410 422.3,441.2 402.5,475.8 402.5,475.8 "/>
<polygon fill="#705C70" points="322.8,437.2 388.2,410 402.5,475.8 322.8,437.2 322.8,437.2 "/>
<polygon fill="#736175" points="376.8,380 388.2,410 376.8,380 376.8,380 "/>
<polygon fill="#736175" points="355.5,386.5 376.8,380 388.2,410 355.5,386.5 355.5,386.5 "/>
<polygon fill="#705C70" points="355.5,386.5 322.8,437.2 388.2,410 355.5,386.5 355.5,386.5 "/>
<polygon fill="#4C3A54" points="337,378.8 322.8,437.2 355.5,386.5 337,378.8 337,378.8 "/>
<polygon fill="#4C3951" points="306.8,377 297.8,438 322.8,437.2 306.8,377 306.8,377 "/>
<polygon fill="#331E43" points="306.8,377 322.8,437.2 337,378.8 306.8,377 306.8,377 "/>
<polygon fill="#483651" points="263.8,365.5 297.8,438 306.8,377 263.8,365.5 263.8,365.5 "/>
<polygon fill="#432F52" points="238,367.8 263.8,365.5 265.5,418.5 238,367.8 238,367.8 "/>
<polygon fill="#493852" points="265.5,418.5 263.8,365.5 297.8,438 265.5,418.5 265.5,418.5 "/>
<polygon fill="#56425B" points="265.5,418.5 275.8,473 297.8,438 265.5,418.5 265.5,418.5 "/>
<polygon fill="#432F52" points="265.5,418.5 230.8,392 238,367.8 265.5,418.5 265.5,418.5 "/>
<polygon fill="#7F6B82" points="230.8,392 217.8,404.5 222.2,438 230.8,392 230.8,392 "/>
<polygon fill="#7F6B82" points="217.8,404.5 204.5,406.5 222.2,438 217.8,404.5 217.8,404.5 "/>
<polygon fill="#7F6B82" points="192,409.5 176.5,455.2 204.5,406.5 192,409.5 192,409.5 "/>
<polygon fill="#B6ABBF" points="176.5,455.2 222.2,438 204.5,406.5 176.5,455.2 176.5,455.2 "/>
<polygon fill="#432F52" points="222.2,438 230.8,392 265.5,418.5 222.2,438 222.2,438 "/>
<polygon fill="#705C71" points="222.2,438 275.8,473 265.5,418.5 222.2,438 222.2,438 "/>
<polygon fill="#B6ABBF" points="222.2,438 176.5,455.2 203.2,484.5 222.2,438 222.2,438 "/>
<polygon fill="#705C71" points="222.2,438 275.8,473 247.5,513.4 222.2,438 222.2,438 "/>
<polygon fill="#705C71" points="222.2,438 203.2,484.5 247.5,513.4 222.2,438 222.2,438 "/>
<polygon fill="#7F6B82" points="176.5,455.2 166.5,510.5 203.2,484.5 176.5,455.2 176.5,455.2 "/>
<polygon fill="#705C71" points="203.2,484.5 219.5,559 247.5,513.4 203.2,484.5 203.2,484.5 "/>
<polygon fill="#7F6B82" points="203.2,484.5 166.5,510.5 219.5,559 203.2,484.5 203.2,484.5 "/>
<polygon fill="#D4CCBB" points="166.5,510.5 153.5,561.5 219.5,559 166.5,510.5 166.5,510.5 "/>
<polygon fill="#998A8D" points="153.5,561.5 152.5,590.8 187,597.5 153.5,561.5 153.5,561.5 "/>
<polygon fill="#9F8E8F" points="153.5,561.5 219.5,559 187,597.5 153.5,561.5 153.5,561.5 "/>
<polygon fill="#725F73" points="219.5,559 206.8,614.5 187,597.5 219.5,559 219.5,559 "/>
<polygon fill="#7E6C80" points="152.5,590.8 147.8,629.8 187,597.5 152.5,590.8 152.5,590.8 "/>
<polygon fill="#863A3A" points="187,597.5 189.2,668.8 206.8,614.5 187,597.5 187,597.5 "/>
<polygon fill="#913F3C" points="187,597.5 147.8,629.8 189.2,668.8 187,597.5 187,597.5 "/>
<polygon fill="#B54F4C" points="147.8,629.8 147.5,694.8 189.2,668.8 147.8,629.8 147.8,629.8 "/>
<polygon fill="#AE5455" points="189.2,668.8 170.2,743.8 147.5,694.8 189.2,668.8 189.2,668.8 "/>
<polygon fill="#EC8997" points="147.5,694.8 139.8,733 170.2,743.8 147.5,694.8 147.5,694.8 "/>
<polygon fill="#49575B" points="139.8,733 122,749.5 141.8,764.2 139.8,733 139.8,733 "/>
<polygon fill="#788B7B" points="139.8,733 170.2,743.8 141.8,764.2 139.8,733 139.8,733 "/>
<polygon fill="#1C164F" points="141.8,764.2 174.5,771.2 170.2,743.8 141.8,764.2 141.8,764.2 "/>
<polygon fill="#35284E" points="122,749.5 130.8,768.8 141.8,764.2 122,749.5 122,749.5 "/>
<polygon fill="#7E6465" points="141.8,764.2 143.5,779.2 174.5,771.2 141.8,764.2 141.8,764.2 "/>
<polygon fill="#7E6465" points="141.8,764.2 130.8,768.8 143.5,779.2 141.8,764.2 141.8,764.2 "/>
<polygon fill="#010101" points="130.8,768.8 123.8,782 143.5,779.2 130.8,768.8 130.8,768.8 "/>
<polygon fill="#584751" points="143.5,779.2 175.5,791.5 174.5,771.2 143.5,779.2 143.5,779.2 "/>
<polygon fill="#564452" points="123.8,782 112.8,787.2 133.5,803 123.8,782 123.8,782 "/>
<polygon fill="#3E2A36" points="112.8,787.2 107.5,807.5 133.5,803 112.8,787.2 112.8,787.2 "/>
<polygon fill="#483547" points="133.5,803 152,810.8 143.5,779.2 133.5,803 133.5,803 "/>
<polygon fill="#564452" points="123.8,782 143.5,779.2 133.5,803 123.8,782 123.8,782 "/>
<polygon fill="#5D4B52" points="152,810.8 170.5,817.5 175.5,791.5 152,810.8 152,810.8 "/>
<polygon fill="#5D4B52" points="152,810.8 143.5,779.2 175.5,791.5 152,810.8 152,810.8 "/>
<polygon fill="#010101" points="107.5,807.5 119.5,818.5 133.5,803 107.5,807.5 107.5,807.5 "/>
<polygon fill="#EF3D37" points="371,313.2 352,268.8 346.5,307 371,313.2 "/>
<polygon fill="#EF3D37" points="371,313.2 382,317 352,268.8 371,313.2 "/>
<polygon fill="#AE5251" points="342,159.5 340.5,181.5 370.8,193.5 342,159.5 "/>
<polygon fill="#B25F61" points="342,159.5 344.5,141.8 370.8,193.5 342,159.5 "/>
<polygon fill="#C22D2E" points="400.2,228.8 368,239.2 399,203 400.2,228.8 "/>
<polygon fill="#C82327" points="400.2,228.8 402.5,250.2 368,239.2 400.2,228.8 "/>
<polygon fill="#9F1D21" points="370.8,193.5 368,239.2 352,268.8 351.8,242.2 370.8,193.5 "/>
<polygon fill="#C62527" points="239,143.3 253.3,155.3 237.5,206.2 239,143.3 "/>
<polygon fill="#7E866D" points="301,207.2 319.7,208.5 297.2,253.2 301,207.2 "/>
<polygon fill="#010101" points="478.8,794.8 459,804.5 450.5,794.2 478.8,794.8 "/>
<polygon fill="#010101" points="433,797 459,804.5 450.5,794.2 433,797 "/>
<polygon fill="#010101" points="459,804.5 483,805 478.8,794.8 459,804.5 "/>
<polygon fill="#7D6980" points="376.8,380 388.2,410 396.6,387.6 376.8,380 "/>
<polygon fill="#010101" points="133.5,803 119.5,818.5 152,810.8 "/>
<polygon fill="#010101" points="119.5,818.5 170.5,817.5 152,810.8 "/>
</svg>
