<?xml version="1.0" encoding="utf-8"?>
<svg version="1.1" xmlns="http://www.w3.org/2000/svg" xmlns:xlink="http://www.w3.org/1999/xlink" x="0px" y="0px"
	 width="595.3px" height="841.9px" viewBox="0 0 595.3 841.9" enable-background="new 0 0 595.3 841.9" xml:space="preserve">
	<g id="character">
		<path fill="#DFD7BF" stroke-width="1" stroke="#DFD7BF" d="M220.1,198.4 M220.1,198.4l5.2,40.4L199,255.6l-4.8,14.8l-25.7-4.5l-15.9-14.6l0.4-24.1l-3.4-17.2l4.3-11.6
			l-17.2,1.7l1.3,19.3l-22.8-7.7l-3.4,13.7l14.2,23.2l-20.6-6l-9.9,13.7l11.6,18.5l-8.2,17.2l13.3,20.6l24.9,16.8l-15.9,24.5
			l10.3,64.9l33.1,16.3l9-24.2l-5.1,44l-10.7,23.2l26.2,25.8l-34.4,63.6l-4.5,82.5l46.6,103.1l28.4,44.3l73.5-9l47.7,3l64.9-155.1
			l-13.7-107l32.7-16.3l-22.9-59.6l15.6,15.7l26.2-0.4l38.2-56.3l16.3-36.5l-31.4-53.3l-36.5-19.8l-21.1-15.4l-23.9,0l0.7-23.7
			l-54.1-43.8l21.1,2.1l18.5-17.6l1.7-23.2l-12.9-4.3l4.7-34.8L342.1,88l-44.3-11.2l18-8.6l-16.8-13.3l-19.3-10.7l-18,8.6l-21.1,12.5
			l16.8,16.3l-22.8,21.9l-9.9,30.5l1.3,13.7l-12,33.1L220.1,198.4 M388.7,379.1l0.3-18.3l-2.6-24.6l18.5-3.3l-13.7,31.8L388.7,379.1z
			 M191.9,277.4l-9.4,28.9l-18.7-20.6L191.9,277.4z"/>
		<polygon fill="#F8D4B0" stroke-width="1" stroke="#F8D4B0" points="236,181.2 265.6,183.2 248.9,192.8 236,181.2 236,181.2 "/>
		<polygon fill="#FCC9B2" stroke-width="1" stroke="#FCC9B2" points="265.6,183.2 269.1,173.1 274.7,181.2 265.6,183.2 265.6,183.2 "/>
		<polygon fill="#F3D9BC" stroke-width="1" stroke="#F3D9BC" points="225.3,238.8 242.4,258.6 257,242.2 225.3,238.8 225.3,238.8 "/>
		<polygon fill="#EEDBB9" stroke-width="1" stroke="#EEDBB9" points="242.4,258.6 272.9,264.1 257,242.2 242.4,258.6 242.4,258.6 "/>
		<polygon fill="#F6CCAE" stroke-width="1" stroke="#F6CCAE" points="272.9,264.1 306.9,242.7 257,242.2 272.9,264.1 272.9,264.1 "/>
		<polygon fill="#FDF3D4" stroke-width="1" stroke="#FDF3D4" points="236,181.2 251,156.7 265.6,183.2 236,181.2 236,181.2 "/>
		<polygon fill="#F7BCA9" stroke-width="1" stroke="#F7BCA9" points="251,156.7 269.1,173.1 265.6,183.2 251,156.7 251,156.7 "/>
		<polygon fill="#F6B5A8" stroke-width="1" stroke="#F6B5A8" points="251,156.7 265.6,150.7 269.1,173.1 251,156.7 251,156.7 "/>
		<polygon fill="#DBB0A6" stroke-width="1" stroke="#DBB0A6" points="251,156.7 246.7,140 265.6,150.7 251,156.7 251,156.7 "/>
		<polygon fill="#F4CEB8" stroke-width="1" stroke="#F4CEB8" points="265.6,150.7 282.8,133.5 246.7,140 265.6,150.7 265.6,150.7 "/>
		<polygon fill="#DCACA0" stroke-width="1" stroke="#DCACA0" points="282.8,133.5 310.7,140 300.9,158 282.8,133.5 282.8,133.5 "/>
		<polygon fill="#DCA89B" stroke-width="1" stroke="#DCA89B" points="265.6,150.7 278.5,162.3 269.1,173.1 265.6,150.7 265.6,150.7 "/>
		<polygon fill="#212121" stroke-width="1" stroke="#212121" points="265.6,150.7 282,151.2 278.5,162.3 265.6,150.7 265.6,150.7 "/>
		<polygon fill="#9E8D82" stroke-width="1" stroke="#9E8D82" points="265.6,150.7 282.8,133.5 282,151.2 265.6,150.7 265.6,150.7 "/>
		<polygon fill="#BFA9A1" stroke-width="1" stroke="#BFA9A1" points="282,151.2 300.9,158 282.8,133.5 282,151.2 282,151.2 "/>
		<polygon fill="#212121" stroke-width="1" stroke="#212121" points="282,151.2 278.5,162.3 300.9,158 282,151.2 282,151.2 "/>
		<polygon fill="#523737" stroke-width="1" stroke="#523737" points="246.7,140 226.1,147.7 243.7,149.4 246.7,140 246.7,140 "/>
		<polygon fill="#6A5049" stroke-width="1" stroke="#6A5049" points="246.7,140 251,156.7 243.7,149.4 246.7,140 246.7,140 "/>
		<polygon fill="#771F23" stroke-width="1" stroke="#771F23" points="236,204.4 259.6,210.9 256.2,231.9 236,204.4 236,204.4 "/>
		<polygon fill="#C88C95" stroke-width="1" stroke="#C88C95" points="259.6,210.9 293.1,204 256.2,231.9 259.6,210.9 259.6,210.9 "/>
		<polygon fill="#202121" stroke-width="1" stroke="#202121" points="293.1,204 274.7,181.2 306.5,203.6 293.1,204 293.1,204 "/>
		<polygon fill="#716868" stroke-width="1" stroke="#716868" points="236,181.2 220.1,198.4 236,204.4 236,181.2 236,181.2 "/>
		<polygon fill="#212121" stroke-width="1" stroke="#212121" points="226.1,147.7 240.7,159.7 243.7,149.4 226.1,147.7 226.1,147.7 "/>
		<polygon fill="#202121" stroke-width="1" stroke="#202121" points="240.7,159.7 251,156.7 243.7,149.4 240.7,159.7 240.7,159.7 "/>
		<polygon fill="#DFACA2" stroke-width="1" stroke="#DFACA2" points="300.9,158 310.7,140 328.8,161.5 300.9,158 300.9,158 "/>
		<polygon fill="#E9AFA5" stroke-width="1" stroke="#E9AFA5" points="300.9,158 328.8,161.5 338.2,187.2 300.9,158 300.9,158 "/>
		<polygon fill="#958281" stroke-width="1" stroke="#958281" points="226.1,147.7 224.8,134 246.7,140 226.1,147.7 226.1,147.7 "/>
		<polygon fill="#C19287" stroke-width="1" stroke="#C19287" points="278.5,162.3 288.8,170.9 300.9,158 278.5,162.3 278.5,162.3 "/>
		<polygon fill="#B78489" stroke-width="1" stroke="#B78489" points="226.1,147.7 235.6,168.8 240.7,159.7 226.1,147.7 226.1,147.7 "/>
		<polygon fill="#A98A93" stroke-width="1" stroke="#A98A93" points="235.6,168.8 251,156.7 240.7,159.7 235.6,168.8 235.6,168.8 "/>
		<polygon fill="#B88E8E" stroke-width="1" stroke="#B88E8E" points="235.6,168.8 236,181.2 251,156.7 235.6,168.8 235.6,168.8 "/>
		<polygon fill="#FBC5B5" stroke-width="1" stroke="#FBC5B5" points="269.1,173.1 278.5,162.3 287.9,170.2 288.8,170.9 269.1,173.1 269.1,173.1 "/>
		<polygon fill="#C49382" stroke-width="1" stroke="#C49382" points="269.1,173.1 274.7,181.2 288.8,170.9 269.1,173.1 269.1,173.1 "/>
		<polygon fill="#756127" stroke-width="1" stroke="#756127" points="274.7,181.2 309.5,192 306.5,203.6 274.7,181.2 274.7,181.2 "/>
		<polygon fill="#929178" stroke-width="1" stroke="#929178" points="220.1,198.4 214.1,180.8 236,181.2 220.1,198.4 220.1,198.4 "/>
		<polygon fill="#FAC9B2" stroke-width="1" stroke="#FAC9B2" points="214.1,180.8 226.1,147.7 236,181.2 214.1,180.8 214.1,180.8 "/>
		<polygon fill="#E8B3A7" stroke-width="1" stroke="#E8B3A7" points="236,181.2 226.1,147.7 235.6,168.8 236,181.2 236,181.2 "/>
		<polygon fill="#C8B7A8" stroke-width="1" stroke="#C8B7A8" points="220.1,198.4 225.3,238.8 236,204.4 220.1,198.4 220.1,198.4 "/>
		<polygon fill="#F8D4B0" stroke-width="1" stroke="#F8D4B0" points="236,204.4 256.2,231.9 225.3,238.8 236,204.4 236,204.4 "/>
		<polygon fill="#F3D7B1" stroke-width="1" stroke="#F3D7B1" points="225.3,238.8 256.2,231.9 257,242.2 225.3,238.8 225.3,238.8 "/>
		<polygon fill="#F7DDB9" stroke-width="1" stroke="#F7DDB9" points="257,242.2 256.2,231.9 293.1,204 257,242.2 257,242.2 "/>
		<polygon fill="#F0C1AD" stroke-width="1" stroke="#F0C1AD" points="257,242.2 306.9,242.7 293.1,204 257,242.2 257,242.2 "/>
		<polygon fill="#B68685" stroke-width="1" stroke="#B68685" points="306.9,242.7 332.2,219.9 306.5,203.6 306.9,242.7 306.9,242.7 "/>
		<polygon fill="#F7CEAC" stroke-width="1" stroke="#F7CEAC" points="306.9,242.7 293.1,204 306.5,203.6 306.9,242.7 306.9,242.7 "/>
		<polygon fill="#B49592" stroke-width="1" stroke="#B49592" points="306.5,203.6 309.5,192 332.2,219.9 306.5,203.6 306.5,203.6 "/>
		<polygon fill="#E7BAA4" stroke-width="1" stroke="#E7BAA4" points="274.7,181.2 309.5,192 338.2,187.2 274.7,181.2 274.7,181.2 "/>
		<polygon fill="#B28A8B" stroke-width="1" stroke="#B28A8B" points="309.5,192 332.2,219.9 338.2,187.2 309.5,192 309.5,192 "/>
		<polygon fill="#FCDAC4" stroke-width="1" stroke="#FCDAC4" points="274.7,181.2 288.8,170.9 290.4,171.4 338.2,187.2 274.7,181.2 274.7,181.2 "/>
		<polygon fill="#FBD5BD" stroke-width="1" stroke="#FBD5BD" points="288.8,170.9 289.6,170.1 300.9,158 338.2,187.2 288.8,170.9 288.8,170.9 "/>
		<polygon fill="#F4C4B0" stroke-width="1" stroke="#F4C4B0" points="328.8,161.5 336.1,131.8 310.7,140 328.8,161.5 328.8,161.5 "/>
		<polygon fill="#FCCBB5" stroke-width="1" stroke="#FCCBB5" points="336.1,131.8 317.2,108.6 310.7,140 336.1,131.8 336.1,131.8 "/>
		<polygon fill="#F5C2B0" stroke-width="1" stroke="#F5C2B0" points="310.7,140 282.8,133.5 317.2,108.6 310.7,140 310.7,140 "/>
		<polygon fill="#F4C9B6" stroke-width="1" stroke="#F4C9B6" points="317.2,108.6 277.7,99.6 282.8,133.5 317.2,108.6 317.2,108.6 "/>
		<polygon fill="#DBAEA4" stroke-width="1" stroke="#DBAEA4" points="277.7,99.6 249.3,109.1 246.7,140 277.7,99.6 277.7,99.6 "/>
		<polygon fill="#E1BAA1" stroke-width="1" stroke="#E1BAA1" points="277.7,99.6 246.7,140 282.8,133.5 277.7,99.6 277.7,99.6 "/>
		<polygon fill="#D2A3A0" stroke-width="1" stroke="#D2A3A0" points="249.3,109.1 224.8,134 246.7,140 249.3,109.1 249.3,109.1 "/>
		<polygon fill="#B4A5A3" stroke-width="1" stroke="#B4A5A3" points="224.8,134 234.7,103.5 249.3,109.1 224.8,134 224.8,134 "/>
		<polygon fill="#8B8291" stroke-width="1" stroke="#8B8291" points="234.7,103.5 257.5,81.6 249.3,109.1 234.7,103.5 234.7,103.5 "/>
		<polygon fill="#938590" stroke-width="1" stroke="#938590" points="249.3,109.1 277.7,99.6 257.5,81.6 249.3,109.1 249.3,109.1 "/>
		<polygon fill="#837B7F" stroke-width="1" stroke="#837B7F" points="257.5,81.6 297.9,76.8 277.7,99.6 257.5,81.6 257.5,81.6 "/>
		<polygon fill="#B5A19B" stroke-width="1" stroke="#B5A19B" points="277.7,99.6 317.2,108.6 297.9,76.8 277.7,99.6 277.7,99.6 "/>
		<polygon fill="#8D797D" stroke-width="1" stroke="#8D797D" points="297.9,76.8 342.1,88 317.2,108.6 297.9,76.8 297.9,76.8 "/>
		<polygon fill="#A58E8A" stroke-width="1" stroke="#A58E8A" points="317.2,108.6 336.1,131.8 342.1,88 317.2,108.6 317.2,108.6 "/>
		<polygon fill="#BAB2A1" stroke-width="1" stroke="#BAB2A1" points="342.1,88 365.3,142.1 336.1,131.8 342.1,88 342.1,88 "/>
		<polygon fill="#B0B49F" stroke-width="1" stroke="#B0B49F" points="336.1,131.8 365.3,142.1 360.6,176.9 336.1,131.8 336.1,131.8 "/>
		<polygon fill="#DDCCBC" stroke-width="1" stroke="#DDCCBC" points="338.2,187.2 360.6,176.9 328.8,161.5 338.2,187.2 338.2,187.2 "/>
		<polygon fill="#DFB798" stroke-width="1" stroke="#DFB798" points="360.6,176.9 373.5,181.2 371.8,204.4 360.6,176.9 360.6,176.9 "/>
		<polygon fill="#AA867C" stroke-width="1" stroke="#AA867C" points="371.8,204.4 353.3,222 356.7,199.3 371.8,204.4 371.8,204.4 "/>
		<polygon fill="#DAA694" stroke-width="1" stroke="#DAA694" points="353.3,222 332.2,219.9 356.7,199.3 353.3,222 353.3,222 "/>
		<polygon fill="#71403C" stroke-width="1" stroke="#71403C" points="332.2,219.9 338.2,187.2 356.7,199.3 332.2,219.9 332.2,219.9 "/>
		<polygon fill="#DFB798" stroke-width="1" stroke="#DFB798" points="360.6,176.9 356.7,199.3 338.2,187.2 360.6,176.9 360.6,176.9 "/>
		<polygon fill="#B39783" stroke-width="1" stroke="#B39783" points="360.6,176.9 356.7,199.3 371.8,204.4 360.6,176.9 360.6,176.9 "/>
		<polygon fill="#ECE5C9" stroke-width="1" stroke="#ECE5C9" points="257.5,81.6 240.7,65.2 261.8,52.8 257.5,81.6 257.5,81.6 "/>
		<polygon fill="#9C8B8B" stroke-width="1" stroke="#9C8B8B" points="261.8,52.8 279.8,44.2 299.1,54.9 261.8,52.8 261.8,52.8 "/>
		<polygon fill="#BABAB0" stroke-width="1" stroke="#BABAB0" points="261.8,52.8 297.9,76.8 257.5,81.6 261.8,52.8 261.8,52.8 "/>
		<polygon fill="#BBA79C" stroke-width="1" stroke="#BBA79C" points="261.8,52.8 299.1,54.9 297.9,76.8 261.8,52.8 261.8,52.8 "/>
		<polygon fill="#99898C" stroke-width="1" stroke="#99898C" points="299.1,54.9 315.9,68.2 297.9,76.8 299.1,54.9 299.1,54.9 "/>
		<polygon fill="#65524C" stroke-width="1" stroke="#65524C" points="332.2,219.9 337,258.6 306.9,242.7 332.2,219.9 332.2,219.9 "/>
		<polygon fill="#545725" stroke-width="1" stroke="#545725" points="337,258.6 319.8,307.1 306.9,242.7 337,258.6 337,258.6 "/>
		<polygon fill="#50672E" stroke-width="1" stroke="#50672E" points="242.4,258.6 265.6,322.6 272.9,264.1 242.4,258.6 242.4,258.6 "/>
		<polygon fill="#545725" stroke-width="1" stroke="#545725" points="272.9,264.1 294.9,322.1 306.9,242.7 272.9,264.1 272.9,264.1 "/>
		<polygon fill="#4A5223" stroke-width="1" stroke="#4A5223" points="265.6,322.6 294.9,322.1 272.9,264.1 265.6,322.6 265.6,322.6 "/>
		<polygon fill="#C1B39E" stroke-width="1" stroke="#C1B39E" points="294.9,322.1 319.8,307.1 306.9,242.7 294.9,322.1 294.9,322.1 "/>
		<polygon fill="#E8C8AF" stroke-width="1" stroke="#E8C8AF" points="332.2,219.9 386.4,263.7 337,258.6 332.2,219.9 332.2,219.9 "/>
		<polygon fill="#E8C8AF" stroke-width="1" stroke="#E8C8AF" points="386.4,263.7 384.6,320.4 337,258.6 386.4,263.7 386.4,263.7 "/>
		<polygon fill="#E8C8AF" stroke-width="1" stroke="#E8C8AF" points="225.3,238.8 199,255.6 175.8,326.7 225.3,238.8 225.3,238.8 "/>
		<polygon fill="#65524C" stroke-width="1" stroke="#65524C" points="225.3,238.8 242.4,258.6 229.1,288.6 225.3,238.8 225.3,238.8 "/>
		<polygon fill="#E8C8AF" stroke-width="1" stroke="#E8C8AF" points="225.3,238.8 175.8,326.7 229.1,288.6 225.3,238.8 225.3,238.8 "/>
		<polygon fill="#826D51" stroke-width="1" stroke="#826D51" points="229.1,288.6 242.4,258.6 265.6,322.6 229.1,288.6 229.1,288.6 "/>
		<polygon fill="#E6E2C2" stroke-width="1" stroke="#E6E2C2" points="175.8,326.7 175.5,394.8 212.8,353.9 175.8,326.7 175.8,326.7 "/>
		<polygon fill="#EDE2C5" stroke-width="1" stroke="#EDE2C5" points="175.5,394.8 168.5,454.9 205.1,421 175.5,394.8 175.5,394.8 "/>
		<polygon fill="#D0DCBE" stroke-width="1" stroke="#D0DCBE" points="168.5,454.9 157.8,478.1 184,503.9 168.5,454.9 168.5,454.9 "/>
		<polygon fill="#BAC2AE" stroke-width="1" stroke="#BAC2AE" points="184,503.9 244.6,515.9 227.8,473 184,503.9 184,503.9 "/>
		<polygon fill="#E0D7B5" stroke-width="1" stroke="#E0D7B5" points="244.6,515.9 309.5,519.4 266.9,476.8 244.6,515.9 244.6,515.9 "/>
		<polygon fill="#DAD3B4" stroke-width="1" stroke="#DAD3B4" points="309.5,519.4 366.2,524.5 338.7,491 309.5,519.4 309.5,519.4 "/>
		<polygon fill="#F1D4BC" stroke-width="1" stroke="#F1D4BC" points="366.2,524.5 392.4,529.2 368.7,484.5 366.2,524.5 366.2,524.5 "/>
		<polygon fill="#7E6E6A" stroke-width="1" stroke="#7E6E6A" points="392.4,529.2 425,512.9 389.4,476.4 392.4,529.2 392.4,529.2 "/>
		<polygon fill="#6C6569" stroke-width="1" stroke="#6C6569" points="425,512.9 388.1,416.7 389.4,476.4 425,512.9 425,512.9 "/>
		<polygon fill="#8B8473" stroke-width="1" stroke="#8B8473" points="384.6,320.4 388.9,360.8 358,388.7 384.6,320.4 384.6,320.4 "/>
		<polygon fill="#FFFFFF" stroke-width="1" stroke="#FFFFFF" points="211,386 253.1,392 235.6,435.6 211,386 211,386 "/>
		<polygon fill="#F4E3CC" stroke-width="1" stroke="#F4E3CC" points="302.2,395.4 345.1,396 312.9,446.3 302.2,395.4 302.2,395.4 "/>
		<polygon fill="#D3BEA8" stroke-width="1" stroke="#D3BEA8" points="227.8,473 266.9,476.8 244.6,515.9 227.8,473 227.8,473 "/>
		<polygon fill="#D4C1A6" stroke-width="1" stroke="#D4C1A6" points="266.9,476.8 338.7,491 309.5,519.4 266.9,476.8 266.9,476.8 "/>
		<polygon fill="#B0B59C" stroke-width="1" stroke="#B0B59C" points="184,503.9 168.5,454.9 227.8,473 184,503.9 184,503.9 "/>
		<polygon fill="#C3BCA5" stroke-width="1" stroke="#C3BCA5" points="168.5,454.9 205.1,421 227.8,473 168.5,454.9 168.5,454.9 "/>
		<polygon fill="#C3BCA5" stroke-width="1" stroke="#C3BCA5" points="205.1,421 235.6,435.6 227.8,473 205.1,421 205.1,421 "/>
		<polygon fill="#FEFDF1" stroke-width="1" stroke="#FEFDF1" points="205.1,421 211,386 235.6,435.6 205.1,421 205.1,421 "/>
		<polygon fill="#F9FAE8" stroke-width="1" stroke="#F9FAE8" points="205.1,421 175.5,394.8 211,386 205.1,421 205.1,421 "/>
		<polygon fill="#FAF5E3" stroke-width="1" stroke="#FAF5E3" points="175.5,394.8 212.8,353.9 211,386 175.5,394.8 175.5,394.8 "/>
		<polygon fill="#F9F6E1" stroke-width="1" stroke="#F9F6E1" points="211,386 253.1,392 212.8,353.9 211,386 211,386 "/>
		<polygon fill="#FCF4DA" stroke-width="1" stroke="#FCF4DA" points="212.8,353.9 229.1,288.6 253.1,392 212.8,353.9 212.8,353.9 "/>
		<polygon fill="#FAF1CA" stroke-width="1" stroke="#FAF1CA" points="212.8,353.9 175.8,326.7 229.1,288.6 212.8,353.9 212.8,353.9 "/>
		<polygon fill="#F7F2D4" stroke-width="1" stroke="#F7F2D4" points="302.2,395.4 319.8,307.1 345.1,396 302.2,395.4 302.2,395.4 "/>
		<polygon fill="#AB9789" stroke-width="1" stroke="#AB9789" points="345.1,396 358,388.7 388.1,416.7 345.1,396 345.1,396 "/>
		<polygon fill="#F7E9CC" stroke-width="1" stroke="#F7E9CC" points="345.1,396 319.8,307.1 358,388.7 345.1,396 345.1,396 "/>
		<polygon fill="#FBEFD8" stroke-width="1" stroke="#FBEFD8" points="358,388.7 319.8,307.1 384.6,320.4 358,388.7 358,388.7 "/>
		<polygon fill="#C1B39E" stroke-width="1" stroke="#C1B39E" points="319.8,307.1 337,258.6 384.6,320.4 319.8,307.1 319.8,307.1 "/>
		<polygon fill="#E3DABB" stroke-width="1" stroke="#E3DABB" points="338.7,491 368.7,484.5 366.2,524.5 338.7,491 338.7,491 "/>
		<polygon fill="#B3908B" stroke-width="1" stroke="#B3908B" points="368.7,484.5 389.4,476.4 392.4,529.2 368.7,484.5 368.7,484.5 "/>
		<polygon fill="#D2D1C5" stroke-width="1" stroke="#D2D1C5" points="368.7,484.5 345.1,396 388.1,416.7 368.7,484.5 368.7,484.5 "/>
		<polygon fill="#F2E1C9" stroke-width="1" stroke="#F2E1C9" points="338.7,491 368.7,484.5 345.1,396 338.7,491 338.7,491 "/>
		<polygon fill="#F7F0D4" stroke-width="1" stroke="#F7F0D4" points="338.7,491 266.9,476.8 312.9,446.3 338.7,491 338.7,491 "/>
		<polygon fill="#DED2C1" stroke-width="1" stroke="#DED2C1" points="338.7,491 312.9,446.3 345.1,396 338.7,491 338.7,491 "/>
		<polygon fill="#D2C4B3" stroke-width="1" stroke="#D2C4B3" points="266.9,476.8 235.6,435.6 227.8,473 266.9,476.8 266.9,476.8 "/>
		<polygon fill="#C3BCA5" stroke-width="1" stroke="#C3BCA5" points="266.9,476.8 235.6,435.6 312.9,446.3 266.9,476.8 266.9,476.8 "/>
		<polygon fill="#F3E5CC" stroke-width="1" stroke="#F3E5CC" points="235.6,435.6 253.1,392 312.9,446.3 235.6,435.6 235.6,435.6 "/>
		<polygon fill="#FAFAE6" stroke-width="1" stroke="#FAFAE6" points="253.1,392 302.2,395.4 312.9,446.3 253.1,392 253.1,392 "/>
		<polygon fill="#FDFCEC" stroke-width="1" stroke="#FDFCEC" points="253.1,392 294.9,322.1 302.2,395.4 253.1,392 253.1,392 "/>
		<polygon fill="#C5BCA4" stroke-width="1" stroke="#C5BCA4" points="294.9,322.1 319.8,307.1 302.2,395.4 294.9,322.1 294.9,322.1 "/>
		<polygon fill="#FFFFFC" stroke-width="1" stroke="#FFFFFC" points="265.6,322.6 294.9,322.1 253.1,392 265.6,322.6 265.6,322.6 "/>
		<polygon fill="#FEFDF4" stroke-width="1" stroke="#FEFDF4" points="265.6,322.6 229.1,288.6 253.1,392 265.6,322.6 265.6,322.6 "/>
		<polygon fill="#937D77" stroke-width="1" stroke="#937D77" points="388.1,416.7 358,388.7 388.9,360.8 388.1,416.7 388.1,416.7 "/>
		<polygon fill="#212121" stroke-width="1" stroke="#212121" points="184,503.9 149.6,567.5 222.7,626.8 184,503.9 184,503.9 "/>
		<polygon fill="#202121" stroke-width="1" stroke="#202121" points="392.4,529.2 363.2,585.1 366.2,524.5 392.4,529.2 392.4,529.2 "/>
		<polygon fill="#3B3241" stroke-width="1" stroke="#3B3241" points="184,503.9 244.6,515.9 222.7,626.8 184,503.9 184,503.9 "/>
		<polygon fill="#202120" stroke-width="1" stroke="#202120" points="244.6,515.9 288.4,572.2 309.5,519.4 244.6,515.9 244.6,515.9 "/>
		<polygon fill="#6D2329" stroke-width="1" stroke="#6D2329" points="309.5,519.4 329.6,578.3 366.2,524.5 309.5,519.4 309.5,519.4 "/>
		<polygon fill="#5F1951" stroke-width="1" stroke="#5F1951" points="392.4,529.2 406.1,636.2 363.2,585.1 392.4,529.2 392.4,529.2 "/>
		<polygon fill="#212121" stroke-width="1" stroke="#212121" points="329.6,578.3 366.2,524.5 363.2,585.1 329.6,578.3 329.6,578.3 "/>
		<polygon fill="#754760" stroke-width="1" stroke="#754760" points="329.6,578.3 309.5,519.4 288.4,572.2 329.6,578.3 329.6,578.3 "/>
		<polygon fill="#212323" stroke-width="1" stroke="#212323" points="288.4,572.2 222.7,626.8 244.6,515.9 288.4,572.2 288.4,572.2 "/>
		<polygon fill="#791D49" stroke-width="1" stroke="#791D49" points="288.4,572.2 315.9,651.7 329.6,578.3 288.4,572.2 288.4,572.2 "/>
		<polygon fill="#573739" stroke-width="1" stroke="#573739" points="329.6,578.3 363.2,585.1 315.9,651.7 329.6,578.3 329.6,578.3 "/>
		<polygon fill="#212121" stroke-width="1" stroke="#212121" points="222.7,626.8 288.4,572.2 315.9,651.7 222.7,626.8 222.7,626.8 "/>
		<polygon fill="#1E2221" stroke-width="1" stroke="#1E2221" points="315.9,651.7 406.1,636.2 363.2,585.1 315.9,651.7 315.9,651.7 "/>
		<polygon fill="#212121" stroke-width="1" stroke="#212121" points="222.7,626.8 149.6,567.5 145.1,650 222.7,626.8 222.7,626.8 "/>
		<polygon fill="#212121" stroke-width="1" stroke="#212121" points="222.7,626.8 191.7,753.1 145.1,650 222.7,626.8 222.7,626.8 "/>
		<polygon fill="#1E2526" stroke-width="1" stroke="#1E2526" points="222.7,626.8 315.9,651.7 293.6,788.3 222.7,626.8 222.7,626.8 "/>
		<polygon fill="#281B1D" stroke-width="1" stroke="#281B1D" points="315.9,651.7 406.1,636.2 341.3,791.3 315.9,651.7 315.9,651.7 "/>
		<polygon fill="#212121" stroke-width="1" stroke="#212121" points="222.7,626.8 191.7,753.1 293.6,788.3 222.7,626.8 222.7,626.8 "/>
		<polygon fill="#54222A" stroke-width="1" stroke="#54222A" points="293.6,788.3 341.3,791.3 315.9,651.7 293.6,788.3 293.6,788.3 "/>
		<polygon fill="#212121" stroke-width="1" stroke="#212121" points="191.7,753.1 220.1,797.3 293.6,788.3 191.7,753.1 191.7,753.1 "/>
		<polygon fill="#BBABA2" stroke-width="1" stroke="#BBABA2" points="248.9,192.8 236,204.4 236,181.2 248.9,192.8 "/>
		<polygon fill="#6E7732" stroke-width="1" stroke="#6E7732" points="248.9,192.8 259.6,210.9 236,204.4 248.9,192.8 "/>
		<polygon fill="#8A8E85" stroke-width="1" stroke="#8A8E85" points="248.9,192.8 265.6,183.2 259.6,210.9 248.9,192.8 "/>
		<polygon fill="#9A7561" stroke-width="1" stroke="#9A7561" points="265.6,183.2 274.7,181.2 259.6,210.9 265.6,183.2 "/>
		<polygon fill="#F8D4B0" stroke-width="1" stroke="#F8D4B0" points="274.7,181.2 259.6,210.9 293.1,204 274.7,181.2 "/>
		<polygon fill="#D2C4B3" stroke-width="1" stroke="#D2C4B3" points="389.4,476.4 368.7,484.5 388.1,416.7 389.4,476.4 "/>
		<polygon fill="#DFD7BF" stroke-width="1" stroke="#DFD7BF" points="336.1,131.8 328.8,161.5 360.6,176.9 336.1,131.8 "/>
		<polygon fill="#FEF5D2" stroke-width="1" stroke="#FEF5D2" points="256.2,281.8 288.8,255.1 295.3,270.6 256.2,281.8 256.2,281.8 "/>
		<polygon fill="#FFF5D8" stroke-width="1" stroke="#FFF5D8" points="288.8,255.1 330.9,262 295.3,270.6 288.8,255.1 288.8,255.1 "/>
		<polygon fill="#F4E9CC" stroke-width="1" stroke="#F4E9CC" points="295.3,270.6 340.8,275.3 330.9,262 295.3,270.6 295.3,270.6 "/>
		<polygon fill="#FAEED5" stroke-width="1" stroke="#FAEED5" points="330.9,262 346.8,266.7 340.8,275.3 330.9,262 330.9,262 "/>
		<polygon fill="#BE817D" stroke-width="1" stroke="#BE817D" points="340.8,275.3 344.7,295.5 357.1,300.7 340.8,275.3 340.8,275.3 "/>
		<polygon fill="#DBA099" stroke-width="1" stroke="#DBA099" points="340.8,275.3 346.8,266.7 357.1,300.7 340.8,275.3 340.8,275.3 "/>
		<polygon fill="#EAA09B" stroke-width="1" stroke="#EAA09B" points="357.1,300.7 374.6,305.2 361,287.5 357.1,300.7 357.1,300.7 "/>
		<polygon fill="#D49A8F" stroke-width="1" stroke="#D49A8F" points="361,287.5 346.8,266.7 357.1,300.7 361,287.5 361,287.5 "/>
		<polygon fill="#F9C9B1" stroke-width="1" stroke="#F9C9B1" points="288.8,255.1 272.1,253.8 321.1,247.4 288.8,255.1 288.8,255.1 "/>
		<polygon fill="#FCD6BD" stroke-width="1" stroke="#FCD6BD" points="288.8,255.1 330.9,262 321.1,247.4 288.8,255.1 288.8,255.1 "/>
		<polygon fill="#FCD5B4" stroke-width="1" stroke="#FCD5B4" points="321.1,247.4 339.5,255.1 330.9,262 321.1,247.4 321.1,247.4 "/>
		<polygon fill="#FCD1BD" stroke-width="1" stroke="#FCD1BD" points="330.9,262 346.8,266.7 339.5,255.1 330.9,262 330.9,262 "/>
		<polygon fill="#DCB492" stroke-width="1" stroke="#DCB492" points="345.1,314.4 296.6,340.2 301.7,320.4 345.1,314.4 345.1,314.4 "/>
		<polygon fill="#FCFBE3" stroke-width="1" stroke="#FCFBE3" points="301.7,320.4 278.1,337.2 296.6,340.2 301.7,320.4 301.7,320.4 "/>
		<polygon fill="#E7C7AD" stroke-width="1" stroke="#E7C7AD" points="278.1,337.2 277.7,369.4 296.6,340.2 278.1,337.2 278.1,337.2 "/>
		<polygon fill="#EFCDB5" stroke-width="1" stroke="#EFCDB5" points="345.1,314.4 357.1,300.7 344.7,295.5 345.1,314.4 345.1,314.4 "/>
		<polygon fill="#E8B29F" stroke-width="1" stroke="#E8B29F" points="345.1,314.4 374.4,320.4 357.1,300.7 345.1,314.4 345.1,314.4 "/>
		<polygon fill="#FBC6B9" stroke-width="1" stroke="#FBC6B9" points="344.7,295.5 298.7,283.1 315,305.8 344.7,295.5 344.7,295.5 "/>
		<path fill="none" stroke="#BF57A1" stroke-miterlimit="10" d="M301.7,320.4"/>
		<polygon fill="#E9C7AC" stroke-width="1" stroke="#E9C7AC" points="315,305.8 345.1,314.4 344.7,295.5 315,305.8 315,305.8 "/>
		<polygon fill="#F5DCB5" stroke-width="1" stroke="#F5DCB5" points="315,305.8 301.7,320.4 345.1,314.4 315,305.8 315,305.8 "/>
		<polygon fill="#F7E5C3" stroke-width="1" stroke="#F7E5C3" points="374.4,320.4 350.7,332.9 373.5,338.5 374.4,320.4 374.4,320.4 "/>
		<polygon fill="#D99793" stroke-width="1" stroke="#D99793" points="374.4,320.4 396.6,324.3 373.5,338.5 374.4,320.4 374.4,320.4 "/>
		<polygon fill="#FDF0C7" stroke-width="1" stroke="#FDF0C7" points="350.7,332.9 324.9,356.9 373.5,338.5 350.7,332.9 350.7,332.9 "/>
		<polygon fill="#FCCEB6" stroke-width="1" stroke="#FCCEB6" points="374.4,320.4 356.4,300.7 374.6,305.2 374.4,320.4 374.4,320.4 "/>
		<polygon fill="#FCE9C7" stroke-width="1" stroke="#FCE9C7" points="374.4,320.4 374.6,305.2 396.6,324.3 374.4,320.4 374.4,320.4 "/>
		<polygon fill="#FCCFB5" stroke-width="1" stroke="#FCCFB5" points="374.6,305.2 361,287.5 409.6,287.5 374.6,305.2 374.6,305.2 "/>
		<polygon fill="#FBD8B9" stroke-width="1" stroke="#FBD8B9" points="374.6,305.2 396.6,324.3 409.6,287.5 374.6,305.2 374.6,305.2 "/>
		<polygon fill="#DDA699" stroke-width="1" stroke="#DDA699" points="396.6,324.3 409.6,287.5 428.9,327.3 396.6,324.3 396.6,324.3 "/>
		<polygon fill="#FCD0B6" stroke-width="1" stroke="#FCD0B6" points="409.6,287.5 430.6,302.8 428.9,327.3 409.6,287.5 409.6,287.5 "/>
		<polygon fill="#DA9F9A" stroke-width="1" stroke="#DA9F9A" points="430.6,302.8 451.7,338.5 428.9,327.3 430.6,302.8 430.6,302.8 "/>
		<polygon fill="#877252" stroke-width="1" stroke="#877252" points="451.7,338.5 437.9,368.5 428.9,327.3 451.7,338.5 451.7,338.5 "/>
		<polygon fill="#B08A88" stroke-width="1" stroke="#B08A88" points="396.6,324.3 404.8,332.9 428.9,327.3 396.6,324.3 396.6,324.3 "/>
		<polygon fill="#A2766F" stroke-width="1" stroke="#A2766F" points="396.6,324.3 373.5,338.5 404.8,332.9 396.6,324.3 396.6,324.3 "/>
		<polygon fill="#667D70" stroke-width="1" stroke="#667D70" points="404.8,332.9 427.2,372 428.9,327.3 404.8,332.9 404.8,332.9 "/>
		<polygon fill="#6B6B2C" stroke-width="1" stroke="#6B6B2C" points="427.2,372 437.9,368.5 428.9,327.3 427.2,372 427.2,372 "/>
		<polygon fill="#DFB8A2" stroke-width="1" stroke="#DFB8A2" points="430.6,302.8 467.1,322.6 451.7,338.5 430.6,302.8 430.6,302.8 "/>
		<polygon fill="#B6CAC5" stroke-width="1" stroke="#B6CAC5" points="404.8,332.9 391.1,364.7 427.2,372 404.8,332.9 404.8,332.9 "/>
		<polygon fill="#F9E3CC" stroke-width="1" stroke="#F9E3CC" points="467.1,322.6 498.5,375.9 451.7,338.5 467.1,322.6 467.1,322.6 "/>
		<polygon fill="#E6D1B6" stroke-width="1" stroke="#E6D1B6" points="451.7,338.5 437.9,368.5 482.2,412.4 451.7,338.5 451.7,338.5 "/>
		<polygon fill="#F9FAE9" stroke-width="1" stroke="#F9FAE9" points="451.7,338.5 498.5,375.9 482.2,412.4 451.7,338.5 451.7,338.5 "/>
		<polygon fill="#FDF5D5" stroke-width="1" stroke="#FDF5D5" points="427.2,372 437.9,368.5 444.4,433 427.2,372 427.2,372 "/>
		<polygon fill="#818385" stroke-width="1" stroke="#818385" points="391.1,364.7 410,424.8 427.2,372 391.1,364.7 391.1,364.7 "/>
		<polygon fill="#D8E6DB" stroke-width="1" stroke="#D8E6DB" points="391.1,364.7 379.9,430.8 410,424.8 391.1,364.7 391.1,364.7 "/>
		<polygon fill="#99B7B1" stroke-width="1" stroke="#99B7B1" points="379.9,430.8 417.7,469.1 410,424.8 379.9,430.8 379.9,430.8 "/>
		<polygon fill="#CAC2AD" stroke-width="1" stroke="#CAC2AD" points="417.7,469.1 410,424.8 444.4,433 417.7,469.1 417.7,469.1 "/>
		<polygon fill="#FBFADB" stroke-width="1" stroke="#FBFADB" points="410,424.8 427.2,372 444.4,433 410,424.8 410,424.8 "/>
		<polygon fill="#E5E7D3" stroke-width="1" stroke="#E5E7D3" points="444.4,433 437.9,368.5 482.2,412.4 444.4,433 444.4,433 "/>
		<polygon fill="#CCBDAE" stroke-width="1" stroke="#CCBDAE" points="444.4,433 443.9,468.7 482.2,412.4 444.4,433 444.4,433 "/>
		<polygon fill="#AC918B" stroke-width="1" stroke="#AC918B" points="444.4,433 417.7,469.1 443.9,468.7 444.4,433 444.4,433 "/>
		<polygon fill="#C59E99" stroke-width="1" stroke="#C59E99" points="138,219.5 136.7,200.1 149.6,210 138,219.5 138,219.5 "/>
		<polygon fill="#F8AFAA" stroke-width="1" stroke="#F8AFAA" points="136.7,200.1 153.9,198.4 149.6,210 136.7,200.1 136.7,200.1 "/>
		<polygon fill="#9B796F" stroke-width="1" stroke="#9B796F" points="138,219.5 142.8,230.2 149.6,210 138,219.5 138,219.5 "/>
		<polygon fill="#CA8484" stroke-width="1" stroke="#CA8484" points="149.6,210 153.1,227.2 142.8,230.2 149.6,210 149.6,210 "/>
		<polygon fill="#F2B29F" stroke-width="1" stroke="#F2B29F" points="153.1,227.2 152.6,251.3 142.8,230.2 153.1,227.2 153.1,227.2 "/>
		<polygon fill="#FFFFFB" stroke-width="1" stroke="#FFFFFB" points="142.8,230.2 140.2,242.2 121.3,226.8 142.8,230.2 142.8,230.2 "/>
		<polygon fill="#FFFFFB" stroke-width="1" stroke="#FFFFFB" points="142.8,230.2 138,219.5 121.3,226.8 142.8,230.2 142.8,230.2 "/>
		<polygon fill="#FBFADE" stroke-width="1" stroke="#FBFADE" points="138,219.5 115.3,211.7 121.3,226.8 138,219.5 138,219.5 "/>
		<polygon fill="#EAD9C6" stroke-width="1" stroke="#EAD9C6" points="115.3,211.7 111.8,225.5 121.3,226.8 115.3,211.7 115.3,211.7 "/>
		<polygon fill="#BE938C" stroke-width="1" stroke="#BE938C" points="111.8,225.5 126,248.7 121.3,226.8 111.8,225.5 111.8,225.5 "/>
		<polygon fill="#C77E80" stroke-width="1" stroke="#C77E80" points="121.3,226.8 140.2,242.2 126,248.7 121.3,226.8 121.3,226.8 "/>
		<polygon fill="#FBCFB9" stroke-width="1" stroke="#FBCFB9" points="126,248.7 105.4,242.7 119.1,265 126,248.7 126,248.7 "/>
		<polygon fill="#FCFAE0" stroke-width="1" stroke="#FCFAE0" points="105.4,242.7 95.5,256.4 119.1,265 105.4,242.7 105.4,242.7 "/>
		<polygon fill="#FCFADE" stroke-width="1" stroke="#FCFADE" points="95.5,256.4 107.1,274.9 119.1,265 95.5,256.4 95.5,256.4 "/>
		<polygon fill="#FDFBE5" stroke-width="1" stroke="#FDFBE5" points="107.1,274.9 114,288.2 119.1,265 107.1,274.9 107.1,274.9 "/>
		<polygon fill="#FEF9D5" stroke-width="1" stroke="#FEF9D5" points="107.1,274.9 98.9,292.1 112.3,312.7 107.1,274.9 107.1,274.9 "/>
		<polygon fill="#F6D4BA" stroke-width="1" stroke="#F6D4BA" points="107.1,274.9 114,288.2 112.3,312.7 107.1,274.9 107.1,274.9 "/>
		<polygon fill="#FCE3BF" stroke-width="1" stroke="#FCE3BF" points="112.3,312.7 137.2,329.5 114,288.2 112.3,312.7 112.3,312.7 "/>
		<polygon fill="#DB9B98" stroke-width="1" stroke="#DB9B98" points="140.2,242.2 133.3,259.9 126,248.7 140.2,242.2 140.2,242.2 "/>
		<polygon fill="#F9B3A7" stroke-width="1" stroke="#F9B3A7" points="119.1,265 126,248.7 133.3,259.9 119.1,265 119.1,265 "/>
		<polygon fill="#B1747D" stroke-width="1" stroke="#B1747D" points="119.1,265 132.9,287.8 133.3,259.9 119.1,265 119.1,265 "/>
		<polygon fill="#FEF3CC" stroke-width="1" stroke="#FEF3CC" points="119.1,265 132.9,287.8 114,288.2 119.1,265 119.1,265 "/>
		<polygon fill="#FDFBE4" stroke-width="1" stroke="#FDFBE4" points="114,288.2 147.1,315.3 132.9,287.8 114,288.2 114,288.2 "/>
		<polygon fill="#B78181" stroke-width="1" stroke="#B78181" points="132.9,287.8 163.8,285.6 133.3,259.9 132.9,287.8 132.9,287.8 "/>
		<polygon fill="#D49791" stroke-width="1" stroke="#D49791" points="133.3,259.9 140.2,242.2 152.6,251.3 133.3,259.9 133.3,259.9 "/>
		<polygon fill="#D9B59F" stroke-width="1" stroke="#D9B59F" points="140.2,242.2 142.8,230.2 152.6,251.3 140.2,242.2 140.2,242.2 "/>
		<polygon fill="#FAC3A9" stroke-width="1" stroke="#FAC3A9" points="152.6,251.3 163.8,285.6 133.3,259.9 152.6,251.3 152.6,251.3 "/>
		<polygon fill="#C98880" stroke-width="1" stroke="#C98880" points="152.6,251.3 168.5,265.9 163.8,285.6 152.6,251.3 152.6,251.3 "/>
		<polygon fill="#FDE7BD" stroke-width="1" stroke="#FDE7BD" points="168.5,265.9 207.6,272.7 163.8,285.6 168.5,265.9 168.5,265.9 "/>
		<polygon fill="#213B1E" stroke-width="1" stroke="#213B1E" points="163.8,285.6 166.8,323.4 132.9,287.8 163.8,285.6 163.8,285.6 "/>
		<polygon fill="#5B7C37" stroke-width="1" stroke="#5B7C37" points="147.1,315.3 132.9,287.8 166.8,323.4 147.1,315.3 147.1,315.3 "/>
		<polygon fill="#E3C1A6" stroke-width="1" stroke="#E3C1A6" points="147.1,315.3 137.2,329.5 114,288.2 147.1,315.3 147.1,315.3 "/>
		<polygon fill="#6D9682" stroke-width="1" stroke="#6D9682" points="137.2,329.5 166.8,323.4 147.1,315.3 137.2,329.5 137.2,329.5 "/>
		<polygon fill="#317A5B" stroke-width="1" stroke="#317A5B" points="137.2,329.5 156.1,356.1 166.8,323.4 137.2,329.5 137.2,329.5 "/>
		<polygon fill="#BFD5C9" stroke-width="1" stroke="#BFD5C9" points="166.8,323.4 170.3,348.4 156.1,356.1 166.8,323.4 166.8,323.4 "/>
		<polygon fill="#B8B5A2" stroke-width="1" stroke="#B8B5A2" points="137.2,329.5 121.3,353.9 156.1,356.1 137.2,329.5 137.2,329.5 "/>
		<polygon fill="#CDCEB8" stroke-width="1" stroke="#CDCEB8" points="121.3,353.9 131.6,418.8 156.1,356.1 121.3,353.9 121.3,353.9 "/>
		<polygon fill="#D5D3B2" stroke-width="1" stroke="#D5D3B2" points="131.6,418.8 164.7,435.1 156.1,356.1 131.6,418.8 131.6,418.8 "/>
		<polygon fill="#818E7B" stroke-width="1" stroke="#818E7B" points="164.7,435.1 187.4,373.7 156.1,356.1 164.7,435.1 164.7,435.1 "/>
		<polygon fill="#EBECCF" stroke-width="1" stroke="#EBECCF" points="156.1,356.1 170.3,348.4 187.4,373.7 156.1,356.1 156.1,356.1 "/>
		<polygon fill="#9F959B" stroke-width="1" stroke="#9F959B" points="187.4,373.7 189.2,313.6 170.3,348.4 187.4,373.7 187.4,373.7 "/>
		<polygon fill="#AAA3A4" stroke-width="1" stroke="#AAA3A4" points="170.3,348.4 166.8,323.4 189.2,313.6 170.3,348.4 170.3,348.4 "/>
		<polygon fill="#67858C" stroke-width="1" stroke="#67858C" points="166.8,323.4 163.8,285.6 189.2,313.6 166.8,323.4 166.8,323.4 "/>
	</g>
</svg>
