<?xml version="1.0" encoding="utf-8"?>
<svg version="1.1" xmlns="http://www.w3.org/2000/svg" xmlns:xlink="http://www.w3.org/1999/xlink" x="0px" y="0px"
	 width="595.3px" height="841.9px" viewBox="0 0 595.3 841.9" enable-background="new 0 0 595.3 841.9" xml:space="preserve">
	<g id="character">
		<g>
			<path fill="#5C3C1E" stroke-width="1" stroke="#5C3C1E" d="M572,484.4l-38.8,0.3l-12.6-52.3l51,18.3L541,393.2l-13.5-47.1l-49-64.7l1.4,0.6l7.9-44.5l-23.6-6.1
				l-18.3-9.6l-9.4,30.2l-10.6,8.2l-9.6-17l-13.3-6l5.2-5.8l43-18.6l-20.4-25.6l-47.1-15.7l-22.1-27.3l-34.3-0.6l-25,15.7l-41.9-5.8
				l-23.3,25l51.8,44.2l9.9,34.3l16.4,30.1l-9.7-6.4l-22.3-58.9l-20.9-13.5l-29.7,3.5l-68.9,35.2l-11.9,56.9l17.5,16.6l20.1-9.6
				l13,17.2l28.5,9.8l7-26.2l10,9.2l-2.6,57.6l-45.8-17.5l-189.7-96l-21.1-35.3l13.1,43.2l186.7,99.9l55.4,25.3l0.9,11.8l-23.6,3.5
				l25.3,42.3l18.8-26.2L250.9,412l0.4-7.4l22.7,14l8.3,12.2l4.8-9.6l10.5,2.2l5.6,1.9l2.2,18.6l-13.9,0.1l-29.2,47.1l23.3,45.2
				l-57.8,111.4l25.3,55l64.6-5.2l26.4-55.5l19,34.1L336.2,768l46.9-1.7l26.2-13.1l10-17L452,696l-5.7-7.4L418,629.7l-9.6-74.6
				l39.7,43.6l29.2-24l63.7,53.7l-22.3-84.2l11.6-45.2l21.1,3.8l29.2-10.5l22.3-28.4L572,484.4z M266.6,300l-7.4-17.6l-16.4-10.8
				l26,8.1L266.6,300z M250,309.9l-8.3-20.9l13.5,20.1l10.8-3.1l-7.9,74.5l-5.1-0.7L250,309.9z M259.8,380.6l33.4-38l3.4,28
				l-23.4,11.7L259.8,380.6z"/>
		</g>
		<polygon fill="#2B1122" stroke-width="1" stroke="#2B1122" points="432.8,263.6 445.9,221.7 480,281.9 432.8,263.6 432.8,263.6 "/>
		<polygon fill="#6E4B55" stroke-width="1" stroke="#6E4B55" points="445.9,221.7 464.3,231.3 480,281.9 445.9,221.7 445.9,221.7 "/>
		<polygon fill="#96848D" stroke-width="1" stroke="#96848D" points="464.3,231.3 468.6,160.6 491.3,163.3 464.3,231.3 464.3,231.3 "/>
		<polygon fill="#A69795" stroke-width="1" stroke="#A69795" points="464.3,231.3 502.6,171.1 513.1,176.4 464.3,231.3 464.3,231.3 "/>
		<polygon fill="#5E2333" stroke-width="1" stroke="#5E2333" points="464.3,231.3 487.8,237.4 480,281.9 464.3,231.3 464.3,231.3 "/>
		<polygon fill="#3D2B12" stroke-width="1" stroke="#3D2B12" points="391,231.8 416.3,243.1 354.7,288.7 391,231.8 391,231.8 "/>
		<polygon fill="#8B823E" stroke-width="1" stroke="#8B823E" points="416.3,243.1 425.9,260.1 358.2,309.4 416.3,243.1 416.3,243.1 "/>
		<polygon fill="#ABAF3C" stroke-width="1" stroke="#ABAF3C" points="416.3,243.1 354.7,288.7 358.2,309.4 416.3,243.1 416.3,243.1 "/>
		<polygon fill="#5A4F20" stroke-width="1" stroke="#5A4F20" points="354.7,288.7 333.4,299 358.2,309.4 354.7,288.7 354.7,288.7 "/>
		<polygon fill="#53411A" stroke-width="1" stroke="#53411A" points="333.4,299 339.5,318.2 358.2,309.4 333.4,299 333.4,299 "/>
		<polygon fill="#3E2F14" stroke-width="1" stroke="#3E2F14" points="333.4,299 305.4,280.6 322,308.6 333.4,299 333.4,299 "/>
		<polygon fill="#534E20" stroke-width="1" stroke="#534E20" points="322,308.6 339.5,318.2 333.4,299 322,308.6 322,308.6 "/>
		<polygon fill="#0D0D16" stroke-width="1" stroke="#0D0D16" points="305.4,280.6 283.2,221.7 272.3,252.7 305.4,280.6 305.4,280.6 "/>
		<polygon fill="#080505" stroke-width="1" stroke="#080505" points="272.3,252.7 322,308.6 305.4,280.6 272.3,252.7 272.3,252.7 "/>
		<polygon fill="#5B4A1D" stroke-width="1" stroke="#5B4A1D" points="283.2,221.7 262.2,208.2 232.6,211.7 283.2,221.7 283.2,221.7 "/>
		<polygon fill="#4F3C1E" stroke-width="1" stroke="#4F3C1E" points="232.6,211.7 272.3,252.7 283.2,221.7 232.6,211.7 232.6,211.7 "/>
		<polygon fill="#1B2614" stroke-width="1" stroke="#1B2614" points="232.6,211.7 268.8,279.7 272.3,252.7 232.6,211.7 232.6,211.7 "/>
		<polygon fill="#010101" stroke-width="1" stroke="#010101" points="268.8,279.7 272.3,252.7 322,308.6 268.8,279.7 268.8,279.7 "/>
		<polygon fill="#554A1D" stroke-width="1" stroke="#554A1D" points="339.5,318.2 354.7,385.4 358.2,309.4 339.5,318.2 339.5,318.2 "/>
		<polygon fill="#590E22" stroke-width="1" stroke="#590E22" points="354.7,385.4 384.8,306.8 358.2,309.4 354.7,385.4 354.7,385.4 "/>
		<polygon fill="#692D2B" stroke-width="1" stroke="#692D2B" points="358.2,309.4 384.8,306.8 425.9,260.1 358.2,309.4 358.2,309.4 "/>
		<polygon fill="#692D2B" stroke-width="1" stroke="#692D2B" points="425.9,260.1 452.9,239.2 462.5,248.3 425.9,260.1 425.9,260.1 "/>
		<polygon fill="#DACF45" stroke-width="1" stroke="#DACF45" points="439.8,292 490.4,334.7 471.7,272.3 439.8,292 439.8,292 "/>
		<polygon fill="#F7F082" stroke-width="1" stroke="#F7F082" points="439.8,292 384.8,306.8 449,259.3 439.8,292 439.8,292 "/>
		<polygon fill="#CABF35" stroke-width="1" stroke="#CABF35" points="439.8,292 449,259.3 471.7,272.3 439.8,292 439.8,292 "/>
		<polygon fill="#5A1123" stroke-width="1" stroke="#5A1123" points="384.8,306.8 425.9,260.1 449,259.3 384.8,306.8 384.8,306.8 "/>
		<polygon fill="#5A1123" stroke-width="1" stroke="#5A1123" points="449,259.3 462.5,248.3 425.9,260.1 449,259.3 449,259.3 "/>
		<polygon fill="#75692A" stroke-width="1" stroke="#75692A" points="471.7,272.3 527.5,346.1 490.4,334.7 471.7,272.3 471.7,272.3 "/>
		<polygon fill="#877F3E" stroke-width="1" stroke="#877F3E" points="490.4,334.7 541,393.2 527.5,346.1 490.4,334.7 490.4,334.7 "/>
		<polygon fill="#A38166" stroke-width="1" stroke="#A38166" points="541,393.2 571.6,450.8 520.5,432.5 541,393.2 541,393.2 "/>
		<polygon fill="#5C3C1E" stroke-width="1" stroke="#5C3C1E" points="520.5,432.5 490.4,334.7 541,393.2 520.5,432.5 520.5,432.5 "/>
		<polygon fill="#080505" stroke-width="1" stroke="#080505" points="490.4,334.7 459,367.9 520.5,432.5 490.4,334.7 490.4,334.7 "/>
		<polygon fill="#96726A" stroke-width="1" stroke="#96726A" points="520.5,432.5 533.6,486.6 480,473.6 520.5,432.5 520.5,432.5 "/>
		<polygon fill="#8C676A" stroke-width="1" stroke="#8C676A" points="533.6,486.6 518.8,544.2 480,473.6 533.6,486.6 533.6,486.6 "/>
		<polygon fill="#5C3C1E" stroke-width="1" stroke="#5C3C1E" points="354.7,385.4 459,367.9 384.8,306.8 354.7,385.4 354.7,385.4 "/>
		<polygon fill="#5C3C1E" stroke-width="1" stroke="#5C3C1E" points="384.8,306.8 439.8,292 459,367.9 384.8,306.8 384.8,306.8 "/>
		<polygon fill="#554A1D" stroke-width="1" stroke="#554A1D" points="439.8,292 490.4,334.7 459,367.9 439.8,292 439.8,292 "/>
		<polygon fill="#6B2F2D" stroke-width="1" stroke="#6B2F2D" points="518.8,544.2 541,628.4 477.3,574.7 518.8,544.2 518.8,544.2 "/>
		<polygon fill="#410A35" stroke-width="1" stroke="#410A35" points="477.3,574.7 480,473.6 518.8,544.2 477.3,574.7 477.3,574.7 "/>
		<polygon fill="#5C2C0E" stroke-width="1" stroke="#5C2C0E" points="354.7,385.4 469.1,424.2 459,367.9 354.7,385.4 354.7,385.4 "/>
		<polygon fill="#4D203C" stroke-width="1" stroke="#4D203C" points="469.1,424.2 520.5,432.5 459,367.9 469.1,424.2 469.1,424.2 "/>
		<polygon fill="#341124" stroke-width="1" stroke="#341124" points="469.1,424.2 480,473.6 520.5,432.5 469.1,424.2 469.1,424.2 "/>
		<polygon fill="#843C29" stroke-width="1" stroke="#843C29" points="469.1,424.2 371.3,449.5 480,473.6 469.1,424.2 469.1,424.2 "/>
		<polygon fill="#5C3C1E" stroke-width="1" stroke="#5C3C1E" points="469.1,424.2 371.3,449.5 354.7,385.4 469.1,424.2 469.1,424.2 "/>
		<polygon fill="#5C2C0E" stroke-width="1" stroke="#5C2C0E" points="371.3,449.5 305.4,444.3 354.7,385.4 371.3,449.5 371.3,449.5 "/>
		<polygon fill="#554219" stroke-width="1" stroke="#554219" points="305.4,444.3 354.7,385.4 293.2,342.6 305.4,444.3 305.4,444.3 "/>
		<polygon fill="#7F8344" stroke-width="1" stroke="#7F8344" points="293.2,342.6 322,308.6 354.7,385.4 293.2,342.6 293.2,342.6 "/>
		<polygon fill="#010101" stroke-width="1" stroke="#010101" points="322,308.6 339.5,318.2 354.7,385.4 322,308.6 322,308.6 "/>
		<polygon fill="#2F1E0F" stroke-width="1" stroke="#2F1E0F" points="293.2,342.6 268.8,279.7 322,308.6 293.2,342.6 293.2,342.6 "/>
		<polygon fill="#6F692B" stroke-width="1" stroke="#6F692B" points="293.2,342.6 268.8,279.7 257.9,382.7 293.2,342.6 293.2,342.6 "/>
		<polygon fill="#8A4131" stroke-width="1" stroke="#8A4131" points="480,473.6 477.3,574.7 371.3,449.5 480,473.6 480,473.6 "/>
		<polygon fill="#7C742E" stroke-width="1" stroke="#7C742E" points="288.9,529.8 227.8,647.6 290.6,667.6 288.9,529.8 288.9,529.8 "/>
		<polygon fill="#4D2735" stroke-width="1" stroke="#4D2735" points="227.8,647.6 253.1,702.6 290.6,667.6 227.8,647.6 227.8,647.6 "/>
		<polygon fill="#331219" stroke-width="1" stroke="#331219" points="253.1,702.6 317.6,697.3 290.6,667.6 253.1,702.6 253.1,702.6 "/>
		<polygon fill="#0F0F1E" stroke-width="1" stroke="#0F0F1E" points="317.6,697.3 368.3,590.9 290.6,667.6 317.6,697.3 317.6,697.3 "/>
		<polygon fill="#3E232B" stroke-width="1" stroke="#3E232B" points="290.6,667.6 288.9,529.8 368.3,590.9 290.6,667.6 290.6,667.6 "/>
		<polygon fill="#724F3A" stroke-width="1" stroke="#724F3A" points="232.6,211.7 163.7,246.9 268.8,279.7 232.6,211.7 232.6,211.7 "/>
		<polygon fill="#2F151E" stroke-width="1" stroke="#2F151E" points="477.3,574.7 483.9,532.4 450.3,497 477.3,574.7 477.3,574.7 "/>
		<polygon fill="#13102D" stroke-width="1" stroke="#13102D" points="477.3,574.7 448.1,598.7 408.4,555.1 477.3,574.7 477.3,574.7 "/>
		<polygon fill="#0F0F1E" stroke-width="1" stroke="#0F0F1E" points="477.3,574.7 408.4,555.1 427.2,517.2 477.3,574.7 477.3,574.7 "/>
		<polygon fill="#33373C" stroke-width="1" stroke="#33373C" points="477.3,574.7 450.3,497 427.2,517.2 477.3,574.7 477.3,574.7 "/>
		<polygon fill="#45513A" stroke-width="1" stroke="#45513A" points="450.3,497 422.4,457.8 427.2,517.2 450.3,497 450.3,497 "/>
		<polygon fill="#9E9D36" stroke-width="1" stroke="#9E9D36" points="422.4,457.8 342.3,443.6 353.9,494.7 422.4,457.8 422.4,457.8 "/>
		<polygon fill="#D7E37E" stroke-width="1" stroke="#D7E37E" points="342.3,443.6 291.5,443.8 353.9,494.7 342.3,443.6 342.3,443.6 "/>
		<polygon fill="#617B36" stroke-width="1" stroke="#617B36" points="353.9,494.7 291.5,443.8 262.2,490.9 353.9,494.7 353.9,494.7 "/>
		<polygon fill="#5B2834" stroke-width="1" stroke="#5B2834" points="353.9,494.7 262.2,490.9 290.6,545.9 353.9,494.7 353.9,494.7 "/>
		<polygon fill="#646229" stroke-width="1" stroke="#646229" points="353.9,494.7 427.2,517.2 422.4,457.8 353.9,494.7 353.9,494.7 "/>
		<polygon fill="#503E16" stroke-width="1" stroke="#503E16" points="353.9,494.7 408.4,555.1 427.2,517.2 353.9,494.7 353.9,494.7 "/>
		<polygon fill="#94645E" stroke-width="1" stroke="#94645E" points="353.9,494.7 290.6,545.9 408.4,555.1 353.9,494.7 353.9,494.7 "/>
		<polygon fill="#96726A" stroke-width="1" stroke="#96726A" points="408.4,555.1 402.3,618.8 290.6,545.9 408.4,555.1 408.4,555.1 "/>
		<polygon fill="#692E3B" stroke-width="1" stroke="#692E3B" points="290.6,545.9 363,675.9 402.3,618.8 290.6,545.9 290.6,545.9 "/>
		<polygon fill="#6F2D41" stroke-width="1" stroke="#6F2D41" points="363,675.9 416.7,666.8 402.3,618.8 363,675.9 363,675.9 "/>
		<polygon fill="#5B242E" stroke-width="1" stroke="#5B242E" points="416.7,666.8 372.5,753.4 363,675.9 416.7,666.8 416.7,666.8 "/>
		<polygon fill="#612E33" stroke-width="1" stroke="#612E33" points="363,675.9 336.2,768 372.5,753.4 363,675.9 363,675.9 "/>
		<polygon fill="#865646" stroke-width="1" stroke="#865646" points="372.5,753.4 446.4,688.6 416.7,666.8 372.5,753.4 372.5,753.4 "/>
		<polygon fill="#571C28" stroke-width="1" stroke="#571C28" points="416.7,666.8 418,629.7 446.4,688.6 416.7,666.8 416.7,666.8 "/>
		<polygon fill="#511615" stroke-width="1" stroke="#511615" points="416.7,666.8 402.3,618.8 418,629.7 416.7,666.8 416.7,666.8 "/>
		<polygon fill="#47142A" stroke-width="1" stroke="#47142A" points="418,629.7 408.4,555.1 402.3,618.8 418,629.7 418,629.7 "/>
		<polygon fill="#73423B" stroke-width="1" stroke="#73423B" points="372.5,753.4 419.3,736.1 446.4,688.6 372.5,753.4 372.5,753.4 "/>
		<polygon fill="#4E161F" stroke-width="1" stroke="#4E161F" points="419.3,736.1 452,696 446.4,688.6 419.3,736.1 419.3,736.1 "/>
		<polygon fill="#460B2E" stroke-width="1" stroke="#460B2E" points="332.2,245.2 309.2,195.8 383.1,212.2 332.2,245.2 332.2,245.2 "/>
		<polygon fill="#8E5145" stroke-width="1" stroke="#8E5145" points="309.2,195.8 351.1,174.3 383.1,212.2 309.2,195.8 309.2,195.8 "/>
		<polygon fill="#F2BB7B" stroke-width="1" stroke="#F2BB7B" points="351.1,174.3 383.7,171.4 383.1,212.2 351.1,174.3 351.1,174.3 "/>
		<polygon fill="#774440" stroke-width="1" stroke="#774440" points="383.1,212.2 402.3,203.4 383.7,171.4 383.1,212.2 383.1,212.2 "/>
		<polygon fill="#CFA26F" stroke-width="1" stroke="#CFA26F" points="351.1,174.3 361.6,144.1 383.7,171.4 351.1,174.3 351.1,174.3 "/>
		<polygon fill="#995F59" stroke-width="1" stroke="#995F59" points="351.1,174.3 361.6,144.1 327.2,143.5 351.1,174.3 351.1,174.3 "/>
		<polygon fill="#764850" stroke-width="1" stroke="#764850" points="327.2,143.5 302.2,159.2 351.1,174.3 327.2,143.5 327.2,143.5 "/>
		<polygon fill="#65353C" stroke-width="1" stroke="#65353C" points="302.2,159.2 309.2,195.8 351.1,174.3 302.2,159.2 302.2,159.2 "/>
		<polygon fill="#3D0E2F" stroke-width="1" stroke="#3D0E2F" points="302.2,159.2 292.3,188.3 309.2,195.8 302.2,159.2 302.2,159.2 "/>
		<polygon fill="#B38A68" stroke-width="1" stroke="#B38A68" points="383.1,212.2 402.3,203.4 408.1,231.3 383.1,212.2 383.1,212.2 "/>
		<polygon fill="#B3816F" stroke-width="1" stroke="#B3816F" points="402.3,203.4 430.8,187.1 408.1,231.3 402.3,203.4 402.3,203.4 "/>
		<polygon fill="#FBCB8B" stroke-width="1" stroke="#FBCB8B" points="408.1,231.3 451.2,212.7 430.8,187.1 408.1,231.3 408.1,231.3 "/>
		<polygon fill="#6D3540" stroke-width="1" stroke="#6D3540" points="292.3,188.3 332.2,245.2 309.2,195.8 292.3,188.3 292.3,188.3 "/>
		<polygon fill="#5C2241" stroke-width="1" stroke="#5C2241" points="292.3,188.3 260.3,153.4 288.9,222.6 292.3,188.3 292.3,188.3 "/>
		<polygon fill="#470634" stroke-width="1" stroke="#470634" points="260.3,153.4 237.1,178.4 288.9,222.6 260.3,153.4 260.3,153.4 "/>
		<polygon fill="#360F33" stroke-width="1" stroke="#360F33" points="260.3,153.4 302.2,159.2 292.3,188.3 260.3,153.4 260.3,153.4 "/>
		<polygon fill="#956848" stroke-width="1" stroke="#956848" points="383.7,171.4 430.8,187.1 402.3,203.4 383.7,171.4 383.7,171.4 "/>
		<polygon fill="#2F102D" stroke-width="1" stroke="#2F102D" points="288.9,222.6 298.7,256.9 299.3,229 288.9,222.6 288.9,222.6 "/>
		<polygon fill="#4A3C47" stroke-width="1" stroke="#4A3C47" points="332.2,245.2 332.5,268.6 323.2,266.2 332.2,245.2 332.2,245.2 "/>
		<polygon fill="#492B46" stroke-width="1" stroke="#492B46" points="323.2,266.2 333.1,277.9 332.5,268.6 323.2,266.2 323.2,266.2 "/>
		<polygon fill="#FCEE96" stroke-width="1" stroke="#FCEE96" points="333.1,277.9 346.4,272.1 332.5,268.6 333.1,277.9 333.1,277.9 "/>
		<polygon fill="#927350" stroke-width="1" stroke="#927350" points="346.4,272.1 332.2,245.2 332.5,268.6 346.4,272.1 346.4,272.1 "/>
		<polygon fill="#2F163B" stroke-width="1" stroke="#2F163B" points="332.2,245.2 310.4,245.8 299.3,229 332.2,245.2 332.2,245.2 "/>
		<polygon fill="#40172C" stroke-width="1" stroke="#40172C" points="332.2,245.2 332.2,245.2 383.6,235.2 355.6,249.9 332.2,245.2 332.2,245.2 "/>
		<polygon fill="#3C0E33" stroke-width="1" stroke="#3C0E33" points="288.9,222.6 299.3,229 292.3,188.3 288.9,222.6 288.9,222.6 "/>
		<polygon fill="#2B1022" stroke-width="1" stroke="#2B1022" points="299.3,229 332.2,245.2 292.3,188.3 299.3,229 299.3,229 "/>
		<polygon fill="#733C3B" stroke-width="1" stroke="#733C3B" points="332.2,245.2 383.1,212.2 383.6,235.2 332.2,245.2 332.2,245.2 "/>
		<polygon fill="#996553" stroke-width="1" stroke="#996553" points="383.6,235.2 408.1,231.3 383.1,212.2 383.6,235.2 383.6,235.2 "/>
		<polygon fill="#948081" stroke-width="1" stroke="#948081" points="310.4,245.8 298.7,256.9 299.3,229 310.4,245.8 310.4,245.8 "/>
		<polygon fill="#C49952" stroke-width="1" stroke="#C49952" points="355.8,249.9 377.9,265.1 383.6,235.2 355.8,249.9 355.8,249.9 "/>
		<polygon fill="#865730" stroke-width="1" stroke="#865730" points="377.9,265.1 408.1,231.3 383.6,235.2 377.9,265.1 377.9,265.1 "/>
		<polygon fill="#A57F5F" stroke-width="1" stroke="#A57F5F" points="346.4,272.1 355.8,249.9 332.2,245.2 346.4,272.1 346.4,272.1 "/>
		<polygon fill="#FAF7C3" stroke-width="1" stroke="#FAF7C3" points="346.4,272.1 377.9,265.1 355.8,249.9 346.4,272.1 346.4,272.1 "/>
		<polygon fill="#5E5560" stroke-width="1" stroke="#5E5560" points="323.2,266.2 310.4,245.8 332.2,245.2 323.2,266.2 323.2,266.2 "/>
		<polygon fill="#402D45" stroke-width="1" stroke="#402D45" points="323.2,266.2 298.7,256.9 310.4,245.8 323.2,266.2 323.2,266.2 "/>
		<polygon fill="#321F41" stroke-width="1" stroke="#321F41" points="298.7,256.9 316.2,288.9 323.2,266.2 298.7,256.9 298.7,256.9 "/>
		<polygon fill="#493446" stroke-width="1" stroke="#493446" points="316.2,288.9 333.1,277.9 323.2,266.2 316.2,288.9 316.2,288.9 "/>
		<polygon fill="#F8F18F" stroke-width="1" stroke="#F8F18F" points="346.4,272.1 354.7,288.7 377.9,265.1 346.4,272.1 346.4,272.1 "/>
		<polygon fill="#FBEBA3" stroke-width="1" stroke="#FBEBA3" points="333.1,277.9 354.7,288.7 346.4,272.1 333.1,277.9 333.1,277.9 "/>
		<polygon fill="#74605F" stroke-width="1" stroke="#74605F" points="316.2,288.9 354.7,288.7 333.1,277.9 316.2,288.9 316.2,288.9 "/>
		<polygon fill="#3B2A42" stroke-width="1" stroke="#3B2A42" points="316.2,288.9 333.6,298.8 354.7,288.7 316.2,288.9 316.2,288.9 "/>
		<polygon fill="#A3554F" stroke-width="1" stroke="#A3554F" points="214.7,233.1 240,269.7 163.7,246.9 214.7,233.1 214.7,233.1 "/>
		<polygon fill="#663B45" stroke-width="1" stroke="#663B45" points="163.7,246.9 151.8,303.8 189.4,310.7 163.7,246.9 163.7,246.9 "/>
		<polygon fill="#A78A73" stroke-width="1" stroke="#A78A73" points="151.8,303.8 169.3,320.3 189.4,310.7 151.8,303.8 151.8,303.8 "/>
		<polygon fill="#5E395C" stroke-width="1" stroke="#5E395C" points="163.7,246.9 189.4,310.7 196.4,281.1 163.7,246.9 163.7,246.9 "/>
		<polygon fill="#7D4359" stroke-width="1" stroke="#7D4359" points="163.7,246.9 196.4,281.1 240,269.7 163.7,246.9 163.7,246.9 "/>
		<polygon fill="#4C0D2D" stroke-width="1" stroke="#4C0D2D" points="189.4,310.7 202.4,328 196.4,281.1 189.4,310.7 189.4,310.7 "/>
		<polygon fill="#A0756D" stroke-width="1" stroke="#A0756D" points="202.4,328 230.8,337.8 237.8,311.6 202.4,328 202.4,328 "/>
		<polygon fill="#481022" stroke-width="1" stroke="#481022" points="202.4,328 196.4,281.1 225.9,292 202.4,328 202.4,328 "/>
		<polygon fill="#6D3540" stroke-width="1" stroke="#6D3540" points="202.4,328 237.8,311.6 225.9,292 202.4,328 202.4,328 "/>
		<polygon fill="#77453A" stroke-width="1" stroke="#77453A" points="225.9,292 241.7,288.9 250,309.9 225.9,292 225.9,292 "/>
		<polygon fill="#804241" stroke-width="1" stroke="#804241" points="237.8,311.6 225.9,292 250,309.9 237.8,311.6 237.8,311.6 "/>
		<polygon fill="#77424E" stroke-width="1" stroke="#77424E" points="237.8,311.6 247.8,320.8 250,309.9 237.8,311.6 237.8,311.6 "/>
		<polygon fill="#73222E" stroke-width="1" stroke="#73222E" points="196.4,281.1 240,269.7 225.9,292 196.4,281.1 196.4,281.1 "/>
		<polygon fill="#9C646E" stroke-width="1" stroke="#9C646E" points="240,269.7 259.2,282.4 241.7,288.9 240,269.7 240,269.7 "/>
		<polygon fill="#FBBE96" stroke-width="1" stroke="#FBBE96" points="240,269.7 225.9,292 241.7,288.9 240,269.7 240,269.7 "/>
		<polygon fill="#955957" stroke-width="1" stroke="#955957" points="241.7,288.9 255.3,309 268.8,305.1 241.7,288.9 241.7,288.9 "/>
		<polygon fill="#FCFADC" stroke-width="1" stroke="#FCFADC" points="241.7,288.9 259.2,282.4 268.8,305.1 241.7,288.9 241.7,288.9 "/>
		<polygon fill="#61172F" stroke-width="1" stroke="#61172F" points="305,359.2 312,334.7 348.2,338.7 305,359.2 305,359.2 "/>
		<polygon fill="#803F5C" stroke-width="1" stroke="#803F5C" points="305,359.2 342.5,372.3 348.2,338.7 305,359.2 305,359.2 "/>
		<polygon fill="#5F062E" stroke-width="1" stroke="#5F062E" points="342.5,372.3 349.5,408.9 383.5,409.3 342.5,372.3 342.5,372.3 "/>
		<polygon fill="#934445" stroke-width="1" stroke="#934445" points="342.5,372.3 370.9,355.7 348.2,338.7 342.5,372.3 342.5,372.3 "/>
		<polygon fill="#7D435B" stroke-width="1" stroke="#7D435B" points="342.5,372.3 383.5,409.3 383.1,370.5 342.5,372.3 342.5,372.3 "/>
		<polygon fill="#EA9D81" stroke-width="1" stroke="#EA9D81" points="342.5,372.3 370.9,355.7 383.1,370.5 342.5,372.3 342.5,372.3 "/>
		<polygon fill="#814048" stroke-width="1" stroke="#814048" points="305,359.2 296.7,370.5 342.5,372.3 305,359.2 305,359.2 "/>
		<polygon fill="#ECB384" stroke-width="1" stroke="#ECB384" points="342.5,372.3 349.5,408.9 327.1,381.2 342.5,372.3 342.5,372.3 "/>
		<polygon fill="#FCBD8F" stroke-width="1" stroke="#FCBD8F" points="327.1,381.2 296.7,370.5 342.5,372.3 327.1,381.2 327.1,381.2 "/>
		<polygon fill="#CE928B" stroke-width="1" stroke="#CE928B" points="296.7,370.5 273.1,382.3 292.8,388.8 296.7,370.5 296.7,370.5 "/>
		<polygon fill="#E4986E" stroke-width="1" stroke="#E4986E" points="296.7,370.5 327.1,381.2 308.9,394.9 296.7,370.5 296.7,370.5 "/>
		<polygon fill="#C08C6D" stroke-width="1" stroke="#C08C6D" points="296.7,370.5 292.8,388.8 308.9,394.9 296.7,370.5 296.7,370.5 "/>
		<polygon fill="#FBF9D5" stroke-width="1" stroke="#FBF9D5" points="308.9,394.9 320.3,394.1 327.1,381.2 308.9,394.9 308.9,394.9 "/>
		<polygon fill="#FBCE99" stroke-width="1" stroke="#FBCE99" points="320.3,394.1 326.3,406.2 327.1,381.2 320.3,394.1 320.3,394.1 "/>
		<polygon fill="#F7CAA6" stroke-width="1" stroke="#F7CAA6" points="326.3,406.2 349.5,408.9 327.1,381.2 326.3,406.2 326.3,406.2 "/>
		<polygon fill="#6B273D" stroke-width="1" stroke="#6B273D" points="326.3,406.2 326.3,419.8 349.5,408.9 326.3,406.2 326.3,406.2 "/>
		<polygon fill="#774B56" stroke-width="1" stroke="#774B56" points="326.3,419.8 341.6,424.6 349.5,408.9 326.3,419.8 326.3,419.8 "/>
		<polygon fill="#421124" stroke-width="1" stroke="#421124" points="341.6,424.6 325.1,434.7 326.3,419.8 341.6,424.6 341.6,424.6 "/>
		<polygon fill="#261020" stroke-width="1" stroke="#261020" points="310.7,427.7 326.3,419.8 325.1,434.7 310.7,427.7 310.7,427.7 "/>
		<polygon fill="#885558" stroke-width="1" stroke="#885558" points="273.1,382.3 274,418.5 292.8,388.8 273.1,382.3 273.1,382.3 "/>
		<polygon fill="#E1A683" stroke-width="1" stroke="#E1A683" points="292.8,388.8 287.1,421.1 274,418.5 292.8,388.8 292.8,388.8 "/>
		<polygon fill="#6B1B36" stroke-width="1" stroke="#6B1B36" points="274,418.5 282.3,430.7 287.1,421.1 274,418.5 274,418.5 "/>
		<polygon fill="#995F5E" stroke-width="1" stroke="#995F5E" points="287.1,421.1 297.6,423.3 292.8,388.8 287.1,421.1 287.1,421.1 "/>
		<polygon fill="#9B675E" stroke-width="1" stroke="#9B675E" points="297.6,423.3 308.9,394.9 292.8,388.8 297.6,423.3 297.6,423.3 "/>
		<polygon fill="#8D5654" stroke-width="1" stroke="#8D5654" points="297.6,423.3 326.3,406.2 320.3,394.1 297.6,423.3 297.6,423.3 "/>
		<polygon fill="#864F44" stroke-width="1" stroke="#864F44" points="297.6,423.3 308.9,394.9 320.3,394.1 297.6,423.3 297.6,423.3 "/>
		<polygon fill="#440F26" stroke-width="1" stroke="#440F26" points="297.6,423.3 310.7,427.7 326.3,406.2 297.6,423.3 297.6,423.3 "/>
		<polygon fill="#ACA3A3" stroke-width="1" stroke="#ACA3A3" points="244.8,409.8 250.9,412 246.5,455.6 244.8,409.8 244.8,409.8 "/>
		<polygon fill="#8E7B7E" stroke-width="1" stroke="#8E7B7E" points="244.8,409.8 221.2,413.3 246.5,455.6 244.8,409.8 244.8,409.8 "/>
		<polygon fill="#A69993" stroke-width="1" stroke="#A69993" points="250.9,412 265.3,429.4 246.5,455.6 250.9,412 250.9,412 "/>
		<polygon fill="#847D80" stroke-width="1" stroke="#847D80" points="274,418.5 251.3,404.5 253.1,379.7 274,418.5 274,418.5 "/>
		<polygon fill="#A99594" stroke-width="1" stroke="#A99594" points="253.1,379.7 273.1,382.3 274,418.5 253.1,379.7 253.1,379.7 "/>
		<polygon fill="#664F65" stroke-width="1" stroke="#664F65" points="245.2,378.4 243.9,398 188.5,372.7 245.2,378.4 245.2,378.4 "/>
		<polygon fill="#CBC7B3" stroke-width="1" stroke="#CBC7B3" points="245.2,378.4 199.4,360.9 188.5,372.7 245.2,378.4 245.2,378.4 "/>
		<polygon fill="#C8CBBF" stroke-width="1" stroke="#C8CBBF" points="199.4,360.9 9.8,264.9 188.5,372.7 199.4,360.9 199.4,360.9 "/>
		<polygon fill="#67596A" stroke-width="1" stroke="#67596A" points="188.5,372.7 1.8,272.8 9.8,264.9 188.5,372.7 188.5,372.7 "/>
		<polygon fill="#B1B0AE" stroke-width="1" stroke="#B1B0AE" points="9.8,264.9 -11.3,229.6 1.8,272.8 9.8,264.9 9.8,264.9 "/>
		<polygon fill="#8C675A" stroke-width="1" stroke="#8C675A" points="250.9,412 243.9,398 244.8,409.8 250.9,412 250.9,412 "/>
		<polygon fill="#531A3B" stroke-width="1" stroke="#531A3B" points="243.9,398 253.1,379.7 251.3,404.5 243.9,398 243.9,398 "/>
		<polygon fill="#796A70" stroke-width="1" stroke="#796A70" points="243.9,398 251.3,404.5 250.9,412 243.9,398 243.9,398 "/>
		<polygon fill="#6B4D5C" stroke-width="1" stroke="#6B4D5C" points="243.9,398 245.2,378.4 253.1,379.7 243.9,398 243.9,398 "/>
		<polygon fill="#997977" stroke-width="1" stroke="#997977" points="245.2,378.4 247.8,320.8 253.1,379.7 245.2,378.4 245.2,378.4 "/>
		<polygon fill="#74545A" stroke-width="1" stroke="#74545A" points="253.1,379.7 250,309.9 247.8,320.8 253.1,379.7 253.1,379.7 "/>
		<polygon fill="#716277" stroke-width="1" stroke="#716277" points="325.1,434.7 366.5,453 367.8,435.1 325.1,434.7 325.1,434.7 "/>
		<polygon fill="#9A878F" stroke-width="1" stroke="#9A878F" points="325.1,434.7 341.6,424.6 367.8,435.1 325.1,434.7 325.1,434.7 "/>
		<polygon fill="#412A5B" stroke-width="1" stroke="#412A5B" points="366.5,453 495.2,492.7 367.8,435.1 366.5,453 366.5,453 "/>
		<polygon fill="#54426D" stroke-width="1" stroke="#54426D" points="367.8,435.1 521,484.8 495.2,492.7 367.8,435.1 367.8,435.1 "/>
		<polygon fill="#745C6A" stroke-width="1" stroke="#745C6A" points="495.2,492.7 551.5,502.7 521,484.8 495.2,492.7 495.2,492.7 "/>
		<polygon fill="#41194F" stroke-width="1" stroke="#41194F" points="521,484.8 572,484.4 551.5,502.7 521,484.8 521,484.8 "/>
		<polygon fill="#896A69" stroke-width="1" stroke="#896A69" points="551.5,502.7 580.7,492.2 572,484.4 551.5,502.7 551.5,502.7 "/>
		<polygon fill="#6C5960" stroke-width="1" stroke="#6C5960" points="572,484.4 603,463.9 580.7,492.2 572,484.4 572,484.4 "/>
		<polygon fill="#381123" stroke-width="1" stroke="#381123" points="326.3,406.2 310.7,427.7 326.3,419.8 326.3,406.2 "/>
	</g>
</svg>
